G04 #@! TF.GenerationSoftware,KiCad,Pcbnew,(5.1.4)-1*
G04 #@! TF.CreationDate,2020-11-02T16:34:53-03:00*
G04 #@! TF.ProjectId,snes_feram,736e6573-5f66-4657-9261-6d2e6b696361,rev?*
G04 #@! TF.SameCoordinates,Original*
G04 #@! TF.FileFunction,Paste,Top*
G04 #@! TF.FilePolarity,Positive*
%FSLAX46Y46*%
G04 Gerber Fmt 4.6, Leading zero omitted, Abs format (unit mm)*
G04 Created by KiCad (PCBNEW (5.1.4)-1) date 2020-11-02 16:34:53*
%MOMM*%
%LPD*%
G04 APERTURE LIST*
%ADD10C,0.100000*%
%ADD11C,0.600000*%
G04 APERTURE END LIST*
D10*
G36*
X99605703Y-44363722D02*
G01*
X99620264Y-44365882D01*
X99634543Y-44369459D01*
X99648403Y-44374418D01*
X99661710Y-44380712D01*
X99674336Y-44388280D01*
X99686159Y-44397048D01*
X99697066Y-44406934D01*
X99706952Y-44417841D01*
X99715720Y-44429664D01*
X99723288Y-44442290D01*
X99729582Y-44455597D01*
X99734541Y-44469457D01*
X99738118Y-44483736D01*
X99740278Y-44498297D01*
X99741000Y-44513000D01*
X99741000Y-46263000D01*
X99740278Y-46277703D01*
X99738118Y-46292264D01*
X99734541Y-46306543D01*
X99729582Y-46320403D01*
X99723288Y-46333710D01*
X99715720Y-46346336D01*
X99706952Y-46358159D01*
X99697066Y-46369066D01*
X99686159Y-46378952D01*
X99674336Y-46387720D01*
X99661710Y-46395288D01*
X99648403Y-46401582D01*
X99634543Y-46406541D01*
X99620264Y-46410118D01*
X99605703Y-46412278D01*
X99591000Y-46413000D01*
X99291000Y-46413000D01*
X99276297Y-46412278D01*
X99261736Y-46410118D01*
X99247457Y-46406541D01*
X99233597Y-46401582D01*
X99220290Y-46395288D01*
X99207664Y-46387720D01*
X99195841Y-46378952D01*
X99184934Y-46369066D01*
X99175048Y-46358159D01*
X99166280Y-46346336D01*
X99158712Y-46333710D01*
X99152418Y-46320403D01*
X99147459Y-46306543D01*
X99143882Y-46292264D01*
X99141722Y-46277703D01*
X99141000Y-46263000D01*
X99141000Y-44513000D01*
X99141722Y-44498297D01*
X99143882Y-44483736D01*
X99147459Y-44469457D01*
X99152418Y-44455597D01*
X99158712Y-44442290D01*
X99166280Y-44429664D01*
X99175048Y-44417841D01*
X99184934Y-44406934D01*
X99195841Y-44397048D01*
X99207664Y-44388280D01*
X99220290Y-44380712D01*
X99233597Y-44374418D01*
X99247457Y-44369459D01*
X99261736Y-44365882D01*
X99276297Y-44363722D01*
X99291000Y-44363000D01*
X99591000Y-44363000D01*
X99605703Y-44363722D01*
X99605703Y-44363722D01*
G37*
D11*
X99441000Y-45388000D03*
D10*
G36*
X100875703Y-44363722D02*
G01*
X100890264Y-44365882D01*
X100904543Y-44369459D01*
X100918403Y-44374418D01*
X100931710Y-44380712D01*
X100944336Y-44388280D01*
X100956159Y-44397048D01*
X100967066Y-44406934D01*
X100976952Y-44417841D01*
X100985720Y-44429664D01*
X100993288Y-44442290D01*
X100999582Y-44455597D01*
X101004541Y-44469457D01*
X101008118Y-44483736D01*
X101010278Y-44498297D01*
X101011000Y-44513000D01*
X101011000Y-46263000D01*
X101010278Y-46277703D01*
X101008118Y-46292264D01*
X101004541Y-46306543D01*
X100999582Y-46320403D01*
X100993288Y-46333710D01*
X100985720Y-46346336D01*
X100976952Y-46358159D01*
X100967066Y-46369066D01*
X100956159Y-46378952D01*
X100944336Y-46387720D01*
X100931710Y-46395288D01*
X100918403Y-46401582D01*
X100904543Y-46406541D01*
X100890264Y-46410118D01*
X100875703Y-46412278D01*
X100861000Y-46413000D01*
X100561000Y-46413000D01*
X100546297Y-46412278D01*
X100531736Y-46410118D01*
X100517457Y-46406541D01*
X100503597Y-46401582D01*
X100490290Y-46395288D01*
X100477664Y-46387720D01*
X100465841Y-46378952D01*
X100454934Y-46369066D01*
X100445048Y-46358159D01*
X100436280Y-46346336D01*
X100428712Y-46333710D01*
X100422418Y-46320403D01*
X100417459Y-46306543D01*
X100413882Y-46292264D01*
X100411722Y-46277703D01*
X100411000Y-46263000D01*
X100411000Y-44513000D01*
X100411722Y-44498297D01*
X100413882Y-44483736D01*
X100417459Y-44469457D01*
X100422418Y-44455597D01*
X100428712Y-44442290D01*
X100436280Y-44429664D01*
X100445048Y-44417841D01*
X100454934Y-44406934D01*
X100465841Y-44397048D01*
X100477664Y-44388280D01*
X100490290Y-44380712D01*
X100503597Y-44374418D01*
X100517457Y-44369459D01*
X100531736Y-44365882D01*
X100546297Y-44363722D01*
X100561000Y-44363000D01*
X100861000Y-44363000D01*
X100875703Y-44363722D01*
X100875703Y-44363722D01*
G37*
D11*
X100711000Y-45388000D03*
D10*
G36*
X102145703Y-44363722D02*
G01*
X102160264Y-44365882D01*
X102174543Y-44369459D01*
X102188403Y-44374418D01*
X102201710Y-44380712D01*
X102214336Y-44388280D01*
X102226159Y-44397048D01*
X102237066Y-44406934D01*
X102246952Y-44417841D01*
X102255720Y-44429664D01*
X102263288Y-44442290D01*
X102269582Y-44455597D01*
X102274541Y-44469457D01*
X102278118Y-44483736D01*
X102280278Y-44498297D01*
X102281000Y-44513000D01*
X102281000Y-46263000D01*
X102280278Y-46277703D01*
X102278118Y-46292264D01*
X102274541Y-46306543D01*
X102269582Y-46320403D01*
X102263288Y-46333710D01*
X102255720Y-46346336D01*
X102246952Y-46358159D01*
X102237066Y-46369066D01*
X102226159Y-46378952D01*
X102214336Y-46387720D01*
X102201710Y-46395288D01*
X102188403Y-46401582D01*
X102174543Y-46406541D01*
X102160264Y-46410118D01*
X102145703Y-46412278D01*
X102131000Y-46413000D01*
X101831000Y-46413000D01*
X101816297Y-46412278D01*
X101801736Y-46410118D01*
X101787457Y-46406541D01*
X101773597Y-46401582D01*
X101760290Y-46395288D01*
X101747664Y-46387720D01*
X101735841Y-46378952D01*
X101724934Y-46369066D01*
X101715048Y-46358159D01*
X101706280Y-46346336D01*
X101698712Y-46333710D01*
X101692418Y-46320403D01*
X101687459Y-46306543D01*
X101683882Y-46292264D01*
X101681722Y-46277703D01*
X101681000Y-46263000D01*
X101681000Y-44513000D01*
X101681722Y-44498297D01*
X101683882Y-44483736D01*
X101687459Y-44469457D01*
X101692418Y-44455597D01*
X101698712Y-44442290D01*
X101706280Y-44429664D01*
X101715048Y-44417841D01*
X101724934Y-44406934D01*
X101735841Y-44397048D01*
X101747664Y-44388280D01*
X101760290Y-44380712D01*
X101773597Y-44374418D01*
X101787457Y-44369459D01*
X101801736Y-44365882D01*
X101816297Y-44363722D01*
X101831000Y-44363000D01*
X102131000Y-44363000D01*
X102145703Y-44363722D01*
X102145703Y-44363722D01*
G37*
D11*
X101981000Y-45388000D03*
D10*
G36*
X103415703Y-44363722D02*
G01*
X103430264Y-44365882D01*
X103444543Y-44369459D01*
X103458403Y-44374418D01*
X103471710Y-44380712D01*
X103484336Y-44388280D01*
X103496159Y-44397048D01*
X103507066Y-44406934D01*
X103516952Y-44417841D01*
X103525720Y-44429664D01*
X103533288Y-44442290D01*
X103539582Y-44455597D01*
X103544541Y-44469457D01*
X103548118Y-44483736D01*
X103550278Y-44498297D01*
X103551000Y-44513000D01*
X103551000Y-46263000D01*
X103550278Y-46277703D01*
X103548118Y-46292264D01*
X103544541Y-46306543D01*
X103539582Y-46320403D01*
X103533288Y-46333710D01*
X103525720Y-46346336D01*
X103516952Y-46358159D01*
X103507066Y-46369066D01*
X103496159Y-46378952D01*
X103484336Y-46387720D01*
X103471710Y-46395288D01*
X103458403Y-46401582D01*
X103444543Y-46406541D01*
X103430264Y-46410118D01*
X103415703Y-46412278D01*
X103401000Y-46413000D01*
X103101000Y-46413000D01*
X103086297Y-46412278D01*
X103071736Y-46410118D01*
X103057457Y-46406541D01*
X103043597Y-46401582D01*
X103030290Y-46395288D01*
X103017664Y-46387720D01*
X103005841Y-46378952D01*
X102994934Y-46369066D01*
X102985048Y-46358159D01*
X102976280Y-46346336D01*
X102968712Y-46333710D01*
X102962418Y-46320403D01*
X102957459Y-46306543D01*
X102953882Y-46292264D01*
X102951722Y-46277703D01*
X102951000Y-46263000D01*
X102951000Y-44513000D01*
X102951722Y-44498297D01*
X102953882Y-44483736D01*
X102957459Y-44469457D01*
X102962418Y-44455597D01*
X102968712Y-44442290D01*
X102976280Y-44429664D01*
X102985048Y-44417841D01*
X102994934Y-44406934D01*
X103005841Y-44397048D01*
X103017664Y-44388280D01*
X103030290Y-44380712D01*
X103043597Y-44374418D01*
X103057457Y-44369459D01*
X103071736Y-44365882D01*
X103086297Y-44363722D01*
X103101000Y-44363000D01*
X103401000Y-44363000D01*
X103415703Y-44363722D01*
X103415703Y-44363722D01*
G37*
D11*
X103251000Y-45388000D03*
D10*
G36*
X104685703Y-44363722D02*
G01*
X104700264Y-44365882D01*
X104714543Y-44369459D01*
X104728403Y-44374418D01*
X104741710Y-44380712D01*
X104754336Y-44388280D01*
X104766159Y-44397048D01*
X104777066Y-44406934D01*
X104786952Y-44417841D01*
X104795720Y-44429664D01*
X104803288Y-44442290D01*
X104809582Y-44455597D01*
X104814541Y-44469457D01*
X104818118Y-44483736D01*
X104820278Y-44498297D01*
X104821000Y-44513000D01*
X104821000Y-46263000D01*
X104820278Y-46277703D01*
X104818118Y-46292264D01*
X104814541Y-46306543D01*
X104809582Y-46320403D01*
X104803288Y-46333710D01*
X104795720Y-46346336D01*
X104786952Y-46358159D01*
X104777066Y-46369066D01*
X104766159Y-46378952D01*
X104754336Y-46387720D01*
X104741710Y-46395288D01*
X104728403Y-46401582D01*
X104714543Y-46406541D01*
X104700264Y-46410118D01*
X104685703Y-46412278D01*
X104671000Y-46413000D01*
X104371000Y-46413000D01*
X104356297Y-46412278D01*
X104341736Y-46410118D01*
X104327457Y-46406541D01*
X104313597Y-46401582D01*
X104300290Y-46395288D01*
X104287664Y-46387720D01*
X104275841Y-46378952D01*
X104264934Y-46369066D01*
X104255048Y-46358159D01*
X104246280Y-46346336D01*
X104238712Y-46333710D01*
X104232418Y-46320403D01*
X104227459Y-46306543D01*
X104223882Y-46292264D01*
X104221722Y-46277703D01*
X104221000Y-46263000D01*
X104221000Y-44513000D01*
X104221722Y-44498297D01*
X104223882Y-44483736D01*
X104227459Y-44469457D01*
X104232418Y-44455597D01*
X104238712Y-44442290D01*
X104246280Y-44429664D01*
X104255048Y-44417841D01*
X104264934Y-44406934D01*
X104275841Y-44397048D01*
X104287664Y-44388280D01*
X104300290Y-44380712D01*
X104313597Y-44374418D01*
X104327457Y-44369459D01*
X104341736Y-44365882D01*
X104356297Y-44363722D01*
X104371000Y-44363000D01*
X104671000Y-44363000D01*
X104685703Y-44363722D01*
X104685703Y-44363722D01*
G37*
D11*
X104521000Y-45388000D03*
D10*
G36*
X105955703Y-44363722D02*
G01*
X105970264Y-44365882D01*
X105984543Y-44369459D01*
X105998403Y-44374418D01*
X106011710Y-44380712D01*
X106024336Y-44388280D01*
X106036159Y-44397048D01*
X106047066Y-44406934D01*
X106056952Y-44417841D01*
X106065720Y-44429664D01*
X106073288Y-44442290D01*
X106079582Y-44455597D01*
X106084541Y-44469457D01*
X106088118Y-44483736D01*
X106090278Y-44498297D01*
X106091000Y-44513000D01*
X106091000Y-46263000D01*
X106090278Y-46277703D01*
X106088118Y-46292264D01*
X106084541Y-46306543D01*
X106079582Y-46320403D01*
X106073288Y-46333710D01*
X106065720Y-46346336D01*
X106056952Y-46358159D01*
X106047066Y-46369066D01*
X106036159Y-46378952D01*
X106024336Y-46387720D01*
X106011710Y-46395288D01*
X105998403Y-46401582D01*
X105984543Y-46406541D01*
X105970264Y-46410118D01*
X105955703Y-46412278D01*
X105941000Y-46413000D01*
X105641000Y-46413000D01*
X105626297Y-46412278D01*
X105611736Y-46410118D01*
X105597457Y-46406541D01*
X105583597Y-46401582D01*
X105570290Y-46395288D01*
X105557664Y-46387720D01*
X105545841Y-46378952D01*
X105534934Y-46369066D01*
X105525048Y-46358159D01*
X105516280Y-46346336D01*
X105508712Y-46333710D01*
X105502418Y-46320403D01*
X105497459Y-46306543D01*
X105493882Y-46292264D01*
X105491722Y-46277703D01*
X105491000Y-46263000D01*
X105491000Y-44513000D01*
X105491722Y-44498297D01*
X105493882Y-44483736D01*
X105497459Y-44469457D01*
X105502418Y-44455597D01*
X105508712Y-44442290D01*
X105516280Y-44429664D01*
X105525048Y-44417841D01*
X105534934Y-44406934D01*
X105545841Y-44397048D01*
X105557664Y-44388280D01*
X105570290Y-44380712D01*
X105583597Y-44374418D01*
X105597457Y-44369459D01*
X105611736Y-44365882D01*
X105626297Y-44363722D01*
X105641000Y-44363000D01*
X105941000Y-44363000D01*
X105955703Y-44363722D01*
X105955703Y-44363722D01*
G37*
D11*
X105791000Y-45388000D03*
D10*
G36*
X107225703Y-44363722D02*
G01*
X107240264Y-44365882D01*
X107254543Y-44369459D01*
X107268403Y-44374418D01*
X107281710Y-44380712D01*
X107294336Y-44388280D01*
X107306159Y-44397048D01*
X107317066Y-44406934D01*
X107326952Y-44417841D01*
X107335720Y-44429664D01*
X107343288Y-44442290D01*
X107349582Y-44455597D01*
X107354541Y-44469457D01*
X107358118Y-44483736D01*
X107360278Y-44498297D01*
X107361000Y-44513000D01*
X107361000Y-46263000D01*
X107360278Y-46277703D01*
X107358118Y-46292264D01*
X107354541Y-46306543D01*
X107349582Y-46320403D01*
X107343288Y-46333710D01*
X107335720Y-46346336D01*
X107326952Y-46358159D01*
X107317066Y-46369066D01*
X107306159Y-46378952D01*
X107294336Y-46387720D01*
X107281710Y-46395288D01*
X107268403Y-46401582D01*
X107254543Y-46406541D01*
X107240264Y-46410118D01*
X107225703Y-46412278D01*
X107211000Y-46413000D01*
X106911000Y-46413000D01*
X106896297Y-46412278D01*
X106881736Y-46410118D01*
X106867457Y-46406541D01*
X106853597Y-46401582D01*
X106840290Y-46395288D01*
X106827664Y-46387720D01*
X106815841Y-46378952D01*
X106804934Y-46369066D01*
X106795048Y-46358159D01*
X106786280Y-46346336D01*
X106778712Y-46333710D01*
X106772418Y-46320403D01*
X106767459Y-46306543D01*
X106763882Y-46292264D01*
X106761722Y-46277703D01*
X106761000Y-46263000D01*
X106761000Y-44513000D01*
X106761722Y-44498297D01*
X106763882Y-44483736D01*
X106767459Y-44469457D01*
X106772418Y-44455597D01*
X106778712Y-44442290D01*
X106786280Y-44429664D01*
X106795048Y-44417841D01*
X106804934Y-44406934D01*
X106815841Y-44397048D01*
X106827664Y-44388280D01*
X106840290Y-44380712D01*
X106853597Y-44374418D01*
X106867457Y-44369459D01*
X106881736Y-44365882D01*
X106896297Y-44363722D01*
X106911000Y-44363000D01*
X107211000Y-44363000D01*
X107225703Y-44363722D01*
X107225703Y-44363722D01*
G37*
D11*
X107061000Y-45388000D03*
D10*
G36*
X108495703Y-44363722D02*
G01*
X108510264Y-44365882D01*
X108524543Y-44369459D01*
X108538403Y-44374418D01*
X108551710Y-44380712D01*
X108564336Y-44388280D01*
X108576159Y-44397048D01*
X108587066Y-44406934D01*
X108596952Y-44417841D01*
X108605720Y-44429664D01*
X108613288Y-44442290D01*
X108619582Y-44455597D01*
X108624541Y-44469457D01*
X108628118Y-44483736D01*
X108630278Y-44498297D01*
X108631000Y-44513000D01*
X108631000Y-46263000D01*
X108630278Y-46277703D01*
X108628118Y-46292264D01*
X108624541Y-46306543D01*
X108619582Y-46320403D01*
X108613288Y-46333710D01*
X108605720Y-46346336D01*
X108596952Y-46358159D01*
X108587066Y-46369066D01*
X108576159Y-46378952D01*
X108564336Y-46387720D01*
X108551710Y-46395288D01*
X108538403Y-46401582D01*
X108524543Y-46406541D01*
X108510264Y-46410118D01*
X108495703Y-46412278D01*
X108481000Y-46413000D01*
X108181000Y-46413000D01*
X108166297Y-46412278D01*
X108151736Y-46410118D01*
X108137457Y-46406541D01*
X108123597Y-46401582D01*
X108110290Y-46395288D01*
X108097664Y-46387720D01*
X108085841Y-46378952D01*
X108074934Y-46369066D01*
X108065048Y-46358159D01*
X108056280Y-46346336D01*
X108048712Y-46333710D01*
X108042418Y-46320403D01*
X108037459Y-46306543D01*
X108033882Y-46292264D01*
X108031722Y-46277703D01*
X108031000Y-46263000D01*
X108031000Y-44513000D01*
X108031722Y-44498297D01*
X108033882Y-44483736D01*
X108037459Y-44469457D01*
X108042418Y-44455597D01*
X108048712Y-44442290D01*
X108056280Y-44429664D01*
X108065048Y-44417841D01*
X108074934Y-44406934D01*
X108085841Y-44397048D01*
X108097664Y-44388280D01*
X108110290Y-44380712D01*
X108123597Y-44374418D01*
X108137457Y-44369459D01*
X108151736Y-44365882D01*
X108166297Y-44363722D01*
X108181000Y-44363000D01*
X108481000Y-44363000D01*
X108495703Y-44363722D01*
X108495703Y-44363722D01*
G37*
D11*
X108331000Y-45388000D03*
D10*
G36*
X109765703Y-44363722D02*
G01*
X109780264Y-44365882D01*
X109794543Y-44369459D01*
X109808403Y-44374418D01*
X109821710Y-44380712D01*
X109834336Y-44388280D01*
X109846159Y-44397048D01*
X109857066Y-44406934D01*
X109866952Y-44417841D01*
X109875720Y-44429664D01*
X109883288Y-44442290D01*
X109889582Y-44455597D01*
X109894541Y-44469457D01*
X109898118Y-44483736D01*
X109900278Y-44498297D01*
X109901000Y-44513000D01*
X109901000Y-46263000D01*
X109900278Y-46277703D01*
X109898118Y-46292264D01*
X109894541Y-46306543D01*
X109889582Y-46320403D01*
X109883288Y-46333710D01*
X109875720Y-46346336D01*
X109866952Y-46358159D01*
X109857066Y-46369066D01*
X109846159Y-46378952D01*
X109834336Y-46387720D01*
X109821710Y-46395288D01*
X109808403Y-46401582D01*
X109794543Y-46406541D01*
X109780264Y-46410118D01*
X109765703Y-46412278D01*
X109751000Y-46413000D01*
X109451000Y-46413000D01*
X109436297Y-46412278D01*
X109421736Y-46410118D01*
X109407457Y-46406541D01*
X109393597Y-46401582D01*
X109380290Y-46395288D01*
X109367664Y-46387720D01*
X109355841Y-46378952D01*
X109344934Y-46369066D01*
X109335048Y-46358159D01*
X109326280Y-46346336D01*
X109318712Y-46333710D01*
X109312418Y-46320403D01*
X109307459Y-46306543D01*
X109303882Y-46292264D01*
X109301722Y-46277703D01*
X109301000Y-46263000D01*
X109301000Y-44513000D01*
X109301722Y-44498297D01*
X109303882Y-44483736D01*
X109307459Y-44469457D01*
X109312418Y-44455597D01*
X109318712Y-44442290D01*
X109326280Y-44429664D01*
X109335048Y-44417841D01*
X109344934Y-44406934D01*
X109355841Y-44397048D01*
X109367664Y-44388280D01*
X109380290Y-44380712D01*
X109393597Y-44374418D01*
X109407457Y-44369459D01*
X109421736Y-44365882D01*
X109436297Y-44363722D01*
X109451000Y-44363000D01*
X109751000Y-44363000D01*
X109765703Y-44363722D01*
X109765703Y-44363722D01*
G37*
D11*
X109601000Y-45388000D03*
D10*
G36*
X111035703Y-44363722D02*
G01*
X111050264Y-44365882D01*
X111064543Y-44369459D01*
X111078403Y-44374418D01*
X111091710Y-44380712D01*
X111104336Y-44388280D01*
X111116159Y-44397048D01*
X111127066Y-44406934D01*
X111136952Y-44417841D01*
X111145720Y-44429664D01*
X111153288Y-44442290D01*
X111159582Y-44455597D01*
X111164541Y-44469457D01*
X111168118Y-44483736D01*
X111170278Y-44498297D01*
X111171000Y-44513000D01*
X111171000Y-46263000D01*
X111170278Y-46277703D01*
X111168118Y-46292264D01*
X111164541Y-46306543D01*
X111159582Y-46320403D01*
X111153288Y-46333710D01*
X111145720Y-46346336D01*
X111136952Y-46358159D01*
X111127066Y-46369066D01*
X111116159Y-46378952D01*
X111104336Y-46387720D01*
X111091710Y-46395288D01*
X111078403Y-46401582D01*
X111064543Y-46406541D01*
X111050264Y-46410118D01*
X111035703Y-46412278D01*
X111021000Y-46413000D01*
X110721000Y-46413000D01*
X110706297Y-46412278D01*
X110691736Y-46410118D01*
X110677457Y-46406541D01*
X110663597Y-46401582D01*
X110650290Y-46395288D01*
X110637664Y-46387720D01*
X110625841Y-46378952D01*
X110614934Y-46369066D01*
X110605048Y-46358159D01*
X110596280Y-46346336D01*
X110588712Y-46333710D01*
X110582418Y-46320403D01*
X110577459Y-46306543D01*
X110573882Y-46292264D01*
X110571722Y-46277703D01*
X110571000Y-46263000D01*
X110571000Y-44513000D01*
X110571722Y-44498297D01*
X110573882Y-44483736D01*
X110577459Y-44469457D01*
X110582418Y-44455597D01*
X110588712Y-44442290D01*
X110596280Y-44429664D01*
X110605048Y-44417841D01*
X110614934Y-44406934D01*
X110625841Y-44397048D01*
X110637664Y-44388280D01*
X110650290Y-44380712D01*
X110663597Y-44374418D01*
X110677457Y-44369459D01*
X110691736Y-44365882D01*
X110706297Y-44363722D01*
X110721000Y-44363000D01*
X111021000Y-44363000D01*
X111035703Y-44363722D01*
X111035703Y-44363722D01*
G37*
D11*
X110871000Y-45388000D03*
D10*
G36*
X112305703Y-44363722D02*
G01*
X112320264Y-44365882D01*
X112334543Y-44369459D01*
X112348403Y-44374418D01*
X112361710Y-44380712D01*
X112374336Y-44388280D01*
X112386159Y-44397048D01*
X112397066Y-44406934D01*
X112406952Y-44417841D01*
X112415720Y-44429664D01*
X112423288Y-44442290D01*
X112429582Y-44455597D01*
X112434541Y-44469457D01*
X112438118Y-44483736D01*
X112440278Y-44498297D01*
X112441000Y-44513000D01*
X112441000Y-46263000D01*
X112440278Y-46277703D01*
X112438118Y-46292264D01*
X112434541Y-46306543D01*
X112429582Y-46320403D01*
X112423288Y-46333710D01*
X112415720Y-46346336D01*
X112406952Y-46358159D01*
X112397066Y-46369066D01*
X112386159Y-46378952D01*
X112374336Y-46387720D01*
X112361710Y-46395288D01*
X112348403Y-46401582D01*
X112334543Y-46406541D01*
X112320264Y-46410118D01*
X112305703Y-46412278D01*
X112291000Y-46413000D01*
X111991000Y-46413000D01*
X111976297Y-46412278D01*
X111961736Y-46410118D01*
X111947457Y-46406541D01*
X111933597Y-46401582D01*
X111920290Y-46395288D01*
X111907664Y-46387720D01*
X111895841Y-46378952D01*
X111884934Y-46369066D01*
X111875048Y-46358159D01*
X111866280Y-46346336D01*
X111858712Y-46333710D01*
X111852418Y-46320403D01*
X111847459Y-46306543D01*
X111843882Y-46292264D01*
X111841722Y-46277703D01*
X111841000Y-46263000D01*
X111841000Y-44513000D01*
X111841722Y-44498297D01*
X111843882Y-44483736D01*
X111847459Y-44469457D01*
X111852418Y-44455597D01*
X111858712Y-44442290D01*
X111866280Y-44429664D01*
X111875048Y-44417841D01*
X111884934Y-44406934D01*
X111895841Y-44397048D01*
X111907664Y-44388280D01*
X111920290Y-44380712D01*
X111933597Y-44374418D01*
X111947457Y-44369459D01*
X111961736Y-44365882D01*
X111976297Y-44363722D01*
X111991000Y-44363000D01*
X112291000Y-44363000D01*
X112305703Y-44363722D01*
X112305703Y-44363722D01*
G37*
D11*
X112141000Y-45388000D03*
D10*
G36*
X113575703Y-44363722D02*
G01*
X113590264Y-44365882D01*
X113604543Y-44369459D01*
X113618403Y-44374418D01*
X113631710Y-44380712D01*
X113644336Y-44388280D01*
X113656159Y-44397048D01*
X113667066Y-44406934D01*
X113676952Y-44417841D01*
X113685720Y-44429664D01*
X113693288Y-44442290D01*
X113699582Y-44455597D01*
X113704541Y-44469457D01*
X113708118Y-44483736D01*
X113710278Y-44498297D01*
X113711000Y-44513000D01*
X113711000Y-46263000D01*
X113710278Y-46277703D01*
X113708118Y-46292264D01*
X113704541Y-46306543D01*
X113699582Y-46320403D01*
X113693288Y-46333710D01*
X113685720Y-46346336D01*
X113676952Y-46358159D01*
X113667066Y-46369066D01*
X113656159Y-46378952D01*
X113644336Y-46387720D01*
X113631710Y-46395288D01*
X113618403Y-46401582D01*
X113604543Y-46406541D01*
X113590264Y-46410118D01*
X113575703Y-46412278D01*
X113561000Y-46413000D01*
X113261000Y-46413000D01*
X113246297Y-46412278D01*
X113231736Y-46410118D01*
X113217457Y-46406541D01*
X113203597Y-46401582D01*
X113190290Y-46395288D01*
X113177664Y-46387720D01*
X113165841Y-46378952D01*
X113154934Y-46369066D01*
X113145048Y-46358159D01*
X113136280Y-46346336D01*
X113128712Y-46333710D01*
X113122418Y-46320403D01*
X113117459Y-46306543D01*
X113113882Y-46292264D01*
X113111722Y-46277703D01*
X113111000Y-46263000D01*
X113111000Y-44513000D01*
X113111722Y-44498297D01*
X113113882Y-44483736D01*
X113117459Y-44469457D01*
X113122418Y-44455597D01*
X113128712Y-44442290D01*
X113136280Y-44429664D01*
X113145048Y-44417841D01*
X113154934Y-44406934D01*
X113165841Y-44397048D01*
X113177664Y-44388280D01*
X113190290Y-44380712D01*
X113203597Y-44374418D01*
X113217457Y-44369459D01*
X113231736Y-44365882D01*
X113246297Y-44363722D01*
X113261000Y-44363000D01*
X113561000Y-44363000D01*
X113575703Y-44363722D01*
X113575703Y-44363722D01*
G37*
D11*
X113411000Y-45388000D03*
D10*
G36*
X114845703Y-44363722D02*
G01*
X114860264Y-44365882D01*
X114874543Y-44369459D01*
X114888403Y-44374418D01*
X114901710Y-44380712D01*
X114914336Y-44388280D01*
X114926159Y-44397048D01*
X114937066Y-44406934D01*
X114946952Y-44417841D01*
X114955720Y-44429664D01*
X114963288Y-44442290D01*
X114969582Y-44455597D01*
X114974541Y-44469457D01*
X114978118Y-44483736D01*
X114980278Y-44498297D01*
X114981000Y-44513000D01*
X114981000Y-46263000D01*
X114980278Y-46277703D01*
X114978118Y-46292264D01*
X114974541Y-46306543D01*
X114969582Y-46320403D01*
X114963288Y-46333710D01*
X114955720Y-46346336D01*
X114946952Y-46358159D01*
X114937066Y-46369066D01*
X114926159Y-46378952D01*
X114914336Y-46387720D01*
X114901710Y-46395288D01*
X114888403Y-46401582D01*
X114874543Y-46406541D01*
X114860264Y-46410118D01*
X114845703Y-46412278D01*
X114831000Y-46413000D01*
X114531000Y-46413000D01*
X114516297Y-46412278D01*
X114501736Y-46410118D01*
X114487457Y-46406541D01*
X114473597Y-46401582D01*
X114460290Y-46395288D01*
X114447664Y-46387720D01*
X114435841Y-46378952D01*
X114424934Y-46369066D01*
X114415048Y-46358159D01*
X114406280Y-46346336D01*
X114398712Y-46333710D01*
X114392418Y-46320403D01*
X114387459Y-46306543D01*
X114383882Y-46292264D01*
X114381722Y-46277703D01*
X114381000Y-46263000D01*
X114381000Y-44513000D01*
X114381722Y-44498297D01*
X114383882Y-44483736D01*
X114387459Y-44469457D01*
X114392418Y-44455597D01*
X114398712Y-44442290D01*
X114406280Y-44429664D01*
X114415048Y-44417841D01*
X114424934Y-44406934D01*
X114435841Y-44397048D01*
X114447664Y-44388280D01*
X114460290Y-44380712D01*
X114473597Y-44374418D01*
X114487457Y-44369459D01*
X114501736Y-44365882D01*
X114516297Y-44363722D01*
X114531000Y-44363000D01*
X114831000Y-44363000D01*
X114845703Y-44363722D01*
X114845703Y-44363722D01*
G37*
D11*
X114681000Y-45388000D03*
D10*
G36*
X116115703Y-44363722D02*
G01*
X116130264Y-44365882D01*
X116144543Y-44369459D01*
X116158403Y-44374418D01*
X116171710Y-44380712D01*
X116184336Y-44388280D01*
X116196159Y-44397048D01*
X116207066Y-44406934D01*
X116216952Y-44417841D01*
X116225720Y-44429664D01*
X116233288Y-44442290D01*
X116239582Y-44455597D01*
X116244541Y-44469457D01*
X116248118Y-44483736D01*
X116250278Y-44498297D01*
X116251000Y-44513000D01*
X116251000Y-46263000D01*
X116250278Y-46277703D01*
X116248118Y-46292264D01*
X116244541Y-46306543D01*
X116239582Y-46320403D01*
X116233288Y-46333710D01*
X116225720Y-46346336D01*
X116216952Y-46358159D01*
X116207066Y-46369066D01*
X116196159Y-46378952D01*
X116184336Y-46387720D01*
X116171710Y-46395288D01*
X116158403Y-46401582D01*
X116144543Y-46406541D01*
X116130264Y-46410118D01*
X116115703Y-46412278D01*
X116101000Y-46413000D01*
X115801000Y-46413000D01*
X115786297Y-46412278D01*
X115771736Y-46410118D01*
X115757457Y-46406541D01*
X115743597Y-46401582D01*
X115730290Y-46395288D01*
X115717664Y-46387720D01*
X115705841Y-46378952D01*
X115694934Y-46369066D01*
X115685048Y-46358159D01*
X115676280Y-46346336D01*
X115668712Y-46333710D01*
X115662418Y-46320403D01*
X115657459Y-46306543D01*
X115653882Y-46292264D01*
X115651722Y-46277703D01*
X115651000Y-46263000D01*
X115651000Y-44513000D01*
X115651722Y-44498297D01*
X115653882Y-44483736D01*
X115657459Y-44469457D01*
X115662418Y-44455597D01*
X115668712Y-44442290D01*
X115676280Y-44429664D01*
X115685048Y-44417841D01*
X115694934Y-44406934D01*
X115705841Y-44397048D01*
X115717664Y-44388280D01*
X115730290Y-44380712D01*
X115743597Y-44374418D01*
X115757457Y-44369459D01*
X115771736Y-44365882D01*
X115786297Y-44363722D01*
X115801000Y-44363000D01*
X116101000Y-44363000D01*
X116115703Y-44363722D01*
X116115703Y-44363722D01*
G37*
D11*
X115951000Y-45388000D03*
D10*
G36*
X116115703Y-53663722D02*
G01*
X116130264Y-53665882D01*
X116144543Y-53669459D01*
X116158403Y-53674418D01*
X116171710Y-53680712D01*
X116184336Y-53688280D01*
X116196159Y-53697048D01*
X116207066Y-53706934D01*
X116216952Y-53717841D01*
X116225720Y-53729664D01*
X116233288Y-53742290D01*
X116239582Y-53755597D01*
X116244541Y-53769457D01*
X116248118Y-53783736D01*
X116250278Y-53798297D01*
X116251000Y-53813000D01*
X116251000Y-55563000D01*
X116250278Y-55577703D01*
X116248118Y-55592264D01*
X116244541Y-55606543D01*
X116239582Y-55620403D01*
X116233288Y-55633710D01*
X116225720Y-55646336D01*
X116216952Y-55658159D01*
X116207066Y-55669066D01*
X116196159Y-55678952D01*
X116184336Y-55687720D01*
X116171710Y-55695288D01*
X116158403Y-55701582D01*
X116144543Y-55706541D01*
X116130264Y-55710118D01*
X116115703Y-55712278D01*
X116101000Y-55713000D01*
X115801000Y-55713000D01*
X115786297Y-55712278D01*
X115771736Y-55710118D01*
X115757457Y-55706541D01*
X115743597Y-55701582D01*
X115730290Y-55695288D01*
X115717664Y-55687720D01*
X115705841Y-55678952D01*
X115694934Y-55669066D01*
X115685048Y-55658159D01*
X115676280Y-55646336D01*
X115668712Y-55633710D01*
X115662418Y-55620403D01*
X115657459Y-55606543D01*
X115653882Y-55592264D01*
X115651722Y-55577703D01*
X115651000Y-55563000D01*
X115651000Y-53813000D01*
X115651722Y-53798297D01*
X115653882Y-53783736D01*
X115657459Y-53769457D01*
X115662418Y-53755597D01*
X115668712Y-53742290D01*
X115676280Y-53729664D01*
X115685048Y-53717841D01*
X115694934Y-53706934D01*
X115705841Y-53697048D01*
X115717664Y-53688280D01*
X115730290Y-53680712D01*
X115743597Y-53674418D01*
X115757457Y-53669459D01*
X115771736Y-53665882D01*
X115786297Y-53663722D01*
X115801000Y-53663000D01*
X116101000Y-53663000D01*
X116115703Y-53663722D01*
X116115703Y-53663722D01*
G37*
D11*
X115951000Y-54688000D03*
D10*
G36*
X114845703Y-53663722D02*
G01*
X114860264Y-53665882D01*
X114874543Y-53669459D01*
X114888403Y-53674418D01*
X114901710Y-53680712D01*
X114914336Y-53688280D01*
X114926159Y-53697048D01*
X114937066Y-53706934D01*
X114946952Y-53717841D01*
X114955720Y-53729664D01*
X114963288Y-53742290D01*
X114969582Y-53755597D01*
X114974541Y-53769457D01*
X114978118Y-53783736D01*
X114980278Y-53798297D01*
X114981000Y-53813000D01*
X114981000Y-55563000D01*
X114980278Y-55577703D01*
X114978118Y-55592264D01*
X114974541Y-55606543D01*
X114969582Y-55620403D01*
X114963288Y-55633710D01*
X114955720Y-55646336D01*
X114946952Y-55658159D01*
X114937066Y-55669066D01*
X114926159Y-55678952D01*
X114914336Y-55687720D01*
X114901710Y-55695288D01*
X114888403Y-55701582D01*
X114874543Y-55706541D01*
X114860264Y-55710118D01*
X114845703Y-55712278D01*
X114831000Y-55713000D01*
X114531000Y-55713000D01*
X114516297Y-55712278D01*
X114501736Y-55710118D01*
X114487457Y-55706541D01*
X114473597Y-55701582D01*
X114460290Y-55695288D01*
X114447664Y-55687720D01*
X114435841Y-55678952D01*
X114424934Y-55669066D01*
X114415048Y-55658159D01*
X114406280Y-55646336D01*
X114398712Y-55633710D01*
X114392418Y-55620403D01*
X114387459Y-55606543D01*
X114383882Y-55592264D01*
X114381722Y-55577703D01*
X114381000Y-55563000D01*
X114381000Y-53813000D01*
X114381722Y-53798297D01*
X114383882Y-53783736D01*
X114387459Y-53769457D01*
X114392418Y-53755597D01*
X114398712Y-53742290D01*
X114406280Y-53729664D01*
X114415048Y-53717841D01*
X114424934Y-53706934D01*
X114435841Y-53697048D01*
X114447664Y-53688280D01*
X114460290Y-53680712D01*
X114473597Y-53674418D01*
X114487457Y-53669459D01*
X114501736Y-53665882D01*
X114516297Y-53663722D01*
X114531000Y-53663000D01*
X114831000Y-53663000D01*
X114845703Y-53663722D01*
X114845703Y-53663722D01*
G37*
D11*
X114681000Y-54688000D03*
D10*
G36*
X113575703Y-53663722D02*
G01*
X113590264Y-53665882D01*
X113604543Y-53669459D01*
X113618403Y-53674418D01*
X113631710Y-53680712D01*
X113644336Y-53688280D01*
X113656159Y-53697048D01*
X113667066Y-53706934D01*
X113676952Y-53717841D01*
X113685720Y-53729664D01*
X113693288Y-53742290D01*
X113699582Y-53755597D01*
X113704541Y-53769457D01*
X113708118Y-53783736D01*
X113710278Y-53798297D01*
X113711000Y-53813000D01*
X113711000Y-55563000D01*
X113710278Y-55577703D01*
X113708118Y-55592264D01*
X113704541Y-55606543D01*
X113699582Y-55620403D01*
X113693288Y-55633710D01*
X113685720Y-55646336D01*
X113676952Y-55658159D01*
X113667066Y-55669066D01*
X113656159Y-55678952D01*
X113644336Y-55687720D01*
X113631710Y-55695288D01*
X113618403Y-55701582D01*
X113604543Y-55706541D01*
X113590264Y-55710118D01*
X113575703Y-55712278D01*
X113561000Y-55713000D01*
X113261000Y-55713000D01*
X113246297Y-55712278D01*
X113231736Y-55710118D01*
X113217457Y-55706541D01*
X113203597Y-55701582D01*
X113190290Y-55695288D01*
X113177664Y-55687720D01*
X113165841Y-55678952D01*
X113154934Y-55669066D01*
X113145048Y-55658159D01*
X113136280Y-55646336D01*
X113128712Y-55633710D01*
X113122418Y-55620403D01*
X113117459Y-55606543D01*
X113113882Y-55592264D01*
X113111722Y-55577703D01*
X113111000Y-55563000D01*
X113111000Y-53813000D01*
X113111722Y-53798297D01*
X113113882Y-53783736D01*
X113117459Y-53769457D01*
X113122418Y-53755597D01*
X113128712Y-53742290D01*
X113136280Y-53729664D01*
X113145048Y-53717841D01*
X113154934Y-53706934D01*
X113165841Y-53697048D01*
X113177664Y-53688280D01*
X113190290Y-53680712D01*
X113203597Y-53674418D01*
X113217457Y-53669459D01*
X113231736Y-53665882D01*
X113246297Y-53663722D01*
X113261000Y-53663000D01*
X113561000Y-53663000D01*
X113575703Y-53663722D01*
X113575703Y-53663722D01*
G37*
D11*
X113411000Y-54688000D03*
D10*
G36*
X112305703Y-53663722D02*
G01*
X112320264Y-53665882D01*
X112334543Y-53669459D01*
X112348403Y-53674418D01*
X112361710Y-53680712D01*
X112374336Y-53688280D01*
X112386159Y-53697048D01*
X112397066Y-53706934D01*
X112406952Y-53717841D01*
X112415720Y-53729664D01*
X112423288Y-53742290D01*
X112429582Y-53755597D01*
X112434541Y-53769457D01*
X112438118Y-53783736D01*
X112440278Y-53798297D01*
X112441000Y-53813000D01*
X112441000Y-55563000D01*
X112440278Y-55577703D01*
X112438118Y-55592264D01*
X112434541Y-55606543D01*
X112429582Y-55620403D01*
X112423288Y-55633710D01*
X112415720Y-55646336D01*
X112406952Y-55658159D01*
X112397066Y-55669066D01*
X112386159Y-55678952D01*
X112374336Y-55687720D01*
X112361710Y-55695288D01*
X112348403Y-55701582D01*
X112334543Y-55706541D01*
X112320264Y-55710118D01*
X112305703Y-55712278D01*
X112291000Y-55713000D01*
X111991000Y-55713000D01*
X111976297Y-55712278D01*
X111961736Y-55710118D01*
X111947457Y-55706541D01*
X111933597Y-55701582D01*
X111920290Y-55695288D01*
X111907664Y-55687720D01*
X111895841Y-55678952D01*
X111884934Y-55669066D01*
X111875048Y-55658159D01*
X111866280Y-55646336D01*
X111858712Y-55633710D01*
X111852418Y-55620403D01*
X111847459Y-55606543D01*
X111843882Y-55592264D01*
X111841722Y-55577703D01*
X111841000Y-55563000D01*
X111841000Y-53813000D01*
X111841722Y-53798297D01*
X111843882Y-53783736D01*
X111847459Y-53769457D01*
X111852418Y-53755597D01*
X111858712Y-53742290D01*
X111866280Y-53729664D01*
X111875048Y-53717841D01*
X111884934Y-53706934D01*
X111895841Y-53697048D01*
X111907664Y-53688280D01*
X111920290Y-53680712D01*
X111933597Y-53674418D01*
X111947457Y-53669459D01*
X111961736Y-53665882D01*
X111976297Y-53663722D01*
X111991000Y-53663000D01*
X112291000Y-53663000D01*
X112305703Y-53663722D01*
X112305703Y-53663722D01*
G37*
D11*
X112141000Y-54688000D03*
D10*
G36*
X111035703Y-53663722D02*
G01*
X111050264Y-53665882D01*
X111064543Y-53669459D01*
X111078403Y-53674418D01*
X111091710Y-53680712D01*
X111104336Y-53688280D01*
X111116159Y-53697048D01*
X111127066Y-53706934D01*
X111136952Y-53717841D01*
X111145720Y-53729664D01*
X111153288Y-53742290D01*
X111159582Y-53755597D01*
X111164541Y-53769457D01*
X111168118Y-53783736D01*
X111170278Y-53798297D01*
X111171000Y-53813000D01*
X111171000Y-55563000D01*
X111170278Y-55577703D01*
X111168118Y-55592264D01*
X111164541Y-55606543D01*
X111159582Y-55620403D01*
X111153288Y-55633710D01*
X111145720Y-55646336D01*
X111136952Y-55658159D01*
X111127066Y-55669066D01*
X111116159Y-55678952D01*
X111104336Y-55687720D01*
X111091710Y-55695288D01*
X111078403Y-55701582D01*
X111064543Y-55706541D01*
X111050264Y-55710118D01*
X111035703Y-55712278D01*
X111021000Y-55713000D01*
X110721000Y-55713000D01*
X110706297Y-55712278D01*
X110691736Y-55710118D01*
X110677457Y-55706541D01*
X110663597Y-55701582D01*
X110650290Y-55695288D01*
X110637664Y-55687720D01*
X110625841Y-55678952D01*
X110614934Y-55669066D01*
X110605048Y-55658159D01*
X110596280Y-55646336D01*
X110588712Y-55633710D01*
X110582418Y-55620403D01*
X110577459Y-55606543D01*
X110573882Y-55592264D01*
X110571722Y-55577703D01*
X110571000Y-55563000D01*
X110571000Y-53813000D01*
X110571722Y-53798297D01*
X110573882Y-53783736D01*
X110577459Y-53769457D01*
X110582418Y-53755597D01*
X110588712Y-53742290D01*
X110596280Y-53729664D01*
X110605048Y-53717841D01*
X110614934Y-53706934D01*
X110625841Y-53697048D01*
X110637664Y-53688280D01*
X110650290Y-53680712D01*
X110663597Y-53674418D01*
X110677457Y-53669459D01*
X110691736Y-53665882D01*
X110706297Y-53663722D01*
X110721000Y-53663000D01*
X111021000Y-53663000D01*
X111035703Y-53663722D01*
X111035703Y-53663722D01*
G37*
D11*
X110871000Y-54688000D03*
D10*
G36*
X109765703Y-53663722D02*
G01*
X109780264Y-53665882D01*
X109794543Y-53669459D01*
X109808403Y-53674418D01*
X109821710Y-53680712D01*
X109834336Y-53688280D01*
X109846159Y-53697048D01*
X109857066Y-53706934D01*
X109866952Y-53717841D01*
X109875720Y-53729664D01*
X109883288Y-53742290D01*
X109889582Y-53755597D01*
X109894541Y-53769457D01*
X109898118Y-53783736D01*
X109900278Y-53798297D01*
X109901000Y-53813000D01*
X109901000Y-55563000D01*
X109900278Y-55577703D01*
X109898118Y-55592264D01*
X109894541Y-55606543D01*
X109889582Y-55620403D01*
X109883288Y-55633710D01*
X109875720Y-55646336D01*
X109866952Y-55658159D01*
X109857066Y-55669066D01*
X109846159Y-55678952D01*
X109834336Y-55687720D01*
X109821710Y-55695288D01*
X109808403Y-55701582D01*
X109794543Y-55706541D01*
X109780264Y-55710118D01*
X109765703Y-55712278D01*
X109751000Y-55713000D01*
X109451000Y-55713000D01*
X109436297Y-55712278D01*
X109421736Y-55710118D01*
X109407457Y-55706541D01*
X109393597Y-55701582D01*
X109380290Y-55695288D01*
X109367664Y-55687720D01*
X109355841Y-55678952D01*
X109344934Y-55669066D01*
X109335048Y-55658159D01*
X109326280Y-55646336D01*
X109318712Y-55633710D01*
X109312418Y-55620403D01*
X109307459Y-55606543D01*
X109303882Y-55592264D01*
X109301722Y-55577703D01*
X109301000Y-55563000D01*
X109301000Y-53813000D01*
X109301722Y-53798297D01*
X109303882Y-53783736D01*
X109307459Y-53769457D01*
X109312418Y-53755597D01*
X109318712Y-53742290D01*
X109326280Y-53729664D01*
X109335048Y-53717841D01*
X109344934Y-53706934D01*
X109355841Y-53697048D01*
X109367664Y-53688280D01*
X109380290Y-53680712D01*
X109393597Y-53674418D01*
X109407457Y-53669459D01*
X109421736Y-53665882D01*
X109436297Y-53663722D01*
X109451000Y-53663000D01*
X109751000Y-53663000D01*
X109765703Y-53663722D01*
X109765703Y-53663722D01*
G37*
D11*
X109601000Y-54688000D03*
D10*
G36*
X108495703Y-53663722D02*
G01*
X108510264Y-53665882D01*
X108524543Y-53669459D01*
X108538403Y-53674418D01*
X108551710Y-53680712D01*
X108564336Y-53688280D01*
X108576159Y-53697048D01*
X108587066Y-53706934D01*
X108596952Y-53717841D01*
X108605720Y-53729664D01*
X108613288Y-53742290D01*
X108619582Y-53755597D01*
X108624541Y-53769457D01*
X108628118Y-53783736D01*
X108630278Y-53798297D01*
X108631000Y-53813000D01*
X108631000Y-55563000D01*
X108630278Y-55577703D01*
X108628118Y-55592264D01*
X108624541Y-55606543D01*
X108619582Y-55620403D01*
X108613288Y-55633710D01*
X108605720Y-55646336D01*
X108596952Y-55658159D01*
X108587066Y-55669066D01*
X108576159Y-55678952D01*
X108564336Y-55687720D01*
X108551710Y-55695288D01*
X108538403Y-55701582D01*
X108524543Y-55706541D01*
X108510264Y-55710118D01*
X108495703Y-55712278D01*
X108481000Y-55713000D01*
X108181000Y-55713000D01*
X108166297Y-55712278D01*
X108151736Y-55710118D01*
X108137457Y-55706541D01*
X108123597Y-55701582D01*
X108110290Y-55695288D01*
X108097664Y-55687720D01*
X108085841Y-55678952D01*
X108074934Y-55669066D01*
X108065048Y-55658159D01*
X108056280Y-55646336D01*
X108048712Y-55633710D01*
X108042418Y-55620403D01*
X108037459Y-55606543D01*
X108033882Y-55592264D01*
X108031722Y-55577703D01*
X108031000Y-55563000D01*
X108031000Y-53813000D01*
X108031722Y-53798297D01*
X108033882Y-53783736D01*
X108037459Y-53769457D01*
X108042418Y-53755597D01*
X108048712Y-53742290D01*
X108056280Y-53729664D01*
X108065048Y-53717841D01*
X108074934Y-53706934D01*
X108085841Y-53697048D01*
X108097664Y-53688280D01*
X108110290Y-53680712D01*
X108123597Y-53674418D01*
X108137457Y-53669459D01*
X108151736Y-53665882D01*
X108166297Y-53663722D01*
X108181000Y-53663000D01*
X108481000Y-53663000D01*
X108495703Y-53663722D01*
X108495703Y-53663722D01*
G37*
D11*
X108331000Y-54688000D03*
D10*
G36*
X107225703Y-53663722D02*
G01*
X107240264Y-53665882D01*
X107254543Y-53669459D01*
X107268403Y-53674418D01*
X107281710Y-53680712D01*
X107294336Y-53688280D01*
X107306159Y-53697048D01*
X107317066Y-53706934D01*
X107326952Y-53717841D01*
X107335720Y-53729664D01*
X107343288Y-53742290D01*
X107349582Y-53755597D01*
X107354541Y-53769457D01*
X107358118Y-53783736D01*
X107360278Y-53798297D01*
X107361000Y-53813000D01*
X107361000Y-55563000D01*
X107360278Y-55577703D01*
X107358118Y-55592264D01*
X107354541Y-55606543D01*
X107349582Y-55620403D01*
X107343288Y-55633710D01*
X107335720Y-55646336D01*
X107326952Y-55658159D01*
X107317066Y-55669066D01*
X107306159Y-55678952D01*
X107294336Y-55687720D01*
X107281710Y-55695288D01*
X107268403Y-55701582D01*
X107254543Y-55706541D01*
X107240264Y-55710118D01*
X107225703Y-55712278D01*
X107211000Y-55713000D01*
X106911000Y-55713000D01*
X106896297Y-55712278D01*
X106881736Y-55710118D01*
X106867457Y-55706541D01*
X106853597Y-55701582D01*
X106840290Y-55695288D01*
X106827664Y-55687720D01*
X106815841Y-55678952D01*
X106804934Y-55669066D01*
X106795048Y-55658159D01*
X106786280Y-55646336D01*
X106778712Y-55633710D01*
X106772418Y-55620403D01*
X106767459Y-55606543D01*
X106763882Y-55592264D01*
X106761722Y-55577703D01*
X106761000Y-55563000D01*
X106761000Y-53813000D01*
X106761722Y-53798297D01*
X106763882Y-53783736D01*
X106767459Y-53769457D01*
X106772418Y-53755597D01*
X106778712Y-53742290D01*
X106786280Y-53729664D01*
X106795048Y-53717841D01*
X106804934Y-53706934D01*
X106815841Y-53697048D01*
X106827664Y-53688280D01*
X106840290Y-53680712D01*
X106853597Y-53674418D01*
X106867457Y-53669459D01*
X106881736Y-53665882D01*
X106896297Y-53663722D01*
X106911000Y-53663000D01*
X107211000Y-53663000D01*
X107225703Y-53663722D01*
X107225703Y-53663722D01*
G37*
D11*
X107061000Y-54688000D03*
D10*
G36*
X105955703Y-53663722D02*
G01*
X105970264Y-53665882D01*
X105984543Y-53669459D01*
X105998403Y-53674418D01*
X106011710Y-53680712D01*
X106024336Y-53688280D01*
X106036159Y-53697048D01*
X106047066Y-53706934D01*
X106056952Y-53717841D01*
X106065720Y-53729664D01*
X106073288Y-53742290D01*
X106079582Y-53755597D01*
X106084541Y-53769457D01*
X106088118Y-53783736D01*
X106090278Y-53798297D01*
X106091000Y-53813000D01*
X106091000Y-55563000D01*
X106090278Y-55577703D01*
X106088118Y-55592264D01*
X106084541Y-55606543D01*
X106079582Y-55620403D01*
X106073288Y-55633710D01*
X106065720Y-55646336D01*
X106056952Y-55658159D01*
X106047066Y-55669066D01*
X106036159Y-55678952D01*
X106024336Y-55687720D01*
X106011710Y-55695288D01*
X105998403Y-55701582D01*
X105984543Y-55706541D01*
X105970264Y-55710118D01*
X105955703Y-55712278D01*
X105941000Y-55713000D01*
X105641000Y-55713000D01*
X105626297Y-55712278D01*
X105611736Y-55710118D01*
X105597457Y-55706541D01*
X105583597Y-55701582D01*
X105570290Y-55695288D01*
X105557664Y-55687720D01*
X105545841Y-55678952D01*
X105534934Y-55669066D01*
X105525048Y-55658159D01*
X105516280Y-55646336D01*
X105508712Y-55633710D01*
X105502418Y-55620403D01*
X105497459Y-55606543D01*
X105493882Y-55592264D01*
X105491722Y-55577703D01*
X105491000Y-55563000D01*
X105491000Y-53813000D01*
X105491722Y-53798297D01*
X105493882Y-53783736D01*
X105497459Y-53769457D01*
X105502418Y-53755597D01*
X105508712Y-53742290D01*
X105516280Y-53729664D01*
X105525048Y-53717841D01*
X105534934Y-53706934D01*
X105545841Y-53697048D01*
X105557664Y-53688280D01*
X105570290Y-53680712D01*
X105583597Y-53674418D01*
X105597457Y-53669459D01*
X105611736Y-53665882D01*
X105626297Y-53663722D01*
X105641000Y-53663000D01*
X105941000Y-53663000D01*
X105955703Y-53663722D01*
X105955703Y-53663722D01*
G37*
D11*
X105791000Y-54688000D03*
D10*
G36*
X104685703Y-53663722D02*
G01*
X104700264Y-53665882D01*
X104714543Y-53669459D01*
X104728403Y-53674418D01*
X104741710Y-53680712D01*
X104754336Y-53688280D01*
X104766159Y-53697048D01*
X104777066Y-53706934D01*
X104786952Y-53717841D01*
X104795720Y-53729664D01*
X104803288Y-53742290D01*
X104809582Y-53755597D01*
X104814541Y-53769457D01*
X104818118Y-53783736D01*
X104820278Y-53798297D01*
X104821000Y-53813000D01*
X104821000Y-55563000D01*
X104820278Y-55577703D01*
X104818118Y-55592264D01*
X104814541Y-55606543D01*
X104809582Y-55620403D01*
X104803288Y-55633710D01*
X104795720Y-55646336D01*
X104786952Y-55658159D01*
X104777066Y-55669066D01*
X104766159Y-55678952D01*
X104754336Y-55687720D01*
X104741710Y-55695288D01*
X104728403Y-55701582D01*
X104714543Y-55706541D01*
X104700264Y-55710118D01*
X104685703Y-55712278D01*
X104671000Y-55713000D01*
X104371000Y-55713000D01*
X104356297Y-55712278D01*
X104341736Y-55710118D01*
X104327457Y-55706541D01*
X104313597Y-55701582D01*
X104300290Y-55695288D01*
X104287664Y-55687720D01*
X104275841Y-55678952D01*
X104264934Y-55669066D01*
X104255048Y-55658159D01*
X104246280Y-55646336D01*
X104238712Y-55633710D01*
X104232418Y-55620403D01*
X104227459Y-55606543D01*
X104223882Y-55592264D01*
X104221722Y-55577703D01*
X104221000Y-55563000D01*
X104221000Y-53813000D01*
X104221722Y-53798297D01*
X104223882Y-53783736D01*
X104227459Y-53769457D01*
X104232418Y-53755597D01*
X104238712Y-53742290D01*
X104246280Y-53729664D01*
X104255048Y-53717841D01*
X104264934Y-53706934D01*
X104275841Y-53697048D01*
X104287664Y-53688280D01*
X104300290Y-53680712D01*
X104313597Y-53674418D01*
X104327457Y-53669459D01*
X104341736Y-53665882D01*
X104356297Y-53663722D01*
X104371000Y-53663000D01*
X104671000Y-53663000D01*
X104685703Y-53663722D01*
X104685703Y-53663722D01*
G37*
D11*
X104521000Y-54688000D03*
D10*
G36*
X103415703Y-53663722D02*
G01*
X103430264Y-53665882D01*
X103444543Y-53669459D01*
X103458403Y-53674418D01*
X103471710Y-53680712D01*
X103484336Y-53688280D01*
X103496159Y-53697048D01*
X103507066Y-53706934D01*
X103516952Y-53717841D01*
X103525720Y-53729664D01*
X103533288Y-53742290D01*
X103539582Y-53755597D01*
X103544541Y-53769457D01*
X103548118Y-53783736D01*
X103550278Y-53798297D01*
X103551000Y-53813000D01*
X103551000Y-55563000D01*
X103550278Y-55577703D01*
X103548118Y-55592264D01*
X103544541Y-55606543D01*
X103539582Y-55620403D01*
X103533288Y-55633710D01*
X103525720Y-55646336D01*
X103516952Y-55658159D01*
X103507066Y-55669066D01*
X103496159Y-55678952D01*
X103484336Y-55687720D01*
X103471710Y-55695288D01*
X103458403Y-55701582D01*
X103444543Y-55706541D01*
X103430264Y-55710118D01*
X103415703Y-55712278D01*
X103401000Y-55713000D01*
X103101000Y-55713000D01*
X103086297Y-55712278D01*
X103071736Y-55710118D01*
X103057457Y-55706541D01*
X103043597Y-55701582D01*
X103030290Y-55695288D01*
X103017664Y-55687720D01*
X103005841Y-55678952D01*
X102994934Y-55669066D01*
X102985048Y-55658159D01*
X102976280Y-55646336D01*
X102968712Y-55633710D01*
X102962418Y-55620403D01*
X102957459Y-55606543D01*
X102953882Y-55592264D01*
X102951722Y-55577703D01*
X102951000Y-55563000D01*
X102951000Y-53813000D01*
X102951722Y-53798297D01*
X102953882Y-53783736D01*
X102957459Y-53769457D01*
X102962418Y-53755597D01*
X102968712Y-53742290D01*
X102976280Y-53729664D01*
X102985048Y-53717841D01*
X102994934Y-53706934D01*
X103005841Y-53697048D01*
X103017664Y-53688280D01*
X103030290Y-53680712D01*
X103043597Y-53674418D01*
X103057457Y-53669459D01*
X103071736Y-53665882D01*
X103086297Y-53663722D01*
X103101000Y-53663000D01*
X103401000Y-53663000D01*
X103415703Y-53663722D01*
X103415703Y-53663722D01*
G37*
D11*
X103251000Y-54688000D03*
D10*
G36*
X102145703Y-53663722D02*
G01*
X102160264Y-53665882D01*
X102174543Y-53669459D01*
X102188403Y-53674418D01*
X102201710Y-53680712D01*
X102214336Y-53688280D01*
X102226159Y-53697048D01*
X102237066Y-53706934D01*
X102246952Y-53717841D01*
X102255720Y-53729664D01*
X102263288Y-53742290D01*
X102269582Y-53755597D01*
X102274541Y-53769457D01*
X102278118Y-53783736D01*
X102280278Y-53798297D01*
X102281000Y-53813000D01*
X102281000Y-55563000D01*
X102280278Y-55577703D01*
X102278118Y-55592264D01*
X102274541Y-55606543D01*
X102269582Y-55620403D01*
X102263288Y-55633710D01*
X102255720Y-55646336D01*
X102246952Y-55658159D01*
X102237066Y-55669066D01*
X102226159Y-55678952D01*
X102214336Y-55687720D01*
X102201710Y-55695288D01*
X102188403Y-55701582D01*
X102174543Y-55706541D01*
X102160264Y-55710118D01*
X102145703Y-55712278D01*
X102131000Y-55713000D01*
X101831000Y-55713000D01*
X101816297Y-55712278D01*
X101801736Y-55710118D01*
X101787457Y-55706541D01*
X101773597Y-55701582D01*
X101760290Y-55695288D01*
X101747664Y-55687720D01*
X101735841Y-55678952D01*
X101724934Y-55669066D01*
X101715048Y-55658159D01*
X101706280Y-55646336D01*
X101698712Y-55633710D01*
X101692418Y-55620403D01*
X101687459Y-55606543D01*
X101683882Y-55592264D01*
X101681722Y-55577703D01*
X101681000Y-55563000D01*
X101681000Y-53813000D01*
X101681722Y-53798297D01*
X101683882Y-53783736D01*
X101687459Y-53769457D01*
X101692418Y-53755597D01*
X101698712Y-53742290D01*
X101706280Y-53729664D01*
X101715048Y-53717841D01*
X101724934Y-53706934D01*
X101735841Y-53697048D01*
X101747664Y-53688280D01*
X101760290Y-53680712D01*
X101773597Y-53674418D01*
X101787457Y-53669459D01*
X101801736Y-53665882D01*
X101816297Y-53663722D01*
X101831000Y-53663000D01*
X102131000Y-53663000D01*
X102145703Y-53663722D01*
X102145703Y-53663722D01*
G37*
D11*
X101981000Y-54688000D03*
D10*
G36*
X100875703Y-53663722D02*
G01*
X100890264Y-53665882D01*
X100904543Y-53669459D01*
X100918403Y-53674418D01*
X100931710Y-53680712D01*
X100944336Y-53688280D01*
X100956159Y-53697048D01*
X100967066Y-53706934D01*
X100976952Y-53717841D01*
X100985720Y-53729664D01*
X100993288Y-53742290D01*
X100999582Y-53755597D01*
X101004541Y-53769457D01*
X101008118Y-53783736D01*
X101010278Y-53798297D01*
X101011000Y-53813000D01*
X101011000Y-55563000D01*
X101010278Y-55577703D01*
X101008118Y-55592264D01*
X101004541Y-55606543D01*
X100999582Y-55620403D01*
X100993288Y-55633710D01*
X100985720Y-55646336D01*
X100976952Y-55658159D01*
X100967066Y-55669066D01*
X100956159Y-55678952D01*
X100944336Y-55687720D01*
X100931710Y-55695288D01*
X100918403Y-55701582D01*
X100904543Y-55706541D01*
X100890264Y-55710118D01*
X100875703Y-55712278D01*
X100861000Y-55713000D01*
X100561000Y-55713000D01*
X100546297Y-55712278D01*
X100531736Y-55710118D01*
X100517457Y-55706541D01*
X100503597Y-55701582D01*
X100490290Y-55695288D01*
X100477664Y-55687720D01*
X100465841Y-55678952D01*
X100454934Y-55669066D01*
X100445048Y-55658159D01*
X100436280Y-55646336D01*
X100428712Y-55633710D01*
X100422418Y-55620403D01*
X100417459Y-55606543D01*
X100413882Y-55592264D01*
X100411722Y-55577703D01*
X100411000Y-55563000D01*
X100411000Y-53813000D01*
X100411722Y-53798297D01*
X100413882Y-53783736D01*
X100417459Y-53769457D01*
X100422418Y-53755597D01*
X100428712Y-53742290D01*
X100436280Y-53729664D01*
X100445048Y-53717841D01*
X100454934Y-53706934D01*
X100465841Y-53697048D01*
X100477664Y-53688280D01*
X100490290Y-53680712D01*
X100503597Y-53674418D01*
X100517457Y-53669459D01*
X100531736Y-53665882D01*
X100546297Y-53663722D01*
X100561000Y-53663000D01*
X100861000Y-53663000D01*
X100875703Y-53663722D01*
X100875703Y-53663722D01*
G37*
D11*
X100711000Y-54688000D03*
D10*
G36*
X99605703Y-53663722D02*
G01*
X99620264Y-53665882D01*
X99634543Y-53669459D01*
X99648403Y-53674418D01*
X99661710Y-53680712D01*
X99674336Y-53688280D01*
X99686159Y-53697048D01*
X99697066Y-53706934D01*
X99706952Y-53717841D01*
X99715720Y-53729664D01*
X99723288Y-53742290D01*
X99729582Y-53755597D01*
X99734541Y-53769457D01*
X99738118Y-53783736D01*
X99740278Y-53798297D01*
X99741000Y-53813000D01*
X99741000Y-55563000D01*
X99740278Y-55577703D01*
X99738118Y-55592264D01*
X99734541Y-55606543D01*
X99729582Y-55620403D01*
X99723288Y-55633710D01*
X99715720Y-55646336D01*
X99706952Y-55658159D01*
X99697066Y-55669066D01*
X99686159Y-55678952D01*
X99674336Y-55687720D01*
X99661710Y-55695288D01*
X99648403Y-55701582D01*
X99634543Y-55706541D01*
X99620264Y-55710118D01*
X99605703Y-55712278D01*
X99591000Y-55713000D01*
X99291000Y-55713000D01*
X99276297Y-55712278D01*
X99261736Y-55710118D01*
X99247457Y-55706541D01*
X99233597Y-55701582D01*
X99220290Y-55695288D01*
X99207664Y-55687720D01*
X99195841Y-55678952D01*
X99184934Y-55669066D01*
X99175048Y-55658159D01*
X99166280Y-55646336D01*
X99158712Y-55633710D01*
X99152418Y-55620403D01*
X99147459Y-55606543D01*
X99143882Y-55592264D01*
X99141722Y-55577703D01*
X99141000Y-55563000D01*
X99141000Y-53813000D01*
X99141722Y-53798297D01*
X99143882Y-53783736D01*
X99147459Y-53769457D01*
X99152418Y-53755597D01*
X99158712Y-53742290D01*
X99166280Y-53729664D01*
X99175048Y-53717841D01*
X99184934Y-53706934D01*
X99195841Y-53697048D01*
X99207664Y-53688280D01*
X99220290Y-53680712D01*
X99233597Y-53674418D01*
X99247457Y-53669459D01*
X99261736Y-53665882D01*
X99276297Y-53663722D01*
X99291000Y-53663000D01*
X99591000Y-53663000D01*
X99605703Y-53663722D01*
X99605703Y-53663722D01*
G37*
D11*
X99441000Y-54688000D03*
D10*
G36*
X156374703Y-41889722D02*
G01*
X156389264Y-41891882D01*
X156403543Y-41895459D01*
X156417403Y-41900418D01*
X156430710Y-41906712D01*
X156443336Y-41914280D01*
X156455159Y-41923048D01*
X156466066Y-41932934D01*
X156475952Y-41943841D01*
X156484720Y-41955664D01*
X156492288Y-41968290D01*
X156498582Y-41981597D01*
X156503541Y-41995457D01*
X156507118Y-42009736D01*
X156509278Y-42024297D01*
X156510000Y-42039000D01*
X156510000Y-43689000D01*
X156509278Y-43703703D01*
X156507118Y-43718264D01*
X156503541Y-43732543D01*
X156498582Y-43746403D01*
X156492288Y-43759710D01*
X156484720Y-43772336D01*
X156475952Y-43784159D01*
X156466066Y-43795066D01*
X156455159Y-43804952D01*
X156443336Y-43813720D01*
X156430710Y-43821288D01*
X156417403Y-43827582D01*
X156403543Y-43832541D01*
X156389264Y-43836118D01*
X156374703Y-43838278D01*
X156360000Y-43839000D01*
X156060000Y-43839000D01*
X156045297Y-43838278D01*
X156030736Y-43836118D01*
X156016457Y-43832541D01*
X156002597Y-43827582D01*
X155989290Y-43821288D01*
X155976664Y-43813720D01*
X155964841Y-43804952D01*
X155953934Y-43795066D01*
X155944048Y-43784159D01*
X155935280Y-43772336D01*
X155927712Y-43759710D01*
X155921418Y-43746403D01*
X155916459Y-43732543D01*
X155912882Y-43718264D01*
X155910722Y-43703703D01*
X155910000Y-43689000D01*
X155910000Y-42039000D01*
X155910722Y-42024297D01*
X155912882Y-42009736D01*
X155916459Y-41995457D01*
X155921418Y-41981597D01*
X155927712Y-41968290D01*
X155935280Y-41955664D01*
X155944048Y-41943841D01*
X155953934Y-41932934D01*
X155964841Y-41923048D01*
X155976664Y-41914280D01*
X155989290Y-41906712D01*
X156002597Y-41900418D01*
X156016457Y-41895459D01*
X156030736Y-41891882D01*
X156045297Y-41889722D01*
X156060000Y-41889000D01*
X156360000Y-41889000D01*
X156374703Y-41889722D01*
X156374703Y-41889722D01*
G37*
D11*
X156210000Y-42864000D03*
D10*
G36*
X155104703Y-41889722D02*
G01*
X155119264Y-41891882D01*
X155133543Y-41895459D01*
X155147403Y-41900418D01*
X155160710Y-41906712D01*
X155173336Y-41914280D01*
X155185159Y-41923048D01*
X155196066Y-41932934D01*
X155205952Y-41943841D01*
X155214720Y-41955664D01*
X155222288Y-41968290D01*
X155228582Y-41981597D01*
X155233541Y-41995457D01*
X155237118Y-42009736D01*
X155239278Y-42024297D01*
X155240000Y-42039000D01*
X155240000Y-43689000D01*
X155239278Y-43703703D01*
X155237118Y-43718264D01*
X155233541Y-43732543D01*
X155228582Y-43746403D01*
X155222288Y-43759710D01*
X155214720Y-43772336D01*
X155205952Y-43784159D01*
X155196066Y-43795066D01*
X155185159Y-43804952D01*
X155173336Y-43813720D01*
X155160710Y-43821288D01*
X155147403Y-43827582D01*
X155133543Y-43832541D01*
X155119264Y-43836118D01*
X155104703Y-43838278D01*
X155090000Y-43839000D01*
X154790000Y-43839000D01*
X154775297Y-43838278D01*
X154760736Y-43836118D01*
X154746457Y-43832541D01*
X154732597Y-43827582D01*
X154719290Y-43821288D01*
X154706664Y-43813720D01*
X154694841Y-43804952D01*
X154683934Y-43795066D01*
X154674048Y-43784159D01*
X154665280Y-43772336D01*
X154657712Y-43759710D01*
X154651418Y-43746403D01*
X154646459Y-43732543D01*
X154642882Y-43718264D01*
X154640722Y-43703703D01*
X154640000Y-43689000D01*
X154640000Y-42039000D01*
X154640722Y-42024297D01*
X154642882Y-42009736D01*
X154646459Y-41995457D01*
X154651418Y-41981597D01*
X154657712Y-41968290D01*
X154665280Y-41955664D01*
X154674048Y-41943841D01*
X154683934Y-41932934D01*
X154694841Y-41923048D01*
X154706664Y-41914280D01*
X154719290Y-41906712D01*
X154732597Y-41900418D01*
X154746457Y-41895459D01*
X154760736Y-41891882D01*
X154775297Y-41889722D01*
X154790000Y-41889000D01*
X155090000Y-41889000D01*
X155104703Y-41889722D01*
X155104703Y-41889722D01*
G37*
D11*
X154940000Y-42864000D03*
D10*
G36*
X153834703Y-41889722D02*
G01*
X153849264Y-41891882D01*
X153863543Y-41895459D01*
X153877403Y-41900418D01*
X153890710Y-41906712D01*
X153903336Y-41914280D01*
X153915159Y-41923048D01*
X153926066Y-41932934D01*
X153935952Y-41943841D01*
X153944720Y-41955664D01*
X153952288Y-41968290D01*
X153958582Y-41981597D01*
X153963541Y-41995457D01*
X153967118Y-42009736D01*
X153969278Y-42024297D01*
X153970000Y-42039000D01*
X153970000Y-43689000D01*
X153969278Y-43703703D01*
X153967118Y-43718264D01*
X153963541Y-43732543D01*
X153958582Y-43746403D01*
X153952288Y-43759710D01*
X153944720Y-43772336D01*
X153935952Y-43784159D01*
X153926066Y-43795066D01*
X153915159Y-43804952D01*
X153903336Y-43813720D01*
X153890710Y-43821288D01*
X153877403Y-43827582D01*
X153863543Y-43832541D01*
X153849264Y-43836118D01*
X153834703Y-43838278D01*
X153820000Y-43839000D01*
X153520000Y-43839000D01*
X153505297Y-43838278D01*
X153490736Y-43836118D01*
X153476457Y-43832541D01*
X153462597Y-43827582D01*
X153449290Y-43821288D01*
X153436664Y-43813720D01*
X153424841Y-43804952D01*
X153413934Y-43795066D01*
X153404048Y-43784159D01*
X153395280Y-43772336D01*
X153387712Y-43759710D01*
X153381418Y-43746403D01*
X153376459Y-43732543D01*
X153372882Y-43718264D01*
X153370722Y-43703703D01*
X153370000Y-43689000D01*
X153370000Y-42039000D01*
X153370722Y-42024297D01*
X153372882Y-42009736D01*
X153376459Y-41995457D01*
X153381418Y-41981597D01*
X153387712Y-41968290D01*
X153395280Y-41955664D01*
X153404048Y-41943841D01*
X153413934Y-41932934D01*
X153424841Y-41923048D01*
X153436664Y-41914280D01*
X153449290Y-41906712D01*
X153462597Y-41900418D01*
X153476457Y-41895459D01*
X153490736Y-41891882D01*
X153505297Y-41889722D01*
X153520000Y-41889000D01*
X153820000Y-41889000D01*
X153834703Y-41889722D01*
X153834703Y-41889722D01*
G37*
D11*
X153670000Y-42864000D03*
D10*
G36*
X152564703Y-41889722D02*
G01*
X152579264Y-41891882D01*
X152593543Y-41895459D01*
X152607403Y-41900418D01*
X152620710Y-41906712D01*
X152633336Y-41914280D01*
X152645159Y-41923048D01*
X152656066Y-41932934D01*
X152665952Y-41943841D01*
X152674720Y-41955664D01*
X152682288Y-41968290D01*
X152688582Y-41981597D01*
X152693541Y-41995457D01*
X152697118Y-42009736D01*
X152699278Y-42024297D01*
X152700000Y-42039000D01*
X152700000Y-43689000D01*
X152699278Y-43703703D01*
X152697118Y-43718264D01*
X152693541Y-43732543D01*
X152688582Y-43746403D01*
X152682288Y-43759710D01*
X152674720Y-43772336D01*
X152665952Y-43784159D01*
X152656066Y-43795066D01*
X152645159Y-43804952D01*
X152633336Y-43813720D01*
X152620710Y-43821288D01*
X152607403Y-43827582D01*
X152593543Y-43832541D01*
X152579264Y-43836118D01*
X152564703Y-43838278D01*
X152550000Y-43839000D01*
X152250000Y-43839000D01*
X152235297Y-43838278D01*
X152220736Y-43836118D01*
X152206457Y-43832541D01*
X152192597Y-43827582D01*
X152179290Y-43821288D01*
X152166664Y-43813720D01*
X152154841Y-43804952D01*
X152143934Y-43795066D01*
X152134048Y-43784159D01*
X152125280Y-43772336D01*
X152117712Y-43759710D01*
X152111418Y-43746403D01*
X152106459Y-43732543D01*
X152102882Y-43718264D01*
X152100722Y-43703703D01*
X152100000Y-43689000D01*
X152100000Y-42039000D01*
X152100722Y-42024297D01*
X152102882Y-42009736D01*
X152106459Y-41995457D01*
X152111418Y-41981597D01*
X152117712Y-41968290D01*
X152125280Y-41955664D01*
X152134048Y-41943841D01*
X152143934Y-41932934D01*
X152154841Y-41923048D01*
X152166664Y-41914280D01*
X152179290Y-41906712D01*
X152192597Y-41900418D01*
X152206457Y-41895459D01*
X152220736Y-41891882D01*
X152235297Y-41889722D01*
X152250000Y-41889000D01*
X152550000Y-41889000D01*
X152564703Y-41889722D01*
X152564703Y-41889722D01*
G37*
D11*
X152400000Y-42864000D03*
D10*
G36*
X151294703Y-41889722D02*
G01*
X151309264Y-41891882D01*
X151323543Y-41895459D01*
X151337403Y-41900418D01*
X151350710Y-41906712D01*
X151363336Y-41914280D01*
X151375159Y-41923048D01*
X151386066Y-41932934D01*
X151395952Y-41943841D01*
X151404720Y-41955664D01*
X151412288Y-41968290D01*
X151418582Y-41981597D01*
X151423541Y-41995457D01*
X151427118Y-42009736D01*
X151429278Y-42024297D01*
X151430000Y-42039000D01*
X151430000Y-43689000D01*
X151429278Y-43703703D01*
X151427118Y-43718264D01*
X151423541Y-43732543D01*
X151418582Y-43746403D01*
X151412288Y-43759710D01*
X151404720Y-43772336D01*
X151395952Y-43784159D01*
X151386066Y-43795066D01*
X151375159Y-43804952D01*
X151363336Y-43813720D01*
X151350710Y-43821288D01*
X151337403Y-43827582D01*
X151323543Y-43832541D01*
X151309264Y-43836118D01*
X151294703Y-43838278D01*
X151280000Y-43839000D01*
X150980000Y-43839000D01*
X150965297Y-43838278D01*
X150950736Y-43836118D01*
X150936457Y-43832541D01*
X150922597Y-43827582D01*
X150909290Y-43821288D01*
X150896664Y-43813720D01*
X150884841Y-43804952D01*
X150873934Y-43795066D01*
X150864048Y-43784159D01*
X150855280Y-43772336D01*
X150847712Y-43759710D01*
X150841418Y-43746403D01*
X150836459Y-43732543D01*
X150832882Y-43718264D01*
X150830722Y-43703703D01*
X150830000Y-43689000D01*
X150830000Y-42039000D01*
X150830722Y-42024297D01*
X150832882Y-42009736D01*
X150836459Y-41995457D01*
X150841418Y-41981597D01*
X150847712Y-41968290D01*
X150855280Y-41955664D01*
X150864048Y-41943841D01*
X150873934Y-41932934D01*
X150884841Y-41923048D01*
X150896664Y-41914280D01*
X150909290Y-41906712D01*
X150922597Y-41900418D01*
X150936457Y-41895459D01*
X150950736Y-41891882D01*
X150965297Y-41889722D01*
X150980000Y-41889000D01*
X151280000Y-41889000D01*
X151294703Y-41889722D01*
X151294703Y-41889722D01*
G37*
D11*
X151130000Y-42864000D03*
D10*
G36*
X150024703Y-41889722D02*
G01*
X150039264Y-41891882D01*
X150053543Y-41895459D01*
X150067403Y-41900418D01*
X150080710Y-41906712D01*
X150093336Y-41914280D01*
X150105159Y-41923048D01*
X150116066Y-41932934D01*
X150125952Y-41943841D01*
X150134720Y-41955664D01*
X150142288Y-41968290D01*
X150148582Y-41981597D01*
X150153541Y-41995457D01*
X150157118Y-42009736D01*
X150159278Y-42024297D01*
X150160000Y-42039000D01*
X150160000Y-43689000D01*
X150159278Y-43703703D01*
X150157118Y-43718264D01*
X150153541Y-43732543D01*
X150148582Y-43746403D01*
X150142288Y-43759710D01*
X150134720Y-43772336D01*
X150125952Y-43784159D01*
X150116066Y-43795066D01*
X150105159Y-43804952D01*
X150093336Y-43813720D01*
X150080710Y-43821288D01*
X150067403Y-43827582D01*
X150053543Y-43832541D01*
X150039264Y-43836118D01*
X150024703Y-43838278D01*
X150010000Y-43839000D01*
X149710000Y-43839000D01*
X149695297Y-43838278D01*
X149680736Y-43836118D01*
X149666457Y-43832541D01*
X149652597Y-43827582D01*
X149639290Y-43821288D01*
X149626664Y-43813720D01*
X149614841Y-43804952D01*
X149603934Y-43795066D01*
X149594048Y-43784159D01*
X149585280Y-43772336D01*
X149577712Y-43759710D01*
X149571418Y-43746403D01*
X149566459Y-43732543D01*
X149562882Y-43718264D01*
X149560722Y-43703703D01*
X149560000Y-43689000D01*
X149560000Y-42039000D01*
X149560722Y-42024297D01*
X149562882Y-42009736D01*
X149566459Y-41995457D01*
X149571418Y-41981597D01*
X149577712Y-41968290D01*
X149585280Y-41955664D01*
X149594048Y-41943841D01*
X149603934Y-41932934D01*
X149614841Y-41923048D01*
X149626664Y-41914280D01*
X149639290Y-41906712D01*
X149652597Y-41900418D01*
X149666457Y-41895459D01*
X149680736Y-41891882D01*
X149695297Y-41889722D01*
X149710000Y-41889000D01*
X150010000Y-41889000D01*
X150024703Y-41889722D01*
X150024703Y-41889722D01*
G37*
D11*
X149860000Y-42864000D03*
D10*
G36*
X148754703Y-41889722D02*
G01*
X148769264Y-41891882D01*
X148783543Y-41895459D01*
X148797403Y-41900418D01*
X148810710Y-41906712D01*
X148823336Y-41914280D01*
X148835159Y-41923048D01*
X148846066Y-41932934D01*
X148855952Y-41943841D01*
X148864720Y-41955664D01*
X148872288Y-41968290D01*
X148878582Y-41981597D01*
X148883541Y-41995457D01*
X148887118Y-42009736D01*
X148889278Y-42024297D01*
X148890000Y-42039000D01*
X148890000Y-43689000D01*
X148889278Y-43703703D01*
X148887118Y-43718264D01*
X148883541Y-43732543D01*
X148878582Y-43746403D01*
X148872288Y-43759710D01*
X148864720Y-43772336D01*
X148855952Y-43784159D01*
X148846066Y-43795066D01*
X148835159Y-43804952D01*
X148823336Y-43813720D01*
X148810710Y-43821288D01*
X148797403Y-43827582D01*
X148783543Y-43832541D01*
X148769264Y-43836118D01*
X148754703Y-43838278D01*
X148740000Y-43839000D01*
X148440000Y-43839000D01*
X148425297Y-43838278D01*
X148410736Y-43836118D01*
X148396457Y-43832541D01*
X148382597Y-43827582D01*
X148369290Y-43821288D01*
X148356664Y-43813720D01*
X148344841Y-43804952D01*
X148333934Y-43795066D01*
X148324048Y-43784159D01*
X148315280Y-43772336D01*
X148307712Y-43759710D01*
X148301418Y-43746403D01*
X148296459Y-43732543D01*
X148292882Y-43718264D01*
X148290722Y-43703703D01*
X148290000Y-43689000D01*
X148290000Y-42039000D01*
X148290722Y-42024297D01*
X148292882Y-42009736D01*
X148296459Y-41995457D01*
X148301418Y-41981597D01*
X148307712Y-41968290D01*
X148315280Y-41955664D01*
X148324048Y-41943841D01*
X148333934Y-41932934D01*
X148344841Y-41923048D01*
X148356664Y-41914280D01*
X148369290Y-41906712D01*
X148382597Y-41900418D01*
X148396457Y-41895459D01*
X148410736Y-41891882D01*
X148425297Y-41889722D01*
X148440000Y-41889000D01*
X148740000Y-41889000D01*
X148754703Y-41889722D01*
X148754703Y-41889722D01*
G37*
D11*
X148590000Y-42864000D03*
D10*
G36*
X147484703Y-41889722D02*
G01*
X147499264Y-41891882D01*
X147513543Y-41895459D01*
X147527403Y-41900418D01*
X147540710Y-41906712D01*
X147553336Y-41914280D01*
X147565159Y-41923048D01*
X147576066Y-41932934D01*
X147585952Y-41943841D01*
X147594720Y-41955664D01*
X147602288Y-41968290D01*
X147608582Y-41981597D01*
X147613541Y-41995457D01*
X147617118Y-42009736D01*
X147619278Y-42024297D01*
X147620000Y-42039000D01*
X147620000Y-43689000D01*
X147619278Y-43703703D01*
X147617118Y-43718264D01*
X147613541Y-43732543D01*
X147608582Y-43746403D01*
X147602288Y-43759710D01*
X147594720Y-43772336D01*
X147585952Y-43784159D01*
X147576066Y-43795066D01*
X147565159Y-43804952D01*
X147553336Y-43813720D01*
X147540710Y-43821288D01*
X147527403Y-43827582D01*
X147513543Y-43832541D01*
X147499264Y-43836118D01*
X147484703Y-43838278D01*
X147470000Y-43839000D01*
X147170000Y-43839000D01*
X147155297Y-43838278D01*
X147140736Y-43836118D01*
X147126457Y-43832541D01*
X147112597Y-43827582D01*
X147099290Y-43821288D01*
X147086664Y-43813720D01*
X147074841Y-43804952D01*
X147063934Y-43795066D01*
X147054048Y-43784159D01*
X147045280Y-43772336D01*
X147037712Y-43759710D01*
X147031418Y-43746403D01*
X147026459Y-43732543D01*
X147022882Y-43718264D01*
X147020722Y-43703703D01*
X147020000Y-43689000D01*
X147020000Y-42039000D01*
X147020722Y-42024297D01*
X147022882Y-42009736D01*
X147026459Y-41995457D01*
X147031418Y-41981597D01*
X147037712Y-41968290D01*
X147045280Y-41955664D01*
X147054048Y-41943841D01*
X147063934Y-41932934D01*
X147074841Y-41923048D01*
X147086664Y-41914280D01*
X147099290Y-41906712D01*
X147112597Y-41900418D01*
X147126457Y-41895459D01*
X147140736Y-41891882D01*
X147155297Y-41889722D01*
X147170000Y-41889000D01*
X147470000Y-41889000D01*
X147484703Y-41889722D01*
X147484703Y-41889722D01*
G37*
D11*
X147320000Y-42864000D03*
D10*
G36*
X147484703Y-46839722D02*
G01*
X147499264Y-46841882D01*
X147513543Y-46845459D01*
X147527403Y-46850418D01*
X147540710Y-46856712D01*
X147553336Y-46864280D01*
X147565159Y-46873048D01*
X147576066Y-46882934D01*
X147585952Y-46893841D01*
X147594720Y-46905664D01*
X147602288Y-46918290D01*
X147608582Y-46931597D01*
X147613541Y-46945457D01*
X147617118Y-46959736D01*
X147619278Y-46974297D01*
X147620000Y-46989000D01*
X147620000Y-48639000D01*
X147619278Y-48653703D01*
X147617118Y-48668264D01*
X147613541Y-48682543D01*
X147608582Y-48696403D01*
X147602288Y-48709710D01*
X147594720Y-48722336D01*
X147585952Y-48734159D01*
X147576066Y-48745066D01*
X147565159Y-48754952D01*
X147553336Y-48763720D01*
X147540710Y-48771288D01*
X147527403Y-48777582D01*
X147513543Y-48782541D01*
X147499264Y-48786118D01*
X147484703Y-48788278D01*
X147470000Y-48789000D01*
X147170000Y-48789000D01*
X147155297Y-48788278D01*
X147140736Y-48786118D01*
X147126457Y-48782541D01*
X147112597Y-48777582D01*
X147099290Y-48771288D01*
X147086664Y-48763720D01*
X147074841Y-48754952D01*
X147063934Y-48745066D01*
X147054048Y-48734159D01*
X147045280Y-48722336D01*
X147037712Y-48709710D01*
X147031418Y-48696403D01*
X147026459Y-48682543D01*
X147022882Y-48668264D01*
X147020722Y-48653703D01*
X147020000Y-48639000D01*
X147020000Y-46989000D01*
X147020722Y-46974297D01*
X147022882Y-46959736D01*
X147026459Y-46945457D01*
X147031418Y-46931597D01*
X147037712Y-46918290D01*
X147045280Y-46905664D01*
X147054048Y-46893841D01*
X147063934Y-46882934D01*
X147074841Y-46873048D01*
X147086664Y-46864280D01*
X147099290Y-46856712D01*
X147112597Y-46850418D01*
X147126457Y-46845459D01*
X147140736Y-46841882D01*
X147155297Y-46839722D01*
X147170000Y-46839000D01*
X147470000Y-46839000D01*
X147484703Y-46839722D01*
X147484703Y-46839722D01*
G37*
D11*
X147320000Y-47814000D03*
D10*
G36*
X148754703Y-46839722D02*
G01*
X148769264Y-46841882D01*
X148783543Y-46845459D01*
X148797403Y-46850418D01*
X148810710Y-46856712D01*
X148823336Y-46864280D01*
X148835159Y-46873048D01*
X148846066Y-46882934D01*
X148855952Y-46893841D01*
X148864720Y-46905664D01*
X148872288Y-46918290D01*
X148878582Y-46931597D01*
X148883541Y-46945457D01*
X148887118Y-46959736D01*
X148889278Y-46974297D01*
X148890000Y-46989000D01*
X148890000Y-48639000D01*
X148889278Y-48653703D01*
X148887118Y-48668264D01*
X148883541Y-48682543D01*
X148878582Y-48696403D01*
X148872288Y-48709710D01*
X148864720Y-48722336D01*
X148855952Y-48734159D01*
X148846066Y-48745066D01*
X148835159Y-48754952D01*
X148823336Y-48763720D01*
X148810710Y-48771288D01*
X148797403Y-48777582D01*
X148783543Y-48782541D01*
X148769264Y-48786118D01*
X148754703Y-48788278D01*
X148740000Y-48789000D01*
X148440000Y-48789000D01*
X148425297Y-48788278D01*
X148410736Y-48786118D01*
X148396457Y-48782541D01*
X148382597Y-48777582D01*
X148369290Y-48771288D01*
X148356664Y-48763720D01*
X148344841Y-48754952D01*
X148333934Y-48745066D01*
X148324048Y-48734159D01*
X148315280Y-48722336D01*
X148307712Y-48709710D01*
X148301418Y-48696403D01*
X148296459Y-48682543D01*
X148292882Y-48668264D01*
X148290722Y-48653703D01*
X148290000Y-48639000D01*
X148290000Y-46989000D01*
X148290722Y-46974297D01*
X148292882Y-46959736D01*
X148296459Y-46945457D01*
X148301418Y-46931597D01*
X148307712Y-46918290D01*
X148315280Y-46905664D01*
X148324048Y-46893841D01*
X148333934Y-46882934D01*
X148344841Y-46873048D01*
X148356664Y-46864280D01*
X148369290Y-46856712D01*
X148382597Y-46850418D01*
X148396457Y-46845459D01*
X148410736Y-46841882D01*
X148425297Y-46839722D01*
X148440000Y-46839000D01*
X148740000Y-46839000D01*
X148754703Y-46839722D01*
X148754703Y-46839722D01*
G37*
D11*
X148590000Y-47814000D03*
D10*
G36*
X150024703Y-46839722D02*
G01*
X150039264Y-46841882D01*
X150053543Y-46845459D01*
X150067403Y-46850418D01*
X150080710Y-46856712D01*
X150093336Y-46864280D01*
X150105159Y-46873048D01*
X150116066Y-46882934D01*
X150125952Y-46893841D01*
X150134720Y-46905664D01*
X150142288Y-46918290D01*
X150148582Y-46931597D01*
X150153541Y-46945457D01*
X150157118Y-46959736D01*
X150159278Y-46974297D01*
X150160000Y-46989000D01*
X150160000Y-48639000D01*
X150159278Y-48653703D01*
X150157118Y-48668264D01*
X150153541Y-48682543D01*
X150148582Y-48696403D01*
X150142288Y-48709710D01*
X150134720Y-48722336D01*
X150125952Y-48734159D01*
X150116066Y-48745066D01*
X150105159Y-48754952D01*
X150093336Y-48763720D01*
X150080710Y-48771288D01*
X150067403Y-48777582D01*
X150053543Y-48782541D01*
X150039264Y-48786118D01*
X150024703Y-48788278D01*
X150010000Y-48789000D01*
X149710000Y-48789000D01*
X149695297Y-48788278D01*
X149680736Y-48786118D01*
X149666457Y-48782541D01*
X149652597Y-48777582D01*
X149639290Y-48771288D01*
X149626664Y-48763720D01*
X149614841Y-48754952D01*
X149603934Y-48745066D01*
X149594048Y-48734159D01*
X149585280Y-48722336D01*
X149577712Y-48709710D01*
X149571418Y-48696403D01*
X149566459Y-48682543D01*
X149562882Y-48668264D01*
X149560722Y-48653703D01*
X149560000Y-48639000D01*
X149560000Y-46989000D01*
X149560722Y-46974297D01*
X149562882Y-46959736D01*
X149566459Y-46945457D01*
X149571418Y-46931597D01*
X149577712Y-46918290D01*
X149585280Y-46905664D01*
X149594048Y-46893841D01*
X149603934Y-46882934D01*
X149614841Y-46873048D01*
X149626664Y-46864280D01*
X149639290Y-46856712D01*
X149652597Y-46850418D01*
X149666457Y-46845459D01*
X149680736Y-46841882D01*
X149695297Y-46839722D01*
X149710000Y-46839000D01*
X150010000Y-46839000D01*
X150024703Y-46839722D01*
X150024703Y-46839722D01*
G37*
D11*
X149860000Y-47814000D03*
D10*
G36*
X151294703Y-46839722D02*
G01*
X151309264Y-46841882D01*
X151323543Y-46845459D01*
X151337403Y-46850418D01*
X151350710Y-46856712D01*
X151363336Y-46864280D01*
X151375159Y-46873048D01*
X151386066Y-46882934D01*
X151395952Y-46893841D01*
X151404720Y-46905664D01*
X151412288Y-46918290D01*
X151418582Y-46931597D01*
X151423541Y-46945457D01*
X151427118Y-46959736D01*
X151429278Y-46974297D01*
X151430000Y-46989000D01*
X151430000Y-48639000D01*
X151429278Y-48653703D01*
X151427118Y-48668264D01*
X151423541Y-48682543D01*
X151418582Y-48696403D01*
X151412288Y-48709710D01*
X151404720Y-48722336D01*
X151395952Y-48734159D01*
X151386066Y-48745066D01*
X151375159Y-48754952D01*
X151363336Y-48763720D01*
X151350710Y-48771288D01*
X151337403Y-48777582D01*
X151323543Y-48782541D01*
X151309264Y-48786118D01*
X151294703Y-48788278D01*
X151280000Y-48789000D01*
X150980000Y-48789000D01*
X150965297Y-48788278D01*
X150950736Y-48786118D01*
X150936457Y-48782541D01*
X150922597Y-48777582D01*
X150909290Y-48771288D01*
X150896664Y-48763720D01*
X150884841Y-48754952D01*
X150873934Y-48745066D01*
X150864048Y-48734159D01*
X150855280Y-48722336D01*
X150847712Y-48709710D01*
X150841418Y-48696403D01*
X150836459Y-48682543D01*
X150832882Y-48668264D01*
X150830722Y-48653703D01*
X150830000Y-48639000D01*
X150830000Y-46989000D01*
X150830722Y-46974297D01*
X150832882Y-46959736D01*
X150836459Y-46945457D01*
X150841418Y-46931597D01*
X150847712Y-46918290D01*
X150855280Y-46905664D01*
X150864048Y-46893841D01*
X150873934Y-46882934D01*
X150884841Y-46873048D01*
X150896664Y-46864280D01*
X150909290Y-46856712D01*
X150922597Y-46850418D01*
X150936457Y-46845459D01*
X150950736Y-46841882D01*
X150965297Y-46839722D01*
X150980000Y-46839000D01*
X151280000Y-46839000D01*
X151294703Y-46839722D01*
X151294703Y-46839722D01*
G37*
D11*
X151130000Y-47814000D03*
D10*
G36*
X152564703Y-46839722D02*
G01*
X152579264Y-46841882D01*
X152593543Y-46845459D01*
X152607403Y-46850418D01*
X152620710Y-46856712D01*
X152633336Y-46864280D01*
X152645159Y-46873048D01*
X152656066Y-46882934D01*
X152665952Y-46893841D01*
X152674720Y-46905664D01*
X152682288Y-46918290D01*
X152688582Y-46931597D01*
X152693541Y-46945457D01*
X152697118Y-46959736D01*
X152699278Y-46974297D01*
X152700000Y-46989000D01*
X152700000Y-48639000D01*
X152699278Y-48653703D01*
X152697118Y-48668264D01*
X152693541Y-48682543D01*
X152688582Y-48696403D01*
X152682288Y-48709710D01*
X152674720Y-48722336D01*
X152665952Y-48734159D01*
X152656066Y-48745066D01*
X152645159Y-48754952D01*
X152633336Y-48763720D01*
X152620710Y-48771288D01*
X152607403Y-48777582D01*
X152593543Y-48782541D01*
X152579264Y-48786118D01*
X152564703Y-48788278D01*
X152550000Y-48789000D01*
X152250000Y-48789000D01*
X152235297Y-48788278D01*
X152220736Y-48786118D01*
X152206457Y-48782541D01*
X152192597Y-48777582D01*
X152179290Y-48771288D01*
X152166664Y-48763720D01*
X152154841Y-48754952D01*
X152143934Y-48745066D01*
X152134048Y-48734159D01*
X152125280Y-48722336D01*
X152117712Y-48709710D01*
X152111418Y-48696403D01*
X152106459Y-48682543D01*
X152102882Y-48668264D01*
X152100722Y-48653703D01*
X152100000Y-48639000D01*
X152100000Y-46989000D01*
X152100722Y-46974297D01*
X152102882Y-46959736D01*
X152106459Y-46945457D01*
X152111418Y-46931597D01*
X152117712Y-46918290D01*
X152125280Y-46905664D01*
X152134048Y-46893841D01*
X152143934Y-46882934D01*
X152154841Y-46873048D01*
X152166664Y-46864280D01*
X152179290Y-46856712D01*
X152192597Y-46850418D01*
X152206457Y-46845459D01*
X152220736Y-46841882D01*
X152235297Y-46839722D01*
X152250000Y-46839000D01*
X152550000Y-46839000D01*
X152564703Y-46839722D01*
X152564703Y-46839722D01*
G37*
D11*
X152400000Y-47814000D03*
D10*
G36*
X153834703Y-46839722D02*
G01*
X153849264Y-46841882D01*
X153863543Y-46845459D01*
X153877403Y-46850418D01*
X153890710Y-46856712D01*
X153903336Y-46864280D01*
X153915159Y-46873048D01*
X153926066Y-46882934D01*
X153935952Y-46893841D01*
X153944720Y-46905664D01*
X153952288Y-46918290D01*
X153958582Y-46931597D01*
X153963541Y-46945457D01*
X153967118Y-46959736D01*
X153969278Y-46974297D01*
X153970000Y-46989000D01*
X153970000Y-48639000D01*
X153969278Y-48653703D01*
X153967118Y-48668264D01*
X153963541Y-48682543D01*
X153958582Y-48696403D01*
X153952288Y-48709710D01*
X153944720Y-48722336D01*
X153935952Y-48734159D01*
X153926066Y-48745066D01*
X153915159Y-48754952D01*
X153903336Y-48763720D01*
X153890710Y-48771288D01*
X153877403Y-48777582D01*
X153863543Y-48782541D01*
X153849264Y-48786118D01*
X153834703Y-48788278D01*
X153820000Y-48789000D01*
X153520000Y-48789000D01*
X153505297Y-48788278D01*
X153490736Y-48786118D01*
X153476457Y-48782541D01*
X153462597Y-48777582D01*
X153449290Y-48771288D01*
X153436664Y-48763720D01*
X153424841Y-48754952D01*
X153413934Y-48745066D01*
X153404048Y-48734159D01*
X153395280Y-48722336D01*
X153387712Y-48709710D01*
X153381418Y-48696403D01*
X153376459Y-48682543D01*
X153372882Y-48668264D01*
X153370722Y-48653703D01*
X153370000Y-48639000D01*
X153370000Y-46989000D01*
X153370722Y-46974297D01*
X153372882Y-46959736D01*
X153376459Y-46945457D01*
X153381418Y-46931597D01*
X153387712Y-46918290D01*
X153395280Y-46905664D01*
X153404048Y-46893841D01*
X153413934Y-46882934D01*
X153424841Y-46873048D01*
X153436664Y-46864280D01*
X153449290Y-46856712D01*
X153462597Y-46850418D01*
X153476457Y-46845459D01*
X153490736Y-46841882D01*
X153505297Y-46839722D01*
X153520000Y-46839000D01*
X153820000Y-46839000D01*
X153834703Y-46839722D01*
X153834703Y-46839722D01*
G37*
D11*
X153670000Y-47814000D03*
D10*
G36*
X155104703Y-46839722D02*
G01*
X155119264Y-46841882D01*
X155133543Y-46845459D01*
X155147403Y-46850418D01*
X155160710Y-46856712D01*
X155173336Y-46864280D01*
X155185159Y-46873048D01*
X155196066Y-46882934D01*
X155205952Y-46893841D01*
X155214720Y-46905664D01*
X155222288Y-46918290D01*
X155228582Y-46931597D01*
X155233541Y-46945457D01*
X155237118Y-46959736D01*
X155239278Y-46974297D01*
X155240000Y-46989000D01*
X155240000Y-48639000D01*
X155239278Y-48653703D01*
X155237118Y-48668264D01*
X155233541Y-48682543D01*
X155228582Y-48696403D01*
X155222288Y-48709710D01*
X155214720Y-48722336D01*
X155205952Y-48734159D01*
X155196066Y-48745066D01*
X155185159Y-48754952D01*
X155173336Y-48763720D01*
X155160710Y-48771288D01*
X155147403Y-48777582D01*
X155133543Y-48782541D01*
X155119264Y-48786118D01*
X155104703Y-48788278D01*
X155090000Y-48789000D01*
X154790000Y-48789000D01*
X154775297Y-48788278D01*
X154760736Y-48786118D01*
X154746457Y-48782541D01*
X154732597Y-48777582D01*
X154719290Y-48771288D01*
X154706664Y-48763720D01*
X154694841Y-48754952D01*
X154683934Y-48745066D01*
X154674048Y-48734159D01*
X154665280Y-48722336D01*
X154657712Y-48709710D01*
X154651418Y-48696403D01*
X154646459Y-48682543D01*
X154642882Y-48668264D01*
X154640722Y-48653703D01*
X154640000Y-48639000D01*
X154640000Y-46989000D01*
X154640722Y-46974297D01*
X154642882Y-46959736D01*
X154646459Y-46945457D01*
X154651418Y-46931597D01*
X154657712Y-46918290D01*
X154665280Y-46905664D01*
X154674048Y-46893841D01*
X154683934Y-46882934D01*
X154694841Y-46873048D01*
X154706664Y-46864280D01*
X154719290Y-46856712D01*
X154732597Y-46850418D01*
X154746457Y-46845459D01*
X154760736Y-46841882D01*
X154775297Y-46839722D01*
X154790000Y-46839000D01*
X155090000Y-46839000D01*
X155104703Y-46839722D01*
X155104703Y-46839722D01*
G37*
D11*
X154940000Y-47814000D03*
D10*
G36*
X156374703Y-46839722D02*
G01*
X156389264Y-46841882D01*
X156403543Y-46845459D01*
X156417403Y-46850418D01*
X156430710Y-46856712D01*
X156443336Y-46864280D01*
X156455159Y-46873048D01*
X156466066Y-46882934D01*
X156475952Y-46893841D01*
X156484720Y-46905664D01*
X156492288Y-46918290D01*
X156498582Y-46931597D01*
X156503541Y-46945457D01*
X156507118Y-46959736D01*
X156509278Y-46974297D01*
X156510000Y-46989000D01*
X156510000Y-48639000D01*
X156509278Y-48653703D01*
X156507118Y-48668264D01*
X156503541Y-48682543D01*
X156498582Y-48696403D01*
X156492288Y-48709710D01*
X156484720Y-48722336D01*
X156475952Y-48734159D01*
X156466066Y-48745066D01*
X156455159Y-48754952D01*
X156443336Y-48763720D01*
X156430710Y-48771288D01*
X156417403Y-48777582D01*
X156403543Y-48782541D01*
X156389264Y-48786118D01*
X156374703Y-48788278D01*
X156360000Y-48789000D01*
X156060000Y-48789000D01*
X156045297Y-48788278D01*
X156030736Y-48786118D01*
X156016457Y-48782541D01*
X156002597Y-48777582D01*
X155989290Y-48771288D01*
X155976664Y-48763720D01*
X155964841Y-48754952D01*
X155953934Y-48745066D01*
X155944048Y-48734159D01*
X155935280Y-48722336D01*
X155927712Y-48709710D01*
X155921418Y-48696403D01*
X155916459Y-48682543D01*
X155912882Y-48668264D01*
X155910722Y-48653703D01*
X155910000Y-48639000D01*
X155910000Y-46989000D01*
X155910722Y-46974297D01*
X155912882Y-46959736D01*
X155916459Y-46945457D01*
X155921418Y-46931597D01*
X155927712Y-46918290D01*
X155935280Y-46905664D01*
X155944048Y-46893841D01*
X155953934Y-46882934D01*
X155964841Y-46873048D01*
X155976664Y-46864280D01*
X155989290Y-46856712D01*
X156002597Y-46850418D01*
X156016457Y-46845459D01*
X156030736Y-46841882D01*
X156045297Y-46839722D01*
X156060000Y-46839000D01*
X156360000Y-46839000D01*
X156374703Y-46839722D01*
X156374703Y-46839722D01*
G37*
D11*
X156210000Y-47814000D03*
D10*
G36*
X142531703Y-41889722D02*
G01*
X142546264Y-41891882D01*
X142560543Y-41895459D01*
X142574403Y-41900418D01*
X142587710Y-41906712D01*
X142600336Y-41914280D01*
X142612159Y-41923048D01*
X142623066Y-41932934D01*
X142632952Y-41943841D01*
X142641720Y-41955664D01*
X142649288Y-41968290D01*
X142655582Y-41981597D01*
X142660541Y-41995457D01*
X142664118Y-42009736D01*
X142666278Y-42024297D01*
X142667000Y-42039000D01*
X142667000Y-43689000D01*
X142666278Y-43703703D01*
X142664118Y-43718264D01*
X142660541Y-43732543D01*
X142655582Y-43746403D01*
X142649288Y-43759710D01*
X142641720Y-43772336D01*
X142632952Y-43784159D01*
X142623066Y-43795066D01*
X142612159Y-43804952D01*
X142600336Y-43813720D01*
X142587710Y-43821288D01*
X142574403Y-43827582D01*
X142560543Y-43832541D01*
X142546264Y-43836118D01*
X142531703Y-43838278D01*
X142517000Y-43839000D01*
X142217000Y-43839000D01*
X142202297Y-43838278D01*
X142187736Y-43836118D01*
X142173457Y-43832541D01*
X142159597Y-43827582D01*
X142146290Y-43821288D01*
X142133664Y-43813720D01*
X142121841Y-43804952D01*
X142110934Y-43795066D01*
X142101048Y-43784159D01*
X142092280Y-43772336D01*
X142084712Y-43759710D01*
X142078418Y-43746403D01*
X142073459Y-43732543D01*
X142069882Y-43718264D01*
X142067722Y-43703703D01*
X142067000Y-43689000D01*
X142067000Y-42039000D01*
X142067722Y-42024297D01*
X142069882Y-42009736D01*
X142073459Y-41995457D01*
X142078418Y-41981597D01*
X142084712Y-41968290D01*
X142092280Y-41955664D01*
X142101048Y-41943841D01*
X142110934Y-41932934D01*
X142121841Y-41923048D01*
X142133664Y-41914280D01*
X142146290Y-41906712D01*
X142159597Y-41900418D01*
X142173457Y-41895459D01*
X142187736Y-41891882D01*
X142202297Y-41889722D01*
X142217000Y-41889000D01*
X142517000Y-41889000D01*
X142531703Y-41889722D01*
X142531703Y-41889722D01*
G37*
D11*
X142367000Y-42864000D03*
D10*
G36*
X141261703Y-41889722D02*
G01*
X141276264Y-41891882D01*
X141290543Y-41895459D01*
X141304403Y-41900418D01*
X141317710Y-41906712D01*
X141330336Y-41914280D01*
X141342159Y-41923048D01*
X141353066Y-41932934D01*
X141362952Y-41943841D01*
X141371720Y-41955664D01*
X141379288Y-41968290D01*
X141385582Y-41981597D01*
X141390541Y-41995457D01*
X141394118Y-42009736D01*
X141396278Y-42024297D01*
X141397000Y-42039000D01*
X141397000Y-43689000D01*
X141396278Y-43703703D01*
X141394118Y-43718264D01*
X141390541Y-43732543D01*
X141385582Y-43746403D01*
X141379288Y-43759710D01*
X141371720Y-43772336D01*
X141362952Y-43784159D01*
X141353066Y-43795066D01*
X141342159Y-43804952D01*
X141330336Y-43813720D01*
X141317710Y-43821288D01*
X141304403Y-43827582D01*
X141290543Y-43832541D01*
X141276264Y-43836118D01*
X141261703Y-43838278D01*
X141247000Y-43839000D01*
X140947000Y-43839000D01*
X140932297Y-43838278D01*
X140917736Y-43836118D01*
X140903457Y-43832541D01*
X140889597Y-43827582D01*
X140876290Y-43821288D01*
X140863664Y-43813720D01*
X140851841Y-43804952D01*
X140840934Y-43795066D01*
X140831048Y-43784159D01*
X140822280Y-43772336D01*
X140814712Y-43759710D01*
X140808418Y-43746403D01*
X140803459Y-43732543D01*
X140799882Y-43718264D01*
X140797722Y-43703703D01*
X140797000Y-43689000D01*
X140797000Y-42039000D01*
X140797722Y-42024297D01*
X140799882Y-42009736D01*
X140803459Y-41995457D01*
X140808418Y-41981597D01*
X140814712Y-41968290D01*
X140822280Y-41955664D01*
X140831048Y-41943841D01*
X140840934Y-41932934D01*
X140851841Y-41923048D01*
X140863664Y-41914280D01*
X140876290Y-41906712D01*
X140889597Y-41900418D01*
X140903457Y-41895459D01*
X140917736Y-41891882D01*
X140932297Y-41889722D01*
X140947000Y-41889000D01*
X141247000Y-41889000D01*
X141261703Y-41889722D01*
X141261703Y-41889722D01*
G37*
D11*
X141097000Y-42864000D03*
D10*
G36*
X139991703Y-41889722D02*
G01*
X140006264Y-41891882D01*
X140020543Y-41895459D01*
X140034403Y-41900418D01*
X140047710Y-41906712D01*
X140060336Y-41914280D01*
X140072159Y-41923048D01*
X140083066Y-41932934D01*
X140092952Y-41943841D01*
X140101720Y-41955664D01*
X140109288Y-41968290D01*
X140115582Y-41981597D01*
X140120541Y-41995457D01*
X140124118Y-42009736D01*
X140126278Y-42024297D01*
X140127000Y-42039000D01*
X140127000Y-43689000D01*
X140126278Y-43703703D01*
X140124118Y-43718264D01*
X140120541Y-43732543D01*
X140115582Y-43746403D01*
X140109288Y-43759710D01*
X140101720Y-43772336D01*
X140092952Y-43784159D01*
X140083066Y-43795066D01*
X140072159Y-43804952D01*
X140060336Y-43813720D01*
X140047710Y-43821288D01*
X140034403Y-43827582D01*
X140020543Y-43832541D01*
X140006264Y-43836118D01*
X139991703Y-43838278D01*
X139977000Y-43839000D01*
X139677000Y-43839000D01*
X139662297Y-43838278D01*
X139647736Y-43836118D01*
X139633457Y-43832541D01*
X139619597Y-43827582D01*
X139606290Y-43821288D01*
X139593664Y-43813720D01*
X139581841Y-43804952D01*
X139570934Y-43795066D01*
X139561048Y-43784159D01*
X139552280Y-43772336D01*
X139544712Y-43759710D01*
X139538418Y-43746403D01*
X139533459Y-43732543D01*
X139529882Y-43718264D01*
X139527722Y-43703703D01*
X139527000Y-43689000D01*
X139527000Y-42039000D01*
X139527722Y-42024297D01*
X139529882Y-42009736D01*
X139533459Y-41995457D01*
X139538418Y-41981597D01*
X139544712Y-41968290D01*
X139552280Y-41955664D01*
X139561048Y-41943841D01*
X139570934Y-41932934D01*
X139581841Y-41923048D01*
X139593664Y-41914280D01*
X139606290Y-41906712D01*
X139619597Y-41900418D01*
X139633457Y-41895459D01*
X139647736Y-41891882D01*
X139662297Y-41889722D01*
X139677000Y-41889000D01*
X139977000Y-41889000D01*
X139991703Y-41889722D01*
X139991703Y-41889722D01*
G37*
D11*
X139827000Y-42864000D03*
D10*
G36*
X138721703Y-41889722D02*
G01*
X138736264Y-41891882D01*
X138750543Y-41895459D01*
X138764403Y-41900418D01*
X138777710Y-41906712D01*
X138790336Y-41914280D01*
X138802159Y-41923048D01*
X138813066Y-41932934D01*
X138822952Y-41943841D01*
X138831720Y-41955664D01*
X138839288Y-41968290D01*
X138845582Y-41981597D01*
X138850541Y-41995457D01*
X138854118Y-42009736D01*
X138856278Y-42024297D01*
X138857000Y-42039000D01*
X138857000Y-43689000D01*
X138856278Y-43703703D01*
X138854118Y-43718264D01*
X138850541Y-43732543D01*
X138845582Y-43746403D01*
X138839288Y-43759710D01*
X138831720Y-43772336D01*
X138822952Y-43784159D01*
X138813066Y-43795066D01*
X138802159Y-43804952D01*
X138790336Y-43813720D01*
X138777710Y-43821288D01*
X138764403Y-43827582D01*
X138750543Y-43832541D01*
X138736264Y-43836118D01*
X138721703Y-43838278D01*
X138707000Y-43839000D01*
X138407000Y-43839000D01*
X138392297Y-43838278D01*
X138377736Y-43836118D01*
X138363457Y-43832541D01*
X138349597Y-43827582D01*
X138336290Y-43821288D01*
X138323664Y-43813720D01*
X138311841Y-43804952D01*
X138300934Y-43795066D01*
X138291048Y-43784159D01*
X138282280Y-43772336D01*
X138274712Y-43759710D01*
X138268418Y-43746403D01*
X138263459Y-43732543D01*
X138259882Y-43718264D01*
X138257722Y-43703703D01*
X138257000Y-43689000D01*
X138257000Y-42039000D01*
X138257722Y-42024297D01*
X138259882Y-42009736D01*
X138263459Y-41995457D01*
X138268418Y-41981597D01*
X138274712Y-41968290D01*
X138282280Y-41955664D01*
X138291048Y-41943841D01*
X138300934Y-41932934D01*
X138311841Y-41923048D01*
X138323664Y-41914280D01*
X138336290Y-41906712D01*
X138349597Y-41900418D01*
X138363457Y-41895459D01*
X138377736Y-41891882D01*
X138392297Y-41889722D01*
X138407000Y-41889000D01*
X138707000Y-41889000D01*
X138721703Y-41889722D01*
X138721703Y-41889722D01*
G37*
D11*
X138557000Y-42864000D03*
D10*
G36*
X137451703Y-41889722D02*
G01*
X137466264Y-41891882D01*
X137480543Y-41895459D01*
X137494403Y-41900418D01*
X137507710Y-41906712D01*
X137520336Y-41914280D01*
X137532159Y-41923048D01*
X137543066Y-41932934D01*
X137552952Y-41943841D01*
X137561720Y-41955664D01*
X137569288Y-41968290D01*
X137575582Y-41981597D01*
X137580541Y-41995457D01*
X137584118Y-42009736D01*
X137586278Y-42024297D01*
X137587000Y-42039000D01*
X137587000Y-43689000D01*
X137586278Y-43703703D01*
X137584118Y-43718264D01*
X137580541Y-43732543D01*
X137575582Y-43746403D01*
X137569288Y-43759710D01*
X137561720Y-43772336D01*
X137552952Y-43784159D01*
X137543066Y-43795066D01*
X137532159Y-43804952D01*
X137520336Y-43813720D01*
X137507710Y-43821288D01*
X137494403Y-43827582D01*
X137480543Y-43832541D01*
X137466264Y-43836118D01*
X137451703Y-43838278D01*
X137437000Y-43839000D01*
X137137000Y-43839000D01*
X137122297Y-43838278D01*
X137107736Y-43836118D01*
X137093457Y-43832541D01*
X137079597Y-43827582D01*
X137066290Y-43821288D01*
X137053664Y-43813720D01*
X137041841Y-43804952D01*
X137030934Y-43795066D01*
X137021048Y-43784159D01*
X137012280Y-43772336D01*
X137004712Y-43759710D01*
X136998418Y-43746403D01*
X136993459Y-43732543D01*
X136989882Y-43718264D01*
X136987722Y-43703703D01*
X136987000Y-43689000D01*
X136987000Y-42039000D01*
X136987722Y-42024297D01*
X136989882Y-42009736D01*
X136993459Y-41995457D01*
X136998418Y-41981597D01*
X137004712Y-41968290D01*
X137012280Y-41955664D01*
X137021048Y-41943841D01*
X137030934Y-41932934D01*
X137041841Y-41923048D01*
X137053664Y-41914280D01*
X137066290Y-41906712D01*
X137079597Y-41900418D01*
X137093457Y-41895459D01*
X137107736Y-41891882D01*
X137122297Y-41889722D01*
X137137000Y-41889000D01*
X137437000Y-41889000D01*
X137451703Y-41889722D01*
X137451703Y-41889722D01*
G37*
D11*
X137287000Y-42864000D03*
D10*
G36*
X136181703Y-41889722D02*
G01*
X136196264Y-41891882D01*
X136210543Y-41895459D01*
X136224403Y-41900418D01*
X136237710Y-41906712D01*
X136250336Y-41914280D01*
X136262159Y-41923048D01*
X136273066Y-41932934D01*
X136282952Y-41943841D01*
X136291720Y-41955664D01*
X136299288Y-41968290D01*
X136305582Y-41981597D01*
X136310541Y-41995457D01*
X136314118Y-42009736D01*
X136316278Y-42024297D01*
X136317000Y-42039000D01*
X136317000Y-43689000D01*
X136316278Y-43703703D01*
X136314118Y-43718264D01*
X136310541Y-43732543D01*
X136305582Y-43746403D01*
X136299288Y-43759710D01*
X136291720Y-43772336D01*
X136282952Y-43784159D01*
X136273066Y-43795066D01*
X136262159Y-43804952D01*
X136250336Y-43813720D01*
X136237710Y-43821288D01*
X136224403Y-43827582D01*
X136210543Y-43832541D01*
X136196264Y-43836118D01*
X136181703Y-43838278D01*
X136167000Y-43839000D01*
X135867000Y-43839000D01*
X135852297Y-43838278D01*
X135837736Y-43836118D01*
X135823457Y-43832541D01*
X135809597Y-43827582D01*
X135796290Y-43821288D01*
X135783664Y-43813720D01*
X135771841Y-43804952D01*
X135760934Y-43795066D01*
X135751048Y-43784159D01*
X135742280Y-43772336D01*
X135734712Y-43759710D01*
X135728418Y-43746403D01*
X135723459Y-43732543D01*
X135719882Y-43718264D01*
X135717722Y-43703703D01*
X135717000Y-43689000D01*
X135717000Y-42039000D01*
X135717722Y-42024297D01*
X135719882Y-42009736D01*
X135723459Y-41995457D01*
X135728418Y-41981597D01*
X135734712Y-41968290D01*
X135742280Y-41955664D01*
X135751048Y-41943841D01*
X135760934Y-41932934D01*
X135771841Y-41923048D01*
X135783664Y-41914280D01*
X135796290Y-41906712D01*
X135809597Y-41900418D01*
X135823457Y-41895459D01*
X135837736Y-41891882D01*
X135852297Y-41889722D01*
X135867000Y-41889000D01*
X136167000Y-41889000D01*
X136181703Y-41889722D01*
X136181703Y-41889722D01*
G37*
D11*
X136017000Y-42864000D03*
D10*
G36*
X134911703Y-41889722D02*
G01*
X134926264Y-41891882D01*
X134940543Y-41895459D01*
X134954403Y-41900418D01*
X134967710Y-41906712D01*
X134980336Y-41914280D01*
X134992159Y-41923048D01*
X135003066Y-41932934D01*
X135012952Y-41943841D01*
X135021720Y-41955664D01*
X135029288Y-41968290D01*
X135035582Y-41981597D01*
X135040541Y-41995457D01*
X135044118Y-42009736D01*
X135046278Y-42024297D01*
X135047000Y-42039000D01*
X135047000Y-43689000D01*
X135046278Y-43703703D01*
X135044118Y-43718264D01*
X135040541Y-43732543D01*
X135035582Y-43746403D01*
X135029288Y-43759710D01*
X135021720Y-43772336D01*
X135012952Y-43784159D01*
X135003066Y-43795066D01*
X134992159Y-43804952D01*
X134980336Y-43813720D01*
X134967710Y-43821288D01*
X134954403Y-43827582D01*
X134940543Y-43832541D01*
X134926264Y-43836118D01*
X134911703Y-43838278D01*
X134897000Y-43839000D01*
X134597000Y-43839000D01*
X134582297Y-43838278D01*
X134567736Y-43836118D01*
X134553457Y-43832541D01*
X134539597Y-43827582D01*
X134526290Y-43821288D01*
X134513664Y-43813720D01*
X134501841Y-43804952D01*
X134490934Y-43795066D01*
X134481048Y-43784159D01*
X134472280Y-43772336D01*
X134464712Y-43759710D01*
X134458418Y-43746403D01*
X134453459Y-43732543D01*
X134449882Y-43718264D01*
X134447722Y-43703703D01*
X134447000Y-43689000D01*
X134447000Y-42039000D01*
X134447722Y-42024297D01*
X134449882Y-42009736D01*
X134453459Y-41995457D01*
X134458418Y-41981597D01*
X134464712Y-41968290D01*
X134472280Y-41955664D01*
X134481048Y-41943841D01*
X134490934Y-41932934D01*
X134501841Y-41923048D01*
X134513664Y-41914280D01*
X134526290Y-41906712D01*
X134539597Y-41900418D01*
X134553457Y-41895459D01*
X134567736Y-41891882D01*
X134582297Y-41889722D01*
X134597000Y-41889000D01*
X134897000Y-41889000D01*
X134911703Y-41889722D01*
X134911703Y-41889722D01*
G37*
D11*
X134747000Y-42864000D03*
D10*
G36*
X134911703Y-46839722D02*
G01*
X134926264Y-46841882D01*
X134940543Y-46845459D01*
X134954403Y-46850418D01*
X134967710Y-46856712D01*
X134980336Y-46864280D01*
X134992159Y-46873048D01*
X135003066Y-46882934D01*
X135012952Y-46893841D01*
X135021720Y-46905664D01*
X135029288Y-46918290D01*
X135035582Y-46931597D01*
X135040541Y-46945457D01*
X135044118Y-46959736D01*
X135046278Y-46974297D01*
X135047000Y-46989000D01*
X135047000Y-48639000D01*
X135046278Y-48653703D01*
X135044118Y-48668264D01*
X135040541Y-48682543D01*
X135035582Y-48696403D01*
X135029288Y-48709710D01*
X135021720Y-48722336D01*
X135012952Y-48734159D01*
X135003066Y-48745066D01*
X134992159Y-48754952D01*
X134980336Y-48763720D01*
X134967710Y-48771288D01*
X134954403Y-48777582D01*
X134940543Y-48782541D01*
X134926264Y-48786118D01*
X134911703Y-48788278D01*
X134897000Y-48789000D01*
X134597000Y-48789000D01*
X134582297Y-48788278D01*
X134567736Y-48786118D01*
X134553457Y-48782541D01*
X134539597Y-48777582D01*
X134526290Y-48771288D01*
X134513664Y-48763720D01*
X134501841Y-48754952D01*
X134490934Y-48745066D01*
X134481048Y-48734159D01*
X134472280Y-48722336D01*
X134464712Y-48709710D01*
X134458418Y-48696403D01*
X134453459Y-48682543D01*
X134449882Y-48668264D01*
X134447722Y-48653703D01*
X134447000Y-48639000D01*
X134447000Y-46989000D01*
X134447722Y-46974297D01*
X134449882Y-46959736D01*
X134453459Y-46945457D01*
X134458418Y-46931597D01*
X134464712Y-46918290D01*
X134472280Y-46905664D01*
X134481048Y-46893841D01*
X134490934Y-46882934D01*
X134501841Y-46873048D01*
X134513664Y-46864280D01*
X134526290Y-46856712D01*
X134539597Y-46850418D01*
X134553457Y-46845459D01*
X134567736Y-46841882D01*
X134582297Y-46839722D01*
X134597000Y-46839000D01*
X134897000Y-46839000D01*
X134911703Y-46839722D01*
X134911703Y-46839722D01*
G37*
D11*
X134747000Y-47814000D03*
D10*
G36*
X136181703Y-46839722D02*
G01*
X136196264Y-46841882D01*
X136210543Y-46845459D01*
X136224403Y-46850418D01*
X136237710Y-46856712D01*
X136250336Y-46864280D01*
X136262159Y-46873048D01*
X136273066Y-46882934D01*
X136282952Y-46893841D01*
X136291720Y-46905664D01*
X136299288Y-46918290D01*
X136305582Y-46931597D01*
X136310541Y-46945457D01*
X136314118Y-46959736D01*
X136316278Y-46974297D01*
X136317000Y-46989000D01*
X136317000Y-48639000D01*
X136316278Y-48653703D01*
X136314118Y-48668264D01*
X136310541Y-48682543D01*
X136305582Y-48696403D01*
X136299288Y-48709710D01*
X136291720Y-48722336D01*
X136282952Y-48734159D01*
X136273066Y-48745066D01*
X136262159Y-48754952D01*
X136250336Y-48763720D01*
X136237710Y-48771288D01*
X136224403Y-48777582D01*
X136210543Y-48782541D01*
X136196264Y-48786118D01*
X136181703Y-48788278D01*
X136167000Y-48789000D01*
X135867000Y-48789000D01*
X135852297Y-48788278D01*
X135837736Y-48786118D01*
X135823457Y-48782541D01*
X135809597Y-48777582D01*
X135796290Y-48771288D01*
X135783664Y-48763720D01*
X135771841Y-48754952D01*
X135760934Y-48745066D01*
X135751048Y-48734159D01*
X135742280Y-48722336D01*
X135734712Y-48709710D01*
X135728418Y-48696403D01*
X135723459Y-48682543D01*
X135719882Y-48668264D01*
X135717722Y-48653703D01*
X135717000Y-48639000D01*
X135717000Y-46989000D01*
X135717722Y-46974297D01*
X135719882Y-46959736D01*
X135723459Y-46945457D01*
X135728418Y-46931597D01*
X135734712Y-46918290D01*
X135742280Y-46905664D01*
X135751048Y-46893841D01*
X135760934Y-46882934D01*
X135771841Y-46873048D01*
X135783664Y-46864280D01*
X135796290Y-46856712D01*
X135809597Y-46850418D01*
X135823457Y-46845459D01*
X135837736Y-46841882D01*
X135852297Y-46839722D01*
X135867000Y-46839000D01*
X136167000Y-46839000D01*
X136181703Y-46839722D01*
X136181703Y-46839722D01*
G37*
D11*
X136017000Y-47814000D03*
D10*
G36*
X137451703Y-46839722D02*
G01*
X137466264Y-46841882D01*
X137480543Y-46845459D01*
X137494403Y-46850418D01*
X137507710Y-46856712D01*
X137520336Y-46864280D01*
X137532159Y-46873048D01*
X137543066Y-46882934D01*
X137552952Y-46893841D01*
X137561720Y-46905664D01*
X137569288Y-46918290D01*
X137575582Y-46931597D01*
X137580541Y-46945457D01*
X137584118Y-46959736D01*
X137586278Y-46974297D01*
X137587000Y-46989000D01*
X137587000Y-48639000D01*
X137586278Y-48653703D01*
X137584118Y-48668264D01*
X137580541Y-48682543D01*
X137575582Y-48696403D01*
X137569288Y-48709710D01*
X137561720Y-48722336D01*
X137552952Y-48734159D01*
X137543066Y-48745066D01*
X137532159Y-48754952D01*
X137520336Y-48763720D01*
X137507710Y-48771288D01*
X137494403Y-48777582D01*
X137480543Y-48782541D01*
X137466264Y-48786118D01*
X137451703Y-48788278D01*
X137437000Y-48789000D01*
X137137000Y-48789000D01*
X137122297Y-48788278D01*
X137107736Y-48786118D01*
X137093457Y-48782541D01*
X137079597Y-48777582D01*
X137066290Y-48771288D01*
X137053664Y-48763720D01*
X137041841Y-48754952D01*
X137030934Y-48745066D01*
X137021048Y-48734159D01*
X137012280Y-48722336D01*
X137004712Y-48709710D01*
X136998418Y-48696403D01*
X136993459Y-48682543D01*
X136989882Y-48668264D01*
X136987722Y-48653703D01*
X136987000Y-48639000D01*
X136987000Y-46989000D01*
X136987722Y-46974297D01*
X136989882Y-46959736D01*
X136993459Y-46945457D01*
X136998418Y-46931597D01*
X137004712Y-46918290D01*
X137012280Y-46905664D01*
X137021048Y-46893841D01*
X137030934Y-46882934D01*
X137041841Y-46873048D01*
X137053664Y-46864280D01*
X137066290Y-46856712D01*
X137079597Y-46850418D01*
X137093457Y-46845459D01*
X137107736Y-46841882D01*
X137122297Y-46839722D01*
X137137000Y-46839000D01*
X137437000Y-46839000D01*
X137451703Y-46839722D01*
X137451703Y-46839722D01*
G37*
D11*
X137287000Y-47814000D03*
D10*
G36*
X138721703Y-46839722D02*
G01*
X138736264Y-46841882D01*
X138750543Y-46845459D01*
X138764403Y-46850418D01*
X138777710Y-46856712D01*
X138790336Y-46864280D01*
X138802159Y-46873048D01*
X138813066Y-46882934D01*
X138822952Y-46893841D01*
X138831720Y-46905664D01*
X138839288Y-46918290D01*
X138845582Y-46931597D01*
X138850541Y-46945457D01*
X138854118Y-46959736D01*
X138856278Y-46974297D01*
X138857000Y-46989000D01*
X138857000Y-48639000D01*
X138856278Y-48653703D01*
X138854118Y-48668264D01*
X138850541Y-48682543D01*
X138845582Y-48696403D01*
X138839288Y-48709710D01*
X138831720Y-48722336D01*
X138822952Y-48734159D01*
X138813066Y-48745066D01*
X138802159Y-48754952D01*
X138790336Y-48763720D01*
X138777710Y-48771288D01*
X138764403Y-48777582D01*
X138750543Y-48782541D01*
X138736264Y-48786118D01*
X138721703Y-48788278D01*
X138707000Y-48789000D01*
X138407000Y-48789000D01*
X138392297Y-48788278D01*
X138377736Y-48786118D01*
X138363457Y-48782541D01*
X138349597Y-48777582D01*
X138336290Y-48771288D01*
X138323664Y-48763720D01*
X138311841Y-48754952D01*
X138300934Y-48745066D01*
X138291048Y-48734159D01*
X138282280Y-48722336D01*
X138274712Y-48709710D01*
X138268418Y-48696403D01*
X138263459Y-48682543D01*
X138259882Y-48668264D01*
X138257722Y-48653703D01*
X138257000Y-48639000D01*
X138257000Y-46989000D01*
X138257722Y-46974297D01*
X138259882Y-46959736D01*
X138263459Y-46945457D01*
X138268418Y-46931597D01*
X138274712Y-46918290D01*
X138282280Y-46905664D01*
X138291048Y-46893841D01*
X138300934Y-46882934D01*
X138311841Y-46873048D01*
X138323664Y-46864280D01*
X138336290Y-46856712D01*
X138349597Y-46850418D01*
X138363457Y-46845459D01*
X138377736Y-46841882D01*
X138392297Y-46839722D01*
X138407000Y-46839000D01*
X138707000Y-46839000D01*
X138721703Y-46839722D01*
X138721703Y-46839722D01*
G37*
D11*
X138557000Y-47814000D03*
D10*
G36*
X139991703Y-46839722D02*
G01*
X140006264Y-46841882D01*
X140020543Y-46845459D01*
X140034403Y-46850418D01*
X140047710Y-46856712D01*
X140060336Y-46864280D01*
X140072159Y-46873048D01*
X140083066Y-46882934D01*
X140092952Y-46893841D01*
X140101720Y-46905664D01*
X140109288Y-46918290D01*
X140115582Y-46931597D01*
X140120541Y-46945457D01*
X140124118Y-46959736D01*
X140126278Y-46974297D01*
X140127000Y-46989000D01*
X140127000Y-48639000D01*
X140126278Y-48653703D01*
X140124118Y-48668264D01*
X140120541Y-48682543D01*
X140115582Y-48696403D01*
X140109288Y-48709710D01*
X140101720Y-48722336D01*
X140092952Y-48734159D01*
X140083066Y-48745066D01*
X140072159Y-48754952D01*
X140060336Y-48763720D01*
X140047710Y-48771288D01*
X140034403Y-48777582D01*
X140020543Y-48782541D01*
X140006264Y-48786118D01*
X139991703Y-48788278D01*
X139977000Y-48789000D01*
X139677000Y-48789000D01*
X139662297Y-48788278D01*
X139647736Y-48786118D01*
X139633457Y-48782541D01*
X139619597Y-48777582D01*
X139606290Y-48771288D01*
X139593664Y-48763720D01*
X139581841Y-48754952D01*
X139570934Y-48745066D01*
X139561048Y-48734159D01*
X139552280Y-48722336D01*
X139544712Y-48709710D01*
X139538418Y-48696403D01*
X139533459Y-48682543D01*
X139529882Y-48668264D01*
X139527722Y-48653703D01*
X139527000Y-48639000D01*
X139527000Y-46989000D01*
X139527722Y-46974297D01*
X139529882Y-46959736D01*
X139533459Y-46945457D01*
X139538418Y-46931597D01*
X139544712Y-46918290D01*
X139552280Y-46905664D01*
X139561048Y-46893841D01*
X139570934Y-46882934D01*
X139581841Y-46873048D01*
X139593664Y-46864280D01*
X139606290Y-46856712D01*
X139619597Y-46850418D01*
X139633457Y-46845459D01*
X139647736Y-46841882D01*
X139662297Y-46839722D01*
X139677000Y-46839000D01*
X139977000Y-46839000D01*
X139991703Y-46839722D01*
X139991703Y-46839722D01*
G37*
D11*
X139827000Y-47814000D03*
D10*
G36*
X141261703Y-46839722D02*
G01*
X141276264Y-46841882D01*
X141290543Y-46845459D01*
X141304403Y-46850418D01*
X141317710Y-46856712D01*
X141330336Y-46864280D01*
X141342159Y-46873048D01*
X141353066Y-46882934D01*
X141362952Y-46893841D01*
X141371720Y-46905664D01*
X141379288Y-46918290D01*
X141385582Y-46931597D01*
X141390541Y-46945457D01*
X141394118Y-46959736D01*
X141396278Y-46974297D01*
X141397000Y-46989000D01*
X141397000Y-48639000D01*
X141396278Y-48653703D01*
X141394118Y-48668264D01*
X141390541Y-48682543D01*
X141385582Y-48696403D01*
X141379288Y-48709710D01*
X141371720Y-48722336D01*
X141362952Y-48734159D01*
X141353066Y-48745066D01*
X141342159Y-48754952D01*
X141330336Y-48763720D01*
X141317710Y-48771288D01*
X141304403Y-48777582D01*
X141290543Y-48782541D01*
X141276264Y-48786118D01*
X141261703Y-48788278D01*
X141247000Y-48789000D01*
X140947000Y-48789000D01*
X140932297Y-48788278D01*
X140917736Y-48786118D01*
X140903457Y-48782541D01*
X140889597Y-48777582D01*
X140876290Y-48771288D01*
X140863664Y-48763720D01*
X140851841Y-48754952D01*
X140840934Y-48745066D01*
X140831048Y-48734159D01*
X140822280Y-48722336D01*
X140814712Y-48709710D01*
X140808418Y-48696403D01*
X140803459Y-48682543D01*
X140799882Y-48668264D01*
X140797722Y-48653703D01*
X140797000Y-48639000D01*
X140797000Y-46989000D01*
X140797722Y-46974297D01*
X140799882Y-46959736D01*
X140803459Y-46945457D01*
X140808418Y-46931597D01*
X140814712Y-46918290D01*
X140822280Y-46905664D01*
X140831048Y-46893841D01*
X140840934Y-46882934D01*
X140851841Y-46873048D01*
X140863664Y-46864280D01*
X140876290Y-46856712D01*
X140889597Y-46850418D01*
X140903457Y-46845459D01*
X140917736Y-46841882D01*
X140932297Y-46839722D01*
X140947000Y-46839000D01*
X141247000Y-46839000D01*
X141261703Y-46839722D01*
X141261703Y-46839722D01*
G37*
D11*
X141097000Y-47814000D03*
D10*
G36*
X142531703Y-46839722D02*
G01*
X142546264Y-46841882D01*
X142560543Y-46845459D01*
X142574403Y-46850418D01*
X142587710Y-46856712D01*
X142600336Y-46864280D01*
X142612159Y-46873048D01*
X142623066Y-46882934D01*
X142632952Y-46893841D01*
X142641720Y-46905664D01*
X142649288Y-46918290D01*
X142655582Y-46931597D01*
X142660541Y-46945457D01*
X142664118Y-46959736D01*
X142666278Y-46974297D01*
X142667000Y-46989000D01*
X142667000Y-48639000D01*
X142666278Y-48653703D01*
X142664118Y-48668264D01*
X142660541Y-48682543D01*
X142655582Y-48696403D01*
X142649288Y-48709710D01*
X142641720Y-48722336D01*
X142632952Y-48734159D01*
X142623066Y-48745066D01*
X142612159Y-48754952D01*
X142600336Y-48763720D01*
X142587710Y-48771288D01*
X142574403Y-48777582D01*
X142560543Y-48782541D01*
X142546264Y-48786118D01*
X142531703Y-48788278D01*
X142517000Y-48789000D01*
X142217000Y-48789000D01*
X142202297Y-48788278D01*
X142187736Y-48786118D01*
X142173457Y-48782541D01*
X142159597Y-48777582D01*
X142146290Y-48771288D01*
X142133664Y-48763720D01*
X142121841Y-48754952D01*
X142110934Y-48745066D01*
X142101048Y-48734159D01*
X142092280Y-48722336D01*
X142084712Y-48709710D01*
X142078418Y-48696403D01*
X142073459Y-48682543D01*
X142069882Y-48668264D01*
X142067722Y-48653703D01*
X142067000Y-48639000D01*
X142067000Y-46989000D01*
X142067722Y-46974297D01*
X142069882Y-46959736D01*
X142073459Y-46945457D01*
X142078418Y-46931597D01*
X142084712Y-46918290D01*
X142092280Y-46905664D01*
X142101048Y-46893841D01*
X142110934Y-46882934D01*
X142121841Y-46873048D01*
X142133664Y-46864280D01*
X142146290Y-46856712D01*
X142159597Y-46850418D01*
X142173457Y-46845459D01*
X142187736Y-46841882D01*
X142202297Y-46839722D01*
X142217000Y-46839000D01*
X142517000Y-46839000D01*
X142531703Y-46839722D01*
X142531703Y-46839722D01*
G37*
D11*
X142367000Y-47814000D03*
D10*
G36*
X130593703Y-46839722D02*
G01*
X130608264Y-46841882D01*
X130622543Y-46845459D01*
X130636403Y-46850418D01*
X130649710Y-46856712D01*
X130662336Y-46864280D01*
X130674159Y-46873048D01*
X130685066Y-46882934D01*
X130694952Y-46893841D01*
X130703720Y-46905664D01*
X130711288Y-46918290D01*
X130717582Y-46931597D01*
X130722541Y-46945457D01*
X130726118Y-46959736D01*
X130728278Y-46974297D01*
X130729000Y-46989000D01*
X130729000Y-48639000D01*
X130728278Y-48653703D01*
X130726118Y-48668264D01*
X130722541Y-48682543D01*
X130717582Y-48696403D01*
X130711288Y-48709710D01*
X130703720Y-48722336D01*
X130694952Y-48734159D01*
X130685066Y-48745066D01*
X130674159Y-48754952D01*
X130662336Y-48763720D01*
X130649710Y-48771288D01*
X130636403Y-48777582D01*
X130622543Y-48782541D01*
X130608264Y-48786118D01*
X130593703Y-48788278D01*
X130579000Y-48789000D01*
X130279000Y-48789000D01*
X130264297Y-48788278D01*
X130249736Y-48786118D01*
X130235457Y-48782541D01*
X130221597Y-48777582D01*
X130208290Y-48771288D01*
X130195664Y-48763720D01*
X130183841Y-48754952D01*
X130172934Y-48745066D01*
X130163048Y-48734159D01*
X130154280Y-48722336D01*
X130146712Y-48709710D01*
X130140418Y-48696403D01*
X130135459Y-48682543D01*
X130131882Y-48668264D01*
X130129722Y-48653703D01*
X130129000Y-48639000D01*
X130129000Y-46989000D01*
X130129722Y-46974297D01*
X130131882Y-46959736D01*
X130135459Y-46945457D01*
X130140418Y-46931597D01*
X130146712Y-46918290D01*
X130154280Y-46905664D01*
X130163048Y-46893841D01*
X130172934Y-46882934D01*
X130183841Y-46873048D01*
X130195664Y-46864280D01*
X130208290Y-46856712D01*
X130221597Y-46850418D01*
X130235457Y-46845459D01*
X130249736Y-46841882D01*
X130264297Y-46839722D01*
X130279000Y-46839000D01*
X130579000Y-46839000D01*
X130593703Y-46839722D01*
X130593703Y-46839722D01*
G37*
D11*
X130429000Y-47814000D03*
D10*
G36*
X129323703Y-46839722D02*
G01*
X129338264Y-46841882D01*
X129352543Y-46845459D01*
X129366403Y-46850418D01*
X129379710Y-46856712D01*
X129392336Y-46864280D01*
X129404159Y-46873048D01*
X129415066Y-46882934D01*
X129424952Y-46893841D01*
X129433720Y-46905664D01*
X129441288Y-46918290D01*
X129447582Y-46931597D01*
X129452541Y-46945457D01*
X129456118Y-46959736D01*
X129458278Y-46974297D01*
X129459000Y-46989000D01*
X129459000Y-48639000D01*
X129458278Y-48653703D01*
X129456118Y-48668264D01*
X129452541Y-48682543D01*
X129447582Y-48696403D01*
X129441288Y-48709710D01*
X129433720Y-48722336D01*
X129424952Y-48734159D01*
X129415066Y-48745066D01*
X129404159Y-48754952D01*
X129392336Y-48763720D01*
X129379710Y-48771288D01*
X129366403Y-48777582D01*
X129352543Y-48782541D01*
X129338264Y-48786118D01*
X129323703Y-48788278D01*
X129309000Y-48789000D01*
X129009000Y-48789000D01*
X128994297Y-48788278D01*
X128979736Y-48786118D01*
X128965457Y-48782541D01*
X128951597Y-48777582D01*
X128938290Y-48771288D01*
X128925664Y-48763720D01*
X128913841Y-48754952D01*
X128902934Y-48745066D01*
X128893048Y-48734159D01*
X128884280Y-48722336D01*
X128876712Y-48709710D01*
X128870418Y-48696403D01*
X128865459Y-48682543D01*
X128861882Y-48668264D01*
X128859722Y-48653703D01*
X128859000Y-48639000D01*
X128859000Y-46989000D01*
X128859722Y-46974297D01*
X128861882Y-46959736D01*
X128865459Y-46945457D01*
X128870418Y-46931597D01*
X128876712Y-46918290D01*
X128884280Y-46905664D01*
X128893048Y-46893841D01*
X128902934Y-46882934D01*
X128913841Y-46873048D01*
X128925664Y-46864280D01*
X128938290Y-46856712D01*
X128951597Y-46850418D01*
X128965457Y-46845459D01*
X128979736Y-46841882D01*
X128994297Y-46839722D01*
X129009000Y-46839000D01*
X129309000Y-46839000D01*
X129323703Y-46839722D01*
X129323703Y-46839722D01*
G37*
D11*
X129159000Y-47814000D03*
D10*
G36*
X128053703Y-46839722D02*
G01*
X128068264Y-46841882D01*
X128082543Y-46845459D01*
X128096403Y-46850418D01*
X128109710Y-46856712D01*
X128122336Y-46864280D01*
X128134159Y-46873048D01*
X128145066Y-46882934D01*
X128154952Y-46893841D01*
X128163720Y-46905664D01*
X128171288Y-46918290D01*
X128177582Y-46931597D01*
X128182541Y-46945457D01*
X128186118Y-46959736D01*
X128188278Y-46974297D01*
X128189000Y-46989000D01*
X128189000Y-48639000D01*
X128188278Y-48653703D01*
X128186118Y-48668264D01*
X128182541Y-48682543D01*
X128177582Y-48696403D01*
X128171288Y-48709710D01*
X128163720Y-48722336D01*
X128154952Y-48734159D01*
X128145066Y-48745066D01*
X128134159Y-48754952D01*
X128122336Y-48763720D01*
X128109710Y-48771288D01*
X128096403Y-48777582D01*
X128082543Y-48782541D01*
X128068264Y-48786118D01*
X128053703Y-48788278D01*
X128039000Y-48789000D01*
X127739000Y-48789000D01*
X127724297Y-48788278D01*
X127709736Y-48786118D01*
X127695457Y-48782541D01*
X127681597Y-48777582D01*
X127668290Y-48771288D01*
X127655664Y-48763720D01*
X127643841Y-48754952D01*
X127632934Y-48745066D01*
X127623048Y-48734159D01*
X127614280Y-48722336D01*
X127606712Y-48709710D01*
X127600418Y-48696403D01*
X127595459Y-48682543D01*
X127591882Y-48668264D01*
X127589722Y-48653703D01*
X127589000Y-48639000D01*
X127589000Y-46989000D01*
X127589722Y-46974297D01*
X127591882Y-46959736D01*
X127595459Y-46945457D01*
X127600418Y-46931597D01*
X127606712Y-46918290D01*
X127614280Y-46905664D01*
X127623048Y-46893841D01*
X127632934Y-46882934D01*
X127643841Y-46873048D01*
X127655664Y-46864280D01*
X127668290Y-46856712D01*
X127681597Y-46850418D01*
X127695457Y-46845459D01*
X127709736Y-46841882D01*
X127724297Y-46839722D01*
X127739000Y-46839000D01*
X128039000Y-46839000D01*
X128053703Y-46839722D01*
X128053703Y-46839722D01*
G37*
D11*
X127889000Y-47814000D03*
D10*
G36*
X126783703Y-46839722D02*
G01*
X126798264Y-46841882D01*
X126812543Y-46845459D01*
X126826403Y-46850418D01*
X126839710Y-46856712D01*
X126852336Y-46864280D01*
X126864159Y-46873048D01*
X126875066Y-46882934D01*
X126884952Y-46893841D01*
X126893720Y-46905664D01*
X126901288Y-46918290D01*
X126907582Y-46931597D01*
X126912541Y-46945457D01*
X126916118Y-46959736D01*
X126918278Y-46974297D01*
X126919000Y-46989000D01*
X126919000Y-48639000D01*
X126918278Y-48653703D01*
X126916118Y-48668264D01*
X126912541Y-48682543D01*
X126907582Y-48696403D01*
X126901288Y-48709710D01*
X126893720Y-48722336D01*
X126884952Y-48734159D01*
X126875066Y-48745066D01*
X126864159Y-48754952D01*
X126852336Y-48763720D01*
X126839710Y-48771288D01*
X126826403Y-48777582D01*
X126812543Y-48782541D01*
X126798264Y-48786118D01*
X126783703Y-48788278D01*
X126769000Y-48789000D01*
X126469000Y-48789000D01*
X126454297Y-48788278D01*
X126439736Y-48786118D01*
X126425457Y-48782541D01*
X126411597Y-48777582D01*
X126398290Y-48771288D01*
X126385664Y-48763720D01*
X126373841Y-48754952D01*
X126362934Y-48745066D01*
X126353048Y-48734159D01*
X126344280Y-48722336D01*
X126336712Y-48709710D01*
X126330418Y-48696403D01*
X126325459Y-48682543D01*
X126321882Y-48668264D01*
X126319722Y-48653703D01*
X126319000Y-48639000D01*
X126319000Y-46989000D01*
X126319722Y-46974297D01*
X126321882Y-46959736D01*
X126325459Y-46945457D01*
X126330418Y-46931597D01*
X126336712Y-46918290D01*
X126344280Y-46905664D01*
X126353048Y-46893841D01*
X126362934Y-46882934D01*
X126373841Y-46873048D01*
X126385664Y-46864280D01*
X126398290Y-46856712D01*
X126411597Y-46850418D01*
X126425457Y-46845459D01*
X126439736Y-46841882D01*
X126454297Y-46839722D01*
X126469000Y-46839000D01*
X126769000Y-46839000D01*
X126783703Y-46839722D01*
X126783703Y-46839722D01*
G37*
D11*
X126619000Y-47814000D03*
D10*
G36*
X125513703Y-46839722D02*
G01*
X125528264Y-46841882D01*
X125542543Y-46845459D01*
X125556403Y-46850418D01*
X125569710Y-46856712D01*
X125582336Y-46864280D01*
X125594159Y-46873048D01*
X125605066Y-46882934D01*
X125614952Y-46893841D01*
X125623720Y-46905664D01*
X125631288Y-46918290D01*
X125637582Y-46931597D01*
X125642541Y-46945457D01*
X125646118Y-46959736D01*
X125648278Y-46974297D01*
X125649000Y-46989000D01*
X125649000Y-48639000D01*
X125648278Y-48653703D01*
X125646118Y-48668264D01*
X125642541Y-48682543D01*
X125637582Y-48696403D01*
X125631288Y-48709710D01*
X125623720Y-48722336D01*
X125614952Y-48734159D01*
X125605066Y-48745066D01*
X125594159Y-48754952D01*
X125582336Y-48763720D01*
X125569710Y-48771288D01*
X125556403Y-48777582D01*
X125542543Y-48782541D01*
X125528264Y-48786118D01*
X125513703Y-48788278D01*
X125499000Y-48789000D01*
X125199000Y-48789000D01*
X125184297Y-48788278D01*
X125169736Y-48786118D01*
X125155457Y-48782541D01*
X125141597Y-48777582D01*
X125128290Y-48771288D01*
X125115664Y-48763720D01*
X125103841Y-48754952D01*
X125092934Y-48745066D01*
X125083048Y-48734159D01*
X125074280Y-48722336D01*
X125066712Y-48709710D01*
X125060418Y-48696403D01*
X125055459Y-48682543D01*
X125051882Y-48668264D01*
X125049722Y-48653703D01*
X125049000Y-48639000D01*
X125049000Y-46989000D01*
X125049722Y-46974297D01*
X125051882Y-46959736D01*
X125055459Y-46945457D01*
X125060418Y-46931597D01*
X125066712Y-46918290D01*
X125074280Y-46905664D01*
X125083048Y-46893841D01*
X125092934Y-46882934D01*
X125103841Y-46873048D01*
X125115664Y-46864280D01*
X125128290Y-46856712D01*
X125141597Y-46850418D01*
X125155457Y-46845459D01*
X125169736Y-46841882D01*
X125184297Y-46839722D01*
X125199000Y-46839000D01*
X125499000Y-46839000D01*
X125513703Y-46839722D01*
X125513703Y-46839722D01*
G37*
D11*
X125349000Y-47814000D03*
D10*
G36*
X124243703Y-46839722D02*
G01*
X124258264Y-46841882D01*
X124272543Y-46845459D01*
X124286403Y-46850418D01*
X124299710Y-46856712D01*
X124312336Y-46864280D01*
X124324159Y-46873048D01*
X124335066Y-46882934D01*
X124344952Y-46893841D01*
X124353720Y-46905664D01*
X124361288Y-46918290D01*
X124367582Y-46931597D01*
X124372541Y-46945457D01*
X124376118Y-46959736D01*
X124378278Y-46974297D01*
X124379000Y-46989000D01*
X124379000Y-48639000D01*
X124378278Y-48653703D01*
X124376118Y-48668264D01*
X124372541Y-48682543D01*
X124367582Y-48696403D01*
X124361288Y-48709710D01*
X124353720Y-48722336D01*
X124344952Y-48734159D01*
X124335066Y-48745066D01*
X124324159Y-48754952D01*
X124312336Y-48763720D01*
X124299710Y-48771288D01*
X124286403Y-48777582D01*
X124272543Y-48782541D01*
X124258264Y-48786118D01*
X124243703Y-48788278D01*
X124229000Y-48789000D01*
X123929000Y-48789000D01*
X123914297Y-48788278D01*
X123899736Y-48786118D01*
X123885457Y-48782541D01*
X123871597Y-48777582D01*
X123858290Y-48771288D01*
X123845664Y-48763720D01*
X123833841Y-48754952D01*
X123822934Y-48745066D01*
X123813048Y-48734159D01*
X123804280Y-48722336D01*
X123796712Y-48709710D01*
X123790418Y-48696403D01*
X123785459Y-48682543D01*
X123781882Y-48668264D01*
X123779722Y-48653703D01*
X123779000Y-48639000D01*
X123779000Y-46989000D01*
X123779722Y-46974297D01*
X123781882Y-46959736D01*
X123785459Y-46945457D01*
X123790418Y-46931597D01*
X123796712Y-46918290D01*
X123804280Y-46905664D01*
X123813048Y-46893841D01*
X123822934Y-46882934D01*
X123833841Y-46873048D01*
X123845664Y-46864280D01*
X123858290Y-46856712D01*
X123871597Y-46850418D01*
X123885457Y-46845459D01*
X123899736Y-46841882D01*
X123914297Y-46839722D01*
X123929000Y-46839000D01*
X124229000Y-46839000D01*
X124243703Y-46839722D01*
X124243703Y-46839722D01*
G37*
D11*
X124079000Y-47814000D03*
D10*
G36*
X122973703Y-46839722D02*
G01*
X122988264Y-46841882D01*
X123002543Y-46845459D01*
X123016403Y-46850418D01*
X123029710Y-46856712D01*
X123042336Y-46864280D01*
X123054159Y-46873048D01*
X123065066Y-46882934D01*
X123074952Y-46893841D01*
X123083720Y-46905664D01*
X123091288Y-46918290D01*
X123097582Y-46931597D01*
X123102541Y-46945457D01*
X123106118Y-46959736D01*
X123108278Y-46974297D01*
X123109000Y-46989000D01*
X123109000Y-48639000D01*
X123108278Y-48653703D01*
X123106118Y-48668264D01*
X123102541Y-48682543D01*
X123097582Y-48696403D01*
X123091288Y-48709710D01*
X123083720Y-48722336D01*
X123074952Y-48734159D01*
X123065066Y-48745066D01*
X123054159Y-48754952D01*
X123042336Y-48763720D01*
X123029710Y-48771288D01*
X123016403Y-48777582D01*
X123002543Y-48782541D01*
X122988264Y-48786118D01*
X122973703Y-48788278D01*
X122959000Y-48789000D01*
X122659000Y-48789000D01*
X122644297Y-48788278D01*
X122629736Y-48786118D01*
X122615457Y-48782541D01*
X122601597Y-48777582D01*
X122588290Y-48771288D01*
X122575664Y-48763720D01*
X122563841Y-48754952D01*
X122552934Y-48745066D01*
X122543048Y-48734159D01*
X122534280Y-48722336D01*
X122526712Y-48709710D01*
X122520418Y-48696403D01*
X122515459Y-48682543D01*
X122511882Y-48668264D01*
X122509722Y-48653703D01*
X122509000Y-48639000D01*
X122509000Y-46989000D01*
X122509722Y-46974297D01*
X122511882Y-46959736D01*
X122515459Y-46945457D01*
X122520418Y-46931597D01*
X122526712Y-46918290D01*
X122534280Y-46905664D01*
X122543048Y-46893841D01*
X122552934Y-46882934D01*
X122563841Y-46873048D01*
X122575664Y-46864280D01*
X122588290Y-46856712D01*
X122601597Y-46850418D01*
X122615457Y-46845459D01*
X122629736Y-46841882D01*
X122644297Y-46839722D01*
X122659000Y-46839000D01*
X122959000Y-46839000D01*
X122973703Y-46839722D01*
X122973703Y-46839722D01*
G37*
D11*
X122809000Y-47814000D03*
D10*
G36*
X122973703Y-41889722D02*
G01*
X122988264Y-41891882D01*
X123002543Y-41895459D01*
X123016403Y-41900418D01*
X123029710Y-41906712D01*
X123042336Y-41914280D01*
X123054159Y-41923048D01*
X123065066Y-41932934D01*
X123074952Y-41943841D01*
X123083720Y-41955664D01*
X123091288Y-41968290D01*
X123097582Y-41981597D01*
X123102541Y-41995457D01*
X123106118Y-42009736D01*
X123108278Y-42024297D01*
X123109000Y-42039000D01*
X123109000Y-43689000D01*
X123108278Y-43703703D01*
X123106118Y-43718264D01*
X123102541Y-43732543D01*
X123097582Y-43746403D01*
X123091288Y-43759710D01*
X123083720Y-43772336D01*
X123074952Y-43784159D01*
X123065066Y-43795066D01*
X123054159Y-43804952D01*
X123042336Y-43813720D01*
X123029710Y-43821288D01*
X123016403Y-43827582D01*
X123002543Y-43832541D01*
X122988264Y-43836118D01*
X122973703Y-43838278D01*
X122959000Y-43839000D01*
X122659000Y-43839000D01*
X122644297Y-43838278D01*
X122629736Y-43836118D01*
X122615457Y-43832541D01*
X122601597Y-43827582D01*
X122588290Y-43821288D01*
X122575664Y-43813720D01*
X122563841Y-43804952D01*
X122552934Y-43795066D01*
X122543048Y-43784159D01*
X122534280Y-43772336D01*
X122526712Y-43759710D01*
X122520418Y-43746403D01*
X122515459Y-43732543D01*
X122511882Y-43718264D01*
X122509722Y-43703703D01*
X122509000Y-43689000D01*
X122509000Y-42039000D01*
X122509722Y-42024297D01*
X122511882Y-42009736D01*
X122515459Y-41995457D01*
X122520418Y-41981597D01*
X122526712Y-41968290D01*
X122534280Y-41955664D01*
X122543048Y-41943841D01*
X122552934Y-41932934D01*
X122563841Y-41923048D01*
X122575664Y-41914280D01*
X122588290Y-41906712D01*
X122601597Y-41900418D01*
X122615457Y-41895459D01*
X122629736Y-41891882D01*
X122644297Y-41889722D01*
X122659000Y-41889000D01*
X122959000Y-41889000D01*
X122973703Y-41889722D01*
X122973703Y-41889722D01*
G37*
D11*
X122809000Y-42864000D03*
D10*
G36*
X124243703Y-41889722D02*
G01*
X124258264Y-41891882D01*
X124272543Y-41895459D01*
X124286403Y-41900418D01*
X124299710Y-41906712D01*
X124312336Y-41914280D01*
X124324159Y-41923048D01*
X124335066Y-41932934D01*
X124344952Y-41943841D01*
X124353720Y-41955664D01*
X124361288Y-41968290D01*
X124367582Y-41981597D01*
X124372541Y-41995457D01*
X124376118Y-42009736D01*
X124378278Y-42024297D01*
X124379000Y-42039000D01*
X124379000Y-43689000D01*
X124378278Y-43703703D01*
X124376118Y-43718264D01*
X124372541Y-43732543D01*
X124367582Y-43746403D01*
X124361288Y-43759710D01*
X124353720Y-43772336D01*
X124344952Y-43784159D01*
X124335066Y-43795066D01*
X124324159Y-43804952D01*
X124312336Y-43813720D01*
X124299710Y-43821288D01*
X124286403Y-43827582D01*
X124272543Y-43832541D01*
X124258264Y-43836118D01*
X124243703Y-43838278D01*
X124229000Y-43839000D01*
X123929000Y-43839000D01*
X123914297Y-43838278D01*
X123899736Y-43836118D01*
X123885457Y-43832541D01*
X123871597Y-43827582D01*
X123858290Y-43821288D01*
X123845664Y-43813720D01*
X123833841Y-43804952D01*
X123822934Y-43795066D01*
X123813048Y-43784159D01*
X123804280Y-43772336D01*
X123796712Y-43759710D01*
X123790418Y-43746403D01*
X123785459Y-43732543D01*
X123781882Y-43718264D01*
X123779722Y-43703703D01*
X123779000Y-43689000D01*
X123779000Y-42039000D01*
X123779722Y-42024297D01*
X123781882Y-42009736D01*
X123785459Y-41995457D01*
X123790418Y-41981597D01*
X123796712Y-41968290D01*
X123804280Y-41955664D01*
X123813048Y-41943841D01*
X123822934Y-41932934D01*
X123833841Y-41923048D01*
X123845664Y-41914280D01*
X123858290Y-41906712D01*
X123871597Y-41900418D01*
X123885457Y-41895459D01*
X123899736Y-41891882D01*
X123914297Y-41889722D01*
X123929000Y-41889000D01*
X124229000Y-41889000D01*
X124243703Y-41889722D01*
X124243703Y-41889722D01*
G37*
D11*
X124079000Y-42864000D03*
D10*
G36*
X125513703Y-41889722D02*
G01*
X125528264Y-41891882D01*
X125542543Y-41895459D01*
X125556403Y-41900418D01*
X125569710Y-41906712D01*
X125582336Y-41914280D01*
X125594159Y-41923048D01*
X125605066Y-41932934D01*
X125614952Y-41943841D01*
X125623720Y-41955664D01*
X125631288Y-41968290D01*
X125637582Y-41981597D01*
X125642541Y-41995457D01*
X125646118Y-42009736D01*
X125648278Y-42024297D01*
X125649000Y-42039000D01*
X125649000Y-43689000D01*
X125648278Y-43703703D01*
X125646118Y-43718264D01*
X125642541Y-43732543D01*
X125637582Y-43746403D01*
X125631288Y-43759710D01*
X125623720Y-43772336D01*
X125614952Y-43784159D01*
X125605066Y-43795066D01*
X125594159Y-43804952D01*
X125582336Y-43813720D01*
X125569710Y-43821288D01*
X125556403Y-43827582D01*
X125542543Y-43832541D01*
X125528264Y-43836118D01*
X125513703Y-43838278D01*
X125499000Y-43839000D01*
X125199000Y-43839000D01*
X125184297Y-43838278D01*
X125169736Y-43836118D01*
X125155457Y-43832541D01*
X125141597Y-43827582D01*
X125128290Y-43821288D01*
X125115664Y-43813720D01*
X125103841Y-43804952D01*
X125092934Y-43795066D01*
X125083048Y-43784159D01*
X125074280Y-43772336D01*
X125066712Y-43759710D01*
X125060418Y-43746403D01*
X125055459Y-43732543D01*
X125051882Y-43718264D01*
X125049722Y-43703703D01*
X125049000Y-43689000D01*
X125049000Y-42039000D01*
X125049722Y-42024297D01*
X125051882Y-42009736D01*
X125055459Y-41995457D01*
X125060418Y-41981597D01*
X125066712Y-41968290D01*
X125074280Y-41955664D01*
X125083048Y-41943841D01*
X125092934Y-41932934D01*
X125103841Y-41923048D01*
X125115664Y-41914280D01*
X125128290Y-41906712D01*
X125141597Y-41900418D01*
X125155457Y-41895459D01*
X125169736Y-41891882D01*
X125184297Y-41889722D01*
X125199000Y-41889000D01*
X125499000Y-41889000D01*
X125513703Y-41889722D01*
X125513703Y-41889722D01*
G37*
D11*
X125349000Y-42864000D03*
D10*
G36*
X126783703Y-41889722D02*
G01*
X126798264Y-41891882D01*
X126812543Y-41895459D01*
X126826403Y-41900418D01*
X126839710Y-41906712D01*
X126852336Y-41914280D01*
X126864159Y-41923048D01*
X126875066Y-41932934D01*
X126884952Y-41943841D01*
X126893720Y-41955664D01*
X126901288Y-41968290D01*
X126907582Y-41981597D01*
X126912541Y-41995457D01*
X126916118Y-42009736D01*
X126918278Y-42024297D01*
X126919000Y-42039000D01*
X126919000Y-43689000D01*
X126918278Y-43703703D01*
X126916118Y-43718264D01*
X126912541Y-43732543D01*
X126907582Y-43746403D01*
X126901288Y-43759710D01*
X126893720Y-43772336D01*
X126884952Y-43784159D01*
X126875066Y-43795066D01*
X126864159Y-43804952D01*
X126852336Y-43813720D01*
X126839710Y-43821288D01*
X126826403Y-43827582D01*
X126812543Y-43832541D01*
X126798264Y-43836118D01*
X126783703Y-43838278D01*
X126769000Y-43839000D01*
X126469000Y-43839000D01*
X126454297Y-43838278D01*
X126439736Y-43836118D01*
X126425457Y-43832541D01*
X126411597Y-43827582D01*
X126398290Y-43821288D01*
X126385664Y-43813720D01*
X126373841Y-43804952D01*
X126362934Y-43795066D01*
X126353048Y-43784159D01*
X126344280Y-43772336D01*
X126336712Y-43759710D01*
X126330418Y-43746403D01*
X126325459Y-43732543D01*
X126321882Y-43718264D01*
X126319722Y-43703703D01*
X126319000Y-43689000D01*
X126319000Y-42039000D01*
X126319722Y-42024297D01*
X126321882Y-42009736D01*
X126325459Y-41995457D01*
X126330418Y-41981597D01*
X126336712Y-41968290D01*
X126344280Y-41955664D01*
X126353048Y-41943841D01*
X126362934Y-41932934D01*
X126373841Y-41923048D01*
X126385664Y-41914280D01*
X126398290Y-41906712D01*
X126411597Y-41900418D01*
X126425457Y-41895459D01*
X126439736Y-41891882D01*
X126454297Y-41889722D01*
X126469000Y-41889000D01*
X126769000Y-41889000D01*
X126783703Y-41889722D01*
X126783703Y-41889722D01*
G37*
D11*
X126619000Y-42864000D03*
D10*
G36*
X128053703Y-41889722D02*
G01*
X128068264Y-41891882D01*
X128082543Y-41895459D01*
X128096403Y-41900418D01*
X128109710Y-41906712D01*
X128122336Y-41914280D01*
X128134159Y-41923048D01*
X128145066Y-41932934D01*
X128154952Y-41943841D01*
X128163720Y-41955664D01*
X128171288Y-41968290D01*
X128177582Y-41981597D01*
X128182541Y-41995457D01*
X128186118Y-42009736D01*
X128188278Y-42024297D01*
X128189000Y-42039000D01*
X128189000Y-43689000D01*
X128188278Y-43703703D01*
X128186118Y-43718264D01*
X128182541Y-43732543D01*
X128177582Y-43746403D01*
X128171288Y-43759710D01*
X128163720Y-43772336D01*
X128154952Y-43784159D01*
X128145066Y-43795066D01*
X128134159Y-43804952D01*
X128122336Y-43813720D01*
X128109710Y-43821288D01*
X128096403Y-43827582D01*
X128082543Y-43832541D01*
X128068264Y-43836118D01*
X128053703Y-43838278D01*
X128039000Y-43839000D01*
X127739000Y-43839000D01*
X127724297Y-43838278D01*
X127709736Y-43836118D01*
X127695457Y-43832541D01*
X127681597Y-43827582D01*
X127668290Y-43821288D01*
X127655664Y-43813720D01*
X127643841Y-43804952D01*
X127632934Y-43795066D01*
X127623048Y-43784159D01*
X127614280Y-43772336D01*
X127606712Y-43759710D01*
X127600418Y-43746403D01*
X127595459Y-43732543D01*
X127591882Y-43718264D01*
X127589722Y-43703703D01*
X127589000Y-43689000D01*
X127589000Y-42039000D01*
X127589722Y-42024297D01*
X127591882Y-42009736D01*
X127595459Y-41995457D01*
X127600418Y-41981597D01*
X127606712Y-41968290D01*
X127614280Y-41955664D01*
X127623048Y-41943841D01*
X127632934Y-41932934D01*
X127643841Y-41923048D01*
X127655664Y-41914280D01*
X127668290Y-41906712D01*
X127681597Y-41900418D01*
X127695457Y-41895459D01*
X127709736Y-41891882D01*
X127724297Y-41889722D01*
X127739000Y-41889000D01*
X128039000Y-41889000D01*
X128053703Y-41889722D01*
X128053703Y-41889722D01*
G37*
D11*
X127889000Y-42864000D03*
D10*
G36*
X129323703Y-41889722D02*
G01*
X129338264Y-41891882D01*
X129352543Y-41895459D01*
X129366403Y-41900418D01*
X129379710Y-41906712D01*
X129392336Y-41914280D01*
X129404159Y-41923048D01*
X129415066Y-41932934D01*
X129424952Y-41943841D01*
X129433720Y-41955664D01*
X129441288Y-41968290D01*
X129447582Y-41981597D01*
X129452541Y-41995457D01*
X129456118Y-42009736D01*
X129458278Y-42024297D01*
X129459000Y-42039000D01*
X129459000Y-43689000D01*
X129458278Y-43703703D01*
X129456118Y-43718264D01*
X129452541Y-43732543D01*
X129447582Y-43746403D01*
X129441288Y-43759710D01*
X129433720Y-43772336D01*
X129424952Y-43784159D01*
X129415066Y-43795066D01*
X129404159Y-43804952D01*
X129392336Y-43813720D01*
X129379710Y-43821288D01*
X129366403Y-43827582D01*
X129352543Y-43832541D01*
X129338264Y-43836118D01*
X129323703Y-43838278D01*
X129309000Y-43839000D01*
X129009000Y-43839000D01*
X128994297Y-43838278D01*
X128979736Y-43836118D01*
X128965457Y-43832541D01*
X128951597Y-43827582D01*
X128938290Y-43821288D01*
X128925664Y-43813720D01*
X128913841Y-43804952D01*
X128902934Y-43795066D01*
X128893048Y-43784159D01*
X128884280Y-43772336D01*
X128876712Y-43759710D01*
X128870418Y-43746403D01*
X128865459Y-43732543D01*
X128861882Y-43718264D01*
X128859722Y-43703703D01*
X128859000Y-43689000D01*
X128859000Y-42039000D01*
X128859722Y-42024297D01*
X128861882Y-42009736D01*
X128865459Y-41995457D01*
X128870418Y-41981597D01*
X128876712Y-41968290D01*
X128884280Y-41955664D01*
X128893048Y-41943841D01*
X128902934Y-41932934D01*
X128913841Y-41923048D01*
X128925664Y-41914280D01*
X128938290Y-41906712D01*
X128951597Y-41900418D01*
X128965457Y-41895459D01*
X128979736Y-41891882D01*
X128994297Y-41889722D01*
X129009000Y-41889000D01*
X129309000Y-41889000D01*
X129323703Y-41889722D01*
X129323703Y-41889722D01*
G37*
D11*
X129159000Y-42864000D03*
D10*
G36*
X130593703Y-41889722D02*
G01*
X130608264Y-41891882D01*
X130622543Y-41895459D01*
X130636403Y-41900418D01*
X130649710Y-41906712D01*
X130662336Y-41914280D01*
X130674159Y-41923048D01*
X130685066Y-41932934D01*
X130694952Y-41943841D01*
X130703720Y-41955664D01*
X130711288Y-41968290D01*
X130717582Y-41981597D01*
X130722541Y-41995457D01*
X130726118Y-42009736D01*
X130728278Y-42024297D01*
X130729000Y-42039000D01*
X130729000Y-43689000D01*
X130728278Y-43703703D01*
X130726118Y-43718264D01*
X130722541Y-43732543D01*
X130717582Y-43746403D01*
X130711288Y-43759710D01*
X130703720Y-43772336D01*
X130694952Y-43784159D01*
X130685066Y-43795066D01*
X130674159Y-43804952D01*
X130662336Y-43813720D01*
X130649710Y-43821288D01*
X130636403Y-43827582D01*
X130622543Y-43832541D01*
X130608264Y-43836118D01*
X130593703Y-43838278D01*
X130579000Y-43839000D01*
X130279000Y-43839000D01*
X130264297Y-43838278D01*
X130249736Y-43836118D01*
X130235457Y-43832541D01*
X130221597Y-43827582D01*
X130208290Y-43821288D01*
X130195664Y-43813720D01*
X130183841Y-43804952D01*
X130172934Y-43795066D01*
X130163048Y-43784159D01*
X130154280Y-43772336D01*
X130146712Y-43759710D01*
X130140418Y-43746403D01*
X130135459Y-43732543D01*
X130131882Y-43718264D01*
X130129722Y-43703703D01*
X130129000Y-43689000D01*
X130129000Y-42039000D01*
X130129722Y-42024297D01*
X130131882Y-42009736D01*
X130135459Y-41995457D01*
X130140418Y-41981597D01*
X130146712Y-41968290D01*
X130154280Y-41955664D01*
X130163048Y-41943841D01*
X130172934Y-41932934D01*
X130183841Y-41923048D01*
X130195664Y-41914280D01*
X130208290Y-41906712D01*
X130221597Y-41900418D01*
X130235457Y-41895459D01*
X130249736Y-41891882D01*
X130264297Y-41889722D01*
X130279000Y-41889000D01*
X130579000Y-41889000D01*
X130593703Y-41889722D01*
X130593703Y-41889722D01*
G37*
D11*
X130429000Y-42864000D03*
M02*
