M48
; DRILL file {KiCad (5.1.4)-1} date 02/11/2020 16:34:55
; FORMAT={-:-/ absolute / inch / decimal}
; #@! TF.CreationDate,2020-11-02T16:34:55-03:00
; #@! TF.GenerationSoftware,Kicad,Pcbnew,(5.1.4)-1
; #@! TF.FileFunction,Plated,1,2,PTH
FMAT,2
INCH
T1C0.0157
T2C0.0315
T3C0.0354
T4C0.0394
%
G90
G05
T1
X3.7302Y-2.9606
X3.8Y-2.205
X3.92Y-1.875
X3.94Y-2.61
X3.965Y-1.72
X4.015Y-3.24
X4.04Y-2.655
X4.065Y-1.989
X4.0768Y-3.2682
X4.08Y-3.395
X4.115Y-2.0176
X4.165Y-2.0461
X4.215Y-1.705
X4.215Y-3.425
X4.2628Y-2.0747
X4.365Y-2.06
X4.6Y-3.3785
X4.6Y-3.4179
X4.6246Y-3.3054
X4.6248Y-3.2652
X4.625Y-3.225
X4.6274Y-3.3446
X4.7238Y-3.42
X4.74Y-1.925
X4.8Y-2.2259
X4.8238Y-3.26
X4.8848Y-1.7952
X4.885Y-1.61
X4.9165Y-1.95
X4.925Y-2.0248
X4.9262Y-3.26
X4.935Y-1.61
X5.005Y-1.58
X5.05Y-1.9415
X5.08Y-3.26
X5.12Y-1.5
X5.135Y-2.005
X5.18Y-2.005
X5.18Y-3.225
X5.2338Y-3.26
X5.285Y-3.26
X5.3038Y-2.03
X5.3362Y-3.26
X5.3362Y-3.26
X5.345Y-1.805
X5.375Y-3.36
X5.405Y-1.8824
X5.42Y-3.39
X5.455Y-1.8824
X5.505Y-1.59
X5.5122Y-1.9872
X5.54Y-2.015
X5.57Y-3.105
X5.58Y-3.165
X5.59Y-1.765
X5.5952Y-3.0748
X5.73Y-1.88
X5.79Y-3.08
X5.83Y-1.83
X5.9162Y-2.045
X5.945Y-3.5231
X5.95Y-1.76
X5.995Y-3.5231
X5.9969Y-1.76
X6.045Y-3.5231
X6.095Y-1.77
X6.095Y-3.5231
X6.15Y-2.1
X6.16Y-3.2029
X6.17Y-2.87
X6.215Y-1.79
X6.2888Y-2.045
X6.2915Y-2.235
X6.32Y-3.085
X6.36Y-1.97
X6.38Y-3.3863
X6.425Y-3.09
X6.44Y-2.88
X6.4506Y-3.4094
X6.4693Y-1.3157
X6.475Y-3.09
X6.49Y-2.865
X6.4981Y-3.4069
X6.525Y-2.095
X6.525Y-3.09
X6.535Y-2.85
X6.5396Y-2.8054
X6.61Y-3.075
X6.625Y-3.4
T2
X7.105Y-1.795
X7.105Y-2.095
X6.77Y-1.36
X6.77Y-1.66
X6.87Y-1.36
X6.87Y-1.66
X6.97Y-1.36
X6.97Y-1.66
X7.07Y-1.36
X7.07Y-1.66
X6.47Y-1.805
X6.47Y-1.9034
X6.865Y-1.795
X6.865Y-2.095
X7.03Y-3.025
X7.03Y-3.325
X6.725Y-2.22
X6.8234Y-2.22
X6.745Y-1.795
X6.745Y-2.095
X3.94Y-2.405
X3.94Y-3.005
X4.04Y-2.405
X4.04Y-3.005
X4.14Y-2.405
X4.14Y-3.005
X4.24Y-2.405
X4.24Y-3.005
X4.34Y-2.405
X4.34Y-3.005
X4.44Y-2.405
X4.44Y-3.005
X4.54Y-2.405
X4.54Y-3.005
X4.64Y-2.405
X4.64Y-3.005
X4.74Y-2.405
X4.74Y-3.005
X4.84Y-2.405
X4.84Y-3.005
X4.94Y-2.405
X4.94Y-3.005
X5.04Y-2.405
X5.04Y-3.005
X5.14Y-2.405
X5.14Y-3.005
X5.24Y-2.405
X5.24Y-3.005
X5.34Y-2.405
X5.34Y-3.005
X5.44Y-2.405
X5.44Y-3.005
X5.54Y-2.405
X5.54Y-3.005
X5.64Y-2.405
X5.64Y-3.005
X5.74Y-2.405
X5.74Y-3.005
X5.84Y-2.405
X5.84Y-3.005
X5.94Y-2.405
X5.94Y-3.005
X6.835Y-2.42
X6.835Y-2.52
X6.835Y-2.62
X6.835Y-2.72
X7.135Y-2.42
X7.135Y-2.52
X7.135Y-2.62
X7.135Y-2.72
X6.985Y-1.795
X6.985Y-2.095
T3
X6.665Y-2.405
X6.665Y-2.505
T4
X4.325Y-3.77
X4.425Y-3.77
X4.525Y-3.77
X4.625Y-3.77
X4.725Y-3.77
X4.825Y-3.77
X4.925Y-3.77
X5.025Y-3.77
X5.125Y-3.77
X5.225Y-3.77
X5.325Y-3.77
X5.425Y-3.77
X5.525Y-3.77
X5.625Y-3.77
X5.725Y-3.77
X5.825Y-3.77
X5.925Y-3.77
X6.025Y-3.77
X6.125Y-3.77
X6.225Y-3.77
X6.325Y-3.77
X6.425Y-3.77
X6.525Y-3.77
X4.425Y-3.67
X4.525Y-3.67
X4.625Y-3.67
X4.725Y-3.67
X4.825Y-3.67
X4.925Y-3.67
X5.025Y-3.67
X5.125Y-3.67
X5.225Y-3.67
X5.325Y-3.67
X5.425Y-3.67
X5.525Y-3.67
X5.625Y-3.67
X5.725Y-3.67
X5.825Y-3.67
X5.925Y-3.67
X6.025Y-3.67
X6.125Y-3.67
X6.225Y-3.67
X6.325Y-3.67
X6.425Y-3.67
X6.525Y-3.67
X6.625Y-3.67
T0
M30
