G04 #@! TF.GenerationSoftware,KiCad,Pcbnew,(5.1.4)-1*
G04 #@! TF.CreationDate,2021-02-24T15:32:15-03:00*
G04 #@! TF.ProjectId,snes_feram,736e6573-5f66-4657-9261-6d2e6b696361,rev?*
G04 #@! TF.SameCoordinates,Original*
G04 #@! TF.FileFunction,Soldermask,Bot*
G04 #@! TF.FilePolarity,Negative*
%FSLAX46Y46*%
G04 Gerber Fmt 4.6, Leading zero omitted, Abs format (unit mm)*
G04 Created by KiCad (PCBNEW (5.1.4)-1) date 2021-02-24 15:32:15*
%MOMM*%
%LPD*%
G04 APERTURE LIST*
%ADD10C,0.100000*%
G04 APERTURE END LIST*
D10*
G36*
X167888920Y-105592880D02*
G01*
X107889040Y-105592880D01*
X107889040Y-97591880D01*
X167888920Y-97591880D01*
X167888920Y-105592880D01*
X167888920Y-105592880D01*
G37*
G36*
X165845443Y-94863519D02*
G01*
X165911627Y-94870037D01*
X166081466Y-94921557D01*
X166237991Y-95005222D01*
X166273729Y-95034552D01*
X166375186Y-95117814D01*
X166458448Y-95219271D01*
X166487778Y-95255009D01*
X166571443Y-95411534D01*
X166622963Y-95581373D01*
X166640359Y-95758000D01*
X166622963Y-95934627D01*
X166571443Y-96104466D01*
X166487778Y-96260991D01*
X166458448Y-96296729D01*
X166375186Y-96398186D01*
X166273729Y-96481448D01*
X166237991Y-96510778D01*
X166081466Y-96594443D01*
X165911627Y-96645963D01*
X165845443Y-96652481D01*
X165779260Y-96659000D01*
X165690740Y-96659000D01*
X165624558Y-96652482D01*
X165558373Y-96645963D01*
X165388534Y-96594443D01*
X165232009Y-96510778D01*
X165196271Y-96481448D01*
X165094814Y-96398186D01*
X165011552Y-96296729D01*
X164982222Y-96260991D01*
X164898557Y-96104466D01*
X164847037Y-95934627D01*
X164829641Y-95758000D01*
X164847037Y-95581373D01*
X164898557Y-95411534D01*
X164982222Y-95255009D01*
X165011552Y-95219271D01*
X165094814Y-95117814D01*
X165196271Y-95034552D01*
X165232009Y-95005222D01*
X165388534Y-94921557D01*
X165558373Y-94870037D01*
X165624558Y-94863518D01*
X165690740Y-94857000D01*
X165779260Y-94857000D01*
X165845443Y-94863519D01*
X165845443Y-94863519D01*
G37*
G36*
X110756000Y-96659000D02*
G01*
X108954000Y-96659000D01*
X108954000Y-94857000D01*
X110756000Y-94857000D01*
X110756000Y-96659000D01*
X110756000Y-96659000D01*
G37*
G36*
X112505443Y-94863519D02*
G01*
X112571627Y-94870037D01*
X112741466Y-94921557D01*
X112897991Y-95005222D01*
X112933729Y-95034552D01*
X113035186Y-95117814D01*
X113118448Y-95219271D01*
X113147778Y-95255009D01*
X113231443Y-95411534D01*
X113282963Y-95581373D01*
X113300359Y-95758000D01*
X113282963Y-95934627D01*
X113231443Y-96104466D01*
X113147778Y-96260991D01*
X113118448Y-96296729D01*
X113035186Y-96398186D01*
X112933729Y-96481448D01*
X112897991Y-96510778D01*
X112741466Y-96594443D01*
X112571627Y-96645963D01*
X112505443Y-96652481D01*
X112439260Y-96659000D01*
X112350740Y-96659000D01*
X112284558Y-96652482D01*
X112218373Y-96645963D01*
X112048534Y-96594443D01*
X111892009Y-96510778D01*
X111856271Y-96481448D01*
X111754814Y-96398186D01*
X111671552Y-96296729D01*
X111642222Y-96260991D01*
X111558557Y-96104466D01*
X111507037Y-95934627D01*
X111489641Y-95758000D01*
X111507037Y-95581373D01*
X111558557Y-95411534D01*
X111642222Y-95255009D01*
X111671552Y-95219271D01*
X111754814Y-95117814D01*
X111856271Y-95034552D01*
X111892009Y-95005222D01*
X112048534Y-94921557D01*
X112218373Y-94870037D01*
X112284558Y-94863518D01*
X112350740Y-94857000D01*
X112439260Y-94857000D01*
X112505443Y-94863519D01*
X112505443Y-94863519D01*
G37*
G36*
X115045443Y-94863519D02*
G01*
X115111627Y-94870037D01*
X115281466Y-94921557D01*
X115437991Y-95005222D01*
X115473729Y-95034552D01*
X115575186Y-95117814D01*
X115658448Y-95219271D01*
X115687778Y-95255009D01*
X115771443Y-95411534D01*
X115822963Y-95581373D01*
X115840359Y-95758000D01*
X115822963Y-95934627D01*
X115771443Y-96104466D01*
X115687778Y-96260991D01*
X115658448Y-96296729D01*
X115575186Y-96398186D01*
X115473729Y-96481448D01*
X115437991Y-96510778D01*
X115281466Y-96594443D01*
X115111627Y-96645963D01*
X115045443Y-96652481D01*
X114979260Y-96659000D01*
X114890740Y-96659000D01*
X114824558Y-96652482D01*
X114758373Y-96645963D01*
X114588534Y-96594443D01*
X114432009Y-96510778D01*
X114396271Y-96481448D01*
X114294814Y-96398186D01*
X114211552Y-96296729D01*
X114182222Y-96260991D01*
X114098557Y-96104466D01*
X114047037Y-95934627D01*
X114029641Y-95758000D01*
X114047037Y-95581373D01*
X114098557Y-95411534D01*
X114182222Y-95255009D01*
X114211552Y-95219271D01*
X114294814Y-95117814D01*
X114396271Y-95034552D01*
X114432009Y-95005222D01*
X114588534Y-94921557D01*
X114758373Y-94870037D01*
X114824558Y-94863518D01*
X114890740Y-94857000D01*
X114979260Y-94857000D01*
X115045443Y-94863519D01*
X115045443Y-94863519D01*
G37*
G36*
X117585443Y-94863519D02*
G01*
X117651627Y-94870037D01*
X117821466Y-94921557D01*
X117977991Y-95005222D01*
X118013729Y-95034552D01*
X118115186Y-95117814D01*
X118198448Y-95219271D01*
X118227778Y-95255009D01*
X118311443Y-95411534D01*
X118362963Y-95581373D01*
X118380359Y-95758000D01*
X118362963Y-95934627D01*
X118311443Y-96104466D01*
X118227778Y-96260991D01*
X118198448Y-96296729D01*
X118115186Y-96398186D01*
X118013729Y-96481448D01*
X117977991Y-96510778D01*
X117821466Y-96594443D01*
X117651627Y-96645963D01*
X117585443Y-96652481D01*
X117519260Y-96659000D01*
X117430740Y-96659000D01*
X117364558Y-96652482D01*
X117298373Y-96645963D01*
X117128534Y-96594443D01*
X116972009Y-96510778D01*
X116936271Y-96481448D01*
X116834814Y-96398186D01*
X116751552Y-96296729D01*
X116722222Y-96260991D01*
X116638557Y-96104466D01*
X116587037Y-95934627D01*
X116569641Y-95758000D01*
X116587037Y-95581373D01*
X116638557Y-95411534D01*
X116722222Y-95255009D01*
X116751552Y-95219271D01*
X116834814Y-95117814D01*
X116936271Y-95034552D01*
X116972009Y-95005222D01*
X117128534Y-94921557D01*
X117298373Y-94870037D01*
X117364558Y-94863518D01*
X117430740Y-94857000D01*
X117519260Y-94857000D01*
X117585443Y-94863519D01*
X117585443Y-94863519D01*
G37*
G36*
X120125443Y-94863519D02*
G01*
X120191627Y-94870037D01*
X120361466Y-94921557D01*
X120517991Y-95005222D01*
X120553729Y-95034552D01*
X120655186Y-95117814D01*
X120738448Y-95219271D01*
X120767778Y-95255009D01*
X120851443Y-95411534D01*
X120902963Y-95581373D01*
X120920359Y-95758000D01*
X120902963Y-95934627D01*
X120851443Y-96104466D01*
X120767778Y-96260991D01*
X120738448Y-96296729D01*
X120655186Y-96398186D01*
X120553729Y-96481448D01*
X120517991Y-96510778D01*
X120361466Y-96594443D01*
X120191627Y-96645963D01*
X120125443Y-96652481D01*
X120059260Y-96659000D01*
X119970740Y-96659000D01*
X119904558Y-96652482D01*
X119838373Y-96645963D01*
X119668534Y-96594443D01*
X119512009Y-96510778D01*
X119476271Y-96481448D01*
X119374814Y-96398186D01*
X119291552Y-96296729D01*
X119262222Y-96260991D01*
X119178557Y-96104466D01*
X119127037Y-95934627D01*
X119109641Y-95758000D01*
X119127037Y-95581373D01*
X119178557Y-95411534D01*
X119262222Y-95255009D01*
X119291552Y-95219271D01*
X119374814Y-95117814D01*
X119476271Y-95034552D01*
X119512009Y-95005222D01*
X119668534Y-94921557D01*
X119838373Y-94870037D01*
X119904558Y-94863518D01*
X119970740Y-94857000D01*
X120059260Y-94857000D01*
X120125443Y-94863519D01*
X120125443Y-94863519D01*
G37*
G36*
X122665443Y-94863519D02*
G01*
X122731627Y-94870037D01*
X122901466Y-94921557D01*
X123057991Y-95005222D01*
X123093729Y-95034552D01*
X123195186Y-95117814D01*
X123278448Y-95219271D01*
X123307778Y-95255009D01*
X123391443Y-95411534D01*
X123442963Y-95581373D01*
X123460359Y-95758000D01*
X123442963Y-95934627D01*
X123391443Y-96104466D01*
X123307778Y-96260991D01*
X123278448Y-96296729D01*
X123195186Y-96398186D01*
X123093729Y-96481448D01*
X123057991Y-96510778D01*
X122901466Y-96594443D01*
X122731627Y-96645963D01*
X122665443Y-96652481D01*
X122599260Y-96659000D01*
X122510740Y-96659000D01*
X122444558Y-96652482D01*
X122378373Y-96645963D01*
X122208534Y-96594443D01*
X122052009Y-96510778D01*
X122016271Y-96481448D01*
X121914814Y-96398186D01*
X121831552Y-96296729D01*
X121802222Y-96260991D01*
X121718557Y-96104466D01*
X121667037Y-95934627D01*
X121649641Y-95758000D01*
X121667037Y-95581373D01*
X121718557Y-95411534D01*
X121802222Y-95255009D01*
X121831552Y-95219271D01*
X121914814Y-95117814D01*
X122016271Y-95034552D01*
X122052009Y-95005222D01*
X122208534Y-94921557D01*
X122378373Y-94870037D01*
X122444558Y-94863518D01*
X122510740Y-94857000D01*
X122599260Y-94857000D01*
X122665443Y-94863519D01*
X122665443Y-94863519D01*
G37*
G36*
X125205443Y-94863519D02*
G01*
X125271627Y-94870037D01*
X125441466Y-94921557D01*
X125597991Y-95005222D01*
X125633729Y-95034552D01*
X125735186Y-95117814D01*
X125818448Y-95219271D01*
X125847778Y-95255009D01*
X125931443Y-95411534D01*
X125982963Y-95581373D01*
X126000359Y-95758000D01*
X125982963Y-95934627D01*
X125931443Y-96104466D01*
X125847778Y-96260991D01*
X125818448Y-96296729D01*
X125735186Y-96398186D01*
X125633729Y-96481448D01*
X125597991Y-96510778D01*
X125441466Y-96594443D01*
X125271627Y-96645963D01*
X125205443Y-96652481D01*
X125139260Y-96659000D01*
X125050740Y-96659000D01*
X124984558Y-96652482D01*
X124918373Y-96645963D01*
X124748534Y-96594443D01*
X124592009Y-96510778D01*
X124556271Y-96481448D01*
X124454814Y-96398186D01*
X124371552Y-96296729D01*
X124342222Y-96260991D01*
X124258557Y-96104466D01*
X124207037Y-95934627D01*
X124189641Y-95758000D01*
X124207037Y-95581373D01*
X124258557Y-95411534D01*
X124342222Y-95255009D01*
X124371552Y-95219271D01*
X124454814Y-95117814D01*
X124556271Y-95034552D01*
X124592009Y-95005222D01*
X124748534Y-94921557D01*
X124918373Y-94870037D01*
X124984558Y-94863518D01*
X125050740Y-94857000D01*
X125139260Y-94857000D01*
X125205443Y-94863519D01*
X125205443Y-94863519D01*
G37*
G36*
X127745443Y-94863519D02*
G01*
X127811627Y-94870037D01*
X127981466Y-94921557D01*
X128137991Y-95005222D01*
X128173729Y-95034552D01*
X128275186Y-95117814D01*
X128358448Y-95219271D01*
X128387778Y-95255009D01*
X128471443Y-95411534D01*
X128522963Y-95581373D01*
X128540359Y-95758000D01*
X128522963Y-95934627D01*
X128471443Y-96104466D01*
X128387778Y-96260991D01*
X128358448Y-96296729D01*
X128275186Y-96398186D01*
X128173729Y-96481448D01*
X128137991Y-96510778D01*
X127981466Y-96594443D01*
X127811627Y-96645963D01*
X127745443Y-96652481D01*
X127679260Y-96659000D01*
X127590740Y-96659000D01*
X127524558Y-96652482D01*
X127458373Y-96645963D01*
X127288534Y-96594443D01*
X127132009Y-96510778D01*
X127096271Y-96481448D01*
X126994814Y-96398186D01*
X126911552Y-96296729D01*
X126882222Y-96260991D01*
X126798557Y-96104466D01*
X126747037Y-95934627D01*
X126729641Y-95758000D01*
X126747037Y-95581373D01*
X126798557Y-95411534D01*
X126882222Y-95255009D01*
X126911552Y-95219271D01*
X126994814Y-95117814D01*
X127096271Y-95034552D01*
X127132009Y-95005222D01*
X127288534Y-94921557D01*
X127458373Y-94870037D01*
X127524558Y-94863518D01*
X127590740Y-94857000D01*
X127679260Y-94857000D01*
X127745443Y-94863519D01*
X127745443Y-94863519D01*
G37*
G36*
X130285443Y-94863519D02*
G01*
X130351627Y-94870037D01*
X130521466Y-94921557D01*
X130677991Y-95005222D01*
X130713729Y-95034552D01*
X130815186Y-95117814D01*
X130898448Y-95219271D01*
X130927778Y-95255009D01*
X131011443Y-95411534D01*
X131062963Y-95581373D01*
X131080359Y-95758000D01*
X131062963Y-95934627D01*
X131011443Y-96104466D01*
X130927778Y-96260991D01*
X130898448Y-96296729D01*
X130815186Y-96398186D01*
X130713729Y-96481448D01*
X130677991Y-96510778D01*
X130521466Y-96594443D01*
X130351627Y-96645963D01*
X130285443Y-96652481D01*
X130219260Y-96659000D01*
X130130740Y-96659000D01*
X130064558Y-96652482D01*
X129998373Y-96645963D01*
X129828534Y-96594443D01*
X129672009Y-96510778D01*
X129636271Y-96481448D01*
X129534814Y-96398186D01*
X129451552Y-96296729D01*
X129422222Y-96260991D01*
X129338557Y-96104466D01*
X129287037Y-95934627D01*
X129269641Y-95758000D01*
X129287037Y-95581373D01*
X129338557Y-95411534D01*
X129422222Y-95255009D01*
X129451552Y-95219271D01*
X129534814Y-95117814D01*
X129636271Y-95034552D01*
X129672009Y-95005222D01*
X129828534Y-94921557D01*
X129998373Y-94870037D01*
X130064558Y-94863518D01*
X130130740Y-94857000D01*
X130219260Y-94857000D01*
X130285443Y-94863519D01*
X130285443Y-94863519D01*
G37*
G36*
X132825443Y-94863519D02*
G01*
X132891627Y-94870037D01*
X133061466Y-94921557D01*
X133217991Y-95005222D01*
X133253729Y-95034552D01*
X133355186Y-95117814D01*
X133438448Y-95219271D01*
X133467778Y-95255009D01*
X133551443Y-95411534D01*
X133602963Y-95581373D01*
X133620359Y-95758000D01*
X133602963Y-95934627D01*
X133551443Y-96104466D01*
X133467778Y-96260991D01*
X133438448Y-96296729D01*
X133355186Y-96398186D01*
X133253729Y-96481448D01*
X133217991Y-96510778D01*
X133061466Y-96594443D01*
X132891627Y-96645963D01*
X132825443Y-96652481D01*
X132759260Y-96659000D01*
X132670740Y-96659000D01*
X132604558Y-96652482D01*
X132538373Y-96645963D01*
X132368534Y-96594443D01*
X132212009Y-96510778D01*
X132176271Y-96481448D01*
X132074814Y-96398186D01*
X131991552Y-96296729D01*
X131962222Y-96260991D01*
X131878557Y-96104466D01*
X131827037Y-95934627D01*
X131809641Y-95758000D01*
X131827037Y-95581373D01*
X131878557Y-95411534D01*
X131962222Y-95255009D01*
X131991552Y-95219271D01*
X132074814Y-95117814D01*
X132176271Y-95034552D01*
X132212009Y-95005222D01*
X132368534Y-94921557D01*
X132538373Y-94870037D01*
X132604558Y-94863518D01*
X132670740Y-94857000D01*
X132759260Y-94857000D01*
X132825443Y-94863519D01*
X132825443Y-94863519D01*
G37*
G36*
X135365443Y-94863519D02*
G01*
X135431627Y-94870037D01*
X135601466Y-94921557D01*
X135757991Y-95005222D01*
X135793729Y-95034552D01*
X135895186Y-95117814D01*
X135978448Y-95219271D01*
X136007778Y-95255009D01*
X136091443Y-95411534D01*
X136142963Y-95581373D01*
X136160359Y-95758000D01*
X136142963Y-95934627D01*
X136091443Y-96104466D01*
X136007778Y-96260991D01*
X135978448Y-96296729D01*
X135895186Y-96398186D01*
X135793729Y-96481448D01*
X135757991Y-96510778D01*
X135601466Y-96594443D01*
X135431627Y-96645963D01*
X135365443Y-96652481D01*
X135299260Y-96659000D01*
X135210740Y-96659000D01*
X135144558Y-96652482D01*
X135078373Y-96645963D01*
X134908534Y-96594443D01*
X134752009Y-96510778D01*
X134716271Y-96481448D01*
X134614814Y-96398186D01*
X134531552Y-96296729D01*
X134502222Y-96260991D01*
X134418557Y-96104466D01*
X134367037Y-95934627D01*
X134349641Y-95758000D01*
X134367037Y-95581373D01*
X134418557Y-95411534D01*
X134502222Y-95255009D01*
X134531552Y-95219271D01*
X134614814Y-95117814D01*
X134716271Y-95034552D01*
X134752009Y-95005222D01*
X134908534Y-94921557D01*
X135078373Y-94870037D01*
X135144558Y-94863518D01*
X135210740Y-94857000D01*
X135299260Y-94857000D01*
X135365443Y-94863519D01*
X135365443Y-94863519D01*
G37*
G36*
X140445443Y-94863519D02*
G01*
X140511627Y-94870037D01*
X140681466Y-94921557D01*
X140837991Y-95005222D01*
X140873729Y-95034552D01*
X140975186Y-95117814D01*
X141058448Y-95219271D01*
X141087778Y-95255009D01*
X141171443Y-95411534D01*
X141222963Y-95581373D01*
X141240359Y-95758000D01*
X141222963Y-95934627D01*
X141171443Y-96104466D01*
X141087778Y-96260991D01*
X141058448Y-96296729D01*
X140975186Y-96398186D01*
X140873729Y-96481448D01*
X140837991Y-96510778D01*
X140681466Y-96594443D01*
X140511627Y-96645963D01*
X140445443Y-96652481D01*
X140379260Y-96659000D01*
X140290740Y-96659000D01*
X140224558Y-96652482D01*
X140158373Y-96645963D01*
X139988534Y-96594443D01*
X139832009Y-96510778D01*
X139796271Y-96481448D01*
X139694814Y-96398186D01*
X139611552Y-96296729D01*
X139582222Y-96260991D01*
X139498557Y-96104466D01*
X139447037Y-95934627D01*
X139429641Y-95758000D01*
X139447037Y-95581373D01*
X139498557Y-95411534D01*
X139582222Y-95255009D01*
X139611552Y-95219271D01*
X139694814Y-95117814D01*
X139796271Y-95034552D01*
X139832009Y-95005222D01*
X139988534Y-94921557D01*
X140158373Y-94870037D01*
X140224558Y-94863518D01*
X140290740Y-94857000D01*
X140379260Y-94857000D01*
X140445443Y-94863519D01*
X140445443Y-94863519D01*
G37*
G36*
X142985443Y-94863519D02*
G01*
X143051627Y-94870037D01*
X143221466Y-94921557D01*
X143377991Y-95005222D01*
X143413729Y-95034552D01*
X143515186Y-95117814D01*
X143598448Y-95219271D01*
X143627778Y-95255009D01*
X143711443Y-95411534D01*
X143762963Y-95581373D01*
X143780359Y-95758000D01*
X143762963Y-95934627D01*
X143711443Y-96104466D01*
X143627778Y-96260991D01*
X143598448Y-96296729D01*
X143515186Y-96398186D01*
X143413729Y-96481448D01*
X143377991Y-96510778D01*
X143221466Y-96594443D01*
X143051627Y-96645963D01*
X142985443Y-96652481D01*
X142919260Y-96659000D01*
X142830740Y-96659000D01*
X142764558Y-96652482D01*
X142698373Y-96645963D01*
X142528534Y-96594443D01*
X142372009Y-96510778D01*
X142336271Y-96481448D01*
X142234814Y-96398186D01*
X142151552Y-96296729D01*
X142122222Y-96260991D01*
X142038557Y-96104466D01*
X141987037Y-95934627D01*
X141969641Y-95758000D01*
X141987037Y-95581373D01*
X142038557Y-95411534D01*
X142122222Y-95255009D01*
X142151552Y-95219271D01*
X142234814Y-95117814D01*
X142336271Y-95034552D01*
X142372009Y-95005222D01*
X142528534Y-94921557D01*
X142698373Y-94870037D01*
X142764558Y-94863518D01*
X142830740Y-94857000D01*
X142919260Y-94857000D01*
X142985443Y-94863519D01*
X142985443Y-94863519D01*
G37*
G36*
X145525443Y-94863519D02*
G01*
X145591627Y-94870037D01*
X145761466Y-94921557D01*
X145917991Y-95005222D01*
X145953729Y-95034552D01*
X146055186Y-95117814D01*
X146138448Y-95219271D01*
X146167778Y-95255009D01*
X146251443Y-95411534D01*
X146302963Y-95581373D01*
X146320359Y-95758000D01*
X146302963Y-95934627D01*
X146251443Y-96104466D01*
X146167778Y-96260991D01*
X146138448Y-96296729D01*
X146055186Y-96398186D01*
X145953729Y-96481448D01*
X145917991Y-96510778D01*
X145761466Y-96594443D01*
X145591627Y-96645963D01*
X145525443Y-96652481D01*
X145459260Y-96659000D01*
X145370740Y-96659000D01*
X145304558Y-96652482D01*
X145238373Y-96645963D01*
X145068534Y-96594443D01*
X144912009Y-96510778D01*
X144876271Y-96481448D01*
X144774814Y-96398186D01*
X144691552Y-96296729D01*
X144662222Y-96260991D01*
X144578557Y-96104466D01*
X144527037Y-95934627D01*
X144509641Y-95758000D01*
X144527037Y-95581373D01*
X144578557Y-95411534D01*
X144662222Y-95255009D01*
X144691552Y-95219271D01*
X144774814Y-95117814D01*
X144876271Y-95034552D01*
X144912009Y-95005222D01*
X145068534Y-94921557D01*
X145238373Y-94870037D01*
X145304558Y-94863518D01*
X145370740Y-94857000D01*
X145459260Y-94857000D01*
X145525443Y-94863519D01*
X145525443Y-94863519D01*
G37*
G36*
X148065443Y-94863519D02*
G01*
X148131627Y-94870037D01*
X148301466Y-94921557D01*
X148457991Y-95005222D01*
X148493729Y-95034552D01*
X148595186Y-95117814D01*
X148678448Y-95219271D01*
X148707778Y-95255009D01*
X148791443Y-95411534D01*
X148842963Y-95581373D01*
X148860359Y-95758000D01*
X148842963Y-95934627D01*
X148791443Y-96104466D01*
X148707778Y-96260991D01*
X148678448Y-96296729D01*
X148595186Y-96398186D01*
X148493729Y-96481448D01*
X148457991Y-96510778D01*
X148301466Y-96594443D01*
X148131627Y-96645963D01*
X148065443Y-96652481D01*
X147999260Y-96659000D01*
X147910740Y-96659000D01*
X147844558Y-96652482D01*
X147778373Y-96645963D01*
X147608534Y-96594443D01*
X147452009Y-96510778D01*
X147416271Y-96481448D01*
X147314814Y-96398186D01*
X147231552Y-96296729D01*
X147202222Y-96260991D01*
X147118557Y-96104466D01*
X147067037Y-95934627D01*
X147049641Y-95758000D01*
X147067037Y-95581373D01*
X147118557Y-95411534D01*
X147202222Y-95255009D01*
X147231552Y-95219271D01*
X147314814Y-95117814D01*
X147416271Y-95034552D01*
X147452009Y-95005222D01*
X147608534Y-94921557D01*
X147778373Y-94870037D01*
X147844558Y-94863518D01*
X147910740Y-94857000D01*
X147999260Y-94857000D01*
X148065443Y-94863519D01*
X148065443Y-94863519D01*
G37*
G36*
X150605443Y-94863519D02*
G01*
X150671627Y-94870037D01*
X150841466Y-94921557D01*
X150997991Y-95005222D01*
X151033729Y-95034552D01*
X151135186Y-95117814D01*
X151218448Y-95219271D01*
X151247778Y-95255009D01*
X151331443Y-95411534D01*
X151382963Y-95581373D01*
X151400359Y-95758000D01*
X151382963Y-95934627D01*
X151331443Y-96104466D01*
X151247778Y-96260991D01*
X151218448Y-96296729D01*
X151135186Y-96398186D01*
X151033729Y-96481448D01*
X150997991Y-96510778D01*
X150841466Y-96594443D01*
X150671627Y-96645963D01*
X150605443Y-96652481D01*
X150539260Y-96659000D01*
X150450740Y-96659000D01*
X150384558Y-96652482D01*
X150318373Y-96645963D01*
X150148534Y-96594443D01*
X149992009Y-96510778D01*
X149956271Y-96481448D01*
X149854814Y-96398186D01*
X149771552Y-96296729D01*
X149742222Y-96260991D01*
X149658557Y-96104466D01*
X149607037Y-95934627D01*
X149589641Y-95758000D01*
X149607037Y-95581373D01*
X149658557Y-95411534D01*
X149742222Y-95255009D01*
X149771552Y-95219271D01*
X149854814Y-95117814D01*
X149956271Y-95034552D01*
X149992009Y-95005222D01*
X150148534Y-94921557D01*
X150318373Y-94870037D01*
X150384558Y-94863518D01*
X150450740Y-94857000D01*
X150539260Y-94857000D01*
X150605443Y-94863519D01*
X150605443Y-94863519D01*
G37*
G36*
X153145443Y-94863519D02*
G01*
X153211627Y-94870037D01*
X153381466Y-94921557D01*
X153537991Y-95005222D01*
X153573729Y-95034552D01*
X153675186Y-95117814D01*
X153758448Y-95219271D01*
X153787778Y-95255009D01*
X153871443Y-95411534D01*
X153922963Y-95581373D01*
X153940359Y-95758000D01*
X153922963Y-95934627D01*
X153871443Y-96104466D01*
X153787778Y-96260991D01*
X153758448Y-96296729D01*
X153675186Y-96398186D01*
X153573729Y-96481448D01*
X153537991Y-96510778D01*
X153381466Y-96594443D01*
X153211627Y-96645963D01*
X153145443Y-96652481D01*
X153079260Y-96659000D01*
X152990740Y-96659000D01*
X152924558Y-96652482D01*
X152858373Y-96645963D01*
X152688534Y-96594443D01*
X152532009Y-96510778D01*
X152496271Y-96481448D01*
X152394814Y-96398186D01*
X152311552Y-96296729D01*
X152282222Y-96260991D01*
X152198557Y-96104466D01*
X152147037Y-95934627D01*
X152129641Y-95758000D01*
X152147037Y-95581373D01*
X152198557Y-95411534D01*
X152282222Y-95255009D01*
X152311552Y-95219271D01*
X152394814Y-95117814D01*
X152496271Y-95034552D01*
X152532009Y-95005222D01*
X152688534Y-94921557D01*
X152858373Y-94870037D01*
X152924558Y-94863518D01*
X152990740Y-94857000D01*
X153079260Y-94857000D01*
X153145443Y-94863519D01*
X153145443Y-94863519D01*
G37*
G36*
X155685443Y-94863519D02*
G01*
X155751627Y-94870037D01*
X155921466Y-94921557D01*
X156077991Y-95005222D01*
X156113729Y-95034552D01*
X156215186Y-95117814D01*
X156298448Y-95219271D01*
X156327778Y-95255009D01*
X156411443Y-95411534D01*
X156462963Y-95581373D01*
X156480359Y-95758000D01*
X156462963Y-95934627D01*
X156411443Y-96104466D01*
X156327778Y-96260991D01*
X156298448Y-96296729D01*
X156215186Y-96398186D01*
X156113729Y-96481448D01*
X156077991Y-96510778D01*
X155921466Y-96594443D01*
X155751627Y-96645963D01*
X155685443Y-96652481D01*
X155619260Y-96659000D01*
X155530740Y-96659000D01*
X155464558Y-96652482D01*
X155398373Y-96645963D01*
X155228534Y-96594443D01*
X155072009Y-96510778D01*
X155036271Y-96481448D01*
X154934814Y-96398186D01*
X154851552Y-96296729D01*
X154822222Y-96260991D01*
X154738557Y-96104466D01*
X154687037Y-95934627D01*
X154669641Y-95758000D01*
X154687037Y-95581373D01*
X154738557Y-95411534D01*
X154822222Y-95255009D01*
X154851552Y-95219271D01*
X154934814Y-95117814D01*
X155036271Y-95034552D01*
X155072009Y-95005222D01*
X155228534Y-94921557D01*
X155398373Y-94870037D01*
X155464558Y-94863518D01*
X155530740Y-94857000D01*
X155619260Y-94857000D01*
X155685443Y-94863519D01*
X155685443Y-94863519D01*
G37*
G36*
X158225443Y-94863519D02*
G01*
X158291627Y-94870037D01*
X158461466Y-94921557D01*
X158617991Y-95005222D01*
X158653729Y-95034552D01*
X158755186Y-95117814D01*
X158838448Y-95219271D01*
X158867778Y-95255009D01*
X158951443Y-95411534D01*
X159002963Y-95581373D01*
X159020359Y-95758000D01*
X159002963Y-95934627D01*
X158951443Y-96104466D01*
X158867778Y-96260991D01*
X158838448Y-96296729D01*
X158755186Y-96398186D01*
X158653729Y-96481448D01*
X158617991Y-96510778D01*
X158461466Y-96594443D01*
X158291627Y-96645963D01*
X158225443Y-96652481D01*
X158159260Y-96659000D01*
X158070740Y-96659000D01*
X158004558Y-96652482D01*
X157938373Y-96645963D01*
X157768534Y-96594443D01*
X157612009Y-96510778D01*
X157576271Y-96481448D01*
X157474814Y-96398186D01*
X157391552Y-96296729D01*
X157362222Y-96260991D01*
X157278557Y-96104466D01*
X157227037Y-95934627D01*
X157209641Y-95758000D01*
X157227037Y-95581373D01*
X157278557Y-95411534D01*
X157362222Y-95255009D01*
X157391552Y-95219271D01*
X157474814Y-95117814D01*
X157576271Y-95034552D01*
X157612009Y-95005222D01*
X157768534Y-94921557D01*
X157938373Y-94870037D01*
X158004558Y-94863518D01*
X158070740Y-94857000D01*
X158159260Y-94857000D01*
X158225443Y-94863519D01*
X158225443Y-94863519D01*
G37*
G36*
X160765443Y-94863519D02*
G01*
X160831627Y-94870037D01*
X161001466Y-94921557D01*
X161157991Y-95005222D01*
X161193729Y-95034552D01*
X161295186Y-95117814D01*
X161378448Y-95219271D01*
X161407778Y-95255009D01*
X161491443Y-95411534D01*
X161542963Y-95581373D01*
X161560359Y-95758000D01*
X161542963Y-95934627D01*
X161491443Y-96104466D01*
X161407778Y-96260991D01*
X161378448Y-96296729D01*
X161295186Y-96398186D01*
X161193729Y-96481448D01*
X161157991Y-96510778D01*
X161001466Y-96594443D01*
X160831627Y-96645963D01*
X160765443Y-96652481D01*
X160699260Y-96659000D01*
X160610740Y-96659000D01*
X160544558Y-96652482D01*
X160478373Y-96645963D01*
X160308534Y-96594443D01*
X160152009Y-96510778D01*
X160116271Y-96481448D01*
X160014814Y-96398186D01*
X159931552Y-96296729D01*
X159902222Y-96260991D01*
X159818557Y-96104466D01*
X159767037Y-95934627D01*
X159749641Y-95758000D01*
X159767037Y-95581373D01*
X159818557Y-95411534D01*
X159902222Y-95255009D01*
X159931552Y-95219271D01*
X160014814Y-95117814D01*
X160116271Y-95034552D01*
X160152009Y-95005222D01*
X160308534Y-94921557D01*
X160478373Y-94870037D01*
X160544558Y-94863518D01*
X160610740Y-94857000D01*
X160699260Y-94857000D01*
X160765443Y-94863519D01*
X160765443Y-94863519D01*
G37*
G36*
X163305443Y-94863519D02*
G01*
X163371627Y-94870037D01*
X163541466Y-94921557D01*
X163697991Y-95005222D01*
X163733729Y-95034552D01*
X163835186Y-95117814D01*
X163918448Y-95219271D01*
X163947778Y-95255009D01*
X164031443Y-95411534D01*
X164082963Y-95581373D01*
X164100359Y-95758000D01*
X164082963Y-95934627D01*
X164031443Y-96104466D01*
X163947778Y-96260991D01*
X163918448Y-96296729D01*
X163835186Y-96398186D01*
X163733729Y-96481448D01*
X163697991Y-96510778D01*
X163541466Y-96594443D01*
X163371627Y-96645963D01*
X163305443Y-96652481D01*
X163239260Y-96659000D01*
X163150740Y-96659000D01*
X163084558Y-96652482D01*
X163018373Y-96645963D01*
X162848534Y-96594443D01*
X162692009Y-96510778D01*
X162656271Y-96481448D01*
X162554814Y-96398186D01*
X162471552Y-96296729D01*
X162442222Y-96260991D01*
X162358557Y-96104466D01*
X162307037Y-95934627D01*
X162289641Y-95758000D01*
X162307037Y-95581373D01*
X162358557Y-95411534D01*
X162442222Y-95255009D01*
X162471552Y-95219271D01*
X162554814Y-95117814D01*
X162656271Y-95034552D01*
X162692009Y-95005222D01*
X162848534Y-94921557D01*
X163018373Y-94870037D01*
X163084558Y-94863518D01*
X163150740Y-94857000D01*
X163239260Y-94857000D01*
X163305443Y-94863519D01*
X163305443Y-94863519D01*
G37*
G36*
X137905443Y-94863519D02*
G01*
X137971627Y-94870037D01*
X138141466Y-94921557D01*
X138297991Y-95005222D01*
X138333729Y-95034552D01*
X138435186Y-95117814D01*
X138518448Y-95219271D01*
X138547778Y-95255009D01*
X138631443Y-95411534D01*
X138682963Y-95581373D01*
X138700359Y-95758000D01*
X138682963Y-95934627D01*
X138631443Y-96104466D01*
X138547778Y-96260991D01*
X138518448Y-96296729D01*
X138435186Y-96398186D01*
X138333729Y-96481448D01*
X138297991Y-96510778D01*
X138141466Y-96594443D01*
X137971627Y-96645963D01*
X137905443Y-96652481D01*
X137839260Y-96659000D01*
X137750740Y-96659000D01*
X137684558Y-96652482D01*
X137618373Y-96645963D01*
X137448534Y-96594443D01*
X137292009Y-96510778D01*
X137256271Y-96481448D01*
X137154814Y-96398186D01*
X137071552Y-96296729D01*
X137042222Y-96260991D01*
X136958557Y-96104466D01*
X136907037Y-95934627D01*
X136889641Y-95758000D01*
X136907037Y-95581373D01*
X136958557Y-95411534D01*
X137042222Y-95255009D01*
X137071552Y-95219271D01*
X137154814Y-95117814D01*
X137256271Y-95034552D01*
X137292009Y-95005222D01*
X137448534Y-94921557D01*
X137618373Y-94870037D01*
X137684558Y-94863518D01*
X137750740Y-94857000D01*
X137839260Y-94857000D01*
X137905443Y-94863519D01*
X137905443Y-94863519D01*
G37*
G36*
X153145442Y-92323518D02*
G01*
X153211627Y-92330037D01*
X153381466Y-92381557D01*
X153537991Y-92465222D01*
X153573729Y-92494552D01*
X153675186Y-92577814D01*
X153758448Y-92679271D01*
X153787778Y-92715009D01*
X153871443Y-92871534D01*
X153922963Y-93041373D01*
X153940359Y-93218000D01*
X153922963Y-93394627D01*
X153871443Y-93564466D01*
X153787778Y-93720991D01*
X153758448Y-93756729D01*
X153675186Y-93858186D01*
X153573729Y-93941448D01*
X153537991Y-93970778D01*
X153381466Y-94054443D01*
X153211627Y-94105963D01*
X153145442Y-94112482D01*
X153079260Y-94119000D01*
X152990740Y-94119000D01*
X152924558Y-94112482D01*
X152858373Y-94105963D01*
X152688534Y-94054443D01*
X152532009Y-93970778D01*
X152496271Y-93941448D01*
X152394814Y-93858186D01*
X152311552Y-93756729D01*
X152282222Y-93720991D01*
X152198557Y-93564466D01*
X152147037Y-93394627D01*
X152129641Y-93218000D01*
X152147037Y-93041373D01*
X152198557Y-92871534D01*
X152282222Y-92715009D01*
X152311552Y-92679271D01*
X152394814Y-92577814D01*
X152496271Y-92494552D01*
X152532009Y-92465222D01*
X152688534Y-92381557D01*
X152858373Y-92330037D01*
X152924558Y-92323518D01*
X152990740Y-92317000D01*
X153079260Y-92317000D01*
X153145442Y-92323518D01*
X153145442Y-92323518D01*
G37*
G36*
X155685442Y-92323518D02*
G01*
X155751627Y-92330037D01*
X155921466Y-92381557D01*
X156077991Y-92465222D01*
X156113729Y-92494552D01*
X156215186Y-92577814D01*
X156298448Y-92679271D01*
X156327778Y-92715009D01*
X156411443Y-92871534D01*
X156462963Y-93041373D01*
X156480359Y-93218000D01*
X156462963Y-93394627D01*
X156411443Y-93564466D01*
X156327778Y-93720991D01*
X156298448Y-93756729D01*
X156215186Y-93858186D01*
X156113729Y-93941448D01*
X156077991Y-93970778D01*
X155921466Y-94054443D01*
X155751627Y-94105963D01*
X155685442Y-94112482D01*
X155619260Y-94119000D01*
X155530740Y-94119000D01*
X155464558Y-94112482D01*
X155398373Y-94105963D01*
X155228534Y-94054443D01*
X155072009Y-93970778D01*
X155036271Y-93941448D01*
X154934814Y-93858186D01*
X154851552Y-93756729D01*
X154822222Y-93720991D01*
X154738557Y-93564466D01*
X154687037Y-93394627D01*
X154669641Y-93218000D01*
X154687037Y-93041373D01*
X154738557Y-92871534D01*
X154822222Y-92715009D01*
X154851552Y-92679271D01*
X154934814Y-92577814D01*
X155036271Y-92494552D01*
X155072009Y-92465222D01*
X155228534Y-92381557D01*
X155398373Y-92330037D01*
X155464558Y-92323518D01*
X155530740Y-92317000D01*
X155619260Y-92317000D01*
X155685442Y-92323518D01*
X155685442Y-92323518D01*
G37*
G36*
X127745442Y-92323518D02*
G01*
X127811627Y-92330037D01*
X127981466Y-92381557D01*
X128137991Y-92465222D01*
X128173729Y-92494552D01*
X128275186Y-92577814D01*
X128358448Y-92679271D01*
X128387778Y-92715009D01*
X128471443Y-92871534D01*
X128522963Y-93041373D01*
X128540359Y-93218000D01*
X128522963Y-93394627D01*
X128471443Y-93564466D01*
X128387778Y-93720991D01*
X128358448Y-93756729D01*
X128275186Y-93858186D01*
X128173729Y-93941448D01*
X128137991Y-93970778D01*
X127981466Y-94054443D01*
X127811627Y-94105963D01*
X127745442Y-94112482D01*
X127679260Y-94119000D01*
X127590740Y-94119000D01*
X127524558Y-94112482D01*
X127458373Y-94105963D01*
X127288534Y-94054443D01*
X127132009Y-93970778D01*
X127096271Y-93941448D01*
X126994814Y-93858186D01*
X126911552Y-93756729D01*
X126882222Y-93720991D01*
X126798557Y-93564466D01*
X126747037Y-93394627D01*
X126729641Y-93218000D01*
X126747037Y-93041373D01*
X126798557Y-92871534D01*
X126882222Y-92715009D01*
X126911552Y-92679271D01*
X126994814Y-92577814D01*
X127096271Y-92494552D01*
X127132009Y-92465222D01*
X127288534Y-92381557D01*
X127458373Y-92330037D01*
X127524558Y-92323518D01*
X127590740Y-92317000D01*
X127679260Y-92317000D01*
X127745442Y-92323518D01*
X127745442Y-92323518D01*
G37*
G36*
X160765442Y-92323518D02*
G01*
X160831627Y-92330037D01*
X161001466Y-92381557D01*
X161157991Y-92465222D01*
X161193729Y-92494552D01*
X161295186Y-92577814D01*
X161378448Y-92679271D01*
X161407778Y-92715009D01*
X161491443Y-92871534D01*
X161542963Y-93041373D01*
X161560359Y-93218000D01*
X161542963Y-93394627D01*
X161491443Y-93564466D01*
X161407778Y-93720991D01*
X161378448Y-93756729D01*
X161295186Y-93858186D01*
X161193729Y-93941448D01*
X161157991Y-93970778D01*
X161001466Y-94054443D01*
X160831627Y-94105963D01*
X160765442Y-94112482D01*
X160699260Y-94119000D01*
X160610740Y-94119000D01*
X160544558Y-94112482D01*
X160478373Y-94105963D01*
X160308534Y-94054443D01*
X160152009Y-93970778D01*
X160116271Y-93941448D01*
X160014814Y-93858186D01*
X159931552Y-93756729D01*
X159902222Y-93720991D01*
X159818557Y-93564466D01*
X159767037Y-93394627D01*
X159749641Y-93218000D01*
X159767037Y-93041373D01*
X159818557Y-92871534D01*
X159902222Y-92715009D01*
X159931552Y-92679271D01*
X160014814Y-92577814D01*
X160116271Y-92494552D01*
X160152009Y-92465222D01*
X160308534Y-92381557D01*
X160478373Y-92330037D01*
X160544558Y-92323518D01*
X160610740Y-92317000D01*
X160699260Y-92317000D01*
X160765442Y-92323518D01*
X160765442Y-92323518D01*
G37*
G36*
X165845442Y-92323518D02*
G01*
X165911627Y-92330037D01*
X166081466Y-92381557D01*
X166237991Y-92465222D01*
X166273729Y-92494552D01*
X166375186Y-92577814D01*
X166458448Y-92679271D01*
X166487778Y-92715009D01*
X166571443Y-92871534D01*
X166622963Y-93041373D01*
X166640359Y-93218000D01*
X166622963Y-93394627D01*
X166571443Y-93564466D01*
X166487778Y-93720991D01*
X166458448Y-93756729D01*
X166375186Y-93858186D01*
X166273729Y-93941448D01*
X166237991Y-93970778D01*
X166081466Y-94054443D01*
X165911627Y-94105963D01*
X165845442Y-94112482D01*
X165779260Y-94119000D01*
X165690740Y-94119000D01*
X165624558Y-94112482D01*
X165558373Y-94105963D01*
X165388534Y-94054443D01*
X165232009Y-93970778D01*
X165196271Y-93941448D01*
X165094814Y-93858186D01*
X165011552Y-93756729D01*
X164982222Y-93720991D01*
X164898557Y-93564466D01*
X164847037Y-93394627D01*
X164829641Y-93218000D01*
X164847037Y-93041373D01*
X164898557Y-92871534D01*
X164982222Y-92715009D01*
X165011552Y-92679271D01*
X165094814Y-92577814D01*
X165196271Y-92494552D01*
X165232009Y-92465222D01*
X165388534Y-92381557D01*
X165558373Y-92330037D01*
X165624558Y-92323518D01*
X165690740Y-92317000D01*
X165779260Y-92317000D01*
X165845442Y-92323518D01*
X165845442Y-92323518D01*
G37*
G36*
X125205442Y-92323518D02*
G01*
X125271627Y-92330037D01*
X125441466Y-92381557D01*
X125597991Y-92465222D01*
X125633729Y-92494552D01*
X125735186Y-92577814D01*
X125818448Y-92679271D01*
X125847778Y-92715009D01*
X125931443Y-92871534D01*
X125982963Y-93041373D01*
X126000359Y-93218000D01*
X125982963Y-93394627D01*
X125931443Y-93564466D01*
X125847778Y-93720991D01*
X125818448Y-93756729D01*
X125735186Y-93858186D01*
X125633729Y-93941448D01*
X125597991Y-93970778D01*
X125441466Y-94054443D01*
X125271627Y-94105963D01*
X125205442Y-94112482D01*
X125139260Y-94119000D01*
X125050740Y-94119000D01*
X124984558Y-94112482D01*
X124918373Y-94105963D01*
X124748534Y-94054443D01*
X124592009Y-93970778D01*
X124556271Y-93941448D01*
X124454814Y-93858186D01*
X124371552Y-93756729D01*
X124342222Y-93720991D01*
X124258557Y-93564466D01*
X124207037Y-93394627D01*
X124189641Y-93218000D01*
X124207037Y-93041373D01*
X124258557Y-92871534D01*
X124342222Y-92715009D01*
X124371552Y-92679271D01*
X124454814Y-92577814D01*
X124556271Y-92494552D01*
X124592009Y-92465222D01*
X124748534Y-92381557D01*
X124918373Y-92330037D01*
X124984558Y-92323518D01*
X125050740Y-92317000D01*
X125139260Y-92317000D01*
X125205442Y-92323518D01*
X125205442Y-92323518D01*
G37*
G36*
X122665442Y-92323518D02*
G01*
X122731627Y-92330037D01*
X122901466Y-92381557D01*
X123057991Y-92465222D01*
X123093729Y-92494552D01*
X123195186Y-92577814D01*
X123278448Y-92679271D01*
X123307778Y-92715009D01*
X123391443Y-92871534D01*
X123442963Y-93041373D01*
X123460359Y-93218000D01*
X123442963Y-93394627D01*
X123391443Y-93564466D01*
X123307778Y-93720991D01*
X123278448Y-93756729D01*
X123195186Y-93858186D01*
X123093729Y-93941448D01*
X123057991Y-93970778D01*
X122901466Y-94054443D01*
X122731627Y-94105963D01*
X122665442Y-94112482D01*
X122599260Y-94119000D01*
X122510740Y-94119000D01*
X122444558Y-94112482D01*
X122378373Y-94105963D01*
X122208534Y-94054443D01*
X122052009Y-93970778D01*
X122016271Y-93941448D01*
X121914814Y-93858186D01*
X121831552Y-93756729D01*
X121802222Y-93720991D01*
X121718557Y-93564466D01*
X121667037Y-93394627D01*
X121649641Y-93218000D01*
X121667037Y-93041373D01*
X121718557Y-92871534D01*
X121802222Y-92715009D01*
X121831552Y-92679271D01*
X121914814Y-92577814D01*
X122016271Y-92494552D01*
X122052009Y-92465222D01*
X122208534Y-92381557D01*
X122378373Y-92330037D01*
X122444558Y-92323518D01*
X122510740Y-92317000D01*
X122599260Y-92317000D01*
X122665442Y-92323518D01*
X122665442Y-92323518D01*
G37*
G36*
X120125442Y-92323518D02*
G01*
X120191627Y-92330037D01*
X120361466Y-92381557D01*
X120517991Y-92465222D01*
X120553729Y-92494552D01*
X120655186Y-92577814D01*
X120738448Y-92679271D01*
X120767778Y-92715009D01*
X120851443Y-92871534D01*
X120902963Y-93041373D01*
X120920359Y-93218000D01*
X120902963Y-93394627D01*
X120851443Y-93564466D01*
X120767778Y-93720991D01*
X120738448Y-93756729D01*
X120655186Y-93858186D01*
X120553729Y-93941448D01*
X120517991Y-93970778D01*
X120361466Y-94054443D01*
X120191627Y-94105963D01*
X120125442Y-94112482D01*
X120059260Y-94119000D01*
X119970740Y-94119000D01*
X119904558Y-94112482D01*
X119838373Y-94105963D01*
X119668534Y-94054443D01*
X119512009Y-93970778D01*
X119476271Y-93941448D01*
X119374814Y-93858186D01*
X119291552Y-93756729D01*
X119262222Y-93720991D01*
X119178557Y-93564466D01*
X119127037Y-93394627D01*
X119109641Y-93218000D01*
X119127037Y-93041373D01*
X119178557Y-92871534D01*
X119262222Y-92715009D01*
X119291552Y-92679271D01*
X119374814Y-92577814D01*
X119476271Y-92494552D01*
X119512009Y-92465222D01*
X119668534Y-92381557D01*
X119838373Y-92330037D01*
X119904558Y-92323518D01*
X119970740Y-92317000D01*
X120059260Y-92317000D01*
X120125442Y-92323518D01*
X120125442Y-92323518D01*
G37*
G36*
X117585442Y-92323518D02*
G01*
X117651627Y-92330037D01*
X117821466Y-92381557D01*
X117977991Y-92465222D01*
X118013729Y-92494552D01*
X118115186Y-92577814D01*
X118198448Y-92679271D01*
X118227778Y-92715009D01*
X118311443Y-92871534D01*
X118362963Y-93041373D01*
X118380359Y-93218000D01*
X118362963Y-93394627D01*
X118311443Y-93564466D01*
X118227778Y-93720991D01*
X118198448Y-93756729D01*
X118115186Y-93858186D01*
X118013729Y-93941448D01*
X117977991Y-93970778D01*
X117821466Y-94054443D01*
X117651627Y-94105963D01*
X117585442Y-94112482D01*
X117519260Y-94119000D01*
X117430740Y-94119000D01*
X117364558Y-94112482D01*
X117298373Y-94105963D01*
X117128534Y-94054443D01*
X116972009Y-93970778D01*
X116936271Y-93941448D01*
X116834814Y-93858186D01*
X116751552Y-93756729D01*
X116722222Y-93720991D01*
X116638557Y-93564466D01*
X116587037Y-93394627D01*
X116569641Y-93218000D01*
X116587037Y-93041373D01*
X116638557Y-92871534D01*
X116722222Y-92715009D01*
X116751552Y-92679271D01*
X116834814Y-92577814D01*
X116936271Y-92494552D01*
X116972009Y-92465222D01*
X117128534Y-92381557D01*
X117298373Y-92330037D01*
X117364558Y-92323518D01*
X117430740Y-92317000D01*
X117519260Y-92317000D01*
X117585442Y-92323518D01*
X117585442Y-92323518D01*
G37*
G36*
X115045442Y-92323518D02*
G01*
X115111627Y-92330037D01*
X115281466Y-92381557D01*
X115437991Y-92465222D01*
X115473729Y-92494552D01*
X115575186Y-92577814D01*
X115658448Y-92679271D01*
X115687778Y-92715009D01*
X115771443Y-92871534D01*
X115822963Y-93041373D01*
X115840359Y-93218000D01*
X115822963Y-93394627D01*
X115771443Y-93564466D01*
X115687778Y-93720991D01*
X115658448Y-93756729D01*
X115575186Y-93858186D01*
X115473729Y-93941448D01*
X115437991Y-93970778D01*
X115281466Y-94054443D01*
X115111627Y-94105963D01*
X115045442Y-94112482D01*
X114979260Y-94119000D01*
X114890740Y-94119000D01*
X114824558Y-94112482D01*
X114758373Y-94105963D01*
X114588534Y-94054443D01*
X114432009Y-93970778D01*
X114396271Y-93941448D01*
X114294814Y-93858186D01*
X114211552Y-93756729D01*
X114182222Y-93720991D01*
X114098557Y-93564466D01*
X114047037Y-93394627D01*
X114029641Y-93218000D01*
X114047037Y-93041373D01*
X114098557Y-92871534D01*
X114182222Y-92715009D01*
X114211552Y-92679271D01*
X114294814Y-92577814D01*
X114396271Y-92494552D01*
X114432009Y-92465222D01*
X114588534Y-92381557D01*
X114758373Y-92330037D01*
X114824558Y-92323518D01*
X114890740Y-92317000D01*
X114979260Y-92317000D01*
X115045442Y-92323518D01*
X115045442Y-92323518D01*
G37*
G36*
X112505442Y-92323518D02*
G01*
X112571627Y-92330037D01*
X112741466Y-92381557D01*
X112897991Y-92465222D01*
X112933729Y-92494552D01*
X113035186Y-92577814D01*
X113118448Y-92679271D01*
X113147778Y-92715009D01*
X113231443Y-92871534D01*
X113282963Y-93041373D01*
X113300359Y-93218000D01*
X113282963Y-93394627D01*
X113231443Y-93564466D01*
X113147778Y-93720991D01*
X113118448Y-93756729D01*
X113035186Y-93858186D01*
X112933729Y-93941448D01*
X112897991Y-93970778D01*
X112741466Y-94054443D01*
X112571627Y-94105963D01*
X112505442Y-94112482D01*
X112439260Y-94119000D01*
X112350740Y-94119000D01*
X112284558Y-94112482D01*
X112218373Y-94105963D01*
X112048534Y-94054443D01*
X111892009Y-93970778D01*
X111856271Y-93941448D01*
X111754814Y-93858186D01*
X111671552Y-93756729D01*
X111642222Y-93720991D01*
X111558557Y-93564466D01*
X111507037Y-93394627D01*
X111489641Y-93218000D01*
X111507037Y-93041373D01*
X111558557Y-92871534D01*
X111642222Y-92715009D01*
X111671552Y-92679271D01*
X111754814Y-92577814D01*
X111856271Y-92494552D01*
X111892009Y-92465222D01*
X112048534Y-92381557D01*
X112218373Y-92330037D01*
X112284558Y-92323518D01*
X112350740Y-92317000D01*
X112439260Y-92317000D01*
X112505442Y-92323518D01*
X112505442Y-92323518D01*
G37*
G36*
X148065442Y-92323518D02*
G01*
X148131627Y-92330037D01*
X148301466Y-92381557D01*
X148457991Y-92465222D01*
X148493729Y-92494552D01*
X148595186Y-92577814D01*
X148678448Y-92679271D01*
X148707778Y-92715009D01*
X148791443Y-92871534D01*
X148842963Y-93041373D01*
X148860359Y-93218000D01*
X148842963Y-93394627D01*
X148791443Y-93564466D01*
X148707778Y-93720991D01*
X148678448Y-93756729D01*
X148595186Y-93858186D01*
X148493729Y-93941448D01*
X148457991Y-93970778D01*
X148301466Y-94054443D01*
X148131627Y-94105963D01*
X148065442Y-94112482D01*
X147999260Y-94119000D01*
X147910740Y-94119000D01*
X147844558Y-94112482D01*
X147778373Y-94105963D01*
X147608534Y-94054443D01*
X147452009Y-93970778D01*
X147416271Y-93941448D01*
X147314814Y-93858186D01*
X147231552Y-93756729D01*
X147202222Y-93720991D01*
X147118557Y-93564466D01*
X147067037Y-93394627D01*
X147049641Y-93218000D01*
X147067037Y-93041373D01*
X147118557Y-92871534D01*
X147202222Y-92715009D01*
X147231552Y-92679271D01*
X147314814Y-92577814D01*
X147416271Y-92494552D01*
X147452009Y-92465222D01*
X147608534Y-92381557D01*
X147778373Y-92330037D01*
X147844558Y-92323518D01*
X147910740Y-92317000D01*
X147999260Y-92317000D01*
X148065442Y-92323518D01*
X148065442Y-92323518D01*
G37*
G36*
X150605442Y-92323518D02*
G01*
X150671627Y-92330037D01*
X150841466Y-92381557D01*
X150997991Y-92465222D01*
X151033729Y-92494552D01*
X151135186Y-92577814D01*
X151218448Y-92679271D01*
X151247778Y-92715009D01*
X151331443Y-92871534D01*
X151382963Y-93041373D01*
X151400359Y-93218000D01*
X151382963Y-93394627D01*
X151331443Y-93564466D01*
X151247778Y-93720991D01*
X151218448Y-93756729D01*
X151135186Y-93858186D01*
X151033729Y-93941448D01*
X150997991Y-93970778D01*
X150841466Y-94054443D01*
X150671627Y-94105963D01*
X150605442Y-94112482D01*
X150539260Y-94119000D01*
X150450740Y-94119000D01*
X150384558Y-94112482D01*
X150318373Y-94105963D01*
X150148534Y-94054443D01*
X149992009Y-93970778D01*
X149956271Y-93941448D01*
X149854814Y-93858186D01*
X149771552Y-93756729D01*
X149742222Y-93720991D01*
X149658557Y-93564466D01*
X149607037Y-93394627D01*
X149589641Y-93218000D01*
X149607037Y-93041373D01*
X149658557Y-92871534D01*
X149742222Y-92715009D01*
X149771552Y-92679271D01*
X149854814Y-92577814D01*
X149956271Y-92494552D01*
X149992009Y-92465222D01*
X150148534Y-92381557D01*
X150318373Y-92330037D01*
X150384558Y-92323518D01*
X150450740Y-92317000D01*
X150539260Y-92317000D01*
X150605442Y-92323518D01*
X150605442Y-92323518D01*
G37*
G36*
X169176000Y-94119000D02*
G01*
X167374000Y-94119000D01*
X167374000Y-92317000D01*
X169176000Y-92317000D01*
X169176000Y-94119000D01*
X169176000Y-94119000D01*
G37*
G36*
X163305442Y-92323518D02*
G01*
X163371627Y-92330037D01*
X163541466Y-92381557D01*
X163697991Y-92465222D01*
X163733729Y-92494552D01*
X163835186Y-92577814D01*
X163918448Y-92679271D01*
X163947778Y-92715009D01*
X164031443Y-92871534D01*
X164082963Y-93041373D01*
X164100359Y-93218000D01*
X164082963Y-93394627D01*
X164031443Y-93564466D01*
X163947778Y-93720991D01*
X163918448Y-93756729D01*
X163835186Y-93858186D01*
X163733729Y-93941448D01*
X163697991Y-93970778D01*
X163541466Y-94054443D01*
X163371627Y-94105963D01*
X163305442Y-94112482D01*
X163239260Y-94119000D01*
X163150740Y-94119000D01*
X163084558Y-94112482D01*
X163018373Y-94105963D01*
X162848534Y-94054443D01*
X162692009Y-93970778D01*
X162656271Y-93941448D01*
X162554814Y-93858186D01*
X162471552Y-93756729D01*
X162442222Y-93720991D01*
X162358557Y-93564466D01*
X162307037Y-93394627D01*
X162289641Y-93218000D01*
X162307037Y-93041373D01*
X162358557Y-92871534D01*
X162442222Y-92715009D01*
X162471552Y-92679271D01*
X162554814Y-92577814D01*
X162656271Y-92494552D01*
X162692009Y-92465222D01*
X162848534Y-92381557D01*
X163018373Y-92330037D01*
X163084558Y-92323518D01*
X163150740Y-92317000D01*
X163239260Y-92317000D01*
X163305442Y-92323518D01*
X163305442Y-92323518D01*
G37*
G36*
X158225442Y-92323518D02*
G01*
X158291627Y-92330037D01*
X158461466Y-92381557D01*
X158617991Y-92465222D01*
X158653729Y-92494552D01*
X158755186Y-92577814D01*
X158838448Y-92679271D01*
X158867778Y-92715009D01*
X158951443Y-92871534D01*
X159002963Y-93041373D01*
X159020359Y-93218000D01*
X159002963Y-93394627D01*
X158951443Y-93564466D01*
X158867778Y-93720991D01*
X158838448Y-93756729D01*
X158755186Y-93858186D01*
X158653729Y-93941448D01*
X158617991Y-93970778D01*
X158461466Y-94054443D01*
X158291627Y-94105963D01*
X158225442Y-94112482D01*
X158159260Y-94119000D01*
X158070740Y-94119000D01*
X158004558Y-94112482D01*
X157938373Y-94105963D01*
X157768534Y-94054443D01*
X157612009Y-93970778D01*
X157576271Y-93941448D01*
X157474814Y-93858186D01*
X157391552Y-93756729D01*
X157362222Y-93720991D01*
X157278557Y-93564466D01*
X157227037Y-93394627D01*
X157209641Y-93218000D01*
X157227037Y-93041373D01*
X157278557Y-92871534D01*
X157362222Y-92715009D01*
X157391552Y-92679271D01*
X157474814Y-92577814D01*
X157576271Y-92494552D01*
X157612009Y-92465222D01*
X157768534Y-92381557D01*
X157938373Y-92330037D01*
X158004558Y-92323518D01*
X158070740Y-92317000D01*
X158159260Y-92317000D01*
X158225442Y-92323518D01*
X158225442Y-92323518D01*
G37*
G36*
X130285442Y-92323518D02*
G01*
X130351627Y-92330037D01*
X130521466Y-92381557D01*
X130677991Y-92465222D01*
X130713729Y-92494552D01*
X130815186Y-92577814D01*
X130898448Y-92679271D01*
X130927778Y-92715009D01*
X131011443Y-92871534D01*
X131062963Y-93041373D01*
X131080359Y-93218000D01*
X131062963Y-93394627D01*
X131011443Y-93564466D01*
X130927778Y-93720991D01*
X130898448Y-93756729D01*
X130815186Y-93858186D01*
X130713729Y-93941448D01*
X130677991Y-93970778D01*
X130521466Y-94054443D01*
X130351627Y-94105963D01*
X130285442Y-94112482D01*
X130219260Y-94119000D01*
X130130740Y-94119000D01*
X130064558Y-94112482D01*
X129998373Y-94105963D01*
X129828534Y-94054443D01*
X129672009Y-93970778D01*
X129636271Y-93941448D01*
X129534814Y-93858186D01*
X129451552Y-93756729D01*
X129422222Y-93720991D01*
X129338557Y-93564466D01*
X129287037Y-93394627D01*
X129269641Y-93218000D01*
X129287037Y-93041373D01*
X129338557Y-92871534D01*
X129422222Y-92715009D01*
X129451552Y-92679271D01*
X129534814Y-92577814D01*
X129636271Y-92494552D01*
X129672009Y-92465222D01*
X129828534Y-92381557D01*
X129998373Y-92330037D01*
X130064558Y-92323518D01*
X130130740Y-92317000D01*
X130219260Y-92317000D01*
X130285442Y-92323518D01*
X130285442Y-92323518D01*
G37*
G36*
X132825442Y-92323518D02*
G01*
X132891627Y-92330037D01*
X133061466Y-92381557D01*
X133217991Y-92465222D01*
X133253729Y-92494552D01*
X133355186Y-92577814D01*
X133438448Y-92679271D01*
X133467778Y-92715009D01*
X133551443Y-92871534D01*
X133602963Y-93041373D01*
X133620359Y-93218000D01*
X133602963Y-93394627D01*
X133551443Y-93564466D01*
X133467778Y-93720991D01*
X133438448Y-93756729D01*
X133355186Y-93858186D01*
X133253729Y-93941448D01*
X133217991Y-93970778D01*
X133061466Y-94054443D01*
X132891627Y-94105963D01*
X132825442Y-94112482D01*
X132759260Y-94119000D01*
X132670740Y-94119000D01*
X132604558Y-94112482D01*
X132538373Y-94105963D01*
X132368534Y-94054443D01*
X132212009Y-93970778D01*
X132176271Y-93941448D01*
X132074814Y-93858186D01*
X131991552Y-93756729D01*
X131962222Y-93720991D01*
X131878557Y-93564466D01*
X131827037Y-93394627D01*
X131809641Y-93218000D01*
X131827037Y-93041373D01*
X131878557Y-92871534D01*
X131962222Y-92715009D01*
X131991552Y-92679271D01*
X132074814Y-92577814D01*
X132176271Y-92494552D01*
X132212009Y-92465222D01*
X132368534Y-92381557D01*
X132538373Y-92330037D01*
X132604558Y-92323518D01*
X132670740Y-92317000D01*
X132759260Y-92317000D01*
X132825442Y-92323518D01*
X132825442Y-92323518D01*
G37*
G36*
X135365442Y-92323518D02*
G01*
X135431627Y-92330037D01*
X135601466Y-92381557D01*
X135757991Y-92465222D01*
X135793729Y-92494552D01*
X135895186Y-92577814D01*
X135978448Y-92679271D01*
X136007778Y-92715009D01*
X136091443Y-92871534D01*
X136142963Y-93041373D01*
X136160359Y-93218000D01*
X136142963Y-93394627D01*
X136091443Y-93564466D01*
X136007778Y-93720991D01*
X135978448Y-93756729D01*
X135895186Y-93858186D01*
X135793729Y-93941448D01*
X135757991Y-93970778D01*
X135601466Y-94054443D01*
X135431627Y-94105963D01*
X135365442Y-94112482D01*
X135299260Y-94119000D01*
X135210740Y-94119000D01*
X135144558Y-94112482D01*
X135078373Y-94105963D01*
X134908534Y-94054443D01*
X134752009Y-93970778D01*
X134716271Y-93941448D01*
X134614814Y-93858186D01*
X134531552Y-93756729D01*
X134502222Y-93720991D01*
X134418557Y-93564466D01*
X134367037Y-93394627D01*
X134349641Y-93218000D01*
X134367037Y-93041373D01*
X134418557Y-92871534D01*
X134502222Y-92715009D01*
X134531552Y-92679271D01*
X134614814Y-92577814D01*
X134716271Y-92494552D01*
X134752009Y-92465222D01*
X134908534Y-92381557D01*
X135078373Y-92330037D01*
X135144558Y-92323518D01*
X135210740Y-92317000D01*
X135299260Y-92317000D01*
X135365442Y-92323518D01*
X135365442Y-92323518D01*
G37*
G36*
X137905442Y-92323518D02*
G01*
X137971627Y-92330037D01*
X138141466Y-92381557D01*
X138297991Y-92465222D01*
X138333729Y-92494552D01*
X138435186Y-92577814D01*
X138518448Y-92679271D01*
X138547778Y-92715009D01*
X138631443Y-92871534D01*
X138682963Y-93041373D01*
X138700359Y-93218000D01*
X138682963Y-93394627D01*
X138631443Y-93564466D01*
X138547778Y-93720991D01*
X138518448Y-93756729D01*
X138435186Y-93858186D01*
X138333729Y-93941448D01*
X138297991Y-93970778D01*
X138141466Y-94054443D01*
X137971627Y-94105963D01*
X137905442Y-94112482D01*
X137839260Y-94119000D01*
X137750740Y-94119000D01*
X137684558Y-94112482D01*
X137618373Y-94105963D01*
X137448534Y-94054443D01*
X137292009Y-93970778D01*
X137256271Y-93941448D01*
X137154814Y-93858186D01*
X137071552Y-93756729D01*
X137042222Y-93720991D01*
X136958557Y-93564466D01*
X136907037Y-93394627D01*
X136889641Y-93218000D01*
X136907037Y-93041373D01*
X136958557Y-92871534D01*
X137042222Y-92715009D01*
X137071552Y-92679271D01*
X137154814Y-92577814D01*
X137256271Y-92494552D01*
X137292009Y-92465222D01*
X137448534Y-92381557D01*
X137618373Y-92330037D01*
X137684558Y-92323518D01*
X137750740Y-92317000D01*
X137839260Y-92317000D01*
X137905442Y-92323518D01*
X137905442Y-92323518D01*
G37*
G36*
X140445442Y-92323518D02*
G01*
X140511627Y-92330037D01*
X140681466Y-92381557D01*
X140837991Y-92465222D01*
X140873729Y-92494552D01*
X140975186Y-92577814D01*
X141058448Y-92679271D01*
X141087778Y-92715009D01*
X141171443Y-92871534D01*
X141222963Y-93041373D01*
X141240359Y-93218000D01*
X141222963Y-93394627D01*
X141171443Y-93564466D01*
X141087778Y-93720991D01*
X141058448Y-93756729D01*
X140975186Y-93858186D01*
X140873729Y-93941448D01*
X140837991Y-93970778D01*
X140681466Y-94054443D01*
X140511627Y-94105963D01*
X140445442Y-94112482D01*
X140379260Y-94119000D01*
X140290740Y-94119000D01*
X140224558Y-94112482D01*
X140158373Y-94105963D01*
X139988534Y-94054443D01*
X139832009Y-93970778D01*
X139796271Y-93941448D01*
X139694814Y-93858186D01*
X139611552Y-93756729D01*
X139582222Y-93720991D01*
X139498557Y-93564466D01*
X139447037Y-93394627D01*
X139429641Y-93218000D01*
X139447037Y-93041373D01*
X139498557Y-92871534D01*
X139582222Y-92715009D01*
X139611552Y-92679271D01*
X139694814Y-92577814D01*
X139796271Y-92494552D01*
X139832009Y-92465222D01*
X139988534Y-92381557D01*
X140158373Y-92330037D01*
X140224558Y-92323518D01*
X140290740Y-92317000D01*
X140379260Y-92317000D01*
X140445442Y-92323518D01*
X140445442Y-92323518D01*
G37*
G36*
X142985442Y-92323518D02*
G01*
X143051627Y-92330037D01*
X143221466Y-92381557D01*
X143377991Y-92465222D01*
X143413729Y-92494552D01*
X143515186Y-92577814D01*
X143598448Y-92679271D01*
X143627778Y-92715009D01*
X143711443Y-92871534D01*
X143762963Y-93041373D01*
X143780359Y-93218000D01*
X143762963Y-93394627D01*
X143711443Y-93564466D01*
X143627778Y-93720991D01*
X143598448Y-93756729D01*
X143515186Y-93858186D01*
X143413729Y-93941448D01*
X143377991Y-93970778D01*
X143221466Y-94054443D01*
X143051627Y-94105963D01*
X142985442Y-94112482D01*
X142919260Y-94119000D01*
X142830740Y-94119000D01*
X142764558Y-94112482D01*
X142698373Y-94105963D01*
X142528534Y-94054443D01*
X142372009Y-93970778D01*
X142336271Y-93941448D01*
X142234814Y-93858186D01*
X142151552Y-93756729D01*
X142122222Y-93720991D01*
X142038557Y-93564466D01*
X141987037Y-93394627D01*
X141969641Y-93218000D01*
X141987037Y-93041373D01*
X142038557Y-92871534D01*
X142122222Y-92715009D01*
X142151552Y-92679271D01*
X142234814Y-92577814D01*
X142336271Y-92494552D01*
X142372009Y-92465222D01*
X142528534Y-92381557D01*
X142698373Y-92330037D01*
X142764558Y-92323518D01*
X142830740Y-92317000D01*
X142919260Y-92317000D01*
X142985442Y-92323518D01*
X142985442Y-92323518D01*
G37*
G36*
X145525442Y-92323518D02*
G01*
X145591627Y-92330037D01*
X145761466Y-92381557D01*
X145917991Y-92465222D01*
X145953729Y-92494552D01*
X146055186Y-92577814D01*
X146138448Y-92679271D01*
X146167778Y-92715009D01*
X146251443Y-92871534D01*
X146302963Y-93041373D01*
X146320359Y-93218000D01*
X146302963Y-93394627D01*
X146251443Y-93564466D01*
X146167778Y-93720991D01*
X146138448Y-93756729D01*
X146055186Y-93858186D01*
X145953729Y-93941448D01*
X145917991Y-93970778D01*
X145761466Y-94054443D01*
X145591627Y-94105963D01*
X145525442Y-94112482D01*
X145459260Y-94119000D01*
X145370740Y-94119000D01*
X145304558Y-94112482D01*
X145238373Y-94105963D01*
X145068534Y-94054443D01*
X144912009Y-93970778D01*
X144876271Y-93941448D01*
X144774814Y-93858186D01*
X144691552Y-93756729D01*
X144662222Y-93720991D01*
X144578557Y-93564466D01*
X144527037Y-93394627D01*
X144509641Y-93218000D01*
X144527037Y-93041373D01*
X144578557Y-92871534D01*
X144662222Y-92715009D01*
X144691552Y-92679271D01*
X144774814Y-92577814D01*
X144876271Y-92494552D01*
X144912009Y-92465222D01*
X145068534Y-92381557D01*
X145238373Y-92330037D01*
X145304558Y-92323518D01*
X145370740Y-92317000D01*
X145459260Y-92317000D01*
X145525442Y-92323518D01*
X145525442Y-92323518D01*
G37*
G36*
X169804928Y-88490764D02*
G01*
X169826009Y-88497160D01*
X169845445Y-88507548D01*
X169862476Y-88521524D01*
X169876452Y-88538555D01*
X169886840Y-88557991D01*
X169893236Y-88579072D01*
X169896000Y-88607140D01*
X169896000Y-90520860D01*
X169893236Y-90548928D01*
X169886840Y-90570009D01*
X169876452Y-90589445D01*
X169862476Y-90606476D01*
X169845445Y-90620452D01*
X169826009Y-90630840D01*
X169804928Y-90637236D01*
X169776860Y-90640000D01*
X169313140Y-90640000D01*
X169285072Y-90637236D01*
X169263991Y-90630840D01*
X169244555Y-90620452D01*
X169227524Y-90606476D01*
X169213548Y-90589445D01*
X169203160Y-90570009D01*
X169196764Y-90548928D01*
X169194000Y-90520860D01*
X169194000Y-88607140D01*
X169196764Y-88579072D01*
X169203160Y-88557991D01*
X169213548Y-88538555D01*
X169227524Y-88521524D01*
X169244555Y-88507548D01*
X169263991Y-88497160D01*
X169285072Y-88490764D01*
X169313140Y-88488000D01*
X169776860Y-88488000D01*
X169804928Y-88490764D01*
X169804928Y-88490764D01*
G37*
G36*
X162184928Y-88490764D02*
G01*
X162206009Y-88497160D01*
X162225445Y-88507548D01*
X162242476Y-88521524D01*
X162256452Y-88538555D01*
X162266840Y-88557991D01*
X162273236Y-88579072D01*
X162276000Y-88607140D01*
X162276000Y-90520860D01*
X162273236Y-90548928D01*
X162266840Y-90570009D01*
X162256452Y-90589445D01*
X162242476Y-90606476D01*
X162225445Y-90620452D01*
X162206009Y-90630840D01*
X162184928Y-90637236D01*
X162156860Y-90640000D01*
X161693140Y-90640000D01*
X161665072Y-90637236D01*
X161643991Y-90630840D01*
X161624555Y-90620452D01*
X161607524Y-90606476D01*
X161593548Y-90589445D01*
X161583160Y-90570009D01*
X161576764Y-90548928D01*
X161574000Y-90520860D01*
X161574000Y-88607140D01*
X161576764Y-88579072D01*
X161583160Y-88557991D01*
X161593548Y-88538555D01*
X161607524Y-88521524D01*
X161624555Y-88507548D01*
X161643991Y-88497160D01*
X161665072Y-88490764D01*
X161693140Y-88488000D01*
X162156860Y-88488000D01*
X162184928Y-88490764D01*
X162184928Y-88490764D01*
G37*
G36*
X160914928Y-88490764D02*
G01*
X160936009Y-88497160D01*
X160955445Y-88507548D01*
X160972476Y-88521524D01*
X160986452Y-88538555D01*
X160996840Y-88557991D01*
X161003236Y-88579072D01*
X161006000Y-88607140D01*
X161006000Y-90520860D01*
X161003236Y-90548928D01*
X160996840Y-90570009D01*
X160986452Y-90589445D01*
X160972476Y-90606476D01*
X160955445Y-90620452D01*
X160936009Y-90630840D01*
X160914928Y-90637236D01*
X160886860Y-90640000D01*
X160423140Y-90640000D01*
X160395072Y-90637236D01*
X160373991Y-90630840D01*
X160354555Y-90620452D01*
X160337524Y-90606476D01*
X160323548Y-90589445D01*
X160313160Y-90570009D01*
X160306764Y-90548928D01*
X160304000Y-90520860D01*
X160304000Y-88607140D01*
X160306764Y-88579072D01*
X160313160Y-88557991D01*
X160323548Y-88538555D01*
X160337524Y-88521524D01*
X160354555Y-88507548D01*
X160373991Y-88497160D01*
X160395072Y-88490764D01*
X160423140Y-88488000D01*
X160886860Y-88488000D01*
X160914928Y-88490764D01*
X160914928Y-88490764D01*
G37*
G36*
X163454928Y-88490764D02*
G01*
X163476009Y-88497160D01*
X163495445Y-88507548D01*
X163512476Y-88521524D01*
X163526452Y-88538555D01*
X163536840Y-88557991D01*
X163543236Y-88579072D01*
X163546000Y-88607140D01*
X163546000Y-90520860D01*
X163543236Y-90548928D01*
X163536840Y-90570009D01*
X163526452Y-90589445D01*
X163512476Y-90606476D01*
X163495445Y-90620452D01*
X163476009Y-90630840D01*
X163454928Y-90637236D01*
X163426860Y-90640000D01*
X162963140Y-90640000D01*
X162935072Y-90637236D01*
X162913991Y-90630840D01*
X162894555Y-90620452D01*
X162877524Y-90606476D01*
X162863548Y-90589445D01*
X162853160Y-90570009D01*
X162846764Y-90548928D01*
X162844000Y-90520860D01*
X162844000Y-88607140D01*
X162846764Y-88579072D01*
X162853160Y-88557991D01*
X162863548Y-88538555D01*
X162877524Y-88521524D01*
X162894555Y-88507548D01*
X162913991Y-88497160D01*
X162935072Y-88490764D01*
X162963140Y-88488000D01*
X163426860Y-88488000D01*
X163454928Y-88490764D01*
X163454928Y-88490764D01*
G37*
G36*
X164724928Y-88490764D02*
G01*
X164746009Y-88497160D01*
X164765445Y-88507548D01*
X164782476Y-88521524D01*
X164796452Y-88538555D01*
X164806840Y-88557991D01*
X164813236Y-88579072D01*
X164816000Y-88607140D01*
X164816000Y-90520860D01*
X164813236Y-90548928D01*
X164806840Y-90570009D01*
X164796452Y-90589445D01*
X164782476Y-90606476D01*
X164765445Y-90620452D01*
X164746009Y-90630840D01*
X164724928Y-90637236D01*
X164696860Y-90640000D01*
X164233140Y-90640000D01*
X164205072Y-90637236D01*
X164183991Y-90630840D01*
X164164555Y-90620452D01*
X164147524Y-90606476D01*
X164133548Y-90589445D01*
X164123160Y-90570009D01*
X164116764Y-90548928D01*
X164114000Y-90520860D01*
X164114000Y-88607140D01*
X164116764Y-88579072D01*
X164123160Y-88557991D01*
X164133548Y-88538555D01*
X164147524Y-88521524D01*
X164164555Y-88507548D01*
X164183991Y-88497160D01*
X164205072Y-88490764D01*
X164233140Y-88488000D01*
X164696860Y-88488000D01*
X164724928Y-88490764D01*
X164724928Y-88490764D01*
G37*
G36*
X159644928Y-88490764D02*
G01*
X159666009Y-88497160D01*
X159685445Y-88507548D01*
X159702476Y-88521524D01*
X159716452Y-88538555D01*
X159726840Y-88557991D01*
X159733236Y-88579072D01*
X159736000Y-88607140D01*
X159736000Y-90520860D01*
X159733236Y-90548928D01*
X159726840Y-90570009D01*
X159716452Y-90589445D01*
X159702476Y-90606476D01*
X159685445Y-90620452D01*
X159666009Y-90630840D01*
X159644928Y-90637236D01*
X159616860Y-90640000D01*
X159153140Y-90640000D01*
X159125072Y-90637236D01*
X159103991Y-90630840D01*
X159084555Y-90620452D01*
X159067524Y-90606476D01*
X159053548Y-90589445D01*
X159043160Y-90570009D01*
X159036764Y-90548928D01*
X159034000Y-90520860D01*
X159034000Y-88607140D01*
X159036764Y-88579072D01*
X159043160Y-88557991D01*
X159053548Y-88538555D01*
X159067524Y-88521524D01*
X159084555Y-88507548D01*
X159103991Y-88497160D01*
X159125072Y-88490764D01*
X159153140Y-88488000D01*
X159616860Y-88488000D01*
X159644928Y-88490764D01*
X159644928Y-88490764D01*
G37*
G36*
X165994928Y-88490764D02*
G01*
X166016009Y-88497160D01*
X166035445Y-88507548D01*
X166052476Y-88521524D01*
X166066452Y-88538555D01*
X166076840Y-88557991D01*
X166083236Y-88579072D01*
X166086000Y-88607140D01*
X166086000Y-90520860D01*
X166083236Y-90548928D01*
X166076840Y-90570009D01*
X166066452Y-90589445D01*
X166052476Y-90606476D01*
X166035445Y-90620452D01*
X166016009Y-90630840D01*
X165994928Y-90637236D01*
X165966860Y-90640000D01*
X165503140Y-90640000D01*
X165475072Y-90637236D01*
X165453991Y-90630840D01*
X165434555Y-90620452D01*
X165417524Y-90606476D01*
X165403548Y-90589445D01*
X165393160Y-90570009D01*
X165386764Y-90548928D01*
X165384000Y-90520860D01*
X165384000Y-88607140D01*
X165386764Y-88579072D01*
X165393160Y-88557991D01*
X165403548Y-88538555D01*
X165417524Y-88521524D01*
X165434555Y-88507548D01*
X165453991Y-88497160D01*
X165475072Y-88490764D01*
X165503140Y-88488000D01*
X165966860Y-88488000D01*
X165994928Y-88490764D01*
X165994928Y-88490764D01*
G37*
G36*
X158374928Y-88490764D02*
G01*
X158396009Y-88497160D01*
X158415445Y-88507548D01*
X158432476Y-88521524D01*
X158446452Y-88538555D01*
X158456840Y-88557991D01*
X158463236Y-88579072D01*
X158466000Y-88607140D01*
X158466000Y-90520860D01*
X158463236Y-90548928D01*
X158456840Y-90570009D01*
X158446452Y-90589445D01*
X158432476Y-90606476D01*
X158415445Y-90620452D01*
X158396009Y-90630840D01*
X158374928Y-90637236D01*
X158346860Y-90640000D01*
X157883140Y-90640000D01*
X157855072Y-90637236D01*
X157833991Y-90630840D01*
X157814555Y-90620452D01*
X157797524Y-90606476D01*
X157783548Y-90589445D01*
X157773160Y-90570009D01*
X157766764Y-90548928D01*
X157764000Y-90520860D01*
X157764000Y-88607140D01*
X157766764Y-88579072D01*
X157773160Y-88557991D01*
X157783548Y-88538555D01*
X157797524Y-88521524D01*
X157814555Y-88507548D01*
X157833991Y-88497160D01*
X157855072Y-88490764D01*
X157883140Y-88488000D01*
X158346860Y-88488000D01*
X158374928Y-88490764D01*
X158374928Y-88490764D01*
G37*
G36*
X167264928Y-88490764D02*
G01*
X167286009Y-88497160D01*
X167305445Y-88507548D01*
X167322476Y-88521524D01*
X167336452Y-88538555D01*
X167346840Y-88557991D01*
X167353236Y-88579072D01*
X167356000Y-88607140D01*
X167356000Y-90520860D01*
X167353236Y-90548928D01*
X167346840Y-90570009D01*
X167336452Y-90589445D01*
X167322476Y-90606476D01*
X167305445Y-90620452D01*
X167286009Y-90630840D01*
X167264928Y-90637236D01*
X167236860Y-90640000D01*
X166773140Y-90640000D01*
X166745072Y-90637236D01*
X166723991Y-90630840D01*
X166704555Y-90620452D01*
X166687524Y-90606476D01*
X166673548Y-90589445D01*
X166663160Y-90570009D01*
X166656764Y-90548928D01*
X166654000Y-90520860D01*
X166654000Y-88607140D01*
X166656764Y-88579072D01*
X166663160Y-88557991D01*
X166673548Y-88538555D01*
X166687524Y-88521524D01*
X166704555Y-88507548D01*
X166723991Y-88497160D01*
X166745072Y-88490764D01*
X166773140Y-88488000D01*
X167236860Y-88488000D01*
X167264928Y-88490764D01*
X167264928Y-88490764D01*
G37*
G36*
X168534928Y-88490764D02*
G01*
X168556009Y-88497160D01*
X168575445Y-88507548D01*
X168592476Y-88521524D01*
X168606452Y-88538555D01*
X168616840Y-88557991D01*
X168623236Y-88579072D01*
X168626000Y-88607140D01*
X168626000Y-90520860D01*
X168623236Y-90548928D01*
X168616840Y-90570009D01*
X168606452Y-90589445D01*
X168592476Y-90606476D01*
X168575445Y-90620452D01*
X168556009Y-90630840D01*
X168534928Y-90637236D01*
X168506860Y-90640000D01*
X168043140Y-90640000D01*
X168015072Y-90637236D01*
X167993991Y-90630840D01*
X167974555Y-90620452D01*
X167957524Y-90606476D01*
X167943548Y-90589445D01*
X167933160Y-90570009D01*
X167926764Y-90548928D01*
X167924000Y-90520860D01*
X167924000Y-88607140D01*
X167926764Y-88579072D01*
X167933160Y-88557991D01*
X167943548Y-88538555D01*
X167957524Y-88521524D01*
X167974555Y-88507548D01*
X167993991Y-88497160D01*
X168015072Y-88490764D01*
X168043140Y-88488000D01*
X168506860Y-88488000D01*
X168534928Y-88490764D01*
X168534928Y-88490764D01*
G37*
G36*
X148722928Y-88412764D02*
G01*
X148744009Y-88419160D01*
X148763445Y-88429548D01*
X148780476Y-88443524D01*
X148794452Y-88460555D01*
X148804840Y-88479991D01*
X148811236Y-88501072D01*
X148814000Y-88529140D01*
X148814000Y-90442860D01*
X148811236Y-90470928D01*
X148804840Y-90492009D01*
X148794452Y-90511445D01*
X148780476Y-90528476D01*
X148763445Y-90542452D01*
X148744009Y-90552840D01*
X148722928Y-90559236D01*
X148694860Y-90562000D01*
X148231140Y-90562000D01*
X148203072Y-90559236D01*
X148181991Y-90552840D01*
X148162555Y-90542452D01*
X148145524Y-90528476D01*
X148131548Y-90511445D01*
X148121160Y-90492009D01*
X148114764Y-90470928D01*
X148112000Y-90442860D01*
X148112000Y-88529140D01*
X148114764Y-88501072D01*
X148121160Y-88479991D01*
X148131548Y-88460555D01*
X148145524Y-88443524D01*
X148162555Y-88429548D01*
X148181991Y-88419160D01*
X148203072Y-88412764D01*
X148231140Y-88410000D01*
X148694860Y-88410000D01*
X148722928Y-88412764D01*
X148722928Y-88412764D01*
G37*
G36*
X152532928Y-88412764D02*
G01*
X152554009Y-88419160D01*
X152573445Y-88429548D01*
X152590476Y-88443524D01*
X152604452Y-88460555D01*
X152614840Y-88479991D01*
X152621236Y-88501072D01*
X152624000Y-88529140D01*
X152624000Y-90442860D01*
X152621236Y-90470928D01*
X152614840Y-90492009D01*
X152604452Y-90511445D01*
X152590476Y-90528476D01*
X152573445Y-90542452D01*
X152554009Y-90552840D01*
X152532928Y-90559236D01*
X152504860Y-90562000D01*
X152041140Y-90562000D01*
X152013072Y-90559236D01*
X151991991Y-90552840D01*
X151972555Y-90542452D01*
X151955524Y-90528476D01*
X151941548Y-90511445D01*
X151931160Y-90492009D01*
X151924764Y-90470928D01*
X151922000Y-90442860D01*
X151922000Y-88529140D01*
X151924764Y-88501072D01*
X151931160Y-88479991D01*
X151941548Y-88460555D01*
X151955524Y-88443524D01*
X151972555Y-88429548D01*
X151991991Y-88419160D01*
X152013072Y-88412764D01*
X152041140Y-88410000D01*
X152504860Y-88410000D01*
X152532928Y-88412764D01*
X152532928Y-88412764D01*
G37*
G36*
X151262928Y-88412764D02*
G01*
X151284009Y-88419160D01*
X151303445Y-88429548D01*
X151320476Y-88443524D01*
X151334452Y-88460555D01*
X151344840Y-88479991D01*
X151351236Y-88501072D01*
X151354000Y-88529140D01*
X151354000Y-90442860D01*
X151351236Y-90470928D01*
X151344840Y-90492009D01*
X151334452Y-90511445D01*
X151320476Y-90528476D01*
X151303445Y-90542452D01*
X151284009Y-90552840D01*
X151262928Y-90559236D01*
X151234860Y-90562000D01*
X150771140Y-90562000D01*
X150743072Y-90559236D01*
X150721991Y-90552840D01*
X150702555Y-90542452D01*
X150685524Y-90528476D01*
X150671548Y-90511445D01*
X150661160Y-90492009D01*
X150654764Y-90470928D01*
X150652000Y-90442860D01*
X150652000Y-88529140D01*
X150654764Y-88501072D01*
X150661160Y-88479991D01*
X150671548Y-88460555D01*
X150685524Y-88443524D01*
X150702555Y-88429548D01*
X150721991Y-88419160D01*
X150743072Y-88412764D01*
X150771140Y-88410000D01*
X151234860Y-88410000D01*
X151262928Y-88412764D01*
X151262928Y-88412764D01*
G37*
G36*
X149992928Y-88412764D02*
G01*
X150014009Y-88419160D01*
X150033445Y-88429548D01*
X150050476Y-88443524D01*
X150064452Y-88460555D01*
X150074840Y-88479991D01*
X150081236Y-88501072D01*
X150084000Y-88529140D01*
X150084000Y-90442860D01*
X150081236Y-90470928D01*
X150074840Y-90492009D01*
X150064452Y-90511445D01*
X150050476Y-90528476D01*
X150033445Y-90542452D01*
X150014009Y-90552840D01*
X149992928Y-90559236D01*
X149964860Y-90562000D01*
X149501140Y-90562000D01*
X149473072Y-90559236D01*
X149451991Y-90552840D01*
X149432555Y-90542452D01*
X149415524Y-90528476D01*
X149401548Y-90511445D01*
X149391160Y-90492009D01*
X149384764Y-90470928D01*
X149382000Y-90442860D01*
X149382000Y-88529140D01*
X149384764Y-88501072D01*
X149391160Y-88479991D01*
X149401548Y-88460555D01*
X149415524Y-88443524D01*
X149432555Y-88429548D01*
X149451991Y-88419160D01*
X149473072Y-88412764D01*
X149501140Y-88410000D01*
X149964860Y-88410000D01*
X149992928Y-88412764D01*
X149992928Y-88412764D01*
G37*
G36*
X147452928Y-88412764D02*
G01*
X147474009Y-88419160D01*
X147493445Y-88429548D01*
X147510476Y-88443524D01*
X147524452Y-88460555D01*
X147534840Y-88479991D01*
X147541236Y-88501072D01*
X147544000Y-88529140D01*
X147544000Y-90442860D01*
X147541236Y-90470928D01*
X147534840Y-90492009D01*
X147524452Y-90511445D01*
X147510476Y-90528476D01*
X147493445Y-90542452D01*
X147474009Y-90552840D01*
X147452928Y-90559236D01*
X147424860Y-90562000D01*
X146961140Y-90562000D01*
X146933072Y-90559236D01*
X146911991Y-90552840D01*
X146892555Y-90542452D01*
X146875524Y-90528476D01*
X146861548Y-90511445D01*
X146851160Y-90492009D01*
X146844764Y-90470928D01*
X146842000Y-90442860D01*
X146842000Y-88529140D01*
X146844764Y-88501072D01*
X146851160Y-88479991D01*
X146861548Y-88460555D01*
X146875524Y-88443524D01*
X146892555Y-88429548D01*
X146911991Y-88419160D01*
X146933072Y-88412764D01*
X146961140Y-88410000D01*
X147424860Y-88410000D01*
X147452928Y-88412764D01*
X147452928Y-88412764D01*
G37*
G36*
X144912928Y-88412764D02*
G01*
X144934009Y-88419160D01*
X144953445Y-88429548D01*
X144970476Y-88443524D01*
X144984452Y-88460555D01*
X144994840Y-88479991D01*
X145001236Y-88501072D01*
X145004000Y-88529140D01*
X145004000Y-90442860D01*
X145001236Y-90470928D01*
X144994840Y-90492009D01*
X144984452Y-90511445D01*
X144970476Y-90528476D01*
X144953445Y-90542452D01*
X144934009Y-90552840D01*
X144912928Y-90559236D01*
X144884860Y-90562000D01*
X144421140Y-90562000D01*
X144393072Y-90559236D01*
X144371991Y-90552840D01*
X144352555Y-90542452D01*
X144335524Y-90528476D01*
X144321548Y-90511445D01*
X144311160Y-90492009D01*
X144304764Y-90470928D01*
X144302000Y-90442860D01*
X144302000Y-88529140D01*
X144304764Y-88501072D01*
X144311160Y-88479991D01*
X144321548Y-88460555D01*
X144335524Y-88443524D01*
X144352555Y-88429548D01*
X144371991Y-88419160D01*
X144393072Y-88412764D01*
X144421140Y-88410000D01*
X144884860Y-88410000D01*
X144912928Y-88412764D01*
X144912928Y-88412764D01*
G37*
G36*
X143642928Y-88412764D02*
G01*
X143664009Y-88419160D01*
X143683445Y-88429548D01*
X143700476Y-88443524D01*
X143714452Y-88460555D01*
X143724840Y-88479991D01*
X143731236Y-88501072D01*
X143734000Y-88529140D01*
X143734000Y-90442860D01*
X143731236Y-90470928D01*
X143724840Y-90492009D01*
X143714452Y-90511445D01*
X143700476Y-90528476D01*
X143683445Y-90542452D01*
X143664009Y-90552840D01*
X143642928Y-90559236D01*
X143614860Y-90562000D01*
X143151140Y-90562000D01*
X143123072Y-90559236D01*
X143101991Y-90552840D01*
X143082555Y-90542452D01*
X143065524Y-90528476D01*
X143051548Y-90511445D01*
X143041160Y-90492009D01*
X143034764Y-90470928D01*
X143032000Y-90442860D01*
X143032000Y-88529140D01*
X143034764Y-88501072D01*
X143041160Y-88479991D01*
X143051548Y-88460555D01*
X143065524Y-88443524D01*
X143082555Y-88429548D01*
X143101991Y-88419160D01*
X143123072Y-88412764D01*
X143151140Y-88410000D01*
X143614860Y-88410000D01*
X143642928Y-88412764D01*
X143642928Y-88412764D01*
G37*
G36*
X153802928Y-88412764D02*
G01*
X153824009Y-88419160D01*
X153843445Y-88429548D01*
X153860476Y-88443524D01*
X153874452Y-88460555D01*
X153884840Y-88479991D01*
X153891236Y-88501072D01*
X153894000Y-88529140D01*
X153894000Y-90442860D01*
X153891236Y-90470928D01*
X153884840Y-90492009D01*
X153874452Y-90511445D01*
X153860476Y-90528476D01*
X153843445Y-90542452D01*
X153824009Y-90552840D01*
X153802928Y-90559236D01*
X153774860Y-90562000D01*
X153311140Y-90562000D01*
X153283072Y-90559236D01*
X153261991Y-90552840D01*
X153242555Y-90542452D01*
X153225524Y-90528476D01*
X153211548Y-90511445D01*
X153201160Y-90492009D01*
X153194764Y-90470928D01*
X153192000Y-90442860D01*
X153192000Y-88529140D01*
X153194764Y-88501072D01*
X153201160Y-88479991D01*
X153211548Y-88460555D01*
X153225524Y-88443524D01*
X153242555Y-88429548D01*
X153261991Y-88419160D01*
X153283072Y-88412764D01*
X153311140Y-88410000D01*
X153774860Y-88410000D01*
X153802928Y-88412764D01*
X153802928Y-88412764D01*
G37*
G36*
X155072928Y-88412764D02*
G01*
X155094009Y-88419160D01*
X155113445Y-88429548D01*
X155130476Y-88443524D01*
X155144452Y-88460555D01*
X155154840Y-88479991D01*
X155161236Y-88501072D01*
X155164000Y-88529140D01*
X155164000Y-90442860D01*
X155161236Y-90470928D01*
X155154840Y-90492009D01*
X155144452Y-90511445D01*
X155130476Y-90528476D01*
X155113445Y-90542452D01*
X155094009Y-90552840D01*
X155072928Y-90559236D01*
X155044860Y-90562000D01*
X154581140Y-90562000D01*
X154553072Y-90559236D01*
X154531991Y-90552840D01*
X154512555Y-90542452D01*
X154495524Y-90528476D01*
X154481548Y-90511445D01*
X154471160Y-90492009D01*
X154464764Y-90470928D01*
X154462000Y-90442860D01*
X154462000Y-88529140D01*
X154464764Y-88501072D01*
X154471160Y-88479991D01*
X154481548Y-88460555D01*
X154495524Y-88443524D01*
X154512555Y-88429548D01*
X154531991Y-88419160D01*
X154553072Y-88412764D01*
X154581140Y-88410000D01*
X155044860Y-88410000D01*
X155072928Y-88412764D01*
X155072928Y-88412764D01*
G37*
G36*
X146182928Y-88412764D02*
G01*
X146204009Y-88419160D01*
X146223445Y-88429548D01*
X146240476Y-88443524D01*
X146254452Y-88460555D01*
X146264840Y-88479991D01*
X146271236Y-88501072D01*
X146274000Y-88529140D01*
X146274000Y-90442860D01*
X146271236Y-90470928D01*
X146264840Y-90492009D01*
X146254452Y-90511445D01*
X146240476Y-90528476D01*
X146223445Y-90542452D01*
X146204009Y-90552840D01*
X146182928Y-90559236D01*
X146154860Y-90562000D01*
X145691140Y-90562000D01*
X145663072Y-90559236D01*
X145641991Y-90552840D01*
X145622555Y-90542452D01*
X145605524Y-90528476D01*
X145591548Y-90511445D01*
X145581160Y-90492009D01*
X145574764Y-90470928D01*
X145572000Y-90442860D01*
X145572000Y-88529140D01*
X145574764Y-88501072D01*
X145581160Y-88479991D01*
X145591548Y-88460555D01*
X145605524Y-88443524D01*
X145622555Y-88429548D01*
X145641991Y-88419160D01*
X145663072Y-88412764D01*
X145691140Y-88410000D01*
X146154860Y-88410000D01*
X146182928Y-88412764D01*
X146182928Y-88412764D01*
G37*
G36*
X126864999Y-88607737D02*
G01*
X126879528Y-88612145D01*
X126892711Y-88617606D01*
X126916745Y-88622388D01*
X126941249Y-88622389D01*
X126965282Y-88617609D01*
X126987921Y-88608232D01*
X126989765Y-88607000D01*
X128221050Y-88607000D01*
X128233164Y-88613475D01*
X128256613Y-88620588D01*
X128280999Y-88622990D01*
X128305385Y-88620588D01*
X128328834Y-88613475D01*
X128333746Y-88611152D01*
X128345001Y-88607737D01*
X128361140Y-88606148D01*
X128898861Y-88606148D01*
X128917199Y-88607954D01*
X128929450Y-88608556D01*
X128947869Y-88608556D01*
X128970149Y-88610750D01*
X129054233Y-88627476D01*
X129075660Y-88633976D01*
X129154858Y-88666780D01*
X129160303Y-88669691D01*
X129160309Y-88669693D01*
X129169169Y-88674429D01*
X129169173Y-88674432D01*
X129174614Y-88677340D01*
X129245899Y-88724971D01*
X129263204Y-88739172D01*
X129323828Y-88799796D01*
X129338029Y-88817101D01*
X129385660Y-88888386D01*
X129388568Y-88893827D01*
X129388571Y-88893831D01*
X129393307Y-88902691D01*
X129393309Y-88902697D01*
X129396220Y-88908142D01*
X129429024Y-88987340D01*
X129435524Y-89008767D01*
X129452250Y-89092851D01*
X129454444Y-89115131D01*
X129454444Y-89133550D01*
X129455046Y-89145801D01*
X129456852Y-89164139D01*
X129456852Y-89651862D01*
X129455046Y-89670199D01*
X129454444Y-89682450D01*
X129454444Y-89700869D01*
X129452250Y-89723149D01*
X129435524Y-89807233D01*
X129429024Y-89828660D01*
X129396220Y-89907858D01*
X129393309Y-89913303D01*
X129393307Y-89913309D01*
X129388571Y-89922169D01*
X129388568Y-89922173D01*
X129385660Y-89927614D01*
X129338029Y-89998899D01*
X129323828Y-90016204D01*
X129263204Y-90076828D01*
X129245899Y-90091029D01*
X129174614Y-90138660D01*
X129169173Y-90141568D01*
X129169169Y-90141571D01*
X129160309Y-90146307D01*
X129160303Y-90146309D01*
X129154858Y-90149220D01*
X129075660Y-90182024D01*
X129054233Y-90188524D01*
X128970149Y-90205250D01*
X128947869Y-90207444D01*
X128929450Y-90207444D01*
X128917199Y-90208046D01*
X128898862Y-90209852D01*
X128361140Y-90209852D01*
X128345001Y-90208263D01*
X128330472Y-90203855D01*
X128317289Y-90198394D01*
X128293255Y-90193612D01*
X128268751Y-90193611D01*
X128244718Y-90198391D01*
X128222079Y-90207768D01*
X128220235Y-90209000D01*
X126988950Y-90209000D01*
X126976836Y-90202525D01*
X126953387Y-90195412D01*
X126929001Y-90193010D01*
X126904615Y-90195412D01*
X126881166Y-90202525D01*
X126876254Y-90204848D01*
X126864999Y-90208263D01*
X126848860Y-90209852D01*
X126311138Y-90209852D01*
X126292801Y-90208046D01*
X126280550Y-90207444D01*
X126262131Y-90207444D01*
X126239851Y-90205250D01*
X126155767Y-90188524D01*
X126134340Y-90182024D01*
X126055142Y-90149220D01*
X126049697Y-90146309D01*
X126049691Y-90146307D01*
X126040831Y-90141571D01*
X126040827Y-90141568D01*
X126035386Y-90138660D01*
X125964101Y-90091029D01*
X125946796Y-90076828D01*
X125886172Y-90016204D01*
X125871971Y-89998899D01*
X125824340Y-89927614D01*
X125821432Y-89922173D01*
X125821429Y-89922169D01*
X125816693Y-89913309D01*
X125816691Y-89913303D01*
X125813780Y-89907858D01*
X125780976Y-89828660D01*
X125774476Y-89807233D01*
X125757750Y-89723149D01*
X125755556Y-89700869D01*
X125755556Y-89682450D01*
X125754954Y-89670199D01*
X125753148Y-89651862D01*
X125753148Y-89164139D01*
X125754954Y-89145801D01*
X125755556Y-89133550D01*
X125755556Y-89115131D01*
X125757750Y-89092851D01*
X125774476Y-89008767D01*
X125780976Y-88987340D01*
X125813780Y-88908142D01*
X125816691Y-88902697D01*
X125816693Y-88902691D01*
X125821429Y-88893831D01*
X125821432Y-88893827D01*
X125824340Y-88888386D01*
X125871971Y-88817101D01*
X125886172Y-88799796D01*
X125946796Y-88739172D01*
X125964101Y-88724971D01*
X126035386Y-88677340D01*
X126040827Y-88674432D01*
X126040831Y-88674429D01*
X126049691Y-88669693D01*
X126049697Y-88669691D01*
X126055142Y-88666780D01*
X126134340Y-88633976D01*
X126155767Y-88627476D01*
X126239851Y-88610750D01*
X126262131Y-88608556D01*
X126280550Y-88608556D01*
X126292801Y-88607954D01*
X126311139Y-88606148D01*
X126848860Y-88606148D01*
X126864999Y-88607737D01*
X126864999Y-88607737D01*
G37*
G36*
X121784999Y-88607737D02*
G01*
X121799528Y-88612145D01*
X121812711Y-88617606D01*
X121836745Y-88622388D01*
X121861249Y-88622389D01*
X121885282Y-88617609D01*
X121907921Y-88608232D01*
X121909765Y-88607000D01*
X123141050Y-88607000D01*
X123153164Y-88613475D01*
X123176613Y-88620588D01*
X123200999Y-88622990D01*
X123225385Y-88620588D01*
X123248834Y-88613475D01*
X123253746Y-88611152D01*
X123265001Y-88607737D01*
X123281140Y-88606148D01*
X123818861Y-88606148D01*
X123837199Y-88607954D01*
X123849450Y-88608556D01*
X123867869Y-88608556D01*
X123890149Y-88610750D01*
X123974233Y-88627476D01*
X123995660Y-88633976D01*
X124074858Y-88666780D01*
X124080303Y-88669691D01*
X124080309Y-88669693D01*
X124089169Y-88674429D01*
X124089173Y-88674432D01*
X124094614Y-88677340D01*
X124165899Y-88724971D01*
X124183204Y-88739172D01*
X124243828Y-88799796D01*
X124258029Y-88817101D01*
X124305660Y-88888386D01*
X124308568Y-88893827D01*
X124308571Y-88893831D01*
X124313307Y-88902691D01*
X124313309Y-88902697D01*
X124316220Y-88908142D01*
X124349024Y-88987340D01*
X124355524Y-89008767D01*
X124372250Y-89092851D01*
X124374444Y-89115131D01*
X124374444Y-89133550D01*
X124375046Y-89145801D01*
X124376852Y-89164139D01*
X124376852Y-89651862D01*
X124375046Y-89670199D01*
X124374444Y-89682450D01*
X124374444Y-89700869D01*
X124372250Y-89723149D01*
X124355524Y-89807233D01*
X124349024Y-89828660D01*
X124316220Y-89907858D01*
X124313309Y-89913303D01*
X124313307Y-89913309D01*
X124308571Y-89922169D01*
X124308568Y-89922173D01*
X124305660Y-89927614D01*
X124258029Y-89998899D01*
X124243828Y-90016204D01*
X124183204Y-90076828D01*
X124165899Y-90091029D01*
X124094614Y-90138660D01*
X124089173Y-90141568D01*
X124089169Y-90141571D01*
X124080309Y-90146307D01*
X124080303Y-90146309D01*
X124074858Y-90149220D01*
X123995660Y-90182024D01*
X123974233Y-90188524D01*
X123890149Y-90205250D01*
X123867869Y-90207444D01*
X123849450Y-90207444D01*
X123837199Y-90208046D01*
X123818862Y-90209852D01*
X123281140Y-90209852D01*
X123265001Y-90208263D01*
X123250472Y-90203855D01*
X123237289Y-90198394D01*
X123213255Y-90193612D01*
X123188751Y-90193611D01*
X123164718Y-90198391D01*
X123142079Y-90207768D01*
X123140235Y-90209000D01*
X121908950Y-90209000D01*
X121896836Y-90202525D01*
X121873387Y-90195412D01*
X121849001Y-90193010D01*
X121824615Y-90195412D01*
X121801166Y-90202525D01*
X121796254Y-90204848D01*
X121784999Y-90208263D01*
X121768860Y-90209852D01*
X121231138Y-90209852D01*
X121212801Y-90208046D01*
X121200550Y-90207444D01*
X121182131Y-90207444D01*
X121159851Y-90205250D01*
X121075767Y-90188524D01*
X121054340Y-90182024D01*
X120975142Y-90149220D01*
X120969697Y-90146309D01*
X120969691Y-90146307D01*
X120960831Y-90141571D01*
X120960827Y-90141568D01*
X120955386Y-90138660D01*
X120884101Y-90091029D01*
X120866796Y-90076828D01*
X120806172Y-90016204D01*
X120791971Y-89998899D01*
X120744340Y-89927614D01*
X120741432Y-89922173D01*
X120741429Y-89922169D01*
X120736693Y-89913309D01*
X120736691Y-89913303D01*
X120733780Y-89907858D01*
X120700976Y-89828660D01*
X120694476Y-89807233D01*
X120677750Y-89723149D01*
X120675556Y-89700869D01*
X120675556Y-89682450D01*
X120674954Y-89670199D01*
X120673148Y-89651862D01*
X120673148Y-89164139D01*
X120674954Y-89145801D01*
X120675556Y-89133550D01*
X120675556Y-89115131D01*
X120677750Y-89092851D01*
X120694476Y-89008767D01*
X120700976Y-88987340D01*
X120733780Y-88908142D01*
X120736691Y-88902697D01*
X120736693Y-88902691D01*
X120741429Y-88893831D01*
X120741432Y-88893827D01*
X120744340Y-88888386D01*
X120791971Y-88817101D01*
X120806172Y-88799796D01*
X120866796Y-88739172D01*
X120884101Y-88724971D01*
X120955386Y-88677340D01*
X120960827Y-88674432D01*
X120960831Y-88674429D01*
X120969691Y-88669693D01*
X120969697Y-88669691D01*
X120975142Y-88666780D01*
X121054340Y-88633976D01*
X121075767Y-88627476D01*
X121159851Y-88610750D01*
X121182131Y-88608556D01*
X121200550Y-88608556D01*
X121212801Y-88607954D01*
X121231139Y-88606148D01*
X121768860Y-88606148D01*
X121784999Y-88607737D01*
X121784999Y-88607737D01*
G37*
G36*
X131944999Y-88607737D02*
G01*
X131959528Y-88612145D01*
X131972711Y-88617606D01*
X131996745Y-88622388D01*
X132021249Y-88622389D01*
X132045282Y-88617609D01*
X132067921Y-88608232D01*
X132069765Y-88607000D01*
X133301050Y-88607000D01*
X133313164Y-88613475D01*
X133336613Y-88620588D01*
X133360999Y-88622990D01*
X133385385Y-88620588D01*
X133408834Y-88613475D01*
X133413746Y-88611152D01*
X133425001Y-88607737D01*
X133441140Y-88606148D01*
X133978861Y-88606148D01*
X133997199Y-88607954D01*
X134009450Y-88608556D01*
X134027869Y-88608556D01*
X134050149Y-88610750D01*
X134134233Y-88627476D01*
X134155660Y-88633976D01*
X134234858Y-88666780D01*
X134240303Y-88669691D01*
X134240309Y-88669693D01*
X134249169Y-88674429D01*
X134249173Y-88674432D01*
X134254614Y-88677340D01*
X134325899Y-88724971D01*
X134343204Y-88739172D01*
X134403828Y-88799796D01*
X134418029Y-88817101D01*
X134465660Y-88888386D01*
X134468568Y-88893827D01*
X134468571Y-88893831D01*
X134473307Y-88902691D01*
X134473309Y-88902697D01*
X134476220Y-88908142D01*
X134509024Y-88987340D01*
X134515524Y-89008767D01*
X134532250Y-89092851D01*
X134534444Y-89115131D01*
X134534444Y-89133550D01*
X134535046Y-89145801D01*
X134536852Y-89164139D01*
X134536852Y-89651862D01*
X134535046Y-89670199D01*
X134534444Y-89682450D01*
X134534444Y-89700869D01*
X134532250Y-89723149D01*
X134515524Y-89807233D01*
X134509024Y-89828660D01*
X134476220Y-89907858D01*
X134473309Y-89913303D01*
X134473307Y-89913309D01*
X134468571Y-89922169D01*
X134468568Y-89922173D01*
X134465660Y-89927614D01*
X134418029Y-89998899D01*
X134403828Y-90016204D01*
X134343204Y-90076828D01*
X134325899Y-90091029D01*
X134254614Y-90138660D01*
X134249173Y-90141568D01*
X134249169Y-90141571D01*
X134240309Y-90146307D01*
X134240303Y-90146309D01*
X134234858Y-90149220D01*
X134155660Y-90182024D01*
X134134233Y-90188524D01*
X134050149Y-90205250D01*
X134027869Y-90207444D01*
X134009450Y-90207444D01*
X133997199Y-90208046D01*
X133978862Y-90209852D01*
X133441140Y-90209852D01*
X133425001Y-90208263D01*
X133410472Y-90203855D01*
X133397289Y-90198394D01*
X133373255Y-90193612D01*
X133348751Y-90193611D01*
X133324718Y-90198391D01*
X133302079Y-90207768D01*
X133300235Y-90209000D01*
X132068950Y-90209000D01*
X132056836Y-90202525D01*
X132033387Y-90195412D01*
X132009001Y-90193010D01*
X131984615Y-90195412D01*
X131961166Y-90202525D01*
X131956254Y-90204848D01*
X131944999Y-90208263D01*
X131928860Y-90209852D01*
X131391138Y-90209852D01*
X131372801Y-90208046D01*
X131360550Y-90207444D01*
X131342131Y-90207444D01*
X131319851Y-90205250D01*
X131235767Y-90188524D01*
X131214340Y-90182024D01*
X131135142Y-90149220D01*
X131129697Y-90146309D01*
X131129691Y-90146307D01*
X131120831Y-90141571D01*
X131120827Y-90141568D01*
X131115386Y-90138660D01*
X131044101Y-90091029D01*
X131026796Y-90076828D01*
X130966172Y-90016204D01*
X130951971Y-89998899D01*
X130904340Y-89927614D01*
X130901432Y-89922173D01*
X130901429Y-89922169D01*
X130896693Y-89913309D01*
X130896691Y-89913303D01*
X130893780Y-89907858D01*
X130860976Y-89828660D01*
X130854476Y-89807233D01*
X130837750Y-89723149D01*
X130835556Y-89700869D01*
X130835556Y-89682450D01*
X130834954Y-89670199D01*
X130833148Y-89651862D01*
X130833148Y-89164139D01*
X130834954Y-89145801D01*
X130835556Y-89133550D01*
X130835556Y-89115131D01*
X130837750Y-89092851D01*
X130854476Y-89008767D01*
X130860976Y-88987340D01*
X130893780Y-88908142D01*
X130896691Y-88902697D01*
X130896693Y-88902691D01*
X130901429Y-88893831D01*
X130901432Y-88893827D01*
X130904340Y-88888386D01*
X130951971Y-88817101D01*
X130966172Y-88799796D01*
X131026796Y-88739172D01*
X131044101Y-88724971D01*
X131115386Y-88677340D01*
X131120827Y-88674432D01*
X131120831Y-88674429D01*
X131129691Y-88669693D01*
X131129697Y-88669691D01*
X131135142Y-88666780D01*
X131214340Y-88633976D01*
X131235767Y-88627476D01*
X131319851Y-88610750D01*
X131342131Y-88608556D01*
X131360550Y-88608556D01*
X131372801Y-88607954D01*
X131391139Y-88606148D01*
X131928860Y-88606148D01*
X131944999Y-88607737D01*
X131944999Y-88607737D01*
G37*
G36*
X137024999Y-88607737D02*
G01*
X137039528Y-88612145D01*
X137052711Y-88617606D01*
X137076745Y-88622388D01*
X137101249Y-88622389D01*
X137125282Y-88617609D01*
X137147921Y-88608232D01*
X137149765Y-88607000D01*
X138381050Y-88607000D01*
X138393164Y-88613475D01*
X138416613Y-88620588D01*
X138440999Y-88622990D01*
X138465385Y-88620588D01*
X138488834Y-88613475D01*
X138493746Y-88611152D01*
X138505001Y-88607737D01*
X138521140Y-88606148D01*
X139058861Y-88606148D01*
X139077199Y-88607954D01*
X139089450Y-88608556D01*
X139107869Y-88608556D01*
X139130149Y-88610750D01*
X139214233Y-88627476D01*
X139235660Y-88633976D01*
X139314858Y-88666780D01*
X139320303Y-88669691D01*
X139320309Y-88669693D01*
X139329169Y-88674429D01*
X139329173Y-88674432D01*
X139334614Y-88677340D01*
X139405899Y-88724971D01*
X139423204Y-88739172D01*
X139483828Y-88799796D01*
X139498029Y-88817101D01*
X139545660Y-88888386D01*
X139548568Y-88893827D01*
X139548571Y-88893831D01*
X139553307Y-88902691D01*
X139553309Y-88902697D01*
X139556220Y-88908142D01*
X139589024Y-88987340D01*
X139595524Y-89008767D01*
X139612250Y-89092851D01*
X139614444Y-89115131D01*
X139614444Y-89133550D01*
X139615046Y-89145801D01*
X139616852Y-89164139D01*
X139616852Y-89651862D01*
X139615046Y-89670199D01*
X139614444Y-89682450D01*
X139614444Y-89700869D01*
X139612250Y-89723149D01*
X139595524Y-89807233D01*
X139589024Y-89828660D01*
X139556220Y-89907858D01*
X139553309Y-89913303D01*
X139553307Y-89913309D01*
X139548571Y-89922169D01*
X139548568Y-89922173D01*
X139545660Y-89927614D01*
X139498029Y-89998899D01*
X139483828Y-90016204D01*
X139423204Y-90076828D01*
X139405899Y-90091029D01*
X139334614Y-90138660D01*
X139329173Y-90141568D01*
X139329169Y-90141571D01*
X139320309Y-90146307D01*
X139320303Y-90146309D01*
X139314858Y-90149220D01*
X139235660Y-90182024D01*
X139214233Y-90188524D01*
X139130149Y-90205250D01*
X139107869Y-90207444D01*
X139089450Y-90207444D01*
X139077199Y-90208046D01*
X139058862Y-90209852D01*
X138521140Y-90209852D01*
X138505001Y-90208263D01*
X138490472Y-90203855D01*
X138477289Y-90198394D01*
X138453255Y-90193612D01*
X138428751Y-90193611D01*
X138404718Y-90198391D01*
X138382079Y-90207768D01*
X138380235Y-90209000D01*
X137148950Y-90209000D01*
X137136836Y-90202525D01*
X137113387Y-90195412D01*
X137089001Y-90193010D01*
X137064615Y-90195412D01*
X137041166Y-90202525D01*
X137036254Y-90204848D01*
X137024999Y-90208263D01*
X137008860Y-90209852D01*
X136471138Y-90209852D01*
X136452801Y-90208046D01*
X136440550Y-90207444D01*
X136422131Y-90207444D01*
X136399851Y-90205250D01*
X136315767Y-90188524D01*
X136294340Y-90182024D01*
X136215142Y-90149220D01*
X136209697Y-90146309D01*
X136209691Y-90146307D01*
X136200831Y-90141571D01*
X136200827Y-90141568D01*
X136195386Y-90138660D01*
X136124101Y-90091029D01*
X136106796Y-90076828D01*
X136046172Y-90016204D01*
X136031971Y-89998899D01*
X135984340Y-89927614D01*
X135981432Y-89922173D01*
X135981429Y-89922169D01*
X135976693Y-89913309D01*
X135976691Y-89913303D01*
X135973780Y-89907858D01*
X135940976Y-89828660D01*
X135934476Y-89807233D01*
X135917750Y-89723149D01*
X135915556Y-89700869D01*
X135915556Y-89682450D01*
X135914954Y-89670199D01*
X135913148Y-89651862D01*
X135913148Y-89164139D01*
X135914954Y-89145801D01*
X135915556Y-89133550D01*
X135915556Y-89115131D01*
X135917750Y-89092851D01*
X135934476Y-89008767D01*
X135940976Y-88987340D01*
X135973780Y-88908142D01*
X135976691Y-88902697D01*
X135976693Y-88902691D01*
X135981429Y-88893831D01*
X135981432Y-88893827D01*
X135984340Y-88888386D01*
X136031971Y-88817101D01*
X136046172Y-88799796D01*
X136106796Y-88739172D01*
X136124101Y-88724971D01*
X136195386Y-88677340D01*
X136200827Y-88674432D01*
X136200831Y-88674429D01*
X136209691Y-88669693D01*
X136209697Y-88669691D01*
X136215142Y-88666780D01*
X136294340Y-88633976D01*
X136315767Y-88627476D01*
X136399851Y-88610750D01*
X136422131Y-88608556D01*
X136440550Y-88608556D01*
X136452801Y-88607954D01*
X136471139Y-88606148D01*
X137008860Y-88606148D01*
X137024999Y-88607737D01*
X137024999Y-88607737D01*
G37*
G36*
X178728823Y-83616313D02*
G01*
X178889242Y-83664976D01*
X179021906Y-83735886D01*
X179037078Y-83743996D01*
X179166659Y-83850341D01*
X179273004Y-83979922D01*
X179273005Y-83979924D01*
X179352024Y-84127758D01*
X179400687Y-84288177D01*
X179417117Y-84455000D01*
X179400687Y-84621823D01*
X179352024Y-84782242D01*
X179281114Y-84914906D01*
X179273004Y-84930078D01*
X179166659Y-85059659D01*
X179037078Y-85166004D01*
X179037076Y-85166005D01*
X178889242Y-85245024D01*
X178728823Y-85293687D01*
X178603804Y-85306000D01*
X178520196Y-85306000D01*
X178395177Y-85293687D01*
X178234758Y-85245024D01*
X178086924Y-85166005D01*
X178086922Y-85166004D01*
X177957341Y-85059659D01*
X177850996Y-84930078D01*
X177842886Y-84914906D01*
X177771976Y-84782242D01*
X177723313Y-84621823D01*
X177706883Y-84455000D01*
X177723313Y-84288177D01*
X177771976Y-84127758D01*
X177850995Y-83979924D01*
X177850996Y-83979922D01*
X177957341Y-83850341D01*
X178086922Y-83743996D01*
X178102094Y-83735886D01*
X178234758Y-83664976D01*
X178395177Y-83616313D01*
X178520196Y-83604000D01*
X178603804Y-83604000D01*
X178728823Y-83616313D01*
X178728823Y-83616313D01*
G37*
G36*
X128291999Y-82003737D02*
G01*
X128306528Y-82008145D01*
X128319711Y-82013606D01*
X128343745Y-82018388D01*
X128368249Y-82018389D01*
X128392282Y-82013609D01*
X128414921Y-82004232D01*
X128416765Y-82003000D01*
X129648050Y-82003000D01*
X129660164Y-82009475D01*
X129683613Y-82016588D01*
X129707999Y-82018990D01*
X129732385Y-82016588D01*
X129755834Y-82009475D01*
X129760746Y-82007152D01*
X129772001Y-82003737D01*
X129788140Y-82002148D01*
X130325861Y-82002148D01*
X130344199Y-82003954D01*
X130356450Y-82004556D01*
X130374869Y-82004556D01*
X130397149Y-82006750D01*
X130481233Y-82023476D01*
X130502660Y-82029976D01*
X130581858Y-82062780D01*
X130587303Y-82065691D01*
X130587309Y-82065693D01*
X130596169Y-82070429D01*
X130596173Y-82070432D01*
X130601614Y-82073340D01*
X130672899Y-82120971D01*
X130690204Y-82135172D01*
X130750828Y-82195796D01*
X130765029Y-82213101D01*
X130812660Y-82284386D01*
X130815568Y-82289827D01*
X130815571Y-82289831D01*
X130820307Y-82298691D01*
X130820309Y-82298697D01*
X130823220Y-82304142D01*
X130856024Y-82383340D01*
X130862524Y-82404767D01*
X130879250Y-82488851D01*
X130881444Y-82511131D01*
X130881444Y-82529550D01*
X130882046Y-82541801D01*
X130883852Y-82560139D01*
X130883852Y-83047862D01*
X130882046Y-83066199D01*
X130881444Y-83078450D01*
X130881444Y-83096869D01*
X130879250Y-83119149D01*
X130862524Y-83203233D01*
X130856024Y-83224660D01*
X130823220Y-83303858D01*
X130820309Y-83309303D01*
X130820307Y-83309309D01*
X130815571Y-83318169D01*
X130815568Y-83318173D01*
X130812660Y-83323614D01*
X130765029Y-83394899D01*
X130750828Y-83412204D01*
X130690204Y-83472828D01*
X130672899Y-83487029D01*
X130601614Y-83534660D01*
X130596173Y-83537568D01*
X130596169Y-83537571D01*
X130587309Y-83542307D01*
X130587303Y-83542309D01*
X130581858Y-83545220D01*
X130502660Y-83578024D01*
X130481233Y-83584524D01*
X130397149Y-83601250D01*
X130374869Y-83603444D01*
X130356450Y-83603444D01*
X130344199Y-83604046D01*
X130325862Y-83605852D01*
X129788140Y-83605852D01*
X129772001Y-83604263D01*
X129757472Y-83599855D01*
X129744289Y-83594394D01*
X129720255Y-83589612D01*
X129695751Y-83589611D01*
X129671718Y-83594391D01*
X129649079Y-83603768D01*
X129647235Y-83605000D01*
X128415950Y-83605000D01*
X128403836Y-83598525D01*
X128380387Y-83591412D01*
X128356001Y-83589010D01*
X128331615Y-83591412D01*
X128308166Y-83598525D01*
X128303254Y-83600848D01*
X128291999Y-83604263D01*
X128275860Y-83605852D01*
X127738138Y-83605852D01*
X127719801Y-83604046D01*
X127707550Y-83603444D01*
X127689131Y-83603444D01*
X127666851Y-83601250D01*
X127582767Y-83584524D01*
X127561340Y-83578024D01*
X127482142Y-83545220D01*
X127476697Y-83542309D01*
X127476691Y-83542307D01*
X127467831Y-83537571D01*
X127467827Y-83537568D01*
X127462386Y-83534660D01*
X127391101Y-83487029D01*
X127373796Y-83472828D01*
X127313172Y-83412204D01*
X127298971Y-83394899D01*
X127251340Y-83323614D01*
X127248432Y-83318173D01*
X127248429Y-83318169D01*
X127243693Y-83309309D01*
X127243691Y-83309303D01*
X127240780Y-83303858D01*
X127207976Y-83224660D01*
X127201476Y-83203233D01*
X127184750Y-83119149D01*
X127182556Y-83096869D01*
X127182556Y-83078450D01*
X127181954Y-83066199D01*
X127180148Y-83047862D01*
X127180148Y-82560139D01*
X127181954Y-82541801D01*
X127182556Y-82529550D01*
X127182556Y-82511131D01*
X127184750Y-82488851D01*
X127201476Y-82404767D01*
X127207976Y-82383340D01*
X127240780Y-82304142D01*
X127243691Y-82298697D01*
X127243693Y-82298691D01*
X127248429Y-82289831D01*
X127248432Y-82289827D01*
X127251340Y-82284386D01*
X127298971Y-82213101D01*
X127313172Y-82195796D01*
X127373796Y-82135172D01*
X127391101Y-82120971D01*
X127462386Y-82073340D01*
X127467827Y-82070432D01*
X127467831Y-82070429D01*
X127476691Y-82065693D01*
X127476697Y-82065691D01*
X127482142Y-82062780D01*
X127561340Y-82029976D01*
X127582767Y-82023476D01*
X127666851Y-82006750D01*
X127689131Y-82004556D01*
X127707550Y-82004556D01*
X127719801Y-82003954D01*
X127738139Y-82002148D01*
X128275860Y-82002148D01*
X128291999Y-82003737D01*
X128291999Y-82003737D01*
G37*
G36*
X123084999Y-82003737D02*
G01*
X123099528Y-82008145D01*
X123112711Y-82013606D01*
X123136745Y-82018388D01*
X123161249Y-82018389D01*
X123185282Y-82013609D01*
X123207921Y-82004232D01*
X123209765Y-82003000D01*
X124441050Y-82003000D01*
X124453164Y-82009475D01*
X124476613Y-82016588D01*
X124500999Y-82018990D01*
X124525385Y-82016588D01*
X124548834Y-82009475D01*
X124553746Y-82007152D01*
X124565001Y-82003737D01*
X124581140Y-82002148D01*
X125118861Y-82002148D01*
X125137199Y-82003954D01*
X125149450Y-82004556D01*
X125167869Y-82004556D01*
X125190149Y-82006750D01*
X125274233Y-82023476D01*
X125295660Y-82029976D01*
X125374858Y-82062780D01*
X125380303Y-82065691D01*
X125380309Y-82065693D01*
X125389169Y-82070429D01*
X125389173Y-82070432D01*
X125394614Y-82073340D01*
X125465899Y-82120971D01*
X125483204Y-82135172D01*
X125543828Y-82195796D01*
X125558029Y-82213101D01*
X125605660Y-82284386D01*
X125608568Y-82289827D01*
X125608571Y-82289831D01*
X125613307Y-82298691D01*
X125613309Y-82298697D01*
X125616220Y-82304142D01*
X125649024Y-82383340D01*
X125655524Y-82404767D01*
X125672250Y-82488851D01*
X125674444Y-82511131D01*
X125674444Y-82529550D01*
X125675046Y-82541801D01*
X125676852Y-82560139D01*
X125676852Y-83047862D01*
X125675046Y-83066199D01*
X125674444Y-83078450D01*
X125674444Y-83096869D01*
X125672250Y-83119149D01*
X125655524Y-83203233D01*
X125649024Y-83224660D01*
X125616220Y-83303858D01*
X125613309Y-83309303D01*
X125613307Y-83309309D01*
X125608571Y-83318169D01*
X125608568Y-83318173D01*
X125605660Y-83323614D01*
X125558029Y-83394899D01*
X125543828Y-83412204D01*
X125483204Y-83472828D01*
X125465899Y-83487029D01*
X125394614Y-83534660D01*
X125389173Y-83537568D01*
X125389169Y-83537571D01*
X125380309Y-83542307D01*
X125380303Y-83542309D01*
X125374858Y-83545220D01*
X125295660Y-83578024D01*
X125274233Y-83584524D01*
X125190149Y-83601250D01*
X125167869Y-83603444D01*
X125149450Y-83603444D01*
X125137199Y-83604046D01*
X125118862Y-83605852D01*
X124581140Y-83605852D01*
X124565001Y-83604263D01*
X124550472Y-83599855D01*
X124537289Y-83594394D01*
X124513255Y-83589612D01*
X124488751Y-83589611D01*
X124464718Y-83594391D01*
X124442079Y-83603768D01*
X124440235Y-83605000D01*
X123208950Y-83605000D01*
X123196836Y-83598525D01*
X123173387Y-83591412D01*
X123149001Y-83589010D01*
X123124615Y-83591412D01*
X123101166Y-83598525D01*
X123096254Y-83600848D01*
X123084999Y-83604263D01*
X123068860Y-83605852D01*
X122531138Y-83605852D01*
X122512801Y-83604046D01*
X122500550Y-83603444D01*
X122482131Y-83603444D01*
X122459851Y-83601250D01*
X122375767Y-83584524D01*
X122354340Y-83578024D01*
X122275142Y-83545220D01*
X122269697Y-83542309D01*
X122269691Y-83542307D01*
X122260831Y-83537571D01*
X122260827Y-83537568D01*
X122255386Y-83534660D01*
X122184101Y-83487029D01*
X122166796Y-83472828D01*
X122106172Y-83412204D01*
X122091971Y-83394899D01*
X122044340Y-83323614D01*
X122041432Y-83318173D01*
X122041429Y-83318169D01*
X122036693Y-83309309D01*
X122036691Y-83309303D01*
X122033780Y-83303858D01*
X122000976Y-83224660D01*
X121994476Y-83203233D01*
X121977750Y-83119149D01*
X121975556Y-83096869D01*
X121975556Y-83078450D01*
X121974954Y-83066199D01*
X121973148Y-83047862D01*
X121973148Y-82560139D01*
X121974954Y-82541801D01*
X121975556Y-82529550D01*
X121975556Y-82511131D01*
X121977750Y-82488851D01*
X121994476Y-82404767D01*
X122000976Y-82383340D01*
X122033780Y-82304142D01*
X122036691Y-82298697D01*
X122036693Y-82298691D01*
X122041429Y-82289831D01*
X122041432Y-82289827D01*
X122044340Y-82284386D01*
X122091971Y-82213101D01*
X122106172Y-82195796D01*
X122166796Y-82135172D01*
X122184101Y-82120971D01*
X122255386Y-82073340D01*
X122260827Y-82070432D01*
X122260831Y-82070429D01*
X122269691Y-82065693D01*
X122269697Y-82065691D01*
X122275142Y-82062780D01*
X122354340Y-82029976D01*
X122375767Y-82023476D01*
X122459851Y-82006750D01*
X122482131Y-82004556D01*
X122500550Y-82004556D01*
X122512801Y-82003954D01*
X122531139Y-82002148D01*
X123068860Y-82002148D01*
X123084999Y-82003737D01*
X123084999Y-82003737D01*
G37*
G36*
X133498999Y-82003737D02*
G01*
X133513528Y-82008145D01*
X133526711Y-82013606D01*
X133550745Y-82018388D01*
X133575249Y-82018389D01*
X133599282Y-82013609D01*
X133621921Y-82004232D01*
X133623765Y-82003000D01*
X134855050Y-82003000D01*
X134867164Y-82009475D01*
X134890613Y-82016588D01*
X134914999Y-82018990D01*
X134939385Y-82016588D01*
X134962834Y-82009475D01*
X134967746Y-82007152D01*
X134979001Y-82003737D01*
X134995140Y-82002148D01*
X135532861Y-82002148D01*
X135551199Y-82003954D01*
X135563450Y-82004556D01*
X135581869Y-82004556D01*
X135604149Y-82006750D01*
X135688233Y-82023476D01*
X135709660Y-82029976D01*
X135788858Y-82062780D01*
X135794303Y-82065691D01*
X135794309Y-82065693D01*
X135803169Y-82070429D01*
X135803173Y-82070432D01*
X135808614Y-82073340D01*
X135879899Y-82120971D01*
X135897204Y-82135172D01*
X135957828Y-82195796D01*
X135972029Y-82213101D01*
X136019660Y-82284386D01*
X136022568Y-82289827D01*
X136022571Y-82289831D01*
X136027307Y-82298691D01*
X136027309Y-82298697D01*
X136030220Y-82304142D01*
X136063024Y-82383340D01*
X136069524Y-82404767D01*
X136086250Y-82488851D01*
X136088444Y-82511131D01*
X136088444Y-82529550D01*
X136089046Y-82541801D01*
X136090852Y-82560139D01*
X136090852Y-83047862D01*
X136089046Y-83066199D01*
X136088444Y-83078450D01*
X136088444Y-83096869D01*
X136086250Y-83119149D01*
X136069524Y-83203233D01*
X136063024Y-83224660D01*
X136030220Y-83303858D01*
X136027309Y-83309303D01*
X136027307Y-83309309D01*
X136022571Y-83318169D01*
X136022568Y-83318173D01*
X136019660Y-83323614D01*
X135972029Y-83394899D01*
X135957828Y-83412204D01*
X135897204Y-83472828D01*
X135879899Y-83487029D01*
X135808614Y-83534660D01*
X135803173Y-83537568D01*
X135803169Y-83537571D01*
X135794309Y-83542307D01*
X135794303Y-83542309D01*
X135788858Y-83545220D01*
X135709660Y-83578024D01*
X135688233Y-83584524D01*
X135604149Y-83601250D01*
X135581869Y-83603444D01*
X135563450Y-83603444D01*
X135551199Y-83604046D01*
X135532862Y-83605852D01*
X134995140Y-83605852D01*
X134979001Y-83604263D01*
X134964472Y-83599855D01*
X134951289Y-83594394D01*
X134927255Y-83589612D01*
X134902751Y-83589611D01*
X134878718Y-83594391D01*
X134856079Y-83603768D01*
X134854235Y-83605000D01*
X133622950Y-83605000D01*
X133610836Y-83598525D01*
X133587387Y-83591412D01*
X133563001Y-83589010D01*
X133538615Y-83591412D01*
X133515166Y-83598525D01*
X133510254Y-83600848D01*
X133498999Y-83604263D01*
X133482860Y-83605852D01*
X132945138Y-83605852D01*
X132926801Y-83604046D01*
X132914550Y-83603444D01*
X132896131Y-83603444D01*
X132873851Y-83601250D01*
X132789767Y-83584524D01*
X132768340Y-83578024D01*
X132689142Y-83545220D01*
X132683697Y-83542309D01*
X132683691Y-83542307D01*
X132674831Y-83537571D01*
X132674827Y-83537568D01*
X132669386Y-83534660D01*
X132598101Y-83487029D01*
X132580796Y-83472828D01*
X132520172Y-83412204D01*
X132505971Y-83394899D01*
X132458340Y-83323614D01*
X132455432Y-83318173D01*
X132455429Y-83318169D01*
X132450693Y-83309309D01*
X132450691Y-83309303D01*
X132447780Y-83303858D01*
X132414976Y-83224660D01*
X132408476Y-83203233D01*
X132391750Y-83119149D01*
X132389556Y-83096869D01*
X132389556Y-83078450D01*
X132388954Y-83066199D01*
X132387148Y-83047862D01*
X132387148Y-82560139D01*
X132388954Y-82541801D01*
X132389556Y-82529550D01*
X132389556Y-82511131D01*
X132391750Y-82488851D01*
X132408476Y-82404767D01*
X132414976Y-82383340D01*
X132447780Y-82304142D01*
X132450691Y-82298697D01*
X132450693Y-82298691D01*
X132455429Y-82289831D01*
X132455432Y-82289827D01*
X132458340Y-82284386D01*
X132505971Y-82213101D01*
X132520172Y-82195796D01*
X132580796Y-82135172D01*
X132598101Y-82120971D01*
X132669386Y-82073340D01*
X132674827Y-82070432D01*
X132674831Y-82070429D01*
X132683691Y-82065693D01*
X132683697Y-82065691D01*
X132689142Y-82062780D01*
X132768340Y-82029976D01*
X132789767Y-82023476D01*
X132873851Y-82006750D01*
X132896131Y-82004556D01*
X132914550Y-82004556D01*
X132926801Y-82003954D01*
X132945139Y-82002148D01*
X133482860Y-82002148D01*
X133498999Y-82003737D01*
X133498999Y-82003737D01*
G37*
G36*
X163454928Y-79190764D02*
G01*
X163476009Y-79197160D01*
X163495445Y-79207548D01*
X163512476Y-79221524D01*
X163526452Y-79238555D01*
X163536840Y-79257991D01*
X163543236Y-79279072D01*
X163546000Y-79307140D01*
X163546000Y-81220860D01*
X163543236Y-81248928D01*
X163536840Y-81270009D01*
X163526452Y-81289445D01*
X163512476Y-81306476D01*
X163495445Y-81320452D01*
X163476009Y-81330840D01*
X163454928Y-81337236D01*
X163426860Y-81340000D01*
X162963140Y-81340000D01*
X162935072Y-81337236D01*
X162913991Y-81330840D01*
X162894555Y-81320452D01*
X162877524Y-81306476D01*
X162863548Y-81289445D01*
X162853160Y-81270009D01*
X162846764Y-81248928D01*
X162844000Y-81220860D01*
X162844000Y-79307140D01*
X162846764Y-79279072D01*
X162853160Y-79257991D01*
X162863548Y-79238555D01*
X162877524Y-79221524D01*
X162894555Y-79207548D01*
X162913991Y-79197160D01*
X162935072Y-79190764D01*
X162963140Y-79188000D01*
X163426860Y-79188000D01*
X163454928Y-79190764D01*
X163454928Y-79190764D01*
G37*
G36*
X159644928Y-79190764D02*
G01*
X159666009Y-79197160D01*
X159685445Y-79207548D01*
X159702476Y-79221524D01*
X159716452Y-79238555D01*
X159726840Y-79257991D01*
X159733236Y-79279072D01*
X159736000Y-79307140D01*
X159736000Y-81220860D01*
X159733236Y-81248928D01*
X159726840Y-81270009D01*
X159716452Y-81289445D01*
X159702476Y-81306476D01*
X159685445Y-81320452D01*
X159666009Y-81330840D01*
X159644928Y-81337236D01*
X159616860Y-81340000D01*
X159153140Y-81340000D01*
X159125072Y-81337236D01*
X159103991Y-81330840D01*
X159084555Y-81320452D01*
X159067524Y-81306476D01*
X159053548Y-81289445D01*
X159043160Y-81270009D01*
X159036764Y-81248928D01*
X159034000Y-81220860D01*
X159034000Y-79307140D01*
X159036764Y-79279072D01*
X159043160Y-79257991D01*
X159053548Y-79238555D01*
X159067524Y-79221524D01*
X159084555Y-79207548D01*
X159103991Y-79197160D01*
X159125072Y-79190764D01*
X159153140Y-79188000D01*
X159616860Y-79188000D01*
X159644928Y-79190764D01*
X159644928Y-79190764D01*
G37*
G36*
X158374928Y-79190764D02*
G01*
X158396009Y-79197160D01*
X158415445Y-79207548D01*
X158432476Y-79221524D01*
X158446452Y-79238555D01*
X158456840Y-79257991D01*
X158463236Y-79279072D01*
X158466000Y-79307140D01*
X158466000Y-81220860D01*
X158463236Y-81248928D01*
X158456840Y-81270009D01*
X158446452Y-81289445D01*
X158432476Y-81306476D01*
X158415445Y-81320452D01*
X158396009Y-81330840D01*
X158374928Y-81337236D01*
X158346860Y-81340000D01*
X157883140Y-81340000D01*
X157855072Y-81337236D01*
X157833991Y-81330840D01*
X157814555Y-81320452D01*
X157797524Y-81306476D01*
X157783548Y-81289445D01*
X157773160Y-81270009D01*
X157766764Y-81248928D01*
X157764000Y-81220860D01*
X157764000Y-79307140D01*
X157766764Y-79279072D01*
X157773160Y-79257991D01*
X157783548Y-79238555D01*
X157797524Y-79221524D01*
X157814555Y-79207548D01*
X157833991Y-79197160D01*
X157855072Y-79190764D01*
X157883140Y-79188000D01*
X158346860Y-79188000D01*
X158374928Y-79190764D01*
X158374928Y-79190764D01*
G37*
G36*
X169804928Y-79190764D02*
G01*
X169826009Y-79197160D01*
X169845445Y-79207548D01*
X169862476Y-79221524D01*
X169876452Y-79238555D01*
X169886840Y-79257991D01*
X169893236Y-79279072D01*
X169896000Y-79307140D01*
X169896000Y-81220860D01*
X169893236Y-81248928D01*
X169886840Y-81270009D01*
X169876452Y-81289445D01*
X169862476Y-81306476D01*
X169845445Y-81320452D01*
X169826009Y-81330840D01*
X169804928Y-81337236D01*
X169776860Y-81340000D01*
X169313140Y-81340000D01*
X169285072Y-81337236D01*
X169263991Y-81330840D01*
X169244555Y-81320452D01*
X169227524Y-81306476D01*
X169213548Y-81289445D01*
X169203160Y-81270009D01*
X169196764Y-81248928D01*
X169194000Y-81220860D01*
X169194000Y-79307140D01*
X169196764Y-79279072D01*
X169203160Y-79257991D01*
X169213548Y-79238555D01*
X169227524Y-79221524D01*
X169244555Y-79207548D01*
X169263991Y-79197160D01*
X169285072Y-79190764D01*
X169313140Y-79188000D01*
X169776860Y-79188000D01*
X169804928Y-79190764D01*
X169804928Y-79190764D01*
G37*
G36*
X168534928Y-79190764D02*
G01*
X168556009Y-79197160D01*
X168575445Y-79207548D01*
X168592476Y-79221524D01*
X168606452Y-79238555D01*
X168616840Y-79257991D01*
X168623236Y-79279072D01*
X168626000Y-79307140D01*
X168626000Y-81220860D01*
X168623236Y-81248928D01*
X168616840Y-81270009D01*
X168606452Y-81289445D01*
X168592476Y-81306476D01*
X168575445Y-81320452D01*
X168556009Y-81330840D01*
X168534928Y-81337236D01*
X168506860Y-81340000D01*
X168043140Y-81340000D01*
X168015072Y-81337236D01*
X167993991Y-81330840D01*
X167974555Y-81320452D01*
X167957524Y-81306476D01*
X167943548Y-81289445D01*
X167933160Y-81270009D01*
X167926764Y-81248928D01*
X167924000Y-81220860D01*
X167924000Y-79307140D01*
X167926764Y-79279072D01*
X167933160Y-79257991D01*
X167943548Y-79238555D01*
X167957524Y-79221524D01*
X167974555Y-79207548D01*
X167993991Y-79197160D01*
X168015072Y-79190764D01*
X168043140Y-79188000D01*
X168506860Y-79188000D01*
X168534928Y-79190764D01*
X168534928Y-79190764D01*
G37*
G36*
X167264928Y-79190764D02*
G01*
X167286009Y-79197160D01*
X167305445Y-79207548D01*
X167322476Y-79221524D01*
X167336452Y-79238555D01*
X167346840Y-79257991D01*
X167353236Y-79279072D01*
X167356000Y-79307140D01*
X167356000Y-81220860D01*
X167353236Y-81248928D01*
X167346840Y-81270009D01*
X167336452Y-81289445D01*
X167322476Y-81306476D01*
X167305445Y-81320452D01*
X167286009Y-81330840D01*
X167264928Y-81337236D01*
X167236860Y-81340000D01*
X166773140Y-81340000D01*
X166745072Y-81337236D01*
X166723991Y-81330840D01*
X166704555Y-81320452D01*
X166687524Y-81306476D01*
X166673548Y-81289445D01*
X166663160Y-81270009D01*
X166656764Y-81248928D01*
X166654000Y-81220860D01*
X166654000Y-79307140D01*
X166656764Y-79279072D01*
X166663160Y-79257991D01*
X166673548Y-79238555D01*
X166687524Y-79221524D01*
X166704555Y-79207548D01*
X166723991Y-79197160D01*
X166745072Y-79190764D01*
X166773140Y-79188000D01*
X167236860Y-79188000D01*
X167264928Y-79190764D01*
X167264928Y-79190764D01*
G37*
G36*
X165994928Y-79190764D02*
G01*
X166016009Y-79197160D01*
X166035445Y-79207548D01*
X166052476Y-79221524D01*
X166066452Y-79238555D01*
X166076840Y-79257991D01*
X166083236Y-79279072D01*
X166086000Y-79307140D01*
X166086000Y-81220860D01*
X166083236Y-81248928D01*
X166076840Y-81270009D01*
X166066452Y-81289445D01*
X166052476Y-81306476D01*
X166035445Y-81320452D01*
X166016009Y-81330840D01*
X165994928Y-81337236D01*
X165966860Y-81340000D01*
X165503140Y-81340000D01*
X165475072Y-81337236D01*
X165453991Y-81330840D01*
X165434555Y-81320452D01*
X165417524Y-81306476D01*
X165403548Y-81289445D01*
X165393160Y-81270009D01*
X165386764Y-81248928D01*
X165384000Y-81220860D01*
X165384000Y-79307140D01*
X165386764Y-79279072D01*
X165393160Y-79257991D01*
X165403548Y-79238555D01*
X165417524Y-79221524D01*
X165434555Y-79207548D01*
X165453991Y-79197160D01*
X165475072Y-79190764D01*
X165503140Y-79188000D01*
X165966860Y-79188000D01*
X165994928Y-79190764D01*
X165994928Y-79190764D01*
G37*
G36*
X164724928Y-79190764D02*
G01*
X164746009Y-79197160D01*
X164765445Y-79207548D01*
X164782476Y-79221524D01*
X164796452Y-79238555D01*
X164806840Y-79257991D01*
X164813236Y-79279072D01*
X164816000Y-79307140D01*
X164816000Y-81220860D01*
X164813236Y-81248928D01*
X164806840Y-81270009D01*
X164796452Y-81289445D01*
X164782476Y-81306476D01*
X164765445Y-81320452D01*
X164746009Y-81330840D01*
X164724928Y-81337236D01*
X164696860Y-81340000D01*
X164233140Y-81340000D01*
X164205072Y-81337236D01*
X164183991Y-81330840D01*
X164164555Y-81320452D01*
X164147524Y-81306476D01*
X164133548Y-81289445D01*
X164123160Y-81270009D01*
X164116764Y-81248928D01*
X164114000Y-81220860D01*
X164114000Y-79307140D01*
X164116764Y-79279072D01*
X164123160Y-79257991D01*
X164133548Y-79238555D01*
X164147524Y-79221524D01*
X164164555Y-79207548D01*
X164183991Y-79197160D01*
X164205072Y-79190764D01*
X164233140Y-79188000D01*
X164696860Y-79188000D01*
X164724928Y-79190764D01*
X164724928Y-79190764D01*
G37*
G36*
X162184928Y-79190764D02*
G01*
X162206009Y-79197160D01*
X162225445Y-79207548D01*
X162242476Y-79221524D01*
X162256452Y-79238555D01*
X162266840Y-79257991D01*
X162273236Y-79279072D01*
X162276000Y-79307140D01*
X162276000Y-81220860D01*
X162273236Y-81248928D01*
X162266840Y-81270009D01*
X162256452Y-81289445D01*
X162242476Y-81306476D01*
X162225445Y-81320452D01*
X162206009Y-81330840D01*
X162184928Y-81337236D01*
X162156860Y-81340000D01*
X161693140Y-81340000D01*
X161665072Y-81337236D01*
X161643991Y-81330840D01*
X161624555Y-81320452D01*
X161607524Y-81306476D01*
X161593548Y-81289445D01*
X161583160Y-81270009D01*
X161576764Y-81248928D01*
X161574000Y-81220860D01*
X161574000Y-79307140D01*
X161576764Y-79279072D01*
X161583160Y-79257991D01*
X161593548Y-79238555D01*
X161607524Y-79221524D01*
X161624555Y-79207548D01*
X161643991Y-79197160D01*
X161665072Y-79190764D01*
X161693140Y-79188000D01*
X162156860Y-79188000D01*
X162184928Y-79190764D01*
X162184928Y-79190764D01*
G37*
G36*
X160914928Y-79190764D02*
G01*
X160936009Y-79197160D01*
X160955445Y-79207548D01*
X160972476Y-79221524D01*
X160986452Y-79238555D01*
X160996840Y-79257991D01*
X161003236Y-79279072D01*
X161006000Y-79307140D01*
X161006000Y-81220860D01*
X161003236Y-81248928D01*
X160996840Y-81270009D01*
X160986452Y-81289445D01*
X160972476Y-81306476D01*
X160955445Y-81320452D01*
X160936009Y-81330840D01*
X160914928Y-81337236D01*
X160886860Y-81340000D01*
X160423140Y-81340000D01*
X160395072Y-81337236D01*
X160373991Y-81330840D01*
X160354555Y-81320452D01*
X160337524Y-81306476D01*
X160323548Y-81289445D01*
X160313160Y-81270009D01*
X160306764Y-81248928D01*
X160304000Y-81220860D01*
X160304000Y-79307140D01*
X160306764Y-79279072D01*
X160313160Y-79257991D01*
X160323548Y-79238555D01*
X160337524Y-79221524D01*
X160354555Y-79207548D01*
X160373991Y-79197160D01*
X160395072Y-79190764D01*
X160423140Y-79188000D01*
X160886860Y-79188000D01*
X160914928Y-79190764D01*
X160914928Y-79190764D01*
G37*
G36*
X149992928Y-79112764D02*
G01*
X150014009Y-79119160D01*
X150033445Y-79129548D01*
X150050476Y-79143524D01*
X150064452Y-79160555D01*
X150074840Y-79179991D01*
X150081236Y-79201072D01*
X150084000Y-79229140D01*
X150084000Y-81142860D01*
X150081236Y-81170928D01*
X150074840Y-81192009D01*
X150064452Y-81211445D01*
X150050476Y-81228476D01*
X150033445Y-81242452D01*
X150014009Y-81252840D01*
X149992928Y-81259236D01*
X149964860Y-81262000D01*
X149501140Y-81262000D01*
X149473072Y-81259236D01*
X149451991Y-81252840D01*
X149432555Y-81242452D01*
X149415524Y-81228476D01*
X149401548Y-81211445D01*
X149391160Y-81192009D01*
X149384764Y-81170928D01*
X149382000Y-81142860D01*
X149382000Y-79229140D01*
X149384764Y-79201072D01*
X149391160Y-79179991D01*
X149401548Y-79160555D01*
X149415524Y-79143524D01*
X149432555Y-79129548D01*
X149451991Y-79119160D01*
X149473072Y-79112764D01*
X149501140Y-79110000D01*
X149964860Y-79110000D01*
X149992928Y-79112764D01*
X149992928Y-79112764D01*
G37*
G36*
X151262928Y-79112764D02*
G01*
X151284009Y-79119160D01*
X151303445Y-79129548D01*
X151320476Y-79143524D01*
X151334452Y-79160555D01*
X151344840Y-79179991D01*
X151351236Y-79201072D01*
X151354000Y-79229140D01*
X151354000Y-81142860D01*
X151351236Y-81170928D01*
X151344840Y-81192009D01*
X151334452Y-81211445D01*
X151320476Y-81228476D01*
X151303445Y-81242452D01*
X151284009Y-81252840D01*
X151262928Y-81259236D01*
X151234860Y-81262000D01*
X150771140Y-81262000D01*
X150743072Y-81259236D01*
X150721991Y-81252840D01*
X150702555Y-81242452D01*
X150685524Y-81228476D01*
X150671548Y-81211445D01*
X150661160Y-81192009D01*
X150654764Y-81170928D01*
X150652000Y-81142860D01*
X150652000Y-79229140D01*
X150654764Y-79201072D01*
X150661160Y-79179991D01*
X150671548Y-79160555D01*
X150685524Y-79143524D01*
X150702555Y-79129548D01*
X150721991Y-79119160D01*
X150743072Y-79112764D01*
X150771140Y-79110000D01*
X151234860Y-79110000D01*
X151262928Y-79112764D01*
X151262928Y-79112764D01*
G37*
G36*
X155072928Y-79112764D02*
G01*
X155094009Y-79119160D01*
X155113445Y-79129548D01*
X155130476Y-79143524D01*
X155144452Y-79160555D01*
X155154840Y-79179991D01*
X155161236Y-79201072D01*
X155164000Y-79229140D01*
X155164000Y-81142860D01*
X155161236Y-81170928D01*
X155154840Y-81192009D01*
X155144452Y-81211445D01*
X155130476Y-81228476D01*
X155113445Y-81242452D01*
X155094009Y-81252840D01*
X155072928Y-81259236D01*
X155044860Y-81262000D01*
X154581140Y-81262000D01*
X154553072Y-81259236D01*
X154531991Y-81252840D01*
X154512555Y-81242452D01*
X154495524Y-81228476D01*
X154481548Y-81211445D01*
X154471160Y-81192009D01*
X154464764Y-81170928D01*
X154462000Y-81142860D01*
X154462000Y-79229140D01*
X154464764Y-79201072D01*
X154471160Y-79179991D01*
X154481548Y-79160555D01*
X154495524Y-79143524D01*
X154512555Y-79129548D01*
X154531991Y-79119160D01*
X154553072Y-79112764D01*
X154581140Y-79110000D01*
X155044860Y-79110000D01*
X155072928Y-79112764D01*
X155072928Y-79112764D01*
G37*
G36*
X153802928Y-79112764D02*
G01*
X153824009Y-79119160D01*
X153843445Y-79129548D01*
X153860476Y-79143524D01*
X153874452Y-79160555D01*
X153884840Y-79179991D01*
X153891236Y-79201072D01*
X153894000Y-79229140D01*
X153894000Y-81142860D01*
X153891236Y-81170928D01*
X153884840Y-81192009D01*
X153874452Y-81211445D01*
X153860476Y-81228476D01*
X153843445Y-81242452D01*
X153824009Y-81252840D01*
X153802928Y-81259236D01*
X153774860Y-81262000D01*
X153311140Y-81262000D01*
X153283072Y-81259236D01*
X153261991Y-81252840D01*
X153242555Y-81242452D01*
X153225524Y-81228476D01*
X153211548Y-81211445D01*
X153201160Y-81192009D01*
X153194764Y-81170928D01*
X153192000Y-81142860D01*
X153192000Y-79229140D01*
X153194764Y-79201072D01*
X153201160Y-79179991D01*
X153211548Y-79160555D01*
X153225524Y-79143524D01*
X153242555Y-79129548D01*
X153261991Y-79119160D01*
X153283072Y-79112764D01*
X153311140Y-79110000D01*
X153774860Y-79110000D01*
X153802928Y-79112764D01*
X153802928Y-79112764D01*
G37*
G36*
X152532928Y-79112764D02*
G01*
X152554009Y-79119160D01*
X152573445Y-79129548D01*
X152590476Y-79143524D01*
X152604452Y-79160555D01*
X152614840Y-79179991D01*
X152621236Y-79201072D01*
X152624000Y-79229140D01*
X152624000Y-81142860D01*
X152621236Y-81170928D01*
X152614840Y-81192009D01*
X152604452Y-81211445D01*
X152590476Y-81228476D01*
X152573445Y-81242452D01*
X152554009Y-81252840D01*
X152532928Y-81259236D01*
X152504860Y-81262000D01*
X152041140Y-81262000D01*
X152013072Y-81259236D01*
X151991991Y-81252840D01*
X151972555Y-81242452D01*
X151955524Y-81228476D01*
X151941548Y-81211445D01*
X151931160Y-81192009D01*
X151924764Y-81170928D01*
X151922000Y-81142860D01*
X151922000Y-79229140D01*
X151924764Y-79201072D01*
X151931160Y-79179991D01*
X151941548Y-79160555D01*
X151955524Y-79143524D01*
X151972555Y-79129548D01*
X151991991Y-79119160D01*
X152013072Y-79112764D01*
X152041140Y-79110000D01*
X152504860Y-79110000D01*
X152532928Y-79112764D01*
X152532928Y-79112764D01*
G37*
G36*
X143642928Y-79112764D02*
G01*
X143664009Y-79119160D01*
X143683445Y-79129548D01*
X143700476Y-79143524D01*
X143714452Y-79160555D01*
X143724840Y-79179991D01*
X143731236Y-79201072D01*
X143734000Y-79229140D01*
X143734000Y-81142860D01*
X143731236Y-81170928D01*
X143724840Y-81192009D01*
X143714452Y-81211445D01*
X143700476Y-81228476D01*
X143683445Y-81242452D01*
X143664009Y-81252840D01*
X143642928Y-81259236D01*
X143614860Y-81262000D01*
X143151140Y-81262000D01*
X143123072Y-81259236D01*
X143101991Y-81252840D01*
X143082555Y-81242452D01*
X143065524Y-81228476D01*
X143051548Y-81211445D01*
X143041160Y-81192009D01*
X143034764Y-81170928D01*
X143032000Y-81142860D01*
X143032000Y-79229140D01*
X143034764Y-79201072D01*
X143041160Y-79179991D01*
X143051548Y-79160555D01*
X143065524Y-79143524D01*
X143082555Y-79129548D01*
X143101991Y-79119160D01*
X143123072Y-79112764D01*
X143151140Y-79110000D01*
X143614860Y-79110000D01*
X143642928Y-79112764D01*
X143642928Y-79112764D01*
G37*
G36*
X144912928Y-79112764D02*
G01*
X144934009Y-79119160D01*
X144953445Y-79129548D01*
X144970476Y-79143524D01*
X144984452Y-79160555D01*
X144994840Y-79179991D01*
X145001236Y-79201072D01*
X145004000Y-79229140D01*
X145004000Y-81142860D01*
X145001236Y-81170928D01*
X144994840Y-81192009D01*
X144984452Y-81211445D01*
X144970476Y-81228476D01*
X144953445Y-81242452D01*
X144934009Y-81252840D01*
X144912928Y-81259236D01*
X144884860Y-81262000D01*
X144421140Y-81262000D01*
X144393072Y-81259236D01*
X144371991Y-81252840D01*
X144352555Y-81242452D01*
X144335524Y-81228476D01*
X144321548Y-81211445D01*
X144311160Y-81192009D01*
X144304764Y-81170928D01*
X144302000Y-81142860D01*
X144302000Y-79229140D01*
X144304764Y-79201072D01*
X144311160Y-79179991D01*
X144321548Y-79160555D01*
X144335524Y-79143524D01*
X144352555Y-79129548D01*
X144371991Y-79119160D01*
X144393072Y-79112764D01*
X144421140Y-79110000D01*
X144884860Y-79110000D01*
X144912928Y-79112764D01*
X144912928Y-79112764D01*
G37*
G36*
X146182928Y-79112764D02*
G01*
X146204009Y-79119160D01*
X146223445Y-79129548D01*
X146240476Y-79143524D01*
X146254452Y-79160555D01*
X146264840Y-79179991D01*
X146271236Y-79201072D01*
X146274000Y-79229140D01*
X146274000Y-81142860D01*
X146271236Y-81170928D01*
X146264840Y-81192009D01*
X146254452Y-81211445D01*
X146240476Y-81228476D01*
X146223445Y-81242452D01*
X146204009Y-81252840D01*
X146182928Y-81259236D01*
X146154860Y-81262000D01*
X145691140Y-81262000D01*
X145663072Y-81259236D01*
X145641991Y-81252840D01*
X145622555Y-81242452D01*
X145605524Y-81228476D01*
X145591548Y-81211445D01*
X145581160Y-81192009D01*
X145574764Y-81170928D01*
X145572000Y-81142860D01*
X145572000Y-79229140D01*
X145574764Y-79201072D01*
X145581160Y-79179991D01*
X145591548Y-79160555D01*
X145605524Y-79143524D01*
X145622555Y-79129548D01*
X145641991Y-79119160D01*
X145663072Y-79112764D01*
X145691140Y-79110000D01*
X146154860Y-79110000D01*
X146182928Y-79112764D01*
X146182928Y-79112764D01*
G37*
G36*
X147452928Y-79112764D02*
G01*
X147474009Y-79119160D01*
X147493445Y-79129548D01*
X147510476Y-79143524D01*
X147524452Y-79160555D01*
X147534840Y-79179991D01*
X147541236Y-79201072D01*
X147544000Y-79229140D01*
X147544000Y-81142860D01*
X147541236Y-81170928D01*
X147534840Y-81192009D01*
X147524452Y-81211445D01*
X147510476Y-81228476D01*
X147493445Y-81242452D01*
X147474009Y-81252840D01*
X147452928Y-81259236D01*
X147424860Y-81262000D01*
X146961140Y-81262000D01*
X146933072Y-81259236D01*
X146911991Y-81252840D01*
X146892555Y-81242452D01*
X146875524Y-81228476D01*
X146861548Y-81211445D01*
X146851160Y-81192009D01*
X146844764Y-81170928D01*
X146842000Y-81142860D01*
X146842000Y-79229140D01*
X146844764Y-79201072D01*
X146851160Y-79179991D01*
X146861548Y-79160555D01*
X146875524Y-79143524D01*
X146892555Y-79129548D01*
X146911991Y-79119160D01*
X146933072Y-79112764D01*
X146961140Y-79110000D01*
X147424860Y-79110000D01*
X147452928Y-79112764D01*
X147452928Y-79112764D01*
G37*
G36*
X148722928Y-79112764D02*
G01*
X148744009Y-79119160D01*
X148763445Y-79129548D01*
X148780476Y-79143524D01*
X148794452Y-79160555D01*
X148804840Y-79179991D01*
X148811236Y-79201072D01*
X148814000Y-79229140D01*
X148814000Y-81142860D01*
X148811236Y-81170928D01*
X148804840Y-81192009D01*
X148794452Y-81211445D01*
X148780476Y-81228476D01*
X148763445Y-81242452D01*
X148744009Y-81252840D01*
X148722928Y-81259236D01*
X148694860Y-81262000D01*
X148231140Y-81262000D01*
X148203072Y-81259236D01*
X148181991Y-81252840D01*
X148162555Y-81242452D01*
X148145524Y-81228476D01*
X148131548Y-81211445D01*
X148121160Y-81192009D01*
X148114764Y-81170928D01*
X148112000Y-81142860D01*
X148112000Y-79229140D01*
X148114764Y-79201072D01*
X148121160Y-79179991D01*
X148131548Y-79160555D01*
X148145524Y-79143524D01*
X148162555Y-79129548D01*
X148181991Y-79119160D01*
X148203072Y-79112764D01*
X148231140Y-79110000D01*
X148694860Y-79110000D01*
X148722928Y-79112764D01*
X148722928Y-79112764D01*
G37*
G36*
X178810228Y-76016703D02*
G01*
X178965100Y-76080853D01*
X179104481Y-76173985D01*
X179223015Y-76292519D01*
X179316147Y-76431900D01*
X179380297Y-76586772D01*
X179413000Y-76751184D01*
X179413000Y-76918816D01*
X179380297Y-77083228D01*
X179316147Y-77238100D01*
X179223015Y-77377481D01*
X179104481Y-77496015D01*
X178965100Y-77589147D01*
X178810228Y-77653297D01*
X178645816Y-77686000D01*
X178478184Y-77686000D01*
X178313772Y-77653297D01*
X178158900Y-77589147D01*
X178019519Y-77496015D01*
X177900985Y-77377481D01*
X177807853Y-77238100D01*
X177743703Y-77083228D01*
X177711000Y-76918816D01*
X177711000Y-76751184D01*
X177743703Y-76586772D01*
X177807853Y-76431900D01*
X177900985Y-76292519D01*
X178019519Y-76173985D01*
X178158900Y-76080853D01*
X178313772Y-76016703D01*
X178478184Y-75984000D01*
X178645816Y-75984000D01*
X178810228Y-76016703D01*
X178810228Y-76016703D01*
G37*
G36*
X148502823Y-75488313D02*
G01*
X148663242Y-75536976D01*
X148795906Y-75607886D01*
X148811078Y-75615996D01*
X148940659Y-75722341D01*
X149047004Y-75851922D01*
X149047005Y-75851924D01*
X149126024Y-75999758D01*
X149174687Y-76160177D01*
X149191117Y-76327000D01*
X149174687Y-76493823D01*
X149126024Y-76654242D01*
X149074207Y-76751184D01*
X149047004Y-76802078D01*
X148940659Y-76931659D01*
X148811078Y-77038004D01*
X148811076Y-77038005D01*
X148663242Y-77117024D01*
X148502823Y-77165687D01*
X148377804Y-77178000D01*
X148294196Y-77178000D01*
X148169177Y-77165687D01*
X148008758Y-77117024D01*
X147860924Y-77038005D01*
X147860922Y-77038004D01*
X147731341Y-76931659D01*
X147624996Y-76802078D01*
X147597793Y-76751184D01*
X147545976Y-76654242D01*
X147497313Y-76493823D01*
X147480883Y-76327000D01*
X147497313Y-76160177D01*
X147545976Y-75999758D01*
X147624995Y-75851924D01*
X147624996Y-75851922D01*
X147731341Y-75722341D01*
X147860922Y-75615996D01*
X147876094Y-75607886D01*
X148008758Y-75536976D01*
X148169177Y-75488313D01*
X148294196Y-75476000D01*
X148377804Y-75476000D01*
X148502823Y-75488313D01*
X148502823Y-75488313D01*
G37*
G36*
X123102823Y-75488313D02*
G01*
X123263242Y-75536976D01*
X123395906Y-75607886D01*
X123411078Y-75615996D01*
X123540659Y-75722341D01*
X123647004Y-75851922D01*
X123647005Y-75851924D01*
X123726024Y-75999758D01*
X123774687Y-76160177D01*
X123791117Y-76327000D01*
X123774687Y-76493823D01*
X123726024Y-76654242D01*
X123674207Y-76751184D01*
X123647004Y-76802078D01*
X123540659Y-76931659D01*
X123411078Y-77038004D01*
X123411076Y-77038005D01*
X123263242Y-77117024D01*
X123102823Y-77165687D01*
X122977804Y-77178000D01*
X122894196Y-77178000D01*
X122769177Y-77165687D01*
X122608758Y-77117024D01*
X122460924Y-77038005D01*
X122460922Y-77038004D01*
X122331341Y-76931659D01*
X122224996Y-76802078D01*
X122197793Y-76751184D01*
X122145976Y-76654242D01*
X122097313Y-76493823D01*
X122080883Y-76327000D01*
X122097313Y-76160177D01*
X122145976Y-75999758D01*
X122224995Y-75851924D01*
X122224996Y-75851922D01*
X122331341Y-75722341D01*
X122460922Y-75615996D01*
X122476094Y-75607886D01*
X122608758Y-75536976D01*
X122769177Y-75488313D01*
X122894196Y-75476000D01*
X122977804Y-75476000D01*
X123102823Y-75488313D01*
X123102823Y-75488313D01*
G37*
G36*
X120562823Y-75488313D02*
G01*
X120723242Y-75536976D01*
X120855906Y-75607886D01*
X120871078Y-75615996D01*
X121000659Y-75722341D01*
X121107004Y-75851922D01*
X121107005Y-75851924D01*
X121186024Y-75999758D01*
X121234687Y-76160177D01*
X121251117Y-76327000D01*
X121234687Y-76493823D01*
X121186024Y-76654242D01*
X121134207Y-76751184D01*
X121107004Y-76802078D01*
X121000659Y-76931659D01*
X120871078Y-77038004D01*
X120871076Y-77038005D01*
X120723242Y-77117024D01*
X120562823Y-77165687D01*
X120437804Y-77178000D01*
X120354196Y-77178000D01*
X120229177Y-77165687D01*
X120068758Y-77117024D01*
X119920924Y-77038005D01*
X119920922Y-77038004D01*
X119791341Y-76931659D01*
X119684996Y-76802078D01*
X119657793Y-76751184D01*
X119605976Y-76654242D01*
X119557313Y-76493823D01*
X119540883Y-76327000D01*
X119557313Y-76160177D01*
X119605976Y-75999758D01*
X119684995Y-75851924D01*
X119684996Y-75851922D01*
X119791341Y-75722341D01*
X119920922Y-75615996D01*
X119936094Y-75607886D01*
X120068758Y-75536976D01*
X120229177Y-75488313D01*
X120354196Y-75476000D01*
X120437804Y-75476000D01*
X120562823Y-75488313D01*
X120562823Y-75488313D01*
G37*
G36*
X118022823Y-75488313D02*
G01*
X118183242Y-75536976D01*
X118315906Y-75607886D01*
X118331078Y-75615996D01*
X118460659Y-75722341D01*
X118567004Y-75851922D01*
X118567005Y-75851924D01*
X118646024Y-75999758D01*
X118694687Y-76160177D01*
X118711117Y-76327000D01*
X118694687Y-76493823D01*
X118646024Y-76654242D01*
X118594207Y-76751184D01*
X118567004Y-76802078D01*
X118460659Y-76931659D01*
X118331078Y-77038004D01*
X118331076Y-77038005D01*
X118183242Y-77117024D01*
X118022823Y-77165687D01*
X117897804Y-77178000D01*
X117814196Y-77178000D01*
X117689177Y-77165687D01*
X117528758Y-77117024D01*
X117380924Y-77038005D01*
X117380922Y-77038004D01*
X117251341Y-76931659D01*
X117144996Y-76802078D01*
X117117793Y-76751184D01*
X117065976Y-76654242D01*
X117017313Y-76493823D01*
X117000883Y-76327000D01*
X117017313Y-76160177D01*
X117065976Y-75999758D01*
X117144995Y-75851924D01*
X117144996Y-75851922D01*
X117251341Y-75722341D01*
X117380922Y-75615996D01*
X117396094Y-75607886D01*
X117528758Y-75536976D01*
X117689177Y-75488313D01*
X117814196Y-75476000D01*
X117897804Y-75476000D01*
X118022823Y-75488313D01*
X118022823Y-75488313D01*
G37*
G36*
X115482823Y-75488313D02*
G01*
X115643242Y-75536976D01*
X115775906Y-75607886D01*
X115791078Y-75615996D01*
X115920659Y-75722341D01*
X116027004Y-75851922D01*
X116027005Y-75851924D01*
X116106024Y-75999758D01*
X116154687Y-76160177D01*
X116171117Y-76327000D01*
X116154687Y-76493823D01*
X116106024Y-76654242D01*
X116054207Y-76751184D01*
X116027004Y-76802078D01*
X115920659Y-76931659D01*
X115791078Y-77038004D01*
X115791076Y-77038005D01*
X115643242Y-77117024D01*
X115482823Y-77165687D01*
X115357804Y-77178000D01*
X115274196Y-77178000D01*
X115149177Y-77165687D01*
X114988758Y-77117024D01*
X114840924Y-77038005D01*
X114840922Y-77038004D01*
X114711341Y-76931659D01*
X114604996Y-76802078D01*
X114577793Y-76751184D01*
X114525976Y-76654242D01*
X114477313Y-76493823D01*
X114460883Y-76327000D01*
X114477313Y-76160177D01*
X114525976Y-75999758D01*
X114604995Y-75851924D01*
X114604996Y-75851922D01*
X114711341Y-75722341D01*
X114840922Y-75615996D01*
X114856094Y-75607886D01*
X114988758Y-75536976D01*
X115149177Y-75488313D01*
X115274196Y-75476000D01*
X115357804Y-75476000D01*
X115482823Y-75488313D01*
X115482823Y-75488313D01*
G37*
G36*
X112942823Y-75488313D02*
G01*
X113103242Y-75536976D01*
X113235906Y-75607886D01*
X113251078Y-75615996D01*
X113380659Y-75722341D01*
X113487004Y-75851922D01*
X113487005Y-75851924D01*
X113566024Y-75999758D01*
X113614687Y-76160177D01*
X113631117Y-76327000D01*
X113614687Y-76493823D01*
X113566024Y-76654242D01*
X113514207Y-76751184D01*
X113487004Y-76802078D01*
X113380659Y-76931659D01*
X113251078Y-77038004D01*
X113251076Y-77038005D01*
X113103242Y-77117024D01*
X112942823Y-77165687D01*
X112817804Y-77178000D01*
X112734196Y-77178000D01*
X112609177Y-77165687D01*
X112448758Y-77117024D01*
X112300924Y-77038005D01*
X112300922Y-77038004D01*
X112171341Y-76931659D01*
X112064996Y-76802078D01*
X112037793Y-76751184D01*
X111985976Y-76654242D01*
X111937313Y-76493823D01*
X111920883Y-76327000D01*
X111937313Y-76160177D01*
X111985976Y-75999758D01*
X112064995Y-75851924D01*
X112064996Y-75851922D01*
X112171341Y-75722341D01*
X112300922Y-75615996D01*
X112316094Y-75607886D01*
X112448758Y-75536976D01*
X112609177Y-75488313D01*
X112734196Y-75476000D01*
X112817804Y-75476000D01*
X112942823Y-75488313D01*
X112942823Y-75488313D01*
G37*
G36*
X125642823Y-75488313D02*
G01*
X125803242Y-75536976D01*
X125935906Y-75607886D01*
X125951078Y-75615996D01*
X126080659Y-75722341D01*
X126187004Y-75851922D01*
X126187005Y-75851924D01*
X126266024Y-75999758D01*
X126314687Y-76160177D01*
X126331117Y-76327000D01*
X126314687Y-76493823D01*
X126266024Y-76654242D01*
X126214207Y-76751184D01*
X126187004Y-76802078D01*
X126080659Y-76931659D01*
X125951078Y-77038004D01*
X125951076Y-77038005D01*
X125803242Y-77117024D01*
X125642823Y-77165687D01*
X125517804Y-77178000D01*
X125434196Y-77178000D01*
X125309177Y-77165687D01*
X125148758Y-77117024D01*
X125000924Y-77038005D01*
X125000922Y-77038004D01*
X124871341Y-76931659D01*
X124764996Y-76802078D01*
X124737793Y-76751184D01*
X124685976Y-76654242D01*
X124637313Y-76493823D01*
X124620883Y-76327000D01*
X124637313Y-76160177D01*
X124685976Y-75999758D01*
X124764995Y-75851924D01*
X124764996Y-75851922D01*
X124871341Y-75722341D01*
X125000922Y-75615996D01*
X125016094Y-75607886D01*
X125148758Y-75536976D01*
X125309177Y-75488313D01*
X125434196Y-75476000D01*
X125517804Y-75476000D01*
X125642823Y-75488313D01*
X125642823Y-75488313D01*
G37*
G36*
X110402823Y-75488313D02*
G01*
X110563242Y-75536976D01*
X110695906Y-75607886D01*
X110711078Y-75615996D01*
X110840659Y-75722341D01*
X110947004Y-75851922D01*
X110947005Y-75851924D01*
X111026024Y-75999758D01*
X111074687Y-76160177D01*
X111091117Y-76327000D01*
X111074687Y-76493823D01*
X111026024Y-76654242D01*
X110974207Y-76751184D01*
X110947004Y-76802078D01*
X110840659Y-76931659D01*
X110711078Y-77038004D01*
X110711076Y-77038005D01*
X110563242Y-77117024D01*
X110402823Y-77165687D01*
X110277804Y-77178000D01*
X110194196Y-77178000D01*
X110069177Y-77165687D01*
X109908758Y-77117024D01*
X109760924Y-77038005D01*
X109760922Y-77038004D01*
X109631341Y-76931659D01*
X109524996Y-76802078D01*
X109497793Y-76751184D01*
X109445976Y-76654242D01*
X109397313Y-76493823D01*
X109380883Y-76327000D01*
X109397313Y-76160177D01*
X109445976Y-75999758D01*
X109524995Y-75851924D01*
X109524996Y-75851922D01*
X109631341Y-75722341D01*
X109760922Y-75615996D01*
X109776094Y-75607886D01*
X109908758Y-75536976D01*
X110069177Y-75488313D01*
X110194196Y-75476000D01*
X110277804Y-75476000D01*
X110402823Y-75488313D01*
X110402823Y-75488313D01*
G37*
G36*
X107862823Y-75488313D02*
G01*
X108023242Y-75536976D01*
X108155906Y-75607886D01*
X108171078Y-75615996D01*
X108300659Y-75722341D01*
X108407004Y-75851922D01*
X108407005Y-75851924D01*
X108486024Y-75999758D01*
X108534687Y-76160177D01*
X108551117Y-76327000D01*
X108534687Y-76493823D01*
X108486024Y-76654242D01*
X108434207Y-76751184D01*
X108407004Y-76802078D01*
X108300659Y-76931659D01*
X108171078Y-77038004D01*
X108171076Y-77038005D01*
X108023242Y-77117024D01*
X107862823Y-77165687D01*
X107737804Y-77178000D01*
X107654196Y-77178000D01*
X107529177Y-77165687D01*
X107368758Y-77117024D01*
X107220924Y-77038005D01*
X107220922Y-77038004D01*
X107091341Y-76931659D01*
X106984996Y-76802078D01*
X106957793Y-76751184D01*
X106905976Y-76654242D01*
X106857313Y-76493823D01*
X106840883Y-76327000D01*
X106857313Y-76160177D01*
X106905976Y-75999758D01*
X106984995Y-75851924D01*
X106984996Y-75851922D01*
X107091341Y-75722341D01*
X107220922Y-75615996D01*
X107236094Y-75607886D01*
X107368758Y-75536976D01*
X107529177Y-75488313D01*
X107654196Y-75476000D01*
X107737804Y-75476000D01*
X107862823Y-75488313D01*
X107862823Y-75488313D01*
G37*
G36*
X105322823Y-75488313D02*
G01*
X105483242Y-75536976D01*
X105615906Y-75607886D01*
X105631078Y-75615996D01*
X105760659Y-75722341D01*
X105867004Y-75851922D01*
X105867005Y-75851924D01*
X105946024Y-75999758D01*
X105994687Y-76160177D01*
X106011117Y-76327000D01*
X105994687Y-76493823D01*
X105946024Y-76654242D01*
X105894207Y-76751184D01*
X105867004Y-76802078D01*
X105760659Y-76931659D01*
X105631078Y-77038004D01*
X105631076Y-77038005D01*
X105483242Y-77117024D01*
X105322823Y-77165687D01*
X105197804Y-77178000D01*
X105114196Y-77178000D01*
X104989177Y-77165687D01*
X104828758Y-77117024D01*
X104680924Y-77038005D01*
X104680922Y-77038004D01*
X104551341Y-76931659D01*
X104444996Y-76802078D01*
X104417793Y-76751184D01*
X104365976Y-76654242D01*
X104317313Y-76493823D01*
X104300883Y-76327000D01*
X104317313Y-76160177D01*
X104365976Y-75999758D01*
X104444995Y-75851924D01*
X104444996Y-75851922D01*
X104551341Y-75722341D01*
X104680922Y-75615996D01*
X104696094Y-75607886D01*
X104828758Y-75536976D01*
X104989177Y-75488313D01*
X105114196Y-75476000D01*
X105197804Y-75476000D01*
X105322823Y-75488313D01*
X105322823Y-75488313D01*
G37*
G36*
X128182823Y-75488313D02*
G01*
X128343242Y-75536976D01*
X128475906Y-75607886D01*
X128491078Y-75615996D01*
X128620659Y-75722341D01*
X128727004Y-75851922D01*
X128727005Y-75851924D01*
X128806024Y-75999758D01*
X128854687Y-76160177D01*
X128871117Y-76327000D01*
X128854687Y-76493823D01*
X128806024Y-76654242D01*
X128754207Y-76751184D01*
X128727004Y-76802078D01*
X128620659Y-76931659D01*
X128491078Y-77038004D01*
X128491076Y-77038005D01*
X128343242Y-77117024D01*
X128182823Y-77165687D01*
X128057804Y-77178000D01*
X127974196Y-77178000D01*
X127849177Y-77165687D01*
X127688758Y-77117024D01*
X127540924Y-77038005D01*
X127540922Y-77038004D01*
X127411341Y-76931659D01*
X127304996Y-76802078D01*
X127277793Y-76751184D01*
X127225976Y-76654242D01*
X127177313Y-76493823D01*
X127160883Y-76327000D01*
X127177313Y-76160177D01*
X127225976Y-75999758D01*
X127304995Y-75851924D01*
X127304996Y-75851922D01*
X127411341Y-75722341D01*
X127540922Y-75615996D01*
X127556094Y-75607886D01*
X127688758Y-75536976D01*
X127849177Y-75488313D01*
X127974196Y-75476000D01*
X128057804Y-75476000D01*
X128182823Y-75488313D01*
X128182823Y-75488313D01*
G37*
G36*
X145962823Y-75488313D02*
G01*
X146123242Y-75536976D01*
X146255906Y-75607886D01*
X146271078Y-75615996D01*
X146400659Y-75722341D01*
X146507004Y-75851922D01*
X146507005Y-75851924D01*
X146586024Y-75999758D01*
X146634687Y-76160177D01*
X146651117Y-76327000D01*
X146634687Y-76493823D01*
X146586024Y-76654242D01*
X146534207Y-76751184D01*
X146507004Y-76802078D01*
X146400659Y-76931659D01*
X146271078Y-77038004D01*
X146271076Y-77038005D01*
X146123242Y-77117024D01*
X145962823Y-77165687D01*
X145837804Y-77178000D01*
X145754196Y-77178000D01*
X145629177Y-77165687D01*
X145468758Y-77117024D01*
X145320924Y-77038005D01*
X145320922Y-77038004D01*
X145191341Y-76931659D01*
X145084996Y-76802078D01*
X145057793Y-76751184D01*
X145005976Y-76654242D01*
X144957313Y-76493823D01*
X144940883Y-76327000D01*
X144957313Y-76160177D01*
X145005976Y-75999758D01*
X145084995Y-75851924D01*
X145084996Y-75851922D01*
X145191341Y-75722341D01*
X145320922Y-75615996D01*
X145336094Y-75607886D01*
X145468758Y-75536976D01*
X145629177Y-75488313D01*
X145754196Y-75476000D01*
X145837804Y-75476000D01*
X145962823Y-75488313D01*
X145962823Y-75488313D01*
G37*
G36*
X133262823Y-75488313D02*
G01*
X133423242Y-75536976D01*
X133555906Y-75607886D01*
X133571078Y-75615996D01*
X133700659Y-75722341D01*
X133807004Y-75851922D01*
X133807005Y-75851924D01*
X133886024Y-75999758D01*
X133934687Y-76160177D01*
X133951117Y-76327000D01*
X133934687Y-76493823D01*
X133886024Y-76654242D01*
X133834207Y-76751184D01*
X133807004Y-76802078D01*
X133700659Y-76931659D01*
X133571078Y-77038004D01*
X133571076Y-77038005D01*
X133423242Y-77117024D01*
X133262823Y-77165687D01*
X133137804Y-77178000D01*
X133054196Y-77178000D01*
X132929177Y-77165687D01*
X132768758Y-77117024D01*
X132620924Y-77038005D01*
X132620922Y-77038004D01*
X132491341Y-76931659D01*
X132384996Y-76802078D01*
X132357793Y-76751184D01*
X132305976Y-76654242D01*
X132257313Y-76493823D01*
X132240883Y-76327000D01*
X132257313Y-76160177D01*
X132305976Y-75999758D01*
X132384995Y-75851924D01*
X132384996Y-75851922D01*
X132491341Y-75722341D01*
X132620922Y-75615996D01*
X132636094Y-75607886D01*
X132768758Y-75536976D01*
X132929177Y-75488313D01*
X133054196Y-75476000D01*
X133137804Y-75476000D01*
X133262823Y-75488313D01*
X133262823Y-75488313D01*
G37*
G36*
X102782823Y-75488313D02*
G01*
X102943242Y-75536976D01*
X103075906Y-75607886D01*
X103091078Y-75615996D01*
X103220659Y-75722341D01*
X103327004Y-75851922D01*
X103327005Y-75851924D01*
X103406024Y-75999758D01*
X103454687Y-76160177D01*
X103471117Y-76327000D01*
X103454687Y-76493823D01*
X103406024Y-76654242D01*
X103354207Y-76751184D01*
X103327004Y-76802078D01*
X103220659Y-76931659D01*
X103091078Y-77038004D01*
X103091076Y-77038005D01*
X102943242Y-77117024D01*
X102782823Y-77165687D01*
X102657804Y-77178000D01*
X102574196Y-77178000D01*
X102449177Y-77165687D01*
X102288758Y-77117024D01*
X102140924Y-77038005D01*
X102140922Y-77038004D01*
X102011341Y-76931659D01*
X101904996Y-76802078D01*
X101877793Y-76751184D01*
X101825976Y-76654242D01*
X101777313Y-76493823D01*
X101760883Y-76327000D01*
X101777313Y-76160177D01*
X101825976Y-75999758D01*
X101904995Y-75851924D01*
X101904996Y-75851922D01*
X102011341Y-75722341D01*
X102140922Y-75615996D01*
X102156094Y-75607886D01*
X102288758Y-75536976D01*
X102449177Y-75488313D01*
X102574196Y-75476000D01*
X102657804Y-75476000D01*
X102782823Y-75488313D01*
X102782823Y-75488313D01*
G37*
G36*
X143422823Y-75488313D02*
G01*
X143583242Y-75536976D01*
X143715906Y-75607886D01*
X143731078Y-75615996D01*
X143860659Y-75722341D01*
X143967004Y-75851922D01*
X143967005Y-75851924D01*
X144046024Y-75999758D01*
X144094687Y-76160177D01*
X144111117Y-76327000D01*
X144094687Y-76493823D01*
X144046024Y-76654242D01*
X143994207Y-76751184D01*
X143967004Y-76802078D01*
X143860659Y-76931659D01*
X143731078Y-77038004D01*
X143731076Y-77038005D01*
X143583242Y-77117024D01*
X143422823Y-77165687D01*
X143297804Y-77178000D01*
X143214196Y-77178000D01*
X143089177Y-77165687D01*
X142928758Y-77117024D01*
X142780924Y-77038005D01*
X142780922Y-77038004D01*
X142651341Y-76931659D01*
X142544996Y-76802078D01*
X142517793Y-76751184D01*
X142465976Y-76654242D01*
X142417313Y-76493823D01*
X142400883Y-76327000D01*
X142417313Y-76160177D01*
X142465976Y-75999758D01*
X142544995Y-75851924D01*
X142544996Y-75851922D01*
X142651341Y-75722341D01*
X142780922Y-75615996D01*
X142796094Y-75607886D01*
X142928758Y-75536976D01*
X143089177Y-75488313D01*
X143214196Y-75476000D01*
X143297804Y-75476000D01*
X143422823Y-75488313D01*
X143422823Y-75488313D01*
G37*
G36*
X140882823Y-75488313D02*
G01*
X141043242Y-75536976D01*
X141175906Y-75607886D01*
X141191078Y-75615996D01*
X141320659Y-75722341D01*
X141427004Y-75851922D01*
X141427005Y-75851924D01*
X141506024Y-75999758D01*
X141554687Y-76160177D01*
X141571117Y-76327000D01*
X141554687Y-76493823D01*
X141506024Y-76654242D01*
X141454207Y-76751184D01*
X141427004Y-76802078D01*
X141320659Y-76931659D01*
X141191078Y-77038004D01*
X141191076Y-77038005D01*
X141043242Y-77117024D01*
X140882823Y-77165687D01*
X140757804Y-77178000D01*
X140674196Y-77178000D01*
X140549177Y-77165687D01*
X140388758Y-77117024D01*
X140240924Y-77038005D01*
X140240922Y-77038004D01*
X140111341Y-76931659D01*
X140004996Y-76802078D01*
X139977793Y-76751184D01*
X139925976Y-76654242D01*
X139877313Y-76493823D01*
X139860883Y-76327000D01*
X139877313Y-76160177D01*
X139925976Y-75999758D01*
X140004995Y-75851924D01*
X140004996Y-75851922D01*
X140111341Y-75722341D01*
X140240922Y-75615996D01*
X140256094Y-75607886D01*
X140388758Y-75536976D01*
X140549177Y-75488313D01*
X140674196Y-75476000D01*
X140757804Y-75476000D01*
X140882823Y-75488313D01*
X140882823Y-75488313D01*
G37*
G36*
X135802823Y-75488313D02*
G01*
X135963242Y-75536976D01*
X136095906Y-75607886D01*
X136111078Y-75615996D01*
X136240659Y-75722341D01*
X136347004Y-75851922D01*
X136347005Y-75851924D01*
X136426024Y-75999758D01*
X136474687Y-76160177D01*
X136491117Y-76327000D01*
X136474687Y-76493823D01*
X136426024Y-76654242D01*
X136374207Y-76751184D01*
X136347004Y-76802078D01*
X136240659Y-76931659D01*
X136111078Y-77038004D01*
X136111076Y-77038005D01*
X135963242Y-77117024D01*
X135802823Y-77165687D01*
X135677804Y-77178000D01*
X135594196Y-77178000D01*
X135469177Y-77165687D01*
X135308758Y-77117024D01*
X135160924Y-77038005D01*
X135160922Y-77038004D01*
X135031341Y-76931659D01*
X134924996Y-76802078D01*
X134897793Y-76751184D01*
X134845976Y-76654242D01*
X134797313Y-76493823D01*
X134780883Y-76327000D01*
X134797313Y-76160177D01*
X134845976Y-75999758D01*
X134924995Y-75851924D01*
X134924996Y-75851922D01*
X135031341Y-75722341D01*
X135160922Y-75615996D01*
X135176094Y-75607886D01*
X135308758Y-75536976D01*
X135469177Y-75488313D01*
X135594196Y-75476000D01*
X135677804Y-75476000D01*
X135802823Y-75488313D01*
X135802823Y-75488313D01*
G37*
G36*
X100242823Y-75488313D02*
G01*
X100403242Y-75536976D01*
X100535906Y-75607886D01*
X100551078Y-75615996D01*
X100680659Y-75722341D01*
X100787004Y-75851922D01*
X100787005Y-75851924D01*
X100866024Y-75999758D01*
X100914687Y-76160177D01*
X100931117Y-76327000D01*
X100914687Y-76493823D01*
X100866024Y-76654242D01*
X100814207Y-76751184D01*
X100787004Y-76802078D01*
X100680659Y-76931659D01*
X100551078Y-77038004D01*
X100551076Y-77038005D01*
X100403242Y-77117024D01*
X100242823Y-77165687D01*
X100117804Y-77178000D01*
X100034196Y-77178000D01*
X99909177Y-77165687D01*
X99748758Y-77117024D01*
X99600924Y-77038005D01*
X99600922Y-77038004D01*
X99471341Y-76931659D01*
X99364996Y-76802078D01*
X99337793Y-76751184D01*
X99285976Y-76654242D01*
X99237313Y-76493823D01*
X99220883Y-76327000D01*
X99237313Y-76160177D01*
X99285976Y-75999758D01*
X99364995Y-75851924D01*
X99364996Y-75851922D01*
X99471341Y-75722341D01*
X99600922Y-75615996D01*
X99616094Y-75607886D01*
X99748758Y-75536976D01*
X99909177Y-75488313D01*
X100034196Y-75476000D01*
X100117804Y-75476000D01*
X100242823Y-75488313D01*
X100242823Y-75488313D01*
G37*
G36*
X151042823Y-75488313D02*
G01*
X151203242Y-75536976D01*
X151335906Y-75607886D01*
X151351078Y-75615996D01*
X151480659Y-75722341D01*
X151587004Y-75851922D01*
X151587005Y-75851924D01*
X151666024Y-75999758D01*
X151714687Y-76160177D01*
X151731117Y-76327000D01*
X151714687Y-76493823D01*
X151666024Y-76654242D01*
X151614207Y-76751184D01*
X151587004Y-76802078D01*
X151480659Y-76931659D01*
X151351078Y-77038004D01*
X151351076Y-77038005D01*
X151203242Y-77117024D01*
X151042823Y-77165687D01*
X150917804Y-77178000D01*
X150834196Y-77178000D01*
X150709177Y-77165687D01*
X150548758Y-77117024D01*
X150400924Y-77038005D01*
X150400922Y-77038004D01*
X150271341Y-76931659D01*
X150164996Y-76802078D01*
X150137793Y-76751184D01*
X150085976Y-76654242D01*
X150037313Y-76493823D01*
X150020883Y-76327000D01*
X150037313Y-76160177D01*
X150085976Y-75999758D01*
X150164995Y-75851924D01*
X150164996Y-75851922D01*
X150271341Y-75722341D01*
X150400922Y-75615996D01*
X150416094Y-75607886D01*
X150548758Y-75536976D01*
X150709177Y-75488313D01*
X150834196Y-75476000D01*
X150917804Y-75476000D01*
X151042823Y-75488313D01*
X151042823Y-75488313D01*
G37*
G36*
X130722823Y-75488313D02*
G01*
X130883242Y-75536976D01*
X131015906Y-75607886D01*
X131031078Y-75615996D01*
X131160659Y-75722341D01*
X131267004Y-75851922D01*
X131267005Y-75851924D01*
X131346024Y-75999758D01*
X131394687Y-76160177D01*
X131411117Y-76327000D01*
X131394687Y-76493823D01*
X131346024Y-76654242D01*
X131294207Y-76751184D01*
X131267004Y-76802078D01*
X131160659Y-76931659D01*
X131031078Y-77038004D01*
X131031076Y-77038005D01*
X130883242Y-77117024D01*
X130722823Y-77165687D01*
X130597804Y-77178000D01*
X130514196Y-77178000D01*
X130389177Y-77165687D01*
X130228758Y-77117024D01*
X130080924Y-77038005D01*
X130080922Y-77038004D01*
X129951341Y-76931659D01*
X129844996Y-76802078D01*
X129817793Y-76751184D01*
X129765976Y-76654242D01*
X129717313Y-76493823D01*
X129700883Y-76327000D01*
X129717313Y-76160177D01*
X129765976Y-75999758D01*
X129844995Y-75851924D01*
X129844996Y-75851922D01*
X129951341Y-75722341D01*
X130080922Y-75615996D01*
X130096094Y-75607886D01*
X130228758Y-75536976D01*
X130389177Y-75488313D01*
X130514196Y-75476000D01*
X130597804Y-75476000D01*
X130722823Y-75488313D01*
X130722823Y-75488313D01*
G37*
G36*
X138342823Y-75488313D02*
G01*
X138503242Y-75536976D01*
X138635906Y-75607886D01*
X138651078Y-75615996D01*
X138780659Y-75722341D01*
X138887004Y-75851922D01*
X138887005Y-75851924D01*
X138966024Y-75999758D01*
X139014687Y-76160177D01*
X139031117Y-76327000D01*
X139014687Y-76493823D01*
X138966024Y-76654242D01*
X138914207Y-76751184D01*
X138887004Y-76802078D01*
X138780659Y-76931659D01*
X138651078Y-77038004D01*
X138651076Y-77038005D01*
X138503242Y-77117024D01*
X138342823Y-77165687D01*
X138217804Y-77178000D01*
X138134196Y-77178000D01*
X138009177Y-77165687D01*
X137848758Y-77117024D01*
X137700924Y-77038005D01*
X137700922Y-77038004D01*
X137571341Y-76931659D01*
X137464996Y-76802078D01*
X137437793Y-76751184D01*
X137385976Y-76654242D01*
X137337313Y-76493823D01*
X137320883Y-76327000D01*
X137337313Y-76160177D01*
X137385976Y-75999758D01*
X137464995Y-75851924D01*
X137464996Y-75851922D01*
X137571341Y-75722341D01*
X137700922Y-75615996D01*
X137716094Y-75607886D01*
X137848758Y-75536976D01*
X138009177Y-75488313D01*
X138134196Y-75476000D01*
X138217804Y-75476000D01*
X138342823Y-75488313D01*
X138342823Y-75488313D01*
G37*
G36*
X181395823Y-68249313D02*
G01*
X181556242Y-68297976D01*
X181688906Y-68368886D01*
X181704078Y-68376996D01*
X181833659Y-68483341D01*
X181940004Y-68612922D01*
X181940005Y-68612924D01*
X182019024Y-68760758D01*
X182067687Y-68921177D01*
X182084117Y-69088000D01*
X182067687Y-69254823D01*
X182019024Y-69415242D01*
X181948114Y-69547906D01*
X181940004Y-69563078D01*
X181833659Y-69692659D01*
X181704078Y-69799004D01*
X181704076Y-69799005D01*
X181556242Y-69878024D01*
X181395823Y-69926687D01*
X181270804Y-69939000D01*
X181187196Y-69939000D01*
X181062177Y-69926687D01*
X180901758Y-69878024D01*
X180753924Y-69799005D01*
X180753922Y-69799004D01*
X180624341Y-69692659D01*
X180517996Y-69563078D01*
X180509886Y-69547906D01*
X180438976Y-69415242D01*
X180390313Y-69254823D01*
X180373883Y-69088000D01*
X180390313Y-68921177D01*
X180438976Y-68760758D01*
X180517995Y-68612924D01*
X180517996Y-68612922D01*
X180624341Y-68483341D01*
X180753922Y-68376996D01*
X180769094Y-68368886D01*
X180901758Y-68297976D01*
X181062177Y-68249313D01*
X181187196Y-68237000D01*
X181270804Y-68237000D01*
X181395823Y-68249313D01*
X181395823Y-68249313D01*
G37*
G36*
X173775823Y-68249313D02*
G01*
X173936242Y-68297976D01*
X174068906Y-68368886D01*
X174084078Y-68376996D01*
X174213659Y-68483341D01*
X174320004Y-68612922D01*
X174320005Y-68612924D01*
X174399024Y-68760758D01*
X174447687Y-68921177D01*
X174464117Y-69088000D01*
X174447687Y-69254823D01*
X174399024Y-69415242D01*
X174328114Y-69547906D01*
X174320004Y-69563078D01*
X174213659Y-69692659D01*
X174084078Y-69799004D01*
X174084076Y-69799005D01*
X173936242Y-69878024D01*
X173775823Y-69926687D01*
X173650804Y-69939000D01*
X173567196Y-69939000D01*
X173442177Y-69926687D01*
X173281758Y-69878024D01*
X173133924Y-69799005D01*
X173133922Y-69799004D01*
X173004341Y-69692659D01*
X172897996Y-69563078D01*
X172889886Y-69547906D01*
X172818976Y-69415242D01*
X172770313Y-69254823D01*
X172753883Y-69088000D01*
X172770313Y-68921177D01*
X172818976Y-68760758D01*
X172897995Y-68612924D01*
X172897996Y-68612922D01*
X173004341Y-68483341D01*
X173133922Y-68376996D01*
X173149094Y-68368886D01*
X173281758Y-68297976D01*
X173442177Y-68249313D01*
X173567196Y-68237000D01*
X173650804Y-68237000D01*
X173775823Y-68249313D01*
X173775823Y-68249313D01*
G37*
G36*
X173775823Y-65709313D02*
G01*
X173936242Y-65757976D01*
X174068906Y-65828886D01*
X174084078Y-65836996D01*
X174213659Y-65943341D01*
X174320004Y-66072922D01*
X174320005Y-66072924D01*
X174399024Y-66220758D01*
X174447687Y-66381177D01*
X174464117Y-66548000D01*
X174447687Y-66714823D01*
X174399024Y-66875242D01*
X174328114Y-67007906D01*
X174320004Y-67023078D01*
X174213659Y-67152659D01*
X174084078Y-67259004D01*
X174084076Y-67259005D01*
X173936242Y-67338024D01*
X173775823Y-67386687D01*
X173650804Y-67399000D01*
X173567196Y-67399000D01*
X173442177Y-67386687D01*
X173281758Y-67338024D01*
X173133924Y-67259005D01*
X173133922Y-67259004D01*
X173004341Y-67152659D01*
X172897996Y-67023078D01*
X172889886Y-67007906D01*
X172818976Y-66875242D01*
X172770313Y-66714823D01*
X172753883Y-66548000D01*
X172770313Y-66381177D01*
X172818976Y-66220758D01*
X172897995Y-66072924D01*
X172897996Y-66072922D01*
X173004341Y-65943341D01*
X173133922Y-65836996D01*
X173149094Y-65828886D01*
X173281758Y-65757976D01*
X173442177Y-65709313D01*
X173567196Y-65697000D01*
X173650804Y-65697000D01*
X173775823Y-65709313D01*
X173775823Y-65709313D01*
G37*
G36*
X181395823Y-65709313D02*
G01*
X181556242Y-65757976D01*
X181688906Y-65828886D01*
X181704078Y-65836996D01*
X181833659Y-65943341D01*
X181940004Y-66072922D01*
X181940005Y-66072924D01*
X182019024Y-66220758D01*
X182067687Y-66381177D01*
X182084117Y-66548000D01*
X182067687Y-66714823D01*
X182019024Y-66875242D01*
X181948114Y-67007906D01*
X181940004Y-67023078D01*
X181833659Y-67152659D01*
X181704078Y-67259004D01*
X181704076Y-67259005D01*
X181556242Y-67338024D01*
X181395823Y-67386687D01*
X181270804Y-67399000D01*
X181187196Y-67399000D01*
X181062177Y-67386687D01*
X180901758Y-67338024D01*
X180753924Y-67259005D01*
X180753922Y-67259004D01*
X180624341Y-67152659D01*
X180517996Y-67023078D01*
X180509886Y-67007906D01*
X180438976Y-66875242D01*
X180390313Y-66714823D01*
X180373883Y-66548000D01*
X180390313Y-66381177D01*
X180438976Y-66220758D01*
X180517995Y-66072924D01*
X180517996Y-66072922D01*
X180624341Y-65943341D01*
X180753922Y-65836996D01*
X180769094Y-65828886D01*
X180901758Y-65757976D01*
X181062177Y-65709313D01*
X181187196Y-65697000D01*
X181270804Y-65697000D01*
X181395823Y-65709313D01*
X181395823Y-65709313D01*
G37*
G36*
X181395823Y-63169313D02*
G01*
X181556242Y-63217976D01*
X181688906Y-63288886D01*
X181704078Y-63296996D01*
X181833659Y-63403341D01*
X181940004Y-63532922D01*
X181940005Y-63532924D01*
X182019024Y-63680758D01*
X182067687Y-63841177D01*
X182084117Y-64008000D01*
X182067687Y-64174823D01*
X182019024Y-64335242D01*
X181948114Y-64467906D01*
X181940004Y-64483078D01*
X181833659Y-64612659D01*
X181704078Y-64719004D01*
X181704076Y-64719005D01*
X181556242Y-64798024D01*
X181395823Y-64846687D01*
X181270804Y-64859000D01*
X181187196Y-64859000D01*
X181062177Y-64846687D01*
X180901758Y-64798024D01*
X180753924Y-64719005D01*
X180753922Y-64719004D01*
X180624341Y-64612659D01*
X180517996Y-64483078D01*
X180509886Y-64467906D01*
X180438976Y-64335242D01*
X180390313Y-64174823D01*
X180373883Y-64008000D01*
X180390313Y-63841177D01*
X180438976Y-63680758D01*
X180517995Y-63532924D01*
X180517996Y-63532922D01*
X180624341Y-63403341D01*
X180753922Y-63296996D01*
X180769094Y-63288886D01*
X180901758Y-63217976D01*
X181062177Y-63169313D01*
X181187196Y-63157000D01*
X181270804Y-63157000D01*
X181395823Y-63169313D01*
X181395823Y-63169313D01*
G37*
G36*
X173775823Y-63169313D02*
G01*
X173936242Y-63217976D01*
X174068906Y-63288886D01*
X174084078Y-63296996D01*
X174213659Y-63403341D01*
X174320004Y-63532922D01*
X174320005Y-63532924D01*
X174399024Y-63680758D01*
X174447687Y-63841177D01*
X174464117Y-64008000D01*
X174447687Y-64174823D01*
X174399024Y-64335242D01*
X174328114Y-64467906D01*
X174320004Y-64483078D01*
X174213659Y-64612659D01*
X174084078Y-64719004D01*
X174084076Y-64719005D01*
X173936242Y-64798024D01*
X173775823Y-64846687D01*
X173650804Y-64859000D01*
X173567196Y-64859000D01*
X173442177Y-64846687D01*
X173281758Y-64798024D01*
X173133924Y-64719005D01*
X173133922Y-64719004D01*
X173004341Y-64612659D01*
X172897996Y-64483078D01*
X172889886Y-64467906D01*
X172818976Y-64335242D01*
X172770313Y-64174823D01*
X172753883Y-64008000D01*
X172770313Y-63841177D01*
X172818976Y-63680758D01*
X172897995Y-63532924D01*
X172897996Y-63532922D01*
X173004341Y-63403341D01*
X173133922Y-63296996D01*
X173149094Y-63288886D01*
X173281758Y-63217976D01*
X173442177Y-63169313D01*
X173567196Y-63157000D01*
X173650804Y-63157000D01*
X173775823Y-63169313D01*
X173775823Y-63169313D01*
G37*
G36*
X170242000Y-64578000D02*
G01*
X168340000Y-64578000D01*
X168340000Y-62676000D01*
X170242000Y-62676000D01*
X170242000Y-64578000D01*
X170242000Y-64578000D01*
G37*
G36*
X181395823Y-60629313D02*
G01*
X181556242Y-60677976D01*
X181688906Y-60748886D01*
X181704078Y-60756996D01*
X181833659Y-60863341D01*
X181940004Y-60992922D01*
X181940005Y-60992924D01*
X182019024Y-61140758D01*
X182067687Y-61301177D01*
X182084117Y-61468000D01*
X182067687Y-61634823D01*
X182019024Y-61795242D01*
X181975310Y-61877025D01*
X181940004Y-61943078D01*
X181833659Y-62072659D01*
X181704078Y-62179004D01*
X181704076Y-62179005D01*
X181556242Y-62258024D01*
X181395823Y-62306687D01*
X181270804Y-62319000D01*
X181187196Y-62319000D01*
X181062177Y-62306687D01*
X180901758Y-62258024D01*
X180753924Y-62179005D01*
X180753922Y-62179004D01*
X180624341Y-62072659D01*
X180517996Y-61943078D01*
X180482690Y-61877025D01*
X180438976Y-61795242D01*
X180390313Y-61634823D01*
X180373883Y-61468000D01*
X180390313Y-61301177D01*
X180438976Y-61140758D01*
X180517995Y-60992924D01*
X180517996Y-60992922D01*
X180624341Y-60863341D01*
X180753922Y-60756996D01*
X180769094Y-60748886D01*
X180901758Y-60677976D01*
X181062177Y-60629313D01*
X181187196Y-60617000D01*
X181270804Y-60617000D01*
X181395823Y-60629313D01*
X181395823Y-60629313D01*
G37*
G36*
X174460000Y-62319000D02*
G01*
X172758000Y-62319000D01*
X172758000Y-60617000D01*
X174460000Y-60617000D01*
X174460000Y-62319000D01*
X174460000Y-62319000D01*
G37*
G36*
X169568395Y-60172546D02*
G01*
X169741466Y-60244234D01*
X169747572Y-60248314D01*
X169897227Y-60348310D01*
X170029690Y-60480773D01*
X170082081Y-60559182D01*
X170133766Y-60636534D01*
X170205454Y-60809605D01*
X170242000Y-60993333D01*
X170242000Y-61180667D01*
X170205454Y-61364395D01*
X170133766Y-61537466D01*
X170133765Y-61537467D01*
X170029690Y-61693227D01*
X169897227Y-61825690D01*
X169820400Y-61877024D01*
X169741466Y-61929766D01*
X169568395Y-62001454D01*
X169384667Y-62038000D01*
X169197333Y-62038000D01*
X169013605Y-62001454D01*
X168840534Y-61929766D01*
X168761600Y-61877024D01*
X168684773Y-61825690D01*
X168552310Y-61693227D01*
X168448235Y-61537467D01*
X168448234Y-61537466D01*
X168376546Y-61364395D01*
X168340000Y-61180667D01*
X168340000Y-60993333D01*
X168376546Y-60809605D01*
X168448234Y-60636534D01*
X168499919Y-60559182D01*
X168552310Y-60480773D01*
X168684773Y-60348310D01*
X168834428Y-60248314D01*
X168840534Y-60244234D01*
X169013605Y-60172546D01*
X169197333Y-60136000D01*
X169384667Y-60136000D01*
X169568395Y-60172546D01*
X169568395Y-60172546D01*
G37*
G36*
X151042823Y-60248313D02*
G01*
X151203242Y-60296976D01*
X151299279Y-60348309D01*
X151351078Y-60375996D01*
X151480659Y-60482341D01*
X151587004Y-60611922D01*
X151587005Y-60611924D01*
X151666024Y-60759758D01*
X151714687Y-60920177D01*
X151731117Y-61087000D01*
X151714687Y-61253823D01*
X151666024Y-61414242D01*
X151600159Y-61537466D01*
X151587004Y-61562078D01*
X151480659Y-61691659D01*
X151351078Y-61798004D01*
X151351076Y-61798005D01*
X151203242Y-61877024D01*
X151042823Y-61925687D01*
X150917804Y-61938000D01*
X150834196Y-61938000D01*
X150709177Y-61925687D01*
X150548758Y-61877024D01*
X150400924Y-61798005D01*
X150400922Y-61798004D01*
X150271341Y-61691659D01*
X150164996Y-61562078D01*
X150151841Y-61537466D01*
X150085976Y-61414242D01*
X150037313Y-61253823D01*
X150020883Y-61087000D01*
X150037313Y-60920177D01*
X150085976Y-60759758D01*
X150164995Y-60611924D01*
X150164996Y-60611922D01*
X150271341Y-60482341D01*
X150400922Y-60375996D01*
X150452721Y-60348309D01*
X150548758Y-60296976D01*
X150709177Y-60248313D01*
X150834196Y-60236000D01*
X150917804Y-60236000D01*
X151042823Y-60248313D01*
X151042823Y-60248313D01*
G37*
G36*
X148502823Y-60248313D02*
G01*
X148663242Y-60296976D01*
X148759279Y-60348309D01*
X148811078Y-60375996D01*
X148940659Y-60482341D01*
X149047004Y-60611922D01*
X149047005Y-60611924D01*
X149126024Y-60759758D01*
X149174687Y-60920177D01*
X149191117Y-61087000D01*
X149174687Y-61253823D01*
X149126024Y-61414242D01*
X149060159Y-61537466D01*
X149047004Y-61562078D01*
X148940659Y-61691659D01*
X148811078Y-61798004D01*
X148811076Y-61798005D01*
X148663242Y-61877024D01*
X148502823Y-61925687D01*
X148377804Y-61938000D01*
X148294196Y-61938000D01*
X148169177Y-61925687D01*
X148008758Y-61877024D01*
X147860924Y-61798005D01*
X147860922Y-61798004D01*
X147731341Y-61691659D01*
X147624996Y-61562078D01*
X147611841Y-61537466D01*
X147545976Y-61414242D01*
X147497313Y-61253823D01*
X147480883Y-61087000D01*
X147497313Y-60920177D01*
X147545976Y-60759758D01*
X147624995Y-60611924D01*
X147624996Y-60611922D01*
X147731341Y-60482341D01*
X147860922Y-60375996D01*
X147912721Y-60348309D01*
X148008758Y-60296976D01*
X148169177Y-60248313D01*
X148294196Y-60236000D01*
X148377804Y-60236000D01*
X148502823Y-60248313D01*
X148502823Y-60248313D01*
G37*
G36*
X145962823Y-60248313D02*
G01*
X146123242Y-60296976D01*
X146219279Y-60348309D01*
X146271078Y-60375996D01*
X146400659Y-60482341D01*
X146507004Y-60611922D01*
X146507005Y-60611924D01*
X146586024Y-60759758D01*
X146634687Y-60920177D01*
X146651117Y-61087000D01*
X146634687Y-61253823D01*
X146586024Y-61414242D01*
X146520159Y-61537466D01*
X146507004Y-61562078D01*
X146400659Y-61691659D01*
X146271078Y-61798004D01*
X146271076Y-61798005D01*
X146123242Y-61877024D01*
X145962823Y-61925687D01*
X145837804Y-61938000D01*
X145754196Y-61938000D01*
X145629177Y-61925687D01*
X145468758Y-61877024D01*
X145320924Y-61798005D01*
X145320922Y-61798004D01*
X145191341Y-61691659D01*
X145084996Y-61562078D01*
X145071841Y-61537466D01*
X145005976Y-61414242D01*
X144957313Y-61253823D01*
X144940883Y-61087000D01*
X144957313Y-60920177D01*
X145005976Y-60759758D01*
X145084995Y-60611924D01*
X145084996Y-60611922D01*
X145191341Y-60482341D01*
X145320922Y-60375996D01*
X145372721Y-60348309D01*
X145468758Y-60296976D01*
X145629177Y-60248313D01*
X145754196Y-60236000D01*
X145837804Y-60236000D01*
X145962823Y-60248313D01*
X145962823Y-60248313D01*
G37*
G36*
X143422823Y-60248313D02*
G01*
X143583242Y-60296976D01*
X143679279Y-60348309D01*
X143731078Y-60375996D01*
X143860659Y-60482341D01*
X143967004Y-60611922D01*
X143967005Y-60611924D01*
X144046024Y-60759758D01*
X144094687Y-60920177D01*
X144111117Y-61087000D01*
X144094687Y-61253823D01*
X144046024Y-61414242D01*
X143980159Y-61537466D01*
X143967004Y-61562078D01*
X143860659Y-61691659D01*
X143731078Y-61798004D01*
X143731076Y-61798005D01*
X143583242Y-61877024D01*
X143422823Y-61925687D01*
X143297804Y-61938000D01*
X143214196Y-61938000D01*
X143089177Y-61925687D01*
X142928758Y-61877024D01*
X142780924Y-61798005D01*
X142780922Y-61798004D01*
X142651341Y-61691659D01*
X142544996Y-61562078D01*
X142531841Y-61537466D01*
X142465976Y-61414242D01*
X142417313Y-61253823D01*
X142400883Y-61087000D01*
X142417313Y-60920177D01*
X142465976Y-60759758D01*
X142544995Y-60611924D01*
X142544996Y-60611922D01*
X142651341Y-60482341D01*
X142780922Y-60375996D01*
X142832721Y-60348309D01*
X142928758Y-60296976D01*
X143089177Y-60248313D01*
X143214196Y-60236000D01*
X143297804Y-60236000D01*
X143422823Y-60248313D01*
X143422823Y-60248313D01*
G37*
G36*
X140882823Y-60248313D02*
G01*
X141043242Y-60296976D01*
X141139279Y-60348309D01*
X141191078Y-60375996D01*
X141320659Y-60482341D01*
X141427004Y-60611922D01*
X141427005Y-60611924D01*
X141506024Y-60759758D01*
X141554687Y-60920177D01*
X141571117Y-61087000D01*
X141554687Y-61253823D01*
X141506024Y-61414242D01*
X141440159Y-61537466D01*
X141427004Y-61562078D01*
X141320659Y-61691659D01*
X141191078Y-61798004D01*
X141191076Y-61798005D01*
X141043242Y-61877024D01*
X140882823Y-61925687D01*
X140757804Y-61938000D01*
X140674196Y-61938000D01*
X140549177Y-61925687D01*
X140388758Y-61877024D01*
X140240924Y-61798005D01*
X140240922Y-61798004D01*
X140111341Y-61691659D01*
X140004996Y-61562078D01*
X139991841Y-61537466D01*
X139925976Y-61414242D01*
X139877313Y-61253823D01*
X139860883Y-61087000D01*
X139877313Y-60920177D01*
X139925976Y-60759758D01*
X140004995Y-60611924D01*
X140004996Y-60611922D01*
X140111341Y-60482341D01*
X140240922Y-60375996D01*
X140292721Y-60348309D01*
X140388758Y-60296976D01*
X140549177Y-60248313D01*
X140674196Y-60236000D01*
X140757804Y-60236000D01*
X140882823Y-60248313D01*
X140882823Y-60248313D01*
G37*
G36*
X138342823Y-60248313D02*
G01*
X138503242Y-60296976D01*
X138599279Y-60348309D01*
X138651078Y-60375996D01*
X138780659Y-60482341D01*
X138887004Y-60611922D01*
X138887005Y-60611924D01*
X138966024Y-60759758D01*
X139014687Y-60920177D01*
X139031117Y-61087000D01*
X139014687Y-61253823D01*
X138966024Y-61414242D01*
X138900159Y-61537466D01*
X138887004Y-61562078D01*
X138780659Y-61691659D01*
X138651078Y-61798004D01*
X138651076Y-61798005D01*
X138503242Y-61877024D01*
X138342823Y-61925687D01*
X138217804Y-61938000D01*
X138134196Y-61938000D01*
X138009177Y-61925687D01*
X137848758Y-61877024D01*
X137700924Y-61798005D01*
X137700922Y-61798004D01*
X137571341Y-61691659D01*
X137464996Y-61562078D01*
X137451841Y-61537466D01*
X137385976Y-61414242D01*
X137337313Y-61253823D01*
X137320883Y-61087000D01*
X137337313Y-60920177D01*
X137385976Y-60759758D01*
X137464995Y-60611924D01*
X137464996Y-60611922D01*
X137571341Y-60482341D01*
X137700922Y-60375996D01*
X137752721Y-60348309D01*
X137848758Y-60296976D01*
X138009177Y-60248313D01*
X138134196Y-60236000D01*
X138217804Y-60236000D01*
X138342823Y-60248313D01*
X138342823Y-60248313D01*
G37*
G36*
X135802823Y-60248313D02*
G01*
X135963242Y-60296976D01*
X136059279Y-60348309D01*
X136111078Y-60375996D01*
X136240659Y-60482341D01*
X136347004Y-60611922D01*
X136347005Y-60611924D01*
X136426024Y-60759758D01*
X136474687Y-60920177D01*
X136491117Y-61087000D01*
X136474687Y-61253823D01*
X136426024Y-61414242D01*
X136360159Y-61537466D01*
X136347004Y-61562078D01*
X136240659Y-61691659D01*
X136111078Y-61798004D01*
X136111076Y-61798005D01*
X135963242Y-61877024D01*
X135802823Y-61925687D01*
X135677804Y-61938000D01*
X135594196Y-61938000D01*
X135469177Y-61925687D01*
X135308758Y-61877024D01*
X135160924Y-61798005D01*
X135160922Y-61798004D01*
X135031341Y-61691659D01*
X134924996Y-61562078D01*
X134911841Y-61537466D01*
X134845976Y-61414242D01*
X134797313Y-61253823D01*
X134780883Y-61087000D01*
X134797313Y-60920177D01*
X134845976Y-60759758D01*
X134924995Y-60611924D01*
X134924996Y-60611922D01*
X135031341Y-60482341D01*
X135160922Y-60375996D01*
X135212721Y-60348309D01*
X135308758Y-60296976D01*
X135469177Y-60248313D01*
X135594196Y-60236000D01*
X135677804Y-60236000D01*
X135802823Y-60248313D01*
X135802823Y-60248313D01*
G37*
G36*
X100927000Y-61938000D02*
G01*
X99225000Y-61938000D01*
X99225000Y-60236000D01*
X100927000Y-60236000D01*
X100927000Y-61938000D01*
X100927000Y-61938000D01*
G37*
G36*
X133262823Y-60248313D02*
G01*
X133423242Y-60296976D01*
X133519279Y-60348309D01*
X133571078Y-60375996D01*
X133700659Y-60482341D01*
X133807004Y-60611922D01*
X133807005Y-60611924D01*
X133886024Y-60759758D01*
X133934687Y-60920177D01*
X133951117Y-61087000D01*
X133934687Y-61253823D01*
X133886024Y-61414242D01*
X133820159Y-61537466D01*
X133807004Y-61562078D01*
X133700659Y-61691659D01*
X133571078Y-61798004D01*
X133571076Y-61798005D01*
X133423242Y-61877024D01*
X133262823Y-61925687D01*
X133137804Y-61938000D01*
X133054196Y-61938000D01*
X132929177Y-61925687D01*
X132768758Y-61877024D01*
X132620924Y-61798005D01*
X132620922Y-61798004D01*
X132491341Y-61691659D01*
X132384996Y-61562078D01*
X132371841Y-61537466D01*
X132305976Y-61414242D01*
X132257313Y-61253823D01*
X132240883Y-61087000D01*
X132257313Y-60920177D01*
X132305976Y-60759758D01*
X132384995Y-60611924D01*
X132384996Y-60611922D01*
X132491341Y-60482341D01*
X132620922Y-60375996D01*
X132672721Y-60348309D01*
X132768758Y-60296976D01*
X132929177Y-60248313D01*
X133054196Y-60236000D01*
X133137804Y-60236000D01*
X133262823Y-60248313D01*
X133262823Y-60248313D01*
G37*
G36*
X102782823Y-60248313D02*
G01*
X102943242Y-60296976D01*
X103039279Y-60348309D01*
X103091078Y-60375996D01*
X103220659Y-60482341D01*
X103327004Y-60611922D01*
X103327005Y-60611924D01*
X103406024Y-60759758D01*
X103454687Y-60920177D01*
X103471117Y-61087000D01*
X103454687Y-61253823D01*
X103406024Y-61414242D01*
X103340159Y-61537466D01*
X103327004Y-61562078D01*
X103220659Y-61691659D01*
X103091078Y-61798004D01*
X103091076Y-61798005D01*
X102943242Y-61877024D01*
X102782823Y-61925687D01*
X102657804Y-61938000D01*
X102574196Y-61938000D01*
X102449177Y-61925687D01*
X102288758Y-61877024D01*
X102140924Y-61798005D01*
X102140922Y-61798004D01*
X102011341Y-61691659D01*
X101904996Y-61562078D01*
X101891841Y-61537466D01*
X101825976Y-61414242D01*
X101777313Y-61253823D01*
X101760883Y-61087000D01*
X101777313Y-60920177D01*
X101825976Y-60759758D01*
X101904995Y-60611924D01*
X101904996Y-60611922D01*
X102011341Y-60482341D01*
X102140922Y-60375996D01*
X102192721Y-60348309D01*
X102288758Y-60296976D01*
X102449177Y-60248313D01*
X102574196Y-60236000D01*
X102657804Y-60236000D01*
X102782823Y-60248313D01*
X102782823Y-60248313D01*
G37*
G36*
X130722823Y-60248313D02*
G01*
X130883242Y-60296976D01*
X130979279Y-60348309D01*
X131031078Y-60375996D01*
X131160659Y-60482341D01*
X131267004Y-60611922D01*
X131267005Y-60611924D01*
X131346024Y-60759758D01*
X131394687Y-60920177D01*
X131411117Y-61087000D01*
X131394687Y-61253823D01*
X131346024Y-61414242D01*
X131280159Y-61537466D01*
X131267004Y-61562078D01*
X131160659Y-61691659D01*
X131031078Y-61798004D01*
X131031076Y-61798005D01*
X130883242Y-61877024D01*
X130722823Y-61925687D01*
X130597804Y-61938000D01*
X130514196Y-61938000D01*
X130389177Y-61925687D01*
X130228758Y-61877024D01*
X130080924Y-61798005D01*
X130080922Y-61798004D01*
X129951341Y-61691659D01*
X129844996Y-61562078D01*
X129831841Y-61537466D01*
X129765976Y-61414242D01*
X129717313Y-61253823D01*
X129700883Y-61087000D01*
X129717313Y-60920177D01*
X129765976Y-60759758D01*
X129844995Y-60611924D01*
X129844996Y-60611922D01*
X129951341Y-60482341D01*
X130080922Y-60375996D01*
X130132721Y-60348309D01*
X130228758Y-60296976D01*
X130389177Y-60248313D01*
X130514196Y-60236000D01*
X130597804Y-60236000D01*
X130722823Y-60248313D01*
X130722823Y-60248313D01*
G37*
G36*
X115482823Y-60248313D02*
G01*
X115643242Y-60296976D01*
X115739279Y-60348309D01*
X115791078Y-60375996D01*
X115920659Y-60482341D01*
X116027004Y-60611922D01*
X116027005Y-60611924D01*
X116106024Y-60759758D01*
X116154687Y-60920177D01*
X116171117Y-61087000D01*
X116154687Y-61253823D01*
X116106024Y-61414242D01*
X116040159Y-61537466D01*
X116027004Y-61562078D01*
X115920659Y-61691659D01*
X115791078Y-61798004D01*
X115791076Y-61798005D01*
X115643242Y-61877024D01*
X115482823Y-61925687D01*
X115357804Y-61938000D01*
X115274196Y-61938000D01*
X115149177Y-61925687D01*
X114988758Y-61877024D01*
X114840924Y-61798005D01*
X114840922Y-61798004D01*
X114711341Y-61691659D01*
X114604996Y-61562078D01*
X114591841Y-61537466D01*
X114525976Y-61414242D01*
X114477313Y-61253823D01*
X114460883Y-61087000D01*
X114477313Y-60920177D01*
X114525976Y-60759758D01*
X114604995Y-60611924D01*
X114604996Y-60611922D01*
X114711341Y-60482341D01*
X114840922Y-60375996D01*
X114892721Y-60348309D01*
X114988758Y-60296976D01*
X115149177Y-60248313D01*
X115274196Y-60236000D01*
X115357804Y-60236000D01*
X115482823Y-60248313D01*
X115482823Y-60248313D01*
G37*
G36*
X120562823Y-60248313D02*
G01*
X120723242Y-60296976D01*
X120819279Y-60348309D01*
X120871078Y-60375996D01*
X121000659Y-60482341D01*
X121107004Y-60611922D01*
X121107005Y-60611924D01*
X121186024Y-60759758D01*
X121234687Y-60920177D01*
X121251117Y-61087000D01*
X121234687Y-61253823D01*
X121186024Y-61414242D01*
X121120159Y-61537466D01*
X121107004Y-61562078D01*
X121000659Y-61691659D01*
X120871078Y-61798004D01*
X120871076Y-61798005D01*
X120723242Y-61877024D01*
X120562823Y-61925687D01*
X120437804Y-61938000D01*
X120354196Y-61938000D01*
X120229177Y-61925687D01*
X120068758Y-61877024D01*
X119920924Y-61798005D01*
X119920922Y-61798004D01*
X119791341Y-61691659D01*
X119684996Y-61562078D01*
X119671841Y-61537466D01*
X119605976Y-61414242D01*
X119557313Y-61253823D01*
X119540883Y-61087000D01*
X119557313Y-60920177D01*
X119605976Y-60759758D01*
X119684995Y-60611924D01*
X119684996Y-60611922D01*
X119791341Y-60482341D01*
X119920922Y-60375996D01*
X119972721Y-60348309D01*
X120068758Y-60296976D01*
X120229177Y-60248313D01*
X120354196Y-60236000D01*
X120437804Y-60236000D01*
X120562823Y-60248313D01*
X120562823Y-60248313D01*
G37*
G36*
X112942823Y-60248313D02*
G01*
X113103242Y-60296976D01*
X113199279Y-60348309D01*
X113251078Y-60375996D01*
X113380659Y-60482341D01*
X113487004Y-60611922D01*
X113487005Y-60611924D01*
X113566024Y-60759758D01*
X113614687Y-60920177D01*
X113631117Y-61087000D01*
X113614687Y-61253823D01*
X113566024Y-61414242D01*
X113500159Y-61537466D01*
X113487004Y-61562078D01*
X113380659Y-61691659D01*
X113251078Y-61798004D01*
X113251076Y-61798005D01*
X113103242Y-61877024D01*
X112942823Y-61925687D01*
X112817804Y-61938000D01*
X112734196Y-61938000D01*
X112609177Y-61925687D01*
X112448758Y-61877024D01*
X112300924Y-61798005D01*
X112300922Y-61798004D01*
X112171341Y-61691659D01*
X112064996Y-61562078D01*
X112051841Y-61537466D01*
X111985976Y-61414242D01*
X111937313Y-61253823D01*
X111920883Y-61087000D01*
X111937313Y-60920177D01*
X111985976Y-60759758D01*
X112064995Y-60611924D01*
X112064996Y-60611922D01*
X112171341Y-60482341D01*
X112300922Y-60375996D01*
X112352721Y-60348309D01*
X112448758Y-60296976D01*
X112609177Y-60248313D01*
X112734196Y-60236000D01*
X112817804Y-60236000D01*
X112942823Y-60248313D01*
X112942823Y-60248313D01*
G37*
G36*
X123102823Y-60248313D02*
G01*
X123263242Y-60296976D01*
X123359279Y-60348309D01*
X123411078Y-60375996D01*
X123540659Y-60482341D01*
X123647004Y-60611922D01*
X123647005Y-60611924D01*
X123726024Y-60759758D01*
X123774687Y-60920177D01*
X123791117Y-61087000D01*
X123774687Y-61253823D01*
X123726024Y-61414242D01*
X123660159Y-61537466D01*
X123647004Y-61562078D01*
X123540659Y-61691659D01*
X123411078Y-61798004D01*
X123411076Y-61798005D01*
X123263242Y-61877024D01*
X123102823Y-61925687D01*
X122977804Y-61938000D01*
X122894196Y-61938000D01*
X122769177Y-61925687D01*
X122608758Y-61877024D01*
X122460924Y-61798005D01*
X122460922Y-61798004D01*
X122331341Y-61691659D01*
X122224996Y-61562078D01*
X122211841Y-61537466D01*
X122145976Y-61414242D01*
X122097313Y-61253823D01*
X122080883Y-61087000D01*
X122097313Y-60920177D01*
X122145976Y-60759758D01*
X122224995Y-60611924D01*
X122224996Y-60611922D01*
X122331341Y-60482341D01*
X122460922Y-60375996D01*
X122512721Y-60348309D01*
X122608758Y-60296976D01*
X122769177Y-60248313D01*
X122894196Y-60236000D01*
X122977804Y-60236000D01*
X123102823Y-60248313D01*
X123102823Y-60248313D01*
G37*
G36*
X110402823Y-60248313D02*
G01*
X110563242Y-60296976D01*
X110659279Y-60348309D01*
X110711078Y-60375996D01*
X110840659Y-60482341D01*
X110947004Y-60611922D01*
X110947005Y-60611924D01*
X111026024Y-60759758D01*
X111074687Y-60920177D01*
X111091117Y-61087000D01*
X111074687Y-61253823D01*
X111026024Y-61414242D01*
X110960159Y-61537466D01*
X110947004Y-61562078D01*
X110840659Y-61691659D01*
X110711078Y-61798004D01*
X110711076Y-61798005D01*
X110563242Y-61877024D01*
X110402823Y-61925687D01*
X110277804Y-61938000D01*
X110194196Y-61938000D01*
X110069177Y-61925687D01*
X109908758Y-61877024D01*
X109760924Y-61798005D01*
X109760922Y-61798004D01*
X109631341Y-61691659D01*
X109524996Y-61562078D01*
X109511841Y-61537466D01*
X109445976Y-61414242D01*
X109397313Y-61253823D01*
X109380883Y-61087000D01*
X109397313Y-60920177D01*
X109445976Y-60759758D01*
X109524995Y-60611924D01*
X109524996Y-60611922D01*
X109631341Y-60482341D01*
X109760922Y-60375996D01*
X109812721Y-60348309D01*
X109908758Y-60296976D01*
X110069177Y-60248313D01*
X110194196Y-60236000D01*
X110277804Y-60236000D01*
X110402823Y-60248313D01*
X110402823Y-60248313D01*
G37*
G36*
X125642823Y-60248313D02*
G01*
X125803242Y-60296976D01*
X125899279Y-60348309D01*
X125951078Y-60375996D01*
X126080659Y-60482341D01*
X126187004Y-60611922D01*
X126187005Y-60611924D01*
X126266024Y-60759758D01*
X126314687Y-60920177D01*
X126331117Y-61087000D01*
X126314687Y-61253823D01*
X126266024Y-61414242D01*
X126200159Y-61537466D01*
X126187004Y-61562078D01*
X126080659Y-61691659D01*
X125951078Y-61798004D01*
X125951076Y-61798005D01*
X125803242Y-61877024D01*
X125642823Y-61925687D01*
X125517804Y-61938000D01*
X125434196Y-61938000D01*
X125309177Y-61925687D01*
X125148758Y-61877024D01*
X125000924Y-61798005D01*
X125000922Y-61798004D01*
X124871341Y-61691659D01*
X124764996Y-61562078D01*
X124751841Y-61537466D01*
X124685976Y-61414242D01*
X124637313Y-61253823D01*
X124620883Y-61087000D01*
X124637313Y-60920177D01*
X124685976Y-60759758D01*
X124764995Y-60611924D01*
X124764996Y-60611922D01*
X124871341Y-60482341D01*
X125000922Y-60375996D01*
X125052721Y-60348309D01*
X125148758Y-60296976D01*
X125309177Y-60248313D01*
X125434196Y-60236000D01*
X125517804Y-60236000D01*
X125642823Y-60248313D01*
X125642823Y-60248313D01*
G37*
G36*
X107862823Y-60248313D02*
G01*
X108023242Y-60296976D01*
X108119279Y-60348309D01*
X108171078Y-60375996D01*
X108300659Y-60482341D01*
X108407004Y-60611922D01*
X108407005Y-60611924D01*
X108486024Y-60759758D01*
X108534687Y-60920177D01*
X108551117Y-61087000D01*
X108534687Y-61253823D01*
X108486024Y-61414242D01*
X108420159Y-61537466D01*
X108407004Y-61562078D01*
X108300659Y-61691659D01*
X108171078Y-61798004D01*
X108171076Y-61798005D01*
X108023242Y-61877024D01*
X107862823Y-61925687D01*
X107737804Y-61938000D01*
X107654196Y-61938000D01*
X107529177Y-61925687D01*
X107368758Y-61877024D01*
X107220924Y-61798005D01*
X107220922Y-61798004D01*
X107091341Y-61691659D01*
X106984996Y-61562078D01*
X106971841Y-61537466D01*
X106905976Y-61414242D01*
X106857313Y-61253823D01*
X106840883Y-61087000D01*
X106857313Y-60920177D01*
X106905976Y-60759758D01*
X106984995Y-60611924D01*
X106984996Y-60611922D01*
X107091341Y-60482341D01*
X107220922Y-60375996D01*
X107272721Y-60348309D01*
X107368758Y-60296976D01*
X107529177Y-60248313D01*
X107654196Y-60236000D01*
X107737804Y-60236000D01*
X107862823Y-60248313D01*
X107862823Y-60248313D01*
G37*
G36*
X118022823Y-60248313D02*
G01*
X118183242Y-60296976D01*
X118279279Y-60348309D01*
X118331078Y-60375996D01*
X118460659Y-60482341D01*
X118567004Y-60611922D01*
X118567005Y-60611924D01*
X118646024Y-60759758D01*
X118694687Y-60920177D01*
X118711117Y-61087000D01*
X118694687Y-61253823D01*
X118646024Y-61414242D01*
X118580159Y-61537466D01*
X118567004Y-61562078D01*
X118460659Y-61691659D01*
X118331078Y-61798004D01*
X118331076Y-61798005D01*
X118183242Y-61877024D01*
X118022823Y-61925687D01*
X117897804Y-61938000D01*
X117814196Y-61938000D01*
X117689177Y-61925687D01*
X117528758Y-61877024D01*
X117380924Y-61798005D01*
X117380922Y-61798004D01*
X117251341Y-61691659D01*
X117144996Y-61562078D01*
X117131841Y-61537466D01*
X117065976Y-61414242D01*
X117017313Y-61253823D01*
X117000883Y-61087000D01*
X117017313Y-60920177D01*
X117065976Y-60759758D01*
X117144995Y-60611924D01*
X117144996Y-60611922D01*
X117251341Y-60482341D01*
X117380922Y-60375996D01*
X117432721Y-60348309D01*
X117528758Y-60296976D01*
X117689177Y-60248313D01*
X117814196Y-60236000D01*
X117897804Y-60236000D01*
X118022823Y-60248313D01*
X118022823Y-60248313D01*
G37*
G36*
X128182823Y-60248313D02*
G01*
X128343242Y-60296976D01*
X128439279Y-60348309D01*
X128491078Y-60375996D01*
X128620659Y-60482341D01*
X128727004Y-60611922D01*
X128727005Y-60611924D01*
X128806024Y-60759758D01*
X128854687Y-60920177D01*
X128871117Y-61087000D01*
X128854687Y-61253823D01*
X128806024Y-61414242D01*
X128740159Y-61537466D01*
X128727004Y-61562078D01*
X128620659Y-61691659D01*
X128491078Y-61798004D01*
X128491076Y-61798005D01*
X128343242Y-61877024D01*
X128182823Y-61925687D01*
X128057804Y-61938000D01*
X127974196Y-61938000D01*
X127849177Y-61925687D01*
X127688758Y-61877024D01*
X127540924Y-61798005D01*
X127540922Y-61798004D01*
X127411341Y-61691659D01*
X127304996Y-61562078D01*
X127291841Y-61537466D01*
X127225976Y-61414242D01*
X127177313Y-61253823D01*
X127160883Y-61087000D01*
X127177313Y-60920177D01*
X127225976Y-60759758D01*
X127304995Y-60611924D01*
X127304996Y-60611922D01*
X127411341Y-60482341D01*
X127540922Y-60375996D01*
X127592721Y-60348309D01*
X127688758Y-60296976D01*
X127849177Y-60248313D01*
X127974196Y-60236000D01*
X128057804Y-60236000D01*
X128182823Y-60248313D01*
X128182823Y-60248313D01*
G37*
G36*
X105322823Y-60248313D02*
G01*
X105483242Y-60296976D01*
X105579279Y-60348309D01*
X105631078Y-60375996D01*
X105760659Y-60482341D01*
X105867004Y-60611922D01*
X105867005Y-60611924D01*
X105946024Y-60759758D01*
X105994687Y-60920177D01*
X106011117Y-61087000D01*
X105994687Y-61253823D01*
X105946024Y-61414242D01*
X105880159Y-61537466D01*
X105867004Y-61562078D01*
X105760659Y-61691659D01*
X105631078Y-61798004D01*
X105631076Y-61798005D01*
X105483242Y-61877024D01*
X105322823Y-61925687D01*
X105197804Y-61938000D01*
X105114196Y-61938000D01*
X104989177Y-61925687D01*
X104828758Y-61877024D01*
X104680924Y-61798005D01*
X104680922Y-61798004D01*
X104551341Y-61691659D01*
X104444996Y-61562078D01*
X104431841Y-61537466D01*
X104365976Y-61414242D01*
X104317313Y-61253823D01*
X104300883Y-61087000D01*
X104317313Y-60920177D01*
X104365976Y-60759758D01*
X104444995Y-60611924D01*
X104444996Y-60611922D01*
X104551341Y-60482341D01*
X104680922Y-60375996D01*
X104732721Y-60348309D01*
X104828758Y-60296976D01*
X104989177Y-60248313D01*
X105114196Y-60236000D01*
X105197804Y-60236000D01*
X105322823Y-60248313D01*
X105322823Y-60248313D01*
G37*
G36*
X173563228Y-55569703D02*
G01*
X173718100Y-55633853D01*
X173857481Y-55726985D01*
X173976015Y-55845519D01*
X174069147Y-55984900D01*
X174133297Y-56139772D01*
X174166000Y-56304184D01*
X174166000Y-56471816D01*
X174133297Y-56636228D01*
X174069147Y-56791100D01*
X173976015Y-56930481D01*
X173857481Y-57049015D01*
X173718100Y-57142147D01*
X173563228Y-57206297D01*
X173398816Y-57239000D01*
X173231184Y-57239000D01*
X173066772Y-57206297D01*
X172911900Y-57142147D01*
X172772519Y-57049015D01*
X172653985Y-56930481D01*
X172560853Y-56791100D01*
X172496703Y-56636228D01*
X172464000Y-56471816D01*
X172464000Y-56304184D01*
X172496703Y-56139772D01*
X172560853Y-55984900D01*
X172653985Y-55845519D01*
X172772519Y-55726985D01*
X172911900Y-55633853D01*
X173066772Y-55569703D01*
X173231184Y-55537000D01*
X173398816Y-55537000D01*
X173563228Y-55569703D01*
X173563228Y-55569703D01*
G37*
G36*
X171063228Y-55569703D02*
G01*
X171218100Y-55633853D01*
X171357481Y-55726985D01*
X171476015Y-55845519D01*
X171569147Y-55984900D01*
X171633297Y-56139772D01*
X171666000Y-56304184D01*
X171666000Y-56471816D01*
X171633297Y-56636228D01*
X171569147Y-56791100D01*
X171476015Y-56930481D01*
X171357481Y-57049015D01*
X171218100Y-57142147D01*
X171063228Y-57206297D01*
X170898816Y-57239000D01*
X170731184Y-57239000D01*
X170566772Y-57206297D01*
X170411900Y-57142147D01*
X170272519Y-57049015D01*
X170153985Y-56930481D01*
X170060853Y-56791100D01*
X169996703Y-56636228D01*
X169964000Y-56471816D01*
X169964000Y-56304184D01*
X169996703Y-56139772D01*
X170060853Y-55984900D01*
X170153985Y-55845519D01*
X170272519Y-55726985D01*
X170411900Y-55633853D01*
X170566772Y-55569703D01*
X170731184Y-55537000D01*
X170898816Y-55537000D01*
X171063228Y-55569703D01*
X171063228Y-55569703D01*
G37*
G36*
X171571228Y-52394703D02*
G01*
X171726100Y-52458853D01*
X171865481Y-52551985D01*
X171984015Y-52670519D01*
X172077147Y-52809900D01*
X172141297Y-52964772D01*
X172174000Y-53129184D01*
X172174000Y-53296816D01*
X172141297Y-53461228D01*
X172077147Y-53616100D01*
X171984015Y-53755481D01*
X171865481Y-53874015D01*
X171726100Y-53967147D01*
X171571228Y-54031297D01*
X171406816Y-54064000D01*
X171239184Y-54064000D01*
X171074772Y-54031297D01*
X170919900Y-53967147D01*
X170780519Y-53874015D01*
X170661985Y-53755481D01*
X170568853Y-53616100D01*
X170504703Y-53461228D01*
X170472000Y-53296816D01*
X170472000Y-53129184D01*
X170504703Y-52964772D01*
X170568853Y-52809900D01*
X170661985Y-52670519D01*
X170780519Y-52551985D01*
X170919900Y-52458853D01*
X171074772Y-52394703D01*
X171239184Y-52362000D01*
X171406816Y-52362000D01*
X171571228Y-52394703D01*
X171571228Y-52394703D01*
G37*
G36*
X174619228Y-52394703D02*
G01*
X174774100Y-52458853D01*
X174913481Y-52551985D01*
X175032015Y-52670519D01*
X175125147Y-52809900D01*
X175189297Y-52964772D01*
X175222000Y-53129184D01*
X175222000Y-53296816D01*
X175189297Y-53461228D01*
X175125147Y-53616100D01*
X175032015Y-53755481D01*
X174913481Y-53874015D01*
X174774100Y-53967147D01*
X174619228Y-54031297D01*
X174454816Y-54064000D01*
X174287184Y-54064000D01*
X174122772Y-54031297D01*
X173967900Y-53967147D01*
X173828519Y-53874015D01*
X173709985Y-53755481D01*
X173616853Y-53616100D01*
X173552703Y-53461228D01*
X173520000Y-53296816D01*
X173520000Y-53129184D01*
X173552703Y-52964772D01*
X173616853Y-52809900D01*
X173709985Y-52670519D01*
X173828519Y-52551985D01*
X173967900Y-52458853D01*
X174122772Y-52394703D01*
X174287184Y-52362000D01*
X174454816Y-52362000D01*
X174619228Y-52394703D01*
X174619228Y-52394703D01*
G37*
G36*
X177667228Y-52394703D02*
G01*
X177822100Y-52458853D01*
X177961481Y-52551985D01*
X178080015Y-52670519D01*
X178173147Y-52809900D01*
X178237297Y-52964772D01*
X178270000Y-53129184D01*
X178270000Y-53296816D01*
X178237297Y-53461228D01*
X178173147Y-53616100D01*
X178080015Y-53755481D01*
X177961481Y-53874015D01*
X177822100Y-53967147D01*
X177667228Y-54031297D01*
X177502816Y-54064000D01*
X177335184Y-54064000D01*
X177170772Y-54031297D01*
X177015900Y-53967147D01*
X176876519Y-53874015D01*
X176757985Y-53755481D01*
X176664853Y-53616100D01*
X176600703Y-53461228D01*
X176568000Y-53296816D01*
X176568000Y-53129184D01*
X176600703Y-52964772D01*
X176664853Y-52809900D01*
X176757985Y-52670519D01*
X176876519Y-52551985D01*
X177015900Y-52458853D01*
X177170772Y-52394703D01*
X177335184Y-52362000D01*
X177502816Y-52362000D01*
X177667228Y-52394703D01*
X177667228Y-52394703D01*
G37*
G36*
X180715228Y-52394703D02*
G01*
X180870100Y-52458853D01*
X181009481Y-52551985D01*
X181128015Y-52670519D01*
X181221147Y-52809900D01*
X181285297Y-52964772D01*
X181318000Y-53129184D01*
X181318000Y-53296816D01*
X181285297Y-53461228D01*
X181221147Y-53616100D01*
X181128015Y-53755481D01*
X181009481Y-53874015D01*
X180870100Y-53967147D01*
X180715228Y-54031297D01*
X180550816Y-54064000D01*
X180383184Y-54064000D01*
X180218772Y-54031297D01*
X180063900Y-53967147D01*
X179924519Y-53874015D01*
X179805985Y-53755481D01*
X179712853Y-53616100D01*
X179648703Y-53461228D01*
X179616000Y-53296816D01*
X179616000Y-53129184D01*
X179648703Y-52964772D01*
X179712853Y-52809900D01*
X179805985Y-52670519D01*
X179924519Y-52551985D01*
X180063900Y-52458853D01*
X180218772Y-52394703D01*
X180383184Y-52362000D01*
X180550816Y-52362000D01*
X180715228Y-52394703D01*
X180715228Y-52394703D01*
G37*
G36*
X164586228Y-47528703D02*
G01*
X164741100Y-47592853D01*
X164880481Y-47685985D01*
X164999015Y-47804519D01*
X165092147Y-47943900D01*
X165156297Y-48098772D01*
X165189000Y-48263184D01*
X165189000Y-48430816D01*
X165156297Y-48595228D01*
X165092147Y-48750100D01*
X164999015Y-48889481D01*
X164880481Y-49008015D01*
X164741100Y-49101147D01*
X164586228Y-49165297D01*
X164421816Y-49198000D01*
X164254184Y-49198000D01*
X164089772Y-49165297D01*
X163934900Y-49101147D01*
X163795519Y-49008015D01*
X163676985Y-48889481D01*
X163583853Y-48750100D01*
X163519703Y-48595228D01*
X163487000Y-48430816D01*
X163487000Y-48263184D01*
X163519703Y-48098772D01*
X163583853Y-47943900D01*
X163676985Y-47804519D01*
X163795519Y-47685985D01*
X163934900Y-47592853D01*
X164089772Y-47528703D01*
X164254184Y-47496000D01*
X164421816Y-47496000D01*
X164586228Y-47528703D01*
X164586228Y-47528703D01*
G37*
G36*
X164586228Y-45028703D02*
G01*
X164741100Y-45092853D01*
X164880481Y-45185985D01*
X164999015Y-45304519D01*
X165092147Y-45443900D01*
X165156297Y-45598772D01*
X165189000Y-45763184D01*
X165189000Y-45930816D01*
X165156297Y-46095228D01*
X165092147Y-46250100D01*
X164999015Y-46389481D01*
X164880481Y-46508015D01*
X164741100Y-46601147D01*
X164586228Y-46665297D01*
X164421816Y-46698000D01*
X164254184Y-46698000D01*
X164089772Y-46665297D01*
X163934900Y-46601147D01*
X163795519Y-46508015D01*
X163676985Y-46389481D01*
X163583853Y-46250100D01*
X163519703Y-46095228D01*
X163487000Y-45930816D01*
X163487000Y-45763184D01*
X163519703Y-45598772D01*
X163583853Y-45443900D01*
X163676985Y-45304519D01*
X163795519Y-45185985D01*
X163934900Y-45092853D01*
X164089772Y-45028703D01*
X164254184Y-44996000D01*
X164421816Y-44996000D01*
X164586228Y-45028703D01*
X164586228Y-45028703D01*
G37*
G36*
X171489823Y-44754313D02*
G01*
X171650242Y-44802976D01*
X171782906Y-44873886D01*
X171798078Y-44881996D01*
X171927659Y-44988341D01*
X172034004Y-45117922D01*
X172034005Y-45117924D01*
X172113024Y-45265758D01*
X172161687Y-45426177D01*
X172178117Y-45593000D01*
X172161687Y-45759823D01*
X172113024Y-45920242D01*
X172107372Y-45930816D01*
X172034004Y-46068078D01*
X171927659Y-46197659D01*
X171798078Y-46304004D01*
X171798076Y-46304005D01*
X171650242Y-46383024D01*
X171489823Y-46431687D01*
X171364804Y-46444000D01*
X171281196Y-46444000D01*
X171156177Y-46431687D01*
X170995758Y-46383024D01*
X170847924Y-46304005D01*
X170847922Y-46304004D01*
X170718341Y-46197659D01*
X170611996Y-46068078D01*
X170538628Y-45930816D01*
X170532976Y-45920242D01*
X170484313Y-45759823D01*
X170467883Y-45593000D01*
X170484313Y-45426177D01*
X170532976Y-45265758D01*
X170611995Y-45117924D01*
X170611996Y-45117922D01*
X170718341Y-44988341D01*
X170847922Y-44881996D01*
X170863094Y-44873886D01*
X170995758Y-44802976D01*
X171156177Y-44754313D01*
X171281196Y-44742000D01*
X171364804Y-44742000D01*
X171489823Y-44754313D01*
X171489823Y-44754313D01*
G37*
G36*
X174537823Y-44754313D02*
G01*
X174698242Y-44802976D01*
X174830906Y-44873886D01*
X174846078Y-44881996D01*
X174975659Y-44988341D01*
X175082004Y-45117922D01*
X175082005Y-45117924D01*
X175161024Y-45265758D01*
X175209687Y-45426177D01*
X175226117Y-45593000D01*
X175209687Y-45759823D01*
X175161024Y-45920242D01*
X175155372Y-45930816D01*
X175082004Y-46068078D01*
X174975659Y-46197659D01*
X174846078Y-46304004D01*
X174846076Y-46304005D01*
X174698242Y-46383024D01*
X174537823Y-46431687D01*
X174412804Y-46444000D01*
X174329196Y-46444000D01*
X174204177Y-46431687D01*
X174043758Y-46383024D01*
X173895924Y-46304005D01*
X173895922Y-46304004D01*
X173766341Y-46197659D01*
X173659996Y-46068078D01*
X173586628Y-45930816D01*
X173580976Y-45920242D01*
X173532313Y-45759823D01*
X173515883Y-45593000D01*
X173532313Y-45426177D01*
X173580976Y-45265758D01*
X173659995Y-45117924D01*
X173659996Y-45117922D01*
X173766341Y-44988341D01*
X173895922Y-44881996D01*
X173911094Y-44873886D01*
X174043758Y-44802976D01*
X174204177Y-44754313D01*
X174329196Y-44742000D01*
X174412804Y-44742000D01*
X174537823Y-44754313D01*
X174537823Y-44754313D01*
G37*
G36*
X177585823Y-44754313D02*
G01*
X177746242Y-44802976D01*
X177878906Y-44873886D01*
X177894078Y-44881996D01*
X178023659Y-44988341D01*
X178130004Y-45117922D01*
X178130005Y-45117924D01*
X178209024Y-45265758D01*
X178257687Y-45426177D01*
X178274117Y-45593000D01*
X178257687Y-45759823D01*
X178209024Y-45920242D01*
X178203372Y-45930816D01*
X178130004Y-46068078D01*
X178023659Y-46197659D01*
X177894078Y-46304004D01*
X177894076Y-46304005D01*
X177746242Y-46383024D01*
X177585823Y-46431687D01*
X177460804Y-46444000D01*
X177377196Y-46444000D01*
X177252177Y-46431687D01*
X177091758Y-46383024D01*
X176943924Y-46304005D01*
X176943922Y-46304004D01*
X176814341Y-46197659D01*
X176707996Y-46068078D01*
X176634628Y-45930816D01*
X176628976Y-45920242D01*
X176580313Y-45759823D01*
X176563883Y-45593000D01*
X176580313Y-45426177D01*
X176628976Y-45265758D01*
X176707995Y-45117924D01*
X176707996Y-45117922D01*
X176814341Y-44988341D01*
X176943922Y-44881996D01*
X176959094Y-44873886D01*
X177091758Y-44802976D01*
X177252177Y-44754313D01*
X177377196Y-44742000D01*
X177460804Y-44742000D01*
X177585823Y-44754313D01*
X177585823Y-44754313D01*
G37*
G36*
X180633823Y-44754313D02*
G01*
X180794242Y-44802976D01*
X180926906Y-44873886D01*
X180942078Y-44881996D01*
X181071659Y-44988341D01*
X181178004Y-45117922D01*
X181178005Y-45117924D01*
X181257024Y-45265758D01*
X181305687Y-45426177D01*
X181322117Y-45593000D01*
X181305687Y-45759823D01*
X181257024Y-45920242D01*
X181251372Y-45930816D01*
X181178004Y-46068078D01*
X181071659Y-46197659D01*
X180942078Y-46304004D01*
X180942076Y-46304005D01*
X180794242Y-46383024D01*
X180633823Y-46431687D01*
X180508804Y-46444000D01*
X180425196Y-46444000D01*
X180300177Y-46431687D01*
X180139758Y-46383024D01*
X179991924Y-46304005D01*
X179991922Y-46304004D01*
X179862341Y-46197659D01*
X179755996Y-46068078D01*
X179682628Y-45930816D01*
X179676976Y-45920242D01*
X179628313Y-45759823D01*
X179611883Y-45593000D01*
X179628313Y-45426177D01*
X179676976Y-45265758D01*
X179755995Y-45117924D01*
X179755996Y-45117922D01*
X179862341Y-44988341D01*
X179991922Y-44881996D01*
X180007094Y-44873886D01*
X180139758Y-44802976D01*
X180300177Y-44754313D01*
X180425196Y-44742000D01*
X180508804Y-44742000D01*
X180633823Y-44754313D01*
X180633823Y-44754313D01*
G37*
G36*
X179744823Y-41325313D02*
G01*
X179905242Y-41373976D01*
X180037906Y-41444886D01*
X180053078Y-41452996D01*
X180182659Y-41559341D01*
X180289004Y-41688922D01*
X180289005Y-41688924D01*
X180368024Y-41836758D01*
X180416687Y-41997177D01*
X180433117Y-42164000D01*
X180416687Y-42330823D01*
X180368024Y-42491242D01*
X180297114Y-42623906D01*
X180289004Y-42639078D01*
X180182659Y-42768659D01*
X180053078Y-42875004D01*
X180053076Y-42875005D01*
X179905242Y-42954024D01*
X179744823Y-43002687D01*
X179619804Y-43015000D01*
X179536196Y-43015000D01*
X179411177Y-43002687D01*
X179250758Y-42954024D01*
X179102924Y-42875005D01*
X179102922Y-42875004D01*
X178973341Y-42768659D01*
X178866996Y-42639078D01*
X178858886Y-42623906D01*
X178787976Y-42491242D01*
X178739313Y-42330823D01*
X178722883Y-42164000D01*
X178739313Y-41997177D01*
X178787976Y-41836758D01*
X178866995Y-41688924D01*
X178866996Y-41688922D01*
X178973341Y-41559341D01*
X179102922Y-41452996D01*
X179118094Y-41444886D01*
X179250758Y-41373976D01*
X179411177Y-41325313D01*
X179536196Y-41313000D01*
X179619804Y-41313000D01*
X179744823Y-41325313D01*
X179744823Y-41325313D01*
G37*
G36*
X177204823Y-41325313D02*
G01*
X177365242Y-41373976D01*
X177497906Y-41444886D01*
X177513078Y-41452996D01*
X177642659Y-41559341D01*
X177749004Y-41688922D01*
X177749005Y-41688924D01*
X177828024Y-41836758D01*
X177876687Y-41997177D01*
X177893117Y-42164000D01*
X177876687Y-42330823D01*
X177828024Y-42491242D01*
X177757114Y-42623906D01*
X177749004Y-42639078D01*
X177642659Y-42768659D01*
X177513078Y-42875004D01*
X177513076Y-42875005D01*
X177365242Y-42954024D01*
X177204823Y-43002687D01*
X177079804Y-43015000D01*
X176996196Y-43015000D01*
X176871177Y-43002687D01*
X176710758Y-42954024D01*
X176562924Y-42875005D01*
X176562922Y-42875004D01*
X176433341Y-42768659D01*
X176326996Y-42639078D01*
X176318886Y-42623906D01*
X176247976Y-42491242D01*
X176199313Y-42330823D01*
X176182883Y-42164000D01*
X176199313Y-41997177D01*
X176247976Y-41836758D01*
X176326995Y-41688924D01*
X176326996Y-41688922D01*
X176433341Y-41559341D01*
X176562922Y-41452996D01*
X176578094Y-41444886D01*
X176710758Y-41373976D01*
X176871177Y-41325313D01*
X176996196Y-41313000D01*
X177079804Y-41313000D01*
X177204823Y-41325313D01*
X177204823Y-41325313D01*
G37*
G36*
X174664823Y-41325313D02*
G01*
X174825242Y-41373976D01*
X174957906Y-41444886D01*
X174973078Y-41452996D01*
X175102659Y-41559341D01*
X175209004Y-41688922D01*
X175209005Y-41688924D01*
X175288024Y-41836758D01*
X175336687Y-41997177D01*
X175353117Y-42164000D01*
X175336687Y-42330823D01*
X175288024Y-42491242D01*
X175217114Y-42623906D01*
X175209004Y-42639078D01*
X175102659Y-42768659D01*
X174973078Y-42875004D01*
X174973076Y-42875005D01*
X174825242Y-42954024D01*
X174664823Y-43002687D01*
X174539804Y-43015000D01*
X174456196Y-43015000D01*
X174331177Y-43002687D01*
X174170758Y-42954024D01*
X174022924Y-42875005D01*
X174022922Y-42875004D01*
X173893341Y-42768659D01*
X173786996Y-42639078D01*
X173778886Y-42623906D01*
X173707976Y-42491242D01*
X173659313Y-42330823D01*
X173642883Y-42164000D01*
X173659313Y-41997177D01*
X173707976Y-41836758D01*
X173786995Y-41688924D01*
X173786996Y-41688922D01*
X173893341Y-41559341D01*
X174022922Y-41452996D01*
X174038094Y-41444886D01*
X174170758Y-41373976D01*
X174331177Y-41325313D01*
X174456196Y-41313000D01*
X174539804Y-41313000D01*
X174664823Y-41325313D01*
X174664823Y-41325313D01*
G37*
G36*
X172124823Y-41325313D02*
G01*
X172285242Y-41373976D01*
X172417906Y-41444886D01*
X172433078Y-41452996D01*
X172562659Y-41559341D01*
X172669004Y-41688922D01*
X172669005Y-41688924D01*
X172748024Y-41836758D01*
X172796687Y-41997177D01*
X172813117Y-42164000D01*
X172796687Y-42330823D01*
X172748024Y-42491242D01*
X172677114Y-42623906D01*
X172669004Y-42639078D01*
X172562659Y-42768659D01*
X172433078Y-42875004D01*
X172433076Y-42875005D01*
X172285242Y-42954024D01*
X172124823Y-43002687D01*
X171999804Y-43015000D01*
X171916196Y-43015000D01*
X171791177Y-43002687D01*
X171630758Y-42954024D01*
X171482924Y-42875005D01*
X171482922Y-42875004D01*
X171353341Y-42768659D01*
X171246996Y-42639078D01*
X171238886Y-42623906D01*
X171167976Y-42491242D01*
X171119313Y-42330823D01*
X171102883Y-42164000D01*
X171119313Y-41997177D01*
X171167976Y-41836758D01*
X171246995Y-41688924D01*
X171246996Y-41688922D01*
X171353341Y-41559341D01*
X171482922Y-41452996D01*
X171498094Y-41444886D01*
X171630758Y-41373976D01*
X171791177Y-41325313D01*
X171916196Y-41313000D01*
X171999804Y-41313000D01*
X172124823Y-41325313D01*
X172124823Y-41325313D01*
G37*
G36*
X180429000Y-35395000D02*
G01*
X178727000Y-35395000D01*
X178727000Y-33693000D01*
X180429000Y-33693000D01*
X180429000Y-35395000D01*
X180429000Y-35395000D01*
G37*
G36*
X177204823Y-33705313D02*
G01*
X177365242Y-33753976D01*
X177497906Y-33824886D01*
X177513078Y-33832996D01*
X177642659Y-33939341D01*
X177749004Y-34068922D01*
X177749005Y-34068924D01*
X177828024Y-34216758D01*
X177876687Y-34377177D01*
X177893117Y-34544000D01*
X177876687Y-34710823D01*
X177828024Y-34871242D01*
X177757114Y-35003906D01*
X177749004Y-35019078D01*
X177642659Y-35148659D01*
X177513078Y-35255004D01*
X177513076Y-35255005D01*
X177365242Y-35334024D01*
X177204823Y-35382687D01*
X177079804Y-35395000D01*
X176996196Y-35395000D01*
X176871177Y-35382687D01*
X176710758Y-35334024D01*
X176562924Y-35255005D01*
X176562922Y-35255004D01*
X176433341Y-35148659D01*
X176326996Y-35019078D01*
X176318886Y-35003906D01*
X176247976Y-34871242D01*
X176199313Y-34710823D01*
X176182883Y-34544000D01*
X176199313Y-34377177D01*
X176247976Y-34216758D01*
X176326995Y-34068924D01*
X176326996Y-34068922D01*
X176433341Y-33939341D01*
X176562922Y-33832996D01*
X176578094Y-33824886D01*
X176710758Y-33753976D01*
X176871177Y-33705313D01*
X176996196Y-33693000D01*
X177079804Y-33693000D01*
X177204823Y-33705313D01*
X177204823Y-33705313D01*
G37*
G36*
X174664823Y-33705313D02*
G01*
X174825242Y-33753976D01*
X174957906Y-33824886D01*
X174973078Y-33832996D01*
X175102659Y-33939341D01*
X175209004Y-34068922D01*
X175209005Y-34068924D01*
X175288024Y-34216758D01*
X175336687Y-34377177D01*
X175353117Y-34544000D01*
X175336687Y-34710823D01*
X175288024Y-34871242D01*
X175217114Y-35003906D01*
X175209004Y-35019078D01*
X175102659Y-35148659D01*
X174973078Y-35255004D01*
X174973076Y-35255005D01*
X174825242Y-35334024D01*
X174664823Y-35382687D01*
X174539804Y-35395000D01*
X174456196Y-35395000D01*
X174331177Y-35382687D01*
X174170758Y-35334024D01*
X174022924Y-35255005D01*
X174022922Y-35255004D01*
X173893341Y-35148659D01*
X173786996Y-35019078D01*
X173778886Y-35003906D01*
X173707976Y-34871242D01*
X173659313Y-34710823D01*
X173642883Y-34544000D01*
X173659313Y-34377177D01*
X173707976Y-34216758D01*
X173786995Y-34068924D01*
X173786996Y-34068922D01*
X173893341Y-33939341D01*
X174022922Y-33832996D01*
X174038094Y-33824886D01*
X174170758Y-33753976D01*
X174331177Y-33705313D01*
X174456196Y-33693000D01*
X174539804Y-33693000D01*
X174664823Y-33705313D01*
X174664823Y-33705313D01*
G37*
G36*
X172124823Y-33705313D02*
G01*
X172285242Y-33753976D01*
X172417906Y-33824886D01*
X172433078Y-33832996D01*
X172562659Y-33939341D01*
X172669004Y-34068922D01*
X172669005Y-34068924D01*
X172748024Y-34216758D01*
X172796687Y-34377177D01*
X172813117Y-34544000D01*
X172796687Y-34710823D01*
X172748024Y-34871242D01*
X172677114Y-35003906D01*
X172669004Y-35019078D01*
X172562659Y-35148659D01*
X172433078Y-35255004D01*
X172433076Y-35255005D01*
X172285242Y-35334024D01*
X172124823Y-35382687D01*
X171999804Y-35395000D01*
X171916196Y-35395000D01*
X171791177Y-35382687D01*
X171630758Y-35334024D01*
X171482924Y-35255005D01*
X171482922Y-35255004D01*
X171353341Y-35148659D01*
X171246996Y-35019078D01*
X171238886Y-35003906D01*
X171167976Y-34871242D01*
X171119313Y-34710823D01*
X171102883Y-34544000D01*
X171119313Y-34377177D01*
X171167976Y-34216758D01*
X171246995Y-34068924D01*
X171246996Y-34068922D01*
X171353341Y-33939341D01*
X171482922Y-33832996D01*
X171498094Y-33824886D01*
X171630758Y-33753976D01*
X171791177Y-33705313D01*
X171916196Y-33693000D01*
X171999804Y-33693000D01*
X172124823Y-33705313D01*
X172124823Y-33705313D01*
G37*
M02*
