G04 #@! TF.GenerationSoftware,KiCad,Pcbnew,(5.1.4)-1*
G04 #@! TF.CreationDate,2021-02-24T15:32:15-03:00*
G04 #@! TF.ProjectId,snes_feram,736e6573-5f66-4657-9261-6d2e6b696361,rev?*
G04 #@! TF.SameCoordinates,Original*
G04 #@! TF.FileFunction,Legend,Top*
G04 #@! TF.FilePolarity,Positive*
%FSLAX46Y46*%
G04 Gerber Fmt 4.6, Leading zero omitted, Abs format (unit mm)*
G04 Created by KiCad (PCBNEW (5.1.4)-1) date 2021-02-24 15:32:15*
%MOMM*%
%LPD*%
G04 APERTURE LIST*
%ADD10C,0.150000*%
%ADD11C,0.010000*%
%ADD12C,0.190500*%
%ADD13C,0.120000*%
%ADD14C,0.203200*%
%ADD15C,0.125000*%
G04 APERTURE END LIST*
D10*
X148376095Y-44791380D02*
X149042761Y-44791380D01*
X148614190Y-45791380D01*
X149852285Y-45124714D02*
X149852285Y-45791380D01*
X149614190Y-44743761D02*
X149376095Y-45458047D01*
X149995142Y-45458047D01*
X150376095Y-45791380D02*
X150376095Y-44791380D01*
X150376095Y-45267571D02*
X150947523Y-45267571D01*
X150947523Y-45791380D02*
X150947523Y-44791380D01*
X151995142Y-45696142D02*
X151947523Y-45743761D01*
X151804666Y-45791380D01*
X151709428Y-45791380D01*
X151566571Y-45743761D01*
X151471333Y-45648523D01*
X151423714Y-45553285D01*
X151376095Y-45362809D01*
X151376095Y-45219952D01*
X151423714Y-45029476D01*
X151471333Y-44934238D01*
X151566571Y-44839000D01*
X151709428Y-44791380D01*
X151804666Y-44791380D01*
X151947523Y-44839000D01*
X151995142Y-44886619D01*
X152947523Y-45791380D02*
X152376095Y-45791380D01*
X152661809Y-45791380D02*
X152661809Y-44791380D01*
X152566571Y-44934238D01*
X152471333Y-45029476D01*
X152376095Y-45077095D01*
X153280857Y-44791380D02*
X153899904Y-44791380D01*
X153566571Y-45172333D01*
X153709428Y-45172333D01*
X153804666Y-45219952D01*
X153852285Y-45267571D01*
X153899904Y-45362809D01*
X153899904Y-45600904D01*
X153852285Y-45696142D01*
X153804666Y-45743761D01*
X153709428Y-45791380D01*
X153423714Y-45791380D01*
X153328476Y-45743761D01*
X153280857Y-45696142D01*
X154376095Y-45791380D02*
X154566571Y-45791380D01*
X154661809Y-45743761D01*
X154709428Y-45696142D01*
X154804666Y-45553285D01*
X154852285Y-45362809D01*
X154852285Y-44981857D01*
X154804666Y-44886619D01*
X154757047Y-44839000D01*
X154661809Y-44791380D01*
X154471333Y-44791380D01*
X154376095Y-44839000D01*
X154328476Y-44886619D01*
X154280857Y-44981857D01*
X154280857Y-45219952D01*
X154328476Y-45315190D01*
X154376095Y-45362809D01*
X154471333Y-45410428D01*
X154661809Y-45410428D01*
X154757047Y-45362809D01*
X154804666Y-45315190D01*
X154852285Y-45219952D01*
X137318904Y-45124714D02*
X137318904Y-45791380D01*
X137080809Y-44743761D02*
X136842714Y-45458047D01*
X137461761Y-45458047D01*
X138033190Y-44791380D02*
X138128428Y-44791380D01*
X138223666Y-44839000D01*
X138271285Y-44886619D01*
X138318904Y-44981857D01*
X138366523Y-45172333D01*
X138366523Y-45410428D01*
X138318904Y-45600904D01*
X138271285Y-45696142D01*
X138223666Y-45743761D01*
X138128428Y-45791380D01*
X138033190Y-45791380D01*
X137937952Y-45743761D01*
X137890333Y-45696142D01*
X137842714Y-45600904D01*
X137795095Y-45410428D01*
X137795095Y-45172333D01*
X137842714Y-44981857D01*
X137890333Y-44886619D01*
X137937952Y-44839000D01*
X138033190Y-44791380D01*
X138699857Y-44791380D02*
X139366523Y-44791380D01*
X138937952Y-45791380D01*
X140271285Y-45791380D02*
X139699857Y-45791380D01*
X139985571Y-45791380D02*
X139985571Y-44791380D01*
X139890333Y-44934238D01*
X139795095Y-45029476D01*
X139699857Y-45077095D01*
X125380904Y-45124714D02*
X125380904Y-45791380D01*
X125142809Y-44743761D02*
X124904714Y-45458047D01*
X125523761Y-45458047D01*
X126095190Y-44791380D02*
X126190428Y-44791380D01*
X126285666Y-44839000D01*
X126333285Y-44886619D01*
X126380904Y-44981857D01*
X126428523Y-45172333D01*
X126428523Y-45410428D01*
X126380904Y-45600904D01*
X126333285Y-45696142D01*
X126285666Y-45743761D01*
X126190428Y-45791380D01*
X126095190Y-45791380D01*
X125999952Y-45743761D01*
X125952333Y-45696142D01*
X125904714Y-45600904D01*
X125857095Y-45410428D01*
X125857095Y-45172333D01*
X125904714Y-44981857D01*
X125952333Y-44886619D01*
X125999952Y-44839000D01*
X126095190Y-44791380D01*
X126999952Y-45219952D02*
X126904714Y-45172333D01*
X126857095Y-45124714D01*
X126809476Y-45029476D01*
X126809476Y-44981857D01*
X126857095Y-44886619D01*
X126904714Y-44839000D01*
X126999952Y-44791380D01*
X127190428Y-44791380D01*
X127285666Y-44839000D01*
X127333285Y-44886619D01*
X127380904Y-44981857D01*
X127380904Y-45029476D01*
X127333285Y-45124714D01*
X127285666Y-45172333D01*
X127190428Y-45219952D01*
X126999952Y-45219952D01*
X126904714Y-45267571D01*
X126857095Y-45315190D01*
X126809476Y-45410428D01*
X126809476Y-45600904D01*
X126857095Y-45696142D01*
X126904714Y-45743761D01*
X126999952Y-45791380D01*
X127190428Y-45791380D01*
X127285666Y-45743761D01*
X127333285Y-45696142D01*
X127380904Y-45600904D01*
X127380904Y-45410428D01*
X127333285Y-45315190D01*
X127285666Y-45267571D01*
X127190428Y-45219952D01*
X128333285Y-45791380D02*
X127761857Y-45791380D01*
X128047571Y-45791380D02*
X128047571Y-44791380D01*
X127952333Y-44934238D01*
X127857095Y-45029476D01*
X127761857Y-45077095D01*
X105362666Y-49966571D02*
X105029333Y-49966571D01*
X105029333Y-50490380D02*
X105029333Y-49490380D01*
X105505523Y-49490380D01*
X105886476Y-50490380D02*
X105886476Y-49490380D01*
X106219809Y-50204666D01*
X106553142Y-49490380D01*
X106553142Y-50490380D01*
X107553142Y-50490380D02*
X106981714Y-50490380D01*
X107267428Y-50490380D02*
X107267428Y-49490380D01*
X107172190Y-49633238D01*
X107076952Y-49728476D01*
X106981714Y-49776095D01*
X108124571Y-49918952D02*
X108029333Y-49871333D01*
X107981714Y-49823714D01*
X107934095Y-49728476D01*
X107934095Y-49680857D01*
X107981714Y-49585619D01*
X108029333Y-49538000D01*
X108124571Y-49490380D01*
X108315047Y-49490380D01*
X108410285Y-49538000D01*
X108457904Y-49585619D01*
X108505523Y-49680857D01*
X108505523Y-49728476D01*
X108457904Y-49823714D01*
X108410285Y-49871333D01*
X108315047Y-49918952D01*
X108124571Y-49918952D01*
X108029333Y-49966571D01*
X107981714Y-50014190D01*
X107934095Y-50109428D01*
X107934095Y-50299904D01*
X107981714Y-50395142D01*
X108029333Y-50442761D01*
X108124571Y-50490380D01*
X108315047Y-50490380D01*
X108410285Y-50442761D01*
X108457904Y-50395142D01*
X108505523Y-50299904D01*
X108505523Y-50109428D01*
X108457904Y-50014190D01*
X108410285Y-49966571D01*
X108315047Y-49918952D01*
X109124571Y-49490380D02*
X109219809Y-49490380D01*
X109315047Y-49538000D01*
X109362666Y-49585619D01*
X109410285Y-49680857D01*
X109457904Y-49871333D01*
X109457904Y-50109428D01*
X109410285Y-50299904D01*
X109362666Y-50395142D01*
X109315047Y-50442761D01*
X109219809Y-50490380D01*
X109124571Y-50490380D01*
X109029333Y-50442761D01*
X108981714Y-50395142D01*
X108934095Y-50299904D01*
X108886476Y-50109428D01*
X108886476Y-49871333D01*
X108934095Y-49680857D01*
X108981714Y-49585619D01*
X109029333Y-49538000D01*
X109124571Y-49490380D01*
X110029333Y-49918952D02*
X109934095Y-49871333D01*
X109886476Y-49823714D01*
X109838857Y-49728476D01*
X109838857Y-49680857D01*
X109886476Y-49585619D01*
X109934095Y-49538000D01*
X110029333Y-49490380D01*
X110219809Y-49490380D01*
X110315047Y-49538000D01*
X110362666Y-49585619D01*
X110410285Y-49680857D01*
X110410285Y-49728476D01*
X110362666Y-49823714D01*
X110315047Y-49871333D01*
X110219809Y-49918952D01*
X110029333Y-49918952D01*
X109934095Y-49966571D01*
X109886476Y-50014190D01*
X109838857Y-50109428D01*
X109838857Y-50299904D01*
X109886476Y-50395142D01*
X109934095Y-50442761D01*
X110029333Y-50490380D01*
X110219809Y-50490380D01*
X110315047Y-50442761D01*
X110362666Y-50395142D01*
X110410285Y-50299904D01*
X110410285Y-50109428D01*
X110362666Y-50014190D01*
X110315047Y-49966571D01*
X110219809Y-49918952D01*
X168910047Y-59380428D02*
X169671952Y-59380428D01*
X169291000Y-59761380D02*
X169291000Y-58999476D01*
X179744666Y-32178476D02*
X179744666Y-31702285D01*
X180030380Y-32273714D02*
X179030380Y-31940380D01*
X180030380Y-31607047D01*
X180030380Y-30749904D02*
X180030380Y-31321333D01*
X180030380Y-31035619D02*
X179030380Y-31035619D01*
X179173238Y-31130857D01*
X179268476Y-31226095D01*
X179316095Y-31321333D01*
X179030380Y-30416571D02*
X179030380Y-29749904D01*
X180030380Y-30178476D01*
X177204666Y-32178476D02*
X177204666Y-31702285D01*
X177490380Y-32273714D02*
X176490380Y-31940380D01*
X177490380Y-31607047D01*
X177490380Y-30749904D02*
X177490380Y-31321333D01*
X177490380Y-31035619D02*
X176490380Y-31035619D01*
X176633238Y-31130857D01*
X176728476Y-31226095D01*
X176776095Y-31321333D01*
X176918952Y-30178476D02*
X176871333Y-30273714D01*
X176823714Y-30321333D01*
X176728476Y-30368952D01*
X176680857Y-30368952D01*
X176585619Y-30321333D01*
X176538000Y-30273714D01*
X176490380Y-30178476D01*
X176490380Y-29988000D01*
X176538000Y-29892761D01*
X176585619Y-29845142D01*
X176680857Y-29797523D01*
X176728476Y-29797523D01*
X176823714Y-29845142D01*
X176871333Y-29892761D01*
X176918952Y-29988000D01*
X176918952Y-30178476D01*
X176966571Y-30273714D01*
X177014190Y-30321333D01*
X177109428Y-30368952D01*
X177299904Y-30368952D01*
X177395142Y-30321333D01*
X177442761Y-30273714D01*
X177490380Y-30178476D01*
X177490380Y-29988000D01*
X177442761Y-29892761D01*
X177395142Y-29845142D01*
X177299904Y-29797523D01*
X177109428Y-29797523D01*
X177014190Y-29845142D01*
X176966571Y-29892761D01*
X176918952Y-29988000D01*
X174664666Y-32178476D02*
X174664666Y-31702285D01*
X174950380Y-32273714D02*
X173950380Y-31940380D01*
X174950380Y-31607047D01*
X174950380Y-30749904D02*
X174950380Y-31321333D01*
X174950380Y-31035619D02*
X173950380Y-31035619D01*
X174093238Y-31130857D01*
X174188476Y-31226095D01*
X174236095Y-31321333D01*
X174950380Y-30273714D02*
X174950380Y-30083238D01*
X174902761Y-29988000D01*
X174855142Y-29940380D01*
X174712285Y-29845142D01*
X174521809Y-29797523D01*
X174140857Y-29797523D01*
X174045619Y-29845142D01*
X173998000Y-29892761D01*
X173950380Y-29988000D01*
X173950380Y-30178476D01*
X173998000Y-30273714D01*
X174045619Y-30321333D01*
X174140857Y-30368952D01*
X174378952Y-30368952D01*
X174474190Y-30321333D01*
X174521809Y-30273714D01*
X174569428Y-30178476D01*
X174569428Y-29988000D01*
X174521809Y-29892761D01*
X174474190Y-29845142D01*
X174378952Y-29797523D01*
X172124666Y-32178476D02*
X172124666Y-31702285D01*
X172410380Y-32273714D02*
X171410380Y-31940380D01*
X172410380Y-31607047D01*
X171505619Y-31321333D02*
X171458000Y-31273714D01*
X171410380Y-31178476D01*
X171410380Y-30940380D01*
X171458000Y-30845142D01*
X171505619Y-30797523D01*
X171600857Y-30749904D01*
X171696095Y-30749904D01*
X171838952Y-30797523D01*
X172410380Y-31368952D01*
X172410380Y-30749904D01*
X171410380Y-30130857D02*
X171410380Y-30035619D01*
X171458000Y-29940380D01*
X171505619Y-29892761D01*
X171600857Y-29845142D01*
X171791333Y-29797523D01*
X172029428Y-29797523D01*
X172219904Y-29845142D01*
X172315142Y-29892761D01*
X172362761Y-29940380D01*
X172410380Y-30035619D01*
X172410380Y-30130857D01*
X172362761Y-30226095D01*
X172315142Y-30273714D01*
X172219904Y-30321333D01*
X172029428Y-30368952D01*
X171791333Y-30368952D01*
X171600857Y-30321333D01*
X171505619Y-30273714D01*
X171458000Y-30226095D01*
X171410380Y-30130857D01*
X107174309Y-81622380D02*
X107174309Y-82336666D01*
X107126690Y-82479523D01*
X107031452Y-82574761D01*
X106888595Y-82622380D01*
X106793357Y-82622380D01*
X107650500Y-81622380D02*
X107650500Y-82431904D01*
X107698119Y-82527142D01*
X107745738Y-82574761D01*
X107840976Y-82622380D01*
X108031452Y-82622380D01*
X108126690Y-82574761D01*
X108174309Y-82527142D01*
X108221928Y-82431904D01*
X108221928Y-81622380D01*
X108698119Y-82622380D02*
X108698119Y-81622380D01*
X109031452Y-82336666D01*
X109364785Y-81622380D01*
X109364785Y-82622380D01*
X109840976Y-82622380D02*
X109840976Y-81622380D01*
X110221928Y-81622380D01*
X110317166Y-81670000D01*
X110364785Y-81717619D01*
X110412404Y-81812857D01*
X110412404Y-81955714D01*
X110364785Y-82050952D01*
X110317166Y-82098571D01*
X110221928Y-82146190D01*
X109840976Y-82146190D01*
X110840976Y-82098571D02*
X111174309Y-82098571D01*
X111317166Y-82622380D02*
X110840976Y-82622380D01*
X110840976Y-81622380D01*
X111317166Y-81622380D01*
X112317166Y-82622380D02*
X111983833Y-82146190D01*
X111745738Y-82622380D02*
X111745738Y-81622380D01*
X112126690Y-81622380D01*
X112221928Y-81670000D01*
X112269547Y-81717619D01*
X112317166Y-81812857D01*
X112317166Y-81955714D01*
X112269547Y-82050952D01*
X112221928Y-82098571D01*
X112126690Y-82146190D01*
X111745738Y-82146190D01*
X112698119Y-82574761D02*
X112840976Y-82622380D01*
X113079071Y-82622380D01*
X113174309Y-82574761D01*
X113221928Y-82527142D01*
X113269547Y-82431904D01*
X113269547Y-82336666D01*
X113221928Y-82241428D01*
X113174309Y-82193809D01*
X113079071Y-82146190D01*
X112888595Y-82098571D01*
X112793357Y-82050952D01*
X112745738Y-82003333D01*
X112698119Y-81908095D01*
X112698119Y-81812857D01*
X112745738Y-81717619D01*
X112793357Y-81670000D01*
X112888595Y-81622380D01*
X113126690Y-81622380D01*
X113269547Y-81670000D01*
X113698119Y-82527142D02*
X113745738Y-82574761D01*
X113698119Y-82622380D01*
X113650500Y-82574761D01*
X113698119Y-82527142D01*
X113698119Y-82622380D01*
X113698119Y-82003333D02*
X113745738Y-82050952D01*
X113698119Y-82098571D01*
X113650500Y-82050952D01*
X113698119Y-82003333D01*
X113698119Y-82098571D01*
X106888595Y-84272380D02*
X106888595Y-83272380D01*
X106888595Y-83748571D02*
X107460023Y-83748571D01*
X107460023Y-84272380D02*
X107460023Y-83272380D01*
X108698119Y-83891428D02*
X109460023Y-83891428D01*
X110698119Y-84272380D02*
X110698119Y-83272380D01*
X110698119Y-83748571D02*
X111269547Y-83748571D01*
X111269547Y-84272380D02*
X111269547Y-83272380D01*
X111745738Y-84272380D02*
X111745738Y-83272380D01*
X112793357Y-84272380D02*
X112460023Y-83796190D01*
X112221928Y-84272380D02*
X112221928Y-83272380D01*
X112602880Y-83272380D01*
X112698119Y-83320000D01*
X112745738Y-83367619D01*
X112793357Y-83462857D01*
X112793357Y-83605714D01*
X112745738Y-83700952D01*
X112698119Y-83748571D01*
X112602880Y-83796190D01*
X112221928Y-83796190D01*
X113412404Y-83272380D02*
X113602880Y-83272380D01*
X113698119Y-83320000D01*
X113793357Y-83415238D01*
X113840976Y-83605714D01*
X113840976Y-83939047D01*
X113793357Y-84129523D01*
X113698119Y-84224761D01*
X113602880Y-84272380D01*
X113412404Y-84272380D01*
X113317166Y-84224761D01*
X113221928Y-84129523D01*
X113174309Y-83939047D01*
X113174309Y-83605714D01*
X113221928Y-83415238D01*
X113317166Y-83320000D01*
X113412404Y-83272380D01*
X114269547Y-84272380D02*
X114269547Y-83272380D01*
X114602880Y-83986666D01*
X114936214Y-83272380D01*
X114936214Y-84272380D01*
X107364785Y-85922380D02*
X106888595Y-85922380D01*
X106888595Y-84922380D01*
X108460023Y-85541428D02*
X109221928Y-85541428D01*
X110936214Y-85922380D02*
X110460023Y-85922380D01*
X110460023Y-84922380D01*
X111460023Y-84922380D02*
X111650500Y-84922380D01*
X111745738Y-84970000D01*
X111840976Y-85065238D01*
X111888595Y-85255714D01*
X111888595Y-85589047D01*
X111840976Y-85779523D01*
X111745738Y-85874761D01*
X111650500Y-85922380D01*
X111460023Y-85922380D01*
X111364785Y-85874761D01*
X111269547Y-85779523D01*
X111221928Y-85589047D01*
X111221928Y-85255714D01*
X111269547Y-85065238D01*
X111364785Y-84970000D01*
X111460023Y-84922380D01*
X112888595Y-85922380D02*
X112555261Y-85446190D01*
X112317166Y-85922380D02*
X112317166Y-84922380D01*
X112698119Y-84922380D01*
X112793357Y-84970000D01*
X112840976Y-85017619D01*
X112888595Y-85112857D01*
X112888595Y-85255714D01*
X112840976Y-85350952D01*
X112793357Y-85398571D01*
X112698119Y-85446190D01*
X112317166Y-85446190D01*
X113507642Y-84922380D02*
X113698119Y-84922380D01*
X113793357Y-84970000D01*
X113888595Y-85065238D01*
X113936214Y-85255714D01*
X113936214Y-85589047D01*
X113888595Y-85779523D01*
X113793357Y-85874761D01*
X113698119Y-85922380D01*
X113507642Y-85922380D01*
X113412404Y-85874761D01*
X113317166Y-85779523D01*
X113269547Y-85589047D01*
X113269547Y-85255714D01*
X113317166Y-85065238D01*
X113412404Y-84970000D01*
X113507642Y-84922380D01*
X114364785Y-85922380D02*
X114364785Y-84922380D01*
X114698119Y-85636666D01*
X115031452Y-84922380D01*
X115031452Y-85922380D01*
X95754285Y-31134857D02*
X95254285Y-31134857D01*
X95254285Y-31920571D02*
X95254285Y-30420571D01*
X95968571Y-30420571D01*
X96540000Y-31920571D02*
X96540000Y-30920571D01*
X96540000Y-31206285D02*
X96611428Y-31063428D01*
X96682857Y-30992000D01*
X96825714Y-30920571D01*
X96968571Y-30920571D01*
X97682857Y-31920571D02*
X97540000Y-31849142D01*
X97468571Y-31777714D01*
X97397142Y-31634857D01*
X97397142Y-31206285D01*
X97468571Y-31063428D01*
X97540000Y-30992000D01*
X97682857Y-30920571D01*
X97897142Y-30920571D01*
X98040000Y-30992000D01*
X98111428Y-31063428D01*
X98182857Y-31206285D01*
X98182857Y-31634857D01*
X98111428Y-31777714D01*
X98040000Y-31849142D01*
X97897142Y-31920571D01*
X97682857Y-31920571D01*
X98825714Y-30920571D02*
X98825714Y-31920571D01*
X98825714Y-31063428D02*
X98897142Y-30992000D01*
X99040000Y-30920571D01*
X99254285Y-30920571D01*
X99397142Y-30992000D01*
X99468571Y-31134857D01*
X99468571Y-31920571D01*
X99968571Y-30920571D02*
X100540000Y-30920571D01*
X100182857Y-30420571D02*
X100182857Y-31706285D01*
X100254285Y-31849142D01*
X100397142Y-31920571D01*
X100540000Y-31920571D01*
X177034285Y-90189857D02*
X176534285Y-90189857D01*
X176534285Y-90975571D02*
X176534285Y-89475571D01*
X177248571Y-89475571D01*
X177820000Y-90975571D02*
X177820000Y-89975571D01*
X177820000Y-90261285D02*
X177891428Y-90118428D01*
X177962857Y-90047000D01*
X178105714Y-89975571D01*
X178248571Y-89975571D01*
X178962857Y-90975571D02*
X178820000Y-90904142D01*
X178748571Y-90832714D01*
X178677142Y-90689857D01*
X178677142Y-90261285D01*
X178748571Y-90118428D01*
X178820000Y-90047000D01*
X178962857Y-89975571D01*
X179177142Y-89975571D01*
X179320000Y-90047000D01*
X179391428Y-90118428D01*
X179462857Y-90261285D01*
X179462857Y-90689857D01*
X179391428Y-90832714D01*
X179320000Y-90904142D01*
X179177142Y-90975571D01*
X178962857Y-90975571D01*
X180105714Y-89975571D02*
X180105714Y-90975571D01*
X180105714Y-90118428D02*
X180177142Y-90047000D01*
X180320000Y-89975571D01*
X180534285Y-89975571D01*
X180677142Y-90047000D01*
X180748571Y-90189857D01*
X180748571Y-90975571D01*
X181248571Y-89975571D02*
X181820000Y-89975571D01*
X181462857Y-89475571D02*
X181462857Y-90761285D01*
X181534285Y-90904142D01*
X181677142Y-90975571D01*
X181820000Y-90975571D01*
X92706285Y-91840857D02*
X92206285Y-91840857D01*
X92206285Y-92626571D02*
X92206285Y-91126571D01*
X92920571Y-91126571D01*
X93492000Y-92626571D02*
X93492000Y-91626571D01*
X93492000Y-91912285D02*
X93563428Y-91769428D01*
X93634857Y-91698000D01*
X93777714Y-91626571D01*
X93920571Y-91626571D01*
X94634857Y-92626571D02*
X94492000Y-92555142D01*
X94420571Y-92483714D01*
X94349142Y-92340857D01*
X94349142Y-91912285D01*
X94420571Y-91769428D01*
X94492000Y-91698000D01*
X94634857Y-91626571D01*
X94849142Y-91626571D01*
X94992000Y-91698000D01*
X95063428Y-91769428D01*
X95134857Y-91912285D01*
X95134857Y-92340857D01*
X95063428Y-92483714D01*
X94992000Y-92555142D01*
X94849142Y-92626571D01*
X94634857Y-92626571D01*
X95777714Y-91626571D02*
X95777714Y-92626571D01*
X95777714Y-91769428D02*
X95849142Y-91698000D01*
X95992000Y-91626571D01*
X96206285Y-91626571D01*
X96349142Y-91698000D01*
X96420571Y-91840857D01*
X96420571Y-92626571D01*
X96920571Y-91626571D02*
X97492000Y-91626571D01*
X97134857Y-91126571D02*
X97134857Y-92412285D01*
X97206285Y-92555142D01*
X97349142Y-92626571D01*
X97492000Y-92626571D01*
X150068000Y-81519142D02*
X150282285Y-81590571D01*
X150639428Y-81590571D01*
X150782285Y-81519142D01*
X150853714Y-81447714D01*
X150925142Y-81304857D01*
X150925142Y-81162000D01*
X150853714Y-81019142D01*
X150782285Y-80947714D01*
X150639428Y-80876285D01*
X150353714Y-80804857D01*
X150210857Y-80733428D01*
X150139428Y-80662000D01*
X150068000Y-80519142D01*
X150068000Y-80376285D01*
X150139428Y-80233428D01*
X150210857Y-80162000D01*
X150353714Y-80090571D01*
X150710857Y-80090571D01*
X150925142Y-80162000D01*
X151568000Y-81590571D02*
X151568000Y-80090571D01*
X152425142Y-81590571D01*
X152425142Y-80090571D01*
X153139428Y-80804857D02*
X153639428Y-80804857D01*
X153853714Y-81590571D02*
X153139428Y-81590571D01*
X153139428Y-80090571D01*
X153853714Y-80090571D01*
X154425142Y-81519142D02*
X154639428Y-81590571D01*
X154996571Y-81590571D01*
X155139428Y-81519142D01*
X155210857Y-81447714D01*
X155282285Y-81304857D01*
X155282285Y-81162000D01*
X155210857Y-81019142D01*
X155139428Y-80947714D01*
X154996571Y-80876285D01*
X154710857Y-80804857D01*
X154568000Y-80733428D01*
X154496571Y-80662000D01*
X154425142Y-80519142D01*
X154425142Y-80376285D01*
X154496571Y-80233428D01*
X154568000Y-80162000D01*
X154710857Y-80090571D01*
X155068000Y-80090571D01*
X155282285Y-80162000D01*
X157568000Y-80804857D02*
X157068000Y-80804857D01*
X157068000Y-81590571D02*
X157068000Y-80090571D01*
X157782285Y-80090571D01*
X158925142Y-81519142D02*
X158782285Y-81590571D01*
X158496571Y-81590571D01*
X158353714Y-81519142D01*
X158282285Y-81376285D01*
X158282285Y-80804857D01*
X158353714Y-80662000D01*
X158496571Y-80590571D01*
X158782285Y-80590571D01*
X158925142Y-80662000D01*
X158996571Y-80804857D01*
X158996571Y-80947714D01*
X158282285Y-81090571D01*
X160496571Y-81590571D02*
X159996571Y-80876285D01*
X159639428Y-81590571D02*
X159639428Y-80090571D01*
X160210857Y-80090571D01*
X160353714Y-80162000D01*
X160425142Y-80233428D01*
X160496571Y-80376285D01*
X160496571Y-80590571D01*
X160425142Y-80733428D01*
X160353714Y-80804857D01*
X160210857Y-80876285D01*
X159639428Y-80876285D01*
X161068000Y-81162000D02*
X161782285Y-81162000D01*
X160925142Y-81590571D02*
X161425142Y-80090571D01*
X161925142Y-81590571D01*
X162425142Y-81590571D02*
X162425142Y-80090571D01*
X162925142Y-81162000D01*
X163425142Y-80090571D01*
X163425142Y-81590571D01*
X166139428Y-81447714D02*
X166068000Y-81519142D01*
X165853714Y-81590571D01*
X165710857Y-81590571D01*
X165496571Y-81519142D01*
X165353714Y-81376285D01*
X165282285Y-81233428D01*
X165210857Y-80947714D01*
X165210857Y-80733428D01*
X165282285Y-80447714D01*
X165353714Y-80304857D01*
X165496571Y-80162000D01*
X165710857Y-80090571D01*
X165853714Y-80090571D01*
X166068000Y-80162000D01*
X166139428Y-80233428D01*
X166710857Y-81162000D02*
X167425142Y-81162000D01*
X166568000Y-81590571D02*
X167068000Y-80090571D01*
X167568000Y-81590571D01*
X168925142Y-81590571D02*
X168425142Y-80876285D01*
X168068000Y-81590571D02*
X168068000Y-80090571D01*
X168639428Y-80090571D01*
X168782285Y-80162000D01*
X168853714Y-80233428D01*
X168925142Y-80376285D01*
X168925142Y-80590571D01*
X168853714Y-80733428D01*
X168782285Y-80804857D01*
X168639428Y-80876285D01*
X168068000Y-80876285D01*
X169353714Y-80090571D02*
X170210857Y-80090571D01*
X169782285Y-81590571D02*
X169782285Y-80090571D01*
X171639428Y-80090571D02*
X172139428Y-81590571D01*
X172639428Y-80090571D01*
X172996571Y-80090571D02*
X173925142Y-80090571D01*
X173425142Y-80662000D01*
X173639428Y-80662000D01*
X173782285Y-80733428D01*
X173853714Y-80804857D01*
X173925142Y-80947714D01*
X173925142Y-81304857D01*
X173853714Y-81447714D01*
X173782285Y-81519142D01*
X173639428Y-81590571D01*
X173210857Y-81590571D01*
X173068000Y-81519142D01*
X172996571Y-81447714D01*
X174568000Y-81447714D02*
X174639428Y-81519142D01*
X174568000Y-81590571D01*
X174496571Y-81519142D01*
X174568000Y-81447714D01*
X174568000Y-81590571D01*
X176068000Y-81590571D02*
X175210857Y-81590571D01*
X175639428Y-81590571D02*
X175639428Y-80090571D01*
X175496571Y-80304857D01*
X175353714Y-80447714D01*
X175210857Y-80519142D01*
X156818000Y-83919142D02*
X157032285Y-83990571D01*
X157389428Y-83990571D01*
X157532285Y-83919142D01*
X157603714Y-83847714D01*
X157675142Y-83704857D01*
X157675142Y-83562000D01*
X157603714Y-83419142D01*
X157532285Y-83347714D01*
X157389428Y-83276285D01*
X157103714Y-83204857D01*
X156960857Y-83133428D01*
X156889428Y-83062000D01*
X156818000Y-82919142D01*
X156818000Y-82776285D01*
X156889428Y-82633428D01*
X156960857Y-82562000D01*
X157103714Y-82490571D01*
X157460857Y-82490571D01*
X157675142Y-82562000D01*
X158532285Y-83990571D02*
X158389428Y-83919142D01*
X158318000Y-83847714D01*
X158246571Y-83704857D01*
X158246571Y-83276285D01*
X158318000Y-83133428D01*
X158389428Y-83062000D01*
X158532285Y-82990571D01*
X158746571Y-82990571D01*
X158889428Y-83062000D01*
X158960857Y-83133428D01*
X159032285Y-83276285D01*
X159032285Y-83704857D01*
X158960857Y-83847714D01*
X158889428Y-83919142D01*
X158746571Y-83990571D01*
X158532285Y-83990571D01*
X159675142Y-82990571D02*
X159675142Y-83990571D01*
X159675142Y-83133428D02*
X159746571Y-83062000D01*
X159889428Y-82990571D01*
X160103714Y-82990571D01*
X160246571Y-83062000D01*
X160318000Y-83204857D01*
X160318000Y-83990571D01*
X161032285Y-83990571D02*
X161032285Y-82990571D01*
X161032285Y-82490571D02*
X160960857Y-82562000D01*
X161032285Y-82633428D01*
X161103714Y-82562000D01*
X161032285Y-82490571D01*
X161032285Y-82633428D01*
X162389428Y-83919142D02*
X162246571Y-83990571D01*
X161960857Y-83990571D01*
X161818000Y-83919142D01*
X161746571Y-83847714D01*
X161675142Y-83704857D01*
X161675142Y-83276285D01*
X161746571Y-83133428D01*
X161818000Y-83062000D01*
X161960857Y-82990571D01*
X162246571Y-82990571D01*
X162389428Y-83062000D01*
X163675142Y-83919142D02*
X163532285Y-83990571D01*
X163246571Y-83990571D01*
X163103714Y-83919142D01*
X163032285Y-83847714D01*
X162960857Y-83704857D01*
X162960857Y-83276285D01*
X163032285Y-83133428D01*
X163103714Y-83062000D01*
X163246571Y-82990571D01*
X163532285Y-82990571D01*
X163675142Y-83062000D01*
X164960857Y-83990571D02*
X164960857Y-82490571D01*
X164960857Y-83919142D02*
X164818000Y-83990571D01*
X164532285Y-83990571D01*
X164389428Y-83919142D01*
X164318000Y-83847714D01*
X164246571Y-83704857D01*
X164246571Y-83276285D01*
X164318000Y-83133428D01*
X164389428Y-83062000D01*
X164532285Y-82990571D01*
X164818000Y-82990571D01*
X164960857Y-83062000D01*
X166460857Y-83990571D02*
X165603714Y-83990571D01*
X166032285Y-83990571D02*
X166032285Y-82490571D01*
X165889428Y-82704857D01*
X165746571Y-82847714D01*
X165603714Y-82919142D01*
X167032285Y-82633428D02*
X167103714Y-82562000D01*
X167246571Y-82490571D01*
X167603714Y-82490571D01*
X167746571Y-82562000D01*
X167818000Y-82633428D01*
X167889428Y-82776285D01*
X167889428Y-82919142D01*
X167818000Y-83133428D01*
X166960857Y-83990571D01*
X167889428Y-83990571D01*
X168389428Y-82490571D02*
X169318000Y-82490571D01*
X168818000Y-83062000D01*
X169032285Y-83062000D01*
X169175142Y-83133428D01*
X169246571Y-83204857D01*
X169318000Y-83347714D01*
X169318000Y-83704857D01*
X169246571Y-83847714D01*
X169175142Y-83919142D01*
X169032285Y-83990571D01*
X168603714Y-83990571D01*
X168460857Y-83919142D01*
X168389428Y-83847714D01*
X159925142Y-85033428D02*
X159996571Y-84962000D01*
X160139428Y-84890571D01*
X160496571Y-84890571D01*
X160639428Y-84962000D01*
X160710857Y-85033428D01*
X160782285Y-85176285D01*
X160782285Y-85319142D01*
X160710857Y-85533428D01*
X159853714Y-86390571D01*
X160782285Y-86390571D01*
X161710857Y-84890571D02*
X161853714Y-84890571D01*
X161996571Y-84962000D01*
X162068000Y-85033428D01*
X162139428Y-85176285D01*
X162210857Y-85462000D01*
X162210857Y-85819142D01*
X162139428Y-86104857D01*
X162068000Y-86247714D01*
X161996571Y-86319142D01*
X161853714Y-86390571D01*
X161710857Y-86390571D01*
X161568000Y-86319142D01*
X161496571Y-86247714D01*
X161425142Y-86104857D01*
X161353714Y-85819142D01*
X161353714Y-85462000D01*
X161425142Y-85176285D01*
X161496571Y-85033428D01*
X161568000Y-84962000D01*
X161710857Y-84890571D01*
X162782285Y-85033428D02*
X162853714Y-84962000D01*
X162996571Y-84890571D01*
X163353714Y-84890571D01*
X163496571Y-84962000D01*
X163568000Y-85033428D01*
X163639428Y-85176285D01*
X163639428Y-85319142D01*
X163568000Y-85533428D01*
X162710857Y-86390571D01*
X163639428Y-86390571D01*
X164568000Y-84890571D02*
X164710857Y-84890571D01*
X164853714Y-84962000D01*
X164925142Y-85033428D01*
X164996571Y-85176285D01*
X165068000Y-85462000D01*
X165068000Y-85819142D01*
X164996571Y-86104857D01*
X164925142Y-86247714D01*
X164853714Y-86319142D01*
X164710857Y-86390571D01*
X164568000Y-86390571D01*
X164425142Y-86319142D01*
X164353714Y-86247714D01*
X164282285Y-86104857D01*
X164210857Y-85819142D01*
X164210857Y-85462000D01*
X164282285Y-85176285D01*
X164353714Y-85033428D01*
X164425142Y-84962000D01*
X164568000Y-84890571D01*
X94804666Y-53794000D02*
X94104666Y-53794000D01*
X94438000Y-53794000D02*
X94438000Y-53394000D01*
X94804666Y-53394000D02*
X94104666Y-53394000D01*
X100638000Y-40067666D02*
X100638000Y-39367666D01*
X100638000Y-39701000D02*
X101038000Y-39701000D01*
X101038000Y-40067666D02*
X101038000Y-39367666D01*
X134674000Y-54037666D02*
X134674000Y-53337666D01*
X134674000Y-53671000D02*
X135074000Y-53671000D01*
X135074000Y-54037666D02*
X135074000Y-53337666D01*
X157153000Y-37146666D02*
X157153000Y-36446666D01*
X157153000Y-36780000D02*
X157553000Y-36780000D01*
X157553000Y-37146666D02*
X157553000Y-36446666D01*
X147628000Y-54418666D02*
X147628000Y-53718666D01*
X147628000Y-54052000D02*
X148028000Y-54052000D01*
X148028000Y-54418666D02*
X148028000Y-53718666D01*
X153724000Y-54418666D02*
X153724000Y-53718666D01*
X153724000Y-54052000D02*
X154124000Y-54052000D01*
X154124000Y-54418666D02*
X154124000Y-53718666D01*
X159693000Y-54418666D02*
X159693000Y-53718666D01*
X159693000Y-54052000D02*
X160093000Y-54052000D01*
X160093000Y-54418666D02*
X160093000Y-53718666D01*
X94804666Y-55663333D02*
X94804666Y-55996666D01*
X94104666Y-55996666D01*
X103340666Y-40067666D02*
X103007333Y-40067666D01*
X103007333Y-39367666D01*
X155283666Y-37146666D02*
X154950333Y-37146666D01*
X154950333Y-36446666D01*
X137503666Y-54037666D02*
X137170333Y-54037666D01*
X137170333Y-53337666D01*
X150457666Y-54418666D02*
X150124333Y-54418666D01*
X150124333Y-53718666D01*
X156426666Y-54418666D02*
X156093333Y-54418666D01*
X156093333Y-53718666D01*
X162395666Y-54291666D02*
X162062333Y-54291666D01*
X162062333Y-53591666D01*
D11*
G36*
X164154971Y-70165265D02*
G01*
X164195703Y-70366553D01*
X164234673Y-70527757D01*
X164265618Y-70624095D01*
X164274805Y-70639329D01*
X164339544Y-70674395D01*
X164467632Y-70732008D01*
X164587575Y-70781888D01*
X164862551Y-70892647D01*
X165230877Y-70638023D01*
X165400664Y-70523895D01*
X165540026Y-70436222D01*
X165627294Y-70388390D01*
X165643169Y-70383399D01*
X165697602Y-70417650D01*
X165799928Y-70506795D01*
X165929837Y-70630424D01*
X166067021Y-70768127D01*
X166191168Y-70899492D01*
X166281970Y-71004109D01*
X166319115Y-71061567D01*
X166319199Y-71062780D01*
X166291712Y-71120658D01*
X166218387Y-71239142D01*
X166112927Y-71396517D01*
X166067351Y-71461894D01*
X165815502Y-71819361D01*
X165894493Y-72003080D01*
X165961175Y-72163718D01*
X166018622Y-72310863D01*
X166023200Y-72323310D01*
X166115911Y-72447878D01*
X166208757Y-72486492D01*
X166331801Y-72510175D01*
X166510744Y-72544080D01*
X166662100Y-72572490D01*
X166979600Y-72631818D01*
X166979600Y-73627215D01*
X166590289Y-73690018D01*
X166392576Y-73730357D01*
X166227917Y-73779229D01*
X166127811Y-73827011D01*
X166120189Y-73833610D01*
X166059515Y-73925346D01*
X165989000Y-74075821D01*
X165944178Y-74194537D01*
X165848956Y-74474673D01*
X166084078Y-74811018D01*
X166193789Y-74973216D01*
X166276171Y-75105018D01*
X166317092Y-75183494D01*
X166319200Y-75192548D01*
X166284898Y-75247647D01*
X166195616Y-75350504D01*
X166071781Y-75480793D01*
X165933826Y-75618187D01*
X165802181Y-75742360D01*
X165697276Y-75832986D01*
X165639541Y-75869737D01*
X165638484Y-75869800D01*
X165579524Y-75842117D01*
X165461507Y-75768672D01*
X165307245Y-75663865D01*
X165265803Y-75634531D01*
X164936105Y-75399263D01*
X164760563Y-75482973D01*
X164638988Y-75531723D01*
X164558457Y-75547268D01*
X164549466Y-75544709D01*
X164519179Y-75492380D01*
X164458644Y-75362157D01*
X164375134Y-75170566D01*
X164275920Y-74934133D01*
X164211353Y-74776323D01*
X163908795Y-74029912D01*
X164100505Y-73876117D01*
X164321509Y-73643559D01*
X164449537Y-73380871D01*
X164482025Y-73098815D01*
X164416411Y-72808154D01*
X164376100Y-72718674D01*
X164206058Y-72480836D01*
X163986892Y-72319195D01*
X163736975Y-72234006D01*
X163474679Y-72225527D01*
X163218378Y-72294015D01*
X162986444Y-72439727D01*
X162797250Y-72662920D01*
X162777509Y-72696302D01*
X162678797Y-72966416D01*
X162674129Y-73245955D01*
X162759508Y-73517700D01*
X162930934Y-73764429D01*
X163051494Y-73876117D01*
X163243204Y-74029912D01*
X162940646Y-74776323D01*
X162835463Y-75031860D01*
X162741586Y-75252549D01*
X162666286Y-75421865D01*
X162616834Y-75523284D01*
X162602533Y-75544709D01*
X162538016Y-75539036D01*
X162422864Y-75497353D01*
X162391436Y-75482973D01*
X162215894Y-75399263D01*
X161886196Y-75634531D01*
X161726021Y-75744978D01*
X161595906Y-75827609D01*
X161518880Y-75867995D01*
X161510681Y-75869800D01*
X161456602Y-75835912D01*
X161351079Y-75745344D01*
X161212999Y-75614739D01*
X161148832Y-75550933D01*
X161007547Y-75403884D01*
X160898863Y-75282207D01*
X160839247Y-75204725D01*
X160832800Y-75189714D01*
X160860109Y-75130897D01*
X160932635Y-75012311D01*
X161036275Y-74856673D01*
X161067921Y-74811018D01*
X161303043Y-74474673D01*
X161207821Y-74194537D01*
X161141590Y-74026040D01*
X161072074Y-73889370D01*
X161031810Y-73833610D01*
X160944346Y-73786842D01*
X160787514Y-73737514D01*
X160592814Y-73695248D01*
X160561710Y-73690018D01*
X160172400Y-73627215D01*
X160172400Y-72631818D01*
X160489900Y-72572490D01*
X160681904Y-72536410D01*
X160852617Y-72503985D01*
X160943242Y-72486492D01*
X161075899Y-72412868D01*
X161128799Y-72323310D01*
X161183439Y-72182092D01*
X161250513Y-72019421D01*
X161257506Y-72003080D01*
X161336497Y-71819361D01*
X161084648Y-71461894D01*
X160970521Y-71295045D01*
X160883369Y-71158381D01*
X160836922Y-71073810D01*
X160832800Y-71059946D01*
X160867027Y-71005469D01*
X160956110Y-70903058D01*
X161079652Y-70773043D01*
X161217255Y-70635750D01*
X161348522Y-70511507D01*
X161453056Y-70420643D01*
X161510459Y-70383483D01*
X161511664Y-70383400D01*
X161569302Y-70410557D01*
X161688464Y-70483164D01*
X161847783Y-70587922D01*
X161924346Y-70640252D01*
X162295896Y-70897104D01*
X162589728Y-70773195D01*
X162738378Y-70706348D01*
X162838949Y-70640391D01*
X162905496Y-70552802D01*
X162952071Y-70421061D01*
X162992728Y-70222647D01*
X163015246Y-70091300D01*
X163077179Y-69723000D01*
X164072933Y-69723000D01*
X164154971Y-70165265D01*
X164154971Y-70165265D01*
G37*
X164154971Y-70165265D02*
X164195703Y-70366553D01*
X164234673Y-70527757D01*
X164265618Y-70624095D01*
X164274805Y-70639329D01*
X164339544Y-70674395D01*
X164467632Y-70732008D01*
X164587575Y-70781888D01*
X164862551Y-70892647D01*
X165230877Y-70638023D01*
X165400664Y-70523895D01*
X165540026Y-70436222D01*
X165627294Y-70388390D01*
X165643169Y-70383399D01*
X165697602Y-70417650D01*
X165799928Y-70506795D01*
X165929837Y-70630424D01*
X166067021Y-70768127D01*
X166191168Y-70899492D01*
X166281970Y-71004109D01*
X166319115Y-71061567D01*
X166319199Y-71062780D01*
X166291712Y-71120658D01*
X166218387Y-71239142D01*
X166112927Y-71396517D01*
X166067351Y-71461894D01*
X165815502Y-71819361D01*
X165894493Y-72003080D01*
X165961175Y-72163718D01*
X166018622Y-72310863D01*
X166023200Y-72323310D01*
X166115911Y-72447878D01*
X166208757Y-72486492D01*
X166331801Y-72510175D01*
X166510744Y-72544080D01*
X166662100Y-72572490D01*
X166979600Y-72631818D01*
X166979600Y-73627215D01*
X166590289Y-73690018D01*
X166392576Y-73730357D01*
X166227917Y-73779229D01*
X166127811Y-73827011D01*
X166120189Y-73833610D01*
X166059515Y-73925346D01*
X165989000Y-74075821D01*
X165944178Y-74194537D01*
X165848956Y-74474673D01*
X166084078Y-74811018D01*
X166193789Y-74973216D01*
X166276171Y-75105018D01*
X166317092Y-75183494D01*
X166319200Y-75192548D01*
X166284898Y-75247647D01*
X166195616Y-75350504D01*
X166071781Y-75480793D01*
X165933826Y-75618187D01*
X165802181Y-75742360D01*
X165697276Y-75832986D01*
X165639541Y-75869737D01*
X165638484Y-75869800D01*
X165579524Y-75842117D01*
X165461507Y-75768672D01*
X165307245Y-75663865D01*
X165265803Y-75634531D01*
X164936105Y-75399263D01*
X164760563Y-75482973D01*
X164638988Y-75531723D01*
X164558457Y-75547268D01*
X164549466Y-75544709D01*
X164519179Y-75492380D01*
X164458644Y-75362157D01*
X164375134Y-75170566D01*
X164275920Y-74934133D01*
X164211353Y-74776323D01*
X163908795Y-74029912D01*
X164100505Y-73876117D01*
X164321509Y-73643559D01*
X164449537Y-73380871D01*
X164482025Y-73098815D01*
X164416411Y-72808154D01*
X164376100Y-72718674D01*
X164206058Y-72480836D01*
X163986892Y-72319195D01*
X163736975Y-72234006D01*
X163474679Y-72225527D01*
X163218378Y-72294015D01*
X162986444Y-72439727D01*
X162797250Y-72662920D01*
X162777509Y-72696302D01*
X162678797Y-72966416D01*
X162674129Y-73245955D01*
X162759508Y-73517700D01*
X162930934Y-73764429D01*
X163051494Y-73876117D01*
X163243204Y-74029912D01*
X162940646Y-74776323D01*
X162835463Y-75031860D01*
X162741586Y-75252549D01*
X162666286Y-75421865D01*
X162616834Y-75523284D01*
X162602533Y-75544709D01*
X162538016Y-75539036D01*
X162422864Y-75497353D01*
X162391436Y-75482973D01*
X162215894Y-75399263D01*
X161886196Y-75634531D01*
X161726021Y-75744978D01*
X161595906Y-75827609D01*
X161518880Y-75867995D01*
X161510681Y-75869800D01*
X161456602Y-75835912D01*
X161351079Y-75745344D01*
X161212999Y-75614739D01*
X161148832Y-75550933D01*
X161007547Y-75403884D01*
X160898863Y-75282207D01*
X160839247Y-75204725D01*
X160832800Y-75189714D01*
X160860109Y-75130897D01*
X160932635Y-75012311D01*
X161036275Y-74856673D01*
X161067921Y-74811018D01*
X161303043Y-74474673D01*
X161207821Y-74194537D01*
X161141590Y-74026040D01*
X161072074Y-73889370D01*
X161031810Y-73833610D01*
X160944346Y-73786842D01*
X160787514Y-73737514D01*
X160592814Y-73695248D01*
X160561710Y-73690018D01*
X160172400Y-73627215D01*
X160172400Y-72631818D01*
X160489900Y-72572490D01*
X160681904Y-72536410D01*
X160852617Y-72503985D01*
X160943242Y-72486492D01*
X161075899Y-72412868D01*
X161128799Y-72323310D01*
X161183439Y-72182092D01*
X161250513Y-72019421D01*
X161257506Y-72003080D01*
X161336497Y-71819361D01*
X161084648Y-71461894D01*
X160970521Y-71295045D01*
X160883369Y-71158381D01*
X160836922Y-71073810D01*
X160832800Y-71059946D01*
X160867027Y-71005469D01*
X160956110Y-70903058D01*
X161079652Y-70773043D01*
X161217255Y-70635750D01*
X161348522Y-70511507D01*
X161453056Y-70420643D01*
X161510459Y-70383483D01*
X161511664Y-70383400D01*
X161569302Y-70410557D01*
X161688464Y-70483164D01*
X161847783Y-70587922D01*
X161924346Y-70640252D01*
X162295896Y-70897104D01*
X162589728Y-70773195D01*
X162738378Y-70706348D01*
X162838949Y-70640391D01*
X162905496Y-70552802D01*
X162952071Y-70421061D01*
X162992728Y-70222647D01*
X163015246Y-70091300D01*
X163077179Y-69723000D01*
X164072933Y-69723000D01*
X164154971Y-70165265D01*
G36*
X167758126Y-76565353D02*
G01*
X167888144Y-76669866D01*
X167942979Y-76842315D01*
X167944800Y-76888680D01*
X167944800Y-77089000D01*
X167666994Y-77089000D01*
X167505341Y-77094470D01*
X167427070Y-77114311D01*
X167414384Y-77153667D01*
X167416922Y-77161272D01*
X167497457Y-77250396D01*
X167622722Y-77264354D01*
X167700406Y-77236258D01*
X167801471Y-77209567D01*
X167887226Y-77264945D01*
X167941177Y-77334480D01*
X167915811Y-77387293D01*
X167871590Y-77422304D01*
X167702478Y-77490113D01*
X167511858Y-77481452D01*
X167340587Y-77400059D01*
X167307490Y-77370709D01*
X167224373Y-77260190D01*
X167188148Y-77122413D01*
X167182800Y-76999288D01*
X167210610Y-76802491D01*
X167441971Y-76802491D01*
X167456489Y-76852692D01*
X167549605Y-76883110D01*
X167600085Y-76885800D01*
X167706608Y-76881080D01*
X167726489Y-76856636D01*
X167680224Y-76802653D01*
X167583498Y-76748945D01*
X167516939Y-76750259D01*
X167441971Y-76802491D01*
X167210610Y-76802491D01*
X167215452Y-76768232D01*
X167311834Y-76613365D01*
X167469586Y-76537668D01*
X167554475Y-76530200D01*
X167758126Y-76565353D01*
X167758126Y-76565353D01*
G37*
X167758126Y-76565353D02*
X167888144Y-76669866D01*
X167942979Y-76842315D01*
X167944800Y-76888680D01*
X167944800Y-77089000D01*
X167666994Y-77089000D01*
X167505341Y-77094470D01*
X167427070Y-77114311D01*
X167414384Y-77153667D01*
X167416922Y-77161272D01*
X167497457Y-77250396D01*
X167622722Y-77264354D01*
X167700406Y-77236258D01*
X167801471Y-77209567D01*
X167887226Y-77264945D01*
X167941177Y-77334480D01*
X167915811Y-77387293D01*
X167871590Y-77422304D01*
X167702478Y-77490113D01*
X167511858Y-77481452D01*
X167340587Y-77400059D01*
X167307490Y-77370709D01*
X167224373Y-77260190D01*
X167188148Y-77122413D01*
X167182800Y-76999288D01*
X167210610Y-76802491D01*
X167441971Y-76802491D01*
X167456489Y-76852692D01*
X167549605Y-76883110D01*
X167600085Y-76885800D01*
X167706608Y-76881080D01*
X167726489Y-76856636D01*
X167680224Y-76802653D01*
X167583498Y-76748945D01*
X167516939Y-76750259D01*
X167441971Y-76802491D01*
X167210610Y-76802491D01*
X167215452Y-76768232D01*
X167311834Y-76613365D01*
X167469586Y-76537668D01*
X167554475Y-76530200D01*
X167758126Y-76565353D01*
G36*
X166994343Y-76563828D02*
G01*
X167100036Y-76616693D01*
X167153002Y-76684964D01*
X167131649Y-76760505D01*
X167111128Y-76780441D01*
X167019926Y-76815917D01*
X166932047Y-76785937D01*
X166794990Y-76758543D01*
X166683925Y-76815162D01*
X166627168Y-76938234D01*
X166624777Y-76976487D01*
X166646660Y-77139116D01*
X166718485Y-77218970D01*
X166853037Y-77227834D01*
X166890801Y-77221715D01*
X167041543Y-77215843D01*
X167132713Y-77254579D01*
X167150656Y-77323411D01*
X167081717Y-77407826D01*
X167072318Y-77414623D01*
X166897913Y-77484615D01*
X166709007Y-77481058D01*
X166547471Y-77405555D01*
X166534318Y-77394000D01*
X166433564Y-77243558D01*
X166389352Y-77054886D01*
X166400021Y-76859808D01*
X166463912Y-76690145D01*
X166576827Y-76579058D01*
X166711147Y-76536872D01*
X166857516Y-76534508D01*
X166994343Y-76563828D01*
X166994343Y-76563828D01*
G37*
X166994343Y-76563828D02*
X167100036Y-76616693D01*
X167153002Y-76684964D01*
X167131649Y-76760505D01*
X167111128Y-76780441D01*
X167019926Y-76815917D01*
X166932047Y-76785937D01*
X166794990Y-76758543D01*
X166683925Y-76815162D01*
X166627168Y-76938234D01*
X166624777Y-76976487D01*
X166646660Y-77139116D01*
X166718485Y-77218970D01*
X166853037Y-77227834D01*
X166890801Y-77221715D01*
X167041543Y-77215843D01*
X167132713Y-77254579D01*
X167150656Y-77323411D01*
X167081717Y-77407826D01*
X167072318Y-77414623D01*
X166897913Y-77484615D01*
X166709007Y-77481058D01*
X166547471Y-77405555D01*
X166534318Y-77394000D01*
X166433564Y-77243558D01*
X166389352Y-77054886D01*
X166400021Y-76859808D01*
X166463912Y-76690145D01*
X166576827Y-76579058D01*
X166711147Y-76536872D01*
X166857516Y-76534508D01*
X166994343Y-76563828D01*
G36*
X166278587Y-76540395D02*
G01*
X166397643Y-76553903D01*
X166439439Y-76570061D01*
X166435890Y-76644117D01*
X166373345Y-76721075D01*
X166287310Y-76766529D01*
X166239001Y-76764295D01*
X166130739Y-76756941D01*
X166059013Y-76835359D01*
X166021518Y-77003725D01*
X166014400Y-77171420D01*
X166011113Y-77348074D01*
X165996520Y-77445851D01*
X165963521Y-77487390D01*
X165912800Y-77495400D01*
X165865359Y-77488040D01*
X165835514Y-77453328D01*
X165819230Y-77372314D01*
X165812472Y-77226051D01*
X165811200Y-77018260D01*
X165811200Y-76541120D01*
X166113744Y-76536862D01*
X166278587Y-76540395D01*
X166278587Y-76540395D01*
G37*
X166278587Y-76540395D02*
X166397643Y-76553903D01*
X166439439Y-76570061D01*
X166435890Y-76644117D01*
X166373345Y-76721075D01*
X166287310Y-76766529D01*
X166239001Y-76764295D01*
X166130739Y-76756941D01*
X166059013Y-76835359D01*
X166021518Y-77003725D01*
X166014400Y-77171420D01*
X166011113Y-77348074D01*
X165996520Y-77445851D01*
X165963521Y-77487390D01*
X165912800Y-77495400D01*
X165865359Y-77488040D01*
X165835514Y-77453328D01*
X165819230Y-77372314D01*
X165812472Y-77226051D01*
X165811200Y-77018260D01*
X165811200Y-76541120D01*
X166113744Y-76536862D01*
X166278587Y-76540395D01*
G36*
X165034469Y-76535994D02*
G01*
X165074821Y-76568385D01*
X165095881Y-76649884D01*
X165107172Y-76803000D01*
X165110378Y-76873100D01*
X165120632Y-77054866D01*
X165137556Y-77157558D01*
X165170466Y-77203666D01*
X165228677Y-77215681D01*
X165252400Y-77216000D01*
X165319992Y-77209814D01*
X165359495Y-77176265D01*
X165380226Y-77092861D01*
X165391498Y-76937112D01*
X165394421Y-76873100D01*
X165404750Y-76691269D01*
X165421789Y-76588538D01*
X165454694Y-76542433D01*
X165512620Y-76530485D01*
X165534121Y-76530200D01*
X165592080Y-76533854D01*
X165628546Y-76557558D01*
X165648497Y-76620422D01*
X165656914Y-76741557D01*
X165658775Y-76940072D01*
X165658800Y-77008692D01*
X165658800Y-77487185D01*
X165360046Y-77488613D01*
X165166160Y-77477223D01*
X165016962Y-77445257D01*
X164966928Y-77421041D01*
X164916415Y-77363313D01*
X164883673Y-77264583D01*
X164863406Y-77102363D01*
X164853902Y-76941120D01*
X164835242Y-76530200D01*
X164965299Y-76530200D01*
X165034469Y-76535994D01*
X165034469Y-76535994D01*
G37*
X165034469Y-76535994D02*
X165074821Y-76568385D01*
X165095881Y-76649884D01*
X165107172Y-76803000D01*
X165110378Y-76873100D01*
X165120632Y-77054866D01*
X165137556Y-77157558D01*
X165170466Y-77203666D01*
X165228677Y-77215681D01*
X165252400Y-77216000D01*
X165319992Y-77209814D01*
X165359495Y-77176265D01*
X165380226Y-77092861D01*
X165391498Y-76937112D01*
X165394421Y-76873100D01*
X165404750Y-76691269D01*
X165421789Y-76588538D01*
X165454694Y-76542433D01*
X165512620Y-76530485D01*
X165534121Y-76530200D01*
X165592080Y-76533854D01*
X165628546Y-76557558D01*
X165648497Y-76620422D01*
X165656914Y-76741557D01*
X165658775Y-76940072D01*
X165658800Y-77008692D01*
X165658800Y-77487185D01*
X165360046Y-77488613D01*
X165166160Y-77477223D01*
X165016962Y-77445257D01*
X164966928Y-77421041D01*
X164916415Y-77363313D01*
X164883673Y-77264583D01*
X164863406Y-77102363D01*
X164853902Y-76941120D01*
X164835242Y-76530200D01*
X164965299Y-76530200D01*
X165034469Y-76535994D01*
G36*
X164540926Y-76565284D02*
G01*
X164642800Y-76631800D01*
X164721199Y-76772324D01*
X164751696Y-76961917D01*
X164735141Y-77160506D01*
X164672384Y-77328021D01*
X164626825Y-77384944D01*
X164461953Y-77476201D01*
X164272635Y-77486381D01*
X164097309Y-77414210D01*
X164082734Y-77402990D01*
X164003767Y-77283029D01*
X163962528Y-77106156D01*
X163961442Y-77007724D01*
X164186991Y-77007724D01*
X164191147Y-77136906D01*
X164219466Y-77207533D01*
X164315440Y-77242355D01*
X164424987Y-77208967D01*
X164489842Y-77140842D01*
X164524340Y-77008770D01*
X164501524Y-76884325D01*
X164437329Y-76791380D01*
X164347686Y-76753804D01*
X164255361Y-76789543D01*
X164209817Y-76875387D01*
X164186991Y-77007724D01*
X163961442Y-77007724D01*
X163960366Y-76910325D01*
X163998629Y-76733486D01*
X164055458Y-76635270D01*
X164191753Y-76552110D01*
X164367782Y-76528697D01*
X164540926Y-76565284D01*
X164540926Y-76565284D01*
G37*
X164540926Y-76565284D02*
X164642800Y-76631800D01*
X164721199Y-76772324D01*
X164751696Y-76961917D01*
X164735141Y-77160506D01*
X164672384Y-77328021D01*
X164626825Y-77384944D01*
X164461953Y-77476201D01*
X164272635Y-77486381D01*
X164097309Y-77414210D01*
X164082734Y-77402990D01*
X164003767Y-77283029D01*
X163962528Y-77106156D01*
X163961442Y-77007724D01*
X164186991Y-77007724D01*
X164191147Y-77136906D01*
X164219466Y-77207533D01*
X164315440Y-77242355D01*
X164424987Y-77208967D01*
X164489842Y-77140842D01*
X164524340Y-77008770D01*
X164501524Y-76884325D01*
X164437329Y-76791380D01*
X164347686Y-76753804D01*
X164255361Y-76789543D01*
X164209817Y-76875387D01*
X164186991Y-77007724D01*
X163961442Y-77007724D01*
X163960366Y-76910325D01*
X163998629Y-76733486D01*
X164055458Y-76635270D01*
X164191753Y-76552110D01*
X164367782Y-76528697D01*
X164540926Y-76565284D01*
G36*
X163653478Y-76547091D02*
G01*
X163784279Y-76589077D01*
X163807590Y-76603295D01*
X163874620Y-76665388D01*
X163859994Y-76720661D01*
X163823226Y-76760654D01*
X163739907Y-76816185D01*
X163644662Y-76793488D01*
X163628757Y-76785247D01*
X163522185Y-76752323D01*
X163431308Y-76759704D01*
X163388793Y-76800400D01*
X163397978Y-76834641D01*
X163467997Y-76873853D01*
X163556937Y-76885800D01*
X163741468Y-76916770D01*
X163848220Y-77011701D01*
X163880800Y-77164106D01*
X163837841Y-77327576D01*
X163721734Y-77440213D01*
X163551633Y-77493646D01*
X163346693Y-77479502D01*
X163238298Y-77444939D01*
X163115436Y-77367662D01*
X163087605Y-77277788D01*
X163129771Y-77208656D01*
X163191613Y-77165661D01*
X163265703Y-77175988D01*
X163362640Y-77226159D01*
X163472666Y-77282986D01*
X163538554Y-77286360D01*
X163602091Y-77237045D01*
X163608524Y-77230646D01*
X163654826Y-77175494D01*
X163639203Y-77143758D01*
X163545588Y-77120296D01*
X163479858Y-77109380D01*
X163269976Y-77047971D01*
X163149855Y-76948197D01*
X163122485Y-76815003D01*
X163190857Y-76653331D01*
X163197880Y-76643103D01*
X163282905Y-76564555D01*
X163413092Y-76532904D01*
X163492971Y-76530200D01*
X163653478Y-76547091D01*
X163653478Y-76547091D01*
G37*
X163653478Y-76547091D02*
X163784279Y-76589077D01*
X163807590Y-76603295D01*
X163874620Y-76665388D01*
X163859994Y-76720661D01*
X163823226Y-76760654D01*
X163739907Y-76816185D01*
X163644662Y-76793488D01*
X163628757Y-76785247D01*
X163522185Y-76752323D01*
X163431308Y-76759704D01*
X163388793Y-76800400D01*
X163397978Y-76834641D01*
X163467997Y-76873853D01*
X163556937Y-76885800D01*
X163741468Y-76916770D01*
X163848220Y-77011701D01*
X163880800Y-77164106D01*
X163837841Y-77327576D01*
X163721734Y-77440213D01*
X163551633Y-77493646D01*
X163346693Y-77479502D01*
X163238298Y-77444939D01*
X163115436Y-77367662D01*
X163087605Y-77277788D01*
X163129771Y-77208656D01*
X163191613Y-77165661D01*
X163265703Y-77175988D01*
X163362640Y-77226159D01*
X163472666Y-77282986D01*
X163538554Y-77286360D01*
X163602091Y-77237045D01*
X163608524Y-77230646D01*
X163654826Y-77175494D01*
X163639203Y-77143758D01*
X163545588Y-77120296D01*
X163479858Y-77109380D01*
X163269976Y-77047971D01*
X163149855Y-76948197D01*
X163122485Y-76815003D01*
X163190857Y-76653331D01*
X163197880Y-76643103D01*
X163282905Y-76564555D01*
X163413092Y-76532904D01*
X163492971Y-76530200D01*
X163653478Y-76547091D01*
G36*
X162347899Y-76541065D02*
G01*
X162482068Y-76584732D01*
X162561653Y-76677805D01*
X162600072Y-76836886D01*
X162610742Y-77078581D01*
X162610800Y-77105700D01*
X162608501Y-77303158D01*
X162597986Y-77419892D01*
X162573819Y-77476740D01*
X162530570Y-77494538D01*
X162509200Y-77495400D01*
X162452186Y-77484146D01*
X162421529Y-77434819D01*
X162409350Y-77324065D01*
X162407600Y-77194228D01*
X162388372Y-76968823D01*
X162333605Y-76820627D01*
X162247671Y-76757771D01*
X162177529Y-76766393D01*
X162134806Y-76812640D01*
X162111091Y-76922169D01*
X162102905Y-77112627D01*
X162102800Y-77145235D01*
X162100862Y-77329268D01*
X162089656Y-77434015D01*
X162061092Y-77481781D01*
X162007079Y-77494874D01*
X161975800Y-77495400D01*
X161916965Y-77492048D01*
X161879859Y-77469307D01*
X161859474Y-77408144D01*
X161850801Y-77289529D01*
X161848832Y-77094432D01*
X161848800Y-77012800D01*
X161848800Y-76530200D01*
X162145726Y-76530200D01*
X162347899Y-76541065D01*
X162347899Y-76541065D01*
G37*
X162347899Y-76541065D02*
X162482068Y-76584732D01*
X162561653Y-76677805D01*
X162600072Y-76836886D01*
X162610742Y-77078581D01*
X162610800Y-77105700D01*
X162608501Y-77303158D01*
X162597986Y-77419892D01*
X162573819Y-77476740D01*
X162530570Y-77494538D01*
X162509200Y-77495400D01*
X162452186Y-77484146D01*
X162421529Y-77434819D01*
X162409350Y-77324065D01*
X162407600Y-77194228D01*
X162388372Y-76968823D01*
X162333605Y-76820627D01*
X162247671Y-76757771D01*
X162177529Y-76766393D01*
X162134806Y-76812640D01*
X162111091Y-76922169D01*
X162102905Y-77112627D01*
X162102800Y-77145235D01*
X162100862Y-77329268D01*
X162089656Y-77434015D01*
X162061092Y-77481781D01*
X162007079Y-77494874D01*
X161975800Y-77495400D01*
X161916965Y-77492048D01*
X161879859Y-77469307D01*
X161859474Y-77408144D01*
X161850801Y-77289529D01*
X161848832Y-77094432D01*
X161848800Y-77012800D01*
X161848800Y-76530200D01*
X162145726Y-76530200D01*
X162347899Y-76541065D01*
G36*
X161532233Y-76575588D02*
G01*
X161671385Y-76697921D01*
X161742244Y-76876447D01*
X161747200Y-76943450D01*
X161741945Y-77026674D01*
X161709519Y-77069994D01*
X161624929Y-77086429D01*
X161467800Y-77089000D01*
X161287471Y-77100407D01*
X161199611Y-77133159D01*
X161207128Y-77185047D01*
X161275988Y-77234568D01*
X161405234Y-77253195D01*
X161457757Y-77233180D01*
X161577342Y-77204139D01*
X161667720Y-77240984D01*
X161696400Y-77314218D01*
X161652683Y-77407993D01*
X161541035Y-77468144D01*
X161390702Y-77490685D01*
X161230933Y-77471627D01*
X161090978Y-77406984D01*
X161079727Y-77398288D01*
X161007106Y-77320991D01*
X160970929Y-77218830D01*
X160959964Y-77056628D01*
X160959800Y-77022621D01*
X160976648Y-76856938D01*
X161203577Y-76856938D01*
X161223862Y-76880954D01*
X161329600Y-76885791D01*
X161340800Y-76885800D01*
X161453204Y-76881756D01*
X161479085Y-76859605D01*
X161433472Y-76804318D01*
X161427885Y-76798714D01*
X161355744Y-76739858D01*
X161298000Y-76757185D01*
X161253714Y-76798714D01*
X161203577Y-76856938D01*
X160976648Y-76856938D01*
X160983955Y-76785088D01*
X161060792Y-76629697D01*
X161196869Y-76548067D01*
X161344986Y-76530200D01*
X161532233Y-76575588D01*
X161532233Y-76575588D01*
G37*
X161532233Y-76575588D02*
X161671385Y-76697921D01*
X161742244Y-76876447D01*
X161747200Y-76943450D01*
X161741945Y-77026674D01*
X161709519Y-77069994D01*
X161624929Y-77086429D01*
X161467800Y-77089000D01*
X161287471Y-77100407D01*
X161199611Y-77133159D01*
X161207128Y-77185047D01*
X161275988Y-77234568D01*
X161405234Y-77253195D01*
X161457757Y-77233180D01*
X161577342Y-77204139D01*
X161667720Y-77240984D01*
X161696400Y-77314218D01*
X161652683Y-77407993D01*
X161541035Y-77468144D01*
X161390702Y-77490685D01*
X161230933Y-77471627D01*
X161090978Y-77406984D01*
X161079727Y-77398288D01*
X161007106Y-77320991D01*
X160970929Y-77218830D01*
X160959964Y-77056628D01*
X160959800Y-77022621D01*
X160976648Y-76856938D01*
X161203577Y-76856938D01*
X161223862Y-76880954D01*
X161329600Y-76885791D01*
X161340800Y-76885800D01*
X161453204Y-76881756D01*
X161479085Y-76859605D01*
X161433472Y-76804318D01*
X161427885Y-76798714D01*
X161355744Y-76739858D01*
X161298000Y-76757185D01*
X161253714Y-76798714D01*
X161203577Y-76856938D01*
X160976648Y-76856938D01*
X160983955Y-76785088D01*
X161060792Y-76629697D01*
X161196869Y-76548067D01*
X161344986Y-76530200D01*
X161532233Y-76575588D01*
G36*
X159789005Y-76577673D02*
G01*
X159867600Y-76631800D01*
X159945999Y-76772324D01*
X159976496Y-76961917D01*
X159959941Y-77160506D01*
X159897184Y-77328021D01*
X159851625Y-77384944D01*
X159692767Y-77474932D01*
X159512849Y-77489548D01*
X159349805Y-77428173D01*
X159308800Y-77393800D01*
X159240608Y-77269684D01*
X159205544Y-77091697D01*
X159204901Y-77009417D01*
X159411793Y-77009417D01*
X159441235Y-77161045D01*
X159512416Y-77229703D01*
X159619844Y-77231354D01*
X159705040Y-77180440D01*
X159760206Y-77062130D01*
X159748489Y-76919059D01*
X159686272Y-76813329D01*
X159586239Y-76759630D01*
X159497821Y-76787649D01*
X159435008Y-76877530D01*
X159411793Y-77009417D01*
X159204901Y-77009417D01*
X159204026Y-76897534D01*
X159236476Y-76724889D01*
X159300100Y-76614273D01*
X159442040Y-76545417D01*
X159620506Y-76533696D01*
X159789005Y-76577673D01*
X159789005Y-76577673D01*
G37*
X159789005Y-76577673D02*
X159867600Y-76631800D01*
X159945999Y-76772324D01*
X159976496Y-76961917D01*
X159959941Y-77160506D01*
X159897184Y-77328021D01*
X159851625Y-77384944D01*
X159692767Y-77474932D01*
X159512849Y-77489548D01*
X159349805Y-77428173D01*
X159308800Y-77393800D01*
X159240608Y-77269684D01*
X159205544Y-77091697D01*
X159204901Y-77009417D01*
X159411793Y-77009417D01*
X159441235Y-77161045D01*
X159512416Y-77229703D01*
X159619844Y-77231354D01*
X159705040Y-77180440D01*
X159760206Y-77062130D01*
X159748489Y-76919059D01*
X159686272Y-76813329D01*
X159586239Y-76759630D01*
X159497821Y-76787649D01*
X159435008Y-76877530D01*
X159411793Y-77009417D01*
X159204901Y-77009417D01*
X159204026Y-76897534D01*
X159236476Y-76724889D01*
X159300100Y-76614273D01*
X159442040Y-76545417D01*
X159620506Y-76533696D01*
X159789005Y-76577673D01*
G36*
X166731420Y-77990588D02*
G01*
X166875331Y-78098245D01*
X166963402Y-78262171D01*
X166979600Y-78382090D01*
X166979600Y-78562200D01*
X166689314Y-78562200D01*
X166528762Y-78564426D01*
X166453135Y-78575719D01*
X166445778Y-78602998D01*
X166484237Y-78647409D01*
X166573888Y-78703980D01*
X166680965Y-78681757D01*
X166687966Y-78678617D01*
X166808747Y-78652645D01*
X166905742Y-78698149D01*
X166974732Y-78757280D01*
X166961670Y-78801187D01*
X166906390Y-78844740D01*
X166767813Y-78901901D01*
X166592658Y-78917359D01*
X166424058Y-78892483D01*
X166305146Y-78828642D01*
X166302276Y-78825566D01*
X166218442Y-78673292D01*
X166185811Y-78482224D01*
X166200823Y-78295500D01*
X166433500Y-78295500D01*
X166459934Y-78343673D01*
X166573200Y-78359000D01*
X166689647Y-78342226D01*
X166712900Y-78295500D01*
X166651669Y-78245913D01*
X166573200Y-78232000D01*
X166472656Y-78255947D01*
X166433500Y-78295500D01*
X166200823Y-78295500D01*
X166201652Y-78285196D01*
X166263232Y-78115042D01*
X166367818Y-78004598D01*
X166370728Y-78003010D01*
X166555332Y-77953932D01*
X166731420Y-77990588D01*
X166731420Y-77990588D01*
G37*
X166731420Y-77990588D02*
X166875331Y-78098245D01*
X166963402Y-78262171D01*
X166979600Y-78382090D01*
X166979600Y-78562200D01*
X166689314Y-78562200D01*
X166528762Y-78564426D01*
X166453135Y-78575719D01*
X166445778Y-78602998D01*
X166484237Y-78647409D01*
X166573888Y-78703980D01*
X166680965Y-78681757D01*
X166687966Y-78678617D01*
X166808747Y-78652645D01*
X166905742Y-78698149D01*
X166974732Y-78757280D01*
X166961670Y-78801187D01*
X166906390Y-78844740D01*
X166767813Y-78901901D01*
X166592658Y-78917359D01*
X166424058Y-78892483D01*
X166305146Y-78828642D01*
X166302276Y-78825566D01*
X166218442Y-78673292D01*
X166185811Y-78482224D01*
X166200823Y-78295500D01*
X166433500Y-78295500D01*
X166459934Y-78343673D01*
X166573200Y-78359000D01*
X166689647Y-78342226D01*
X166712900Y-78295500D01*
X166651669Y-78245913D01*
X166573200Y-78232000D01*
X166472656Y-78255947D01*
X166433500Y-78295500D01*
X166200823Y-78295500D01*
X166201652Y-78285196D01*
X166263232Y-78115042D01*
X166367818Y-78004598D01*
X166370728Y-78003010D01*
X166555332Y-77953932D01*
X166731420Y-77990588D01*
G36*
X166027421Y-77966414D02*
G01*
X166150053Y-77986180D01*
X166195216Y-78008281D01*
X166195153Y-78087946D01*
X166121169Y-78163916D01*
X165998902Y-78212235D01*
X165972582Y-78216284D01*
X165900210Y-78230514D01*
X165858064Y-78267955D01*
X165836205Y-78352212D01*
X165824691Y-78506895D01*
X165821578Y-78574900D01*
X165811249Y-78756730D01*
X165794210Y-78859461D01*
X165761305Y-78905566D01*
X165703379Y-78917514D01*
X165681878Y-78917800D01*
X165623919Y-78914145D01*
X165587453Y-78890441D01*
X165567502Y-78827577D01*
X165559085Y-78706442D01*
X165557224Y-78507927D01*
X165557200Y-78439307D01*
X165557200Y-77960814D01*
X165860643Y-77959363D01*
X166027421Y-77966414D01*
X166027421Y-77966414D01*
G37*
X166027421Y-77966414D02*
X166150053Y-77986180D01*
X166195216Y-78008281D01*
X166195153Y-78087946D01*
X166121169Y-78163916D01*
X165998902Y-78212235D01*
X165972582Y-78216284D01*
X165900210Y-78230514D01*
X165858064Y-78267955D01*
X165836205Y-78352212D01*
X165824691Y-78506895D01*
X165821578Y-78574900D01*
X165811249Y-78756730D01*
X165794210Y-78859461D01*
X165761305Y-78905566D01*
X165703379Y-78917514D01*
X165681878Y-78917800D01*
X165623919Y-78914145D01*
X165587453Y-78890441D01*
X165567502Y-78827577D01*
X165559085Y-78706442D01*
X165557224Y-78507927D01*
X165557200Y-78439307D01*
X165557200Y-77960814D01*
X165860643Y-77959363D01*
X166027421Y-77966414D01*
G36*
X165113553Y-77963345D02*
G01*
X165282712Y-78025484D01*
X165291896Y-78031680D01*
X165349495Y-78083046D01*
X165383476Y-78154075D01*
X165399867Y-78270227D01*
X165404692Y-78456962D01*
X165404800Y-78508723D01*
X165404800Y-78906686D01*
X165084015Y-78911499D01*
X164894732Y-78904753D01*
X164755690Y-78881238D01*
X164703015Y-78856095D01*
X164655874Y-78752001D01*
X164647318Y-78630854D01*
X164847025Y-78630854D01*
X164879866Y-78680733D01*
X164962206Y-78714814D01*
X165064232Y-78708499D01*
X165138678Y-78669172D01*
X165150800Y-78638400D01*
X165105363Y-78577904D01*
X164998400Y-78562200D01*
X164878060Y-78580329D01*
X164847025Y-78630854D01*
X164647318Y-78630854D01*
X164645576Y-78606192D01*
X164672029Y-78471605D01*
X164703759Y-78419960D01*
X164789836Y-78381926D01*
X164931262Y-78360639D01*
X164983159Y-78359000D01*
X165137690Y-78346640D01*
X165195992Y-78307640D01*
X165160621Y-78239117D01*
X165121274Y-78203176D01*
X165039518Y-78162203D01*
X164946637Y-78195512D01*
X164937039Y-78201406D01*
X164844116Y-78239092D01*
X164767642Y-78199128D01*
X164750664Y-78182544D01*
X164697216Y-78113290D01*
X164723047Y-78060331D01*
X164766809Y-78025695D01*
X164925105Y-77963227D01*
X165113553Y-77963345D01*
X165113553Y-77963345D01*
G37*
X165113553Y-77963345D02*
X165282712Y-78025484D01*
X165291896Y-78031680D01*
X165349495Y-78083046D01*
X165383476Y-78154075D01*
X165399867Y-78270227D01*
X165404692Y-78456962D01*
X165404800Y-78508723D01*
X165404800Y-78906686D01*
X165084015Y-78911499D01*
X164894732Y-78904753D01*
X164755690Y-78881238D01*
X164703015Y-78856095D01*
X164655874Y-78752001D01*
X164647318Y-78630854D01*
X164847025Y-78630854D01*
X164879866Y-78680733D01*
X164962206Y-78714814D01*
X165064232Y-78708499D01*
X165138678Y-78669172D01*
X165150800Y-78638400D01*
X165105363Y-78577904D01*
X164998400Y-78562200D01*
X164878060Y-78580329D01*
X164847025Y-78630854D01*
X164647318Y-78630854D01*
X164645576Y-78606192D01*
X164672029Y-78471605D01*
X164703759Y-78419960D01*
X164789836Y-78381926D01*
X164931262Y-78360639D01*
X164983159Y-78359000D01*
X165137690Y-78346640D01*
X165195992Y-78307640D01*
X165160621Y-78239117D01*
X165121274Y-78203176D01*
X165039518Y-78162203D01*
X164946637Y-78195512D01*
X164937039Y-78201406D01*
X164844116Y-78239092D01*
X164767642Y-78199128D01*
X164750664Y-78182544D01*
X164697216Y-78113290D01*
X164723047Y-78060331D01*
X164766809Y-78025695D01*
X164925105Y-77963227D01*
X165113553Y-77963345D01*
G36*
X164044553Y-77978956D02*
G01*
X164122555Y-78111169D01*
X164169371Y-78239898D01*
X164259934Y-78527197D01*
X164339175Y-78252598D01*
X164396989Y-78084452D01*
X164456183Y-77994865D01*
X164530608Y-77961766D01*
X164593763Y-77958387D01*
X164627864Y-77981104D01*
X164632297Y-78045571D01*
X164606446Y-78167442D01*
X164549698Y-78362370D01*
X164509812Y-78491263D01*
X164441968Y-78698721D01*
X164389326Y-78826407D01*
X164341119Y-78892772D01*
X164286576Y-78916270D01*
X164260879Y-78917800D01*
X164187566Y-78901980D01*
X164137394Y-78838648D01*
X164093955Y-78703992D01*
X164083014Y-78659692D01*
X164039616Y-78508905D01*
X164000132Y-78453548D01*
X163958098Y-78495014D01*
X163907053Y-78634697D01*
X163887324Y-78701900D01*
X163832236Y-78847191D01*
X163766756Y-78910631D01*
X163724766Y-78917800D01*
X163630842Y-78889909D01*
X163600184Y-78854300D01*
X163546655Y-78703470D01*
X163484562Y-78520132D01*
X163422498Y-78330849D01*
X163369058Y-78162180D01*
X163332835Y-78040687D01*
X163322000Y-77994502D01*
X163365379Y-77962556D01*
X163444305Y-77952600D01*
X163521789Y-77967339D01*
X163573989Y-78027797D01*
X163618992Y-78158328D01*
X163631059Y-78204064D01*
X163673416Y-78341815D01*
X163712407Y-78423378D01*
X163730385Y-78433972D01*
X163763679Y-78376131D01*
X163808151Y-78254225D01*
X163829633Y-78182508D01*
X163895294Y-78014153D01*
X163967867Y-77946459D01*
X164044553Y-77978956D01*
X164044553Y-77978956D01*
G37*
X164044553Y-77978956D02*
X164122555Y-78111169D01*
X164169371Y-78239898D01*
X164259934Y-78527197D01*
X164339175Y-78252598D01*
X164396989Y-78084452D01*
X164456183Y-77994865D01*
X164530608Y-77961766D01*
X164593763Y-77958387D01*
X164627864Y-77981104D01*
X164632297Y-78045571D01*
X164606446Y-78167442D01*
X164549698Y-78362370D01*
X164509812Y-78491263D01*
X164441968Y-78698721D01*
X164389326Y-78826407D01*
X164341119Y-78892772D01*
X164286576Y-78916270D01*
X164260879Y-78917800D01*
X164187566Y-78901980D01*
X164137394Y-78838648D01*
X164093955Y-78703992D01*
X164083014Y-78659692D01*
X164039616Y-78508905D01*
X164000132Y-78453548D01*
X163958098Y-78495014D01*
X163907053Y-78634697D01*
X163887324Y-78701900D01*
X163832236Y-78847191D01*
X163766756Y-78910631D01*
X163724766Y-78917800D01*
X163630842Y-78889909D01*
X163600184Y-78854300D01*
X163546655Y-78703470D01*
X163484562Y-78520132D01*
X163422498Y-78330849D01*
X163369058Y-78162180D01*
X163332835Y-78040687D01*
X163322000Y-77994502D01*
X163365379Y-77962556D01*
X163444305Y-77952600D01*
X163521789Y-77967339D01*
X163573989Y-78027797D01*
X163618992Y-78158328D01*
X163631059Y-78204064D01*
X163673416Y-78341815D01*
X163712407Y-78423378D01*
X163730385Y-78433972D01*
X163763679Y-78376131D01*
X163808151Y-78254225D01*
X163829633Y-78182508D01*
X163895294Y-78014153D01*
X163967867Y-77946459D01*
X164044553Y-77978956D01*
G36*
X163271200Y-78917800D02*
G01*
X162974273Y-78917800D01*
X162752857Y-78901840D01*
X162612875Y-78842840D01*
X162537641Y-78724114D01*
X162510472Y-78528977D01*
X162509731Y-78484518D01*
X162733963Y-78484518D01*
X162763707Y-78611946D01*
X162816381Y-78697838D01*
X162853887Y-78713822D01*
X162924794Y-78688926D01*
X162957215Y-78670551D01*
X163002266Y-78586392D01*
X163008015Y-78430029D01*
X162984842Y-78294278D01*
X162933941Y-78231227D01*
X162882177Y-78216379D01*
X162797251Y-78228053D01*
X162749790Y-78310600D01*
X162739095Y-78353100D01*
X162733963Y-78484518D01*
X162509731Y-78484518D01*
X162509200Y-78452698D01*
X162509200Y-78173396D01*
X162344100Y-78197016D01*
X162222458Y-78224975D01*
X162150342Y-78280800D01*
X162115091Y-78387058D01*
X162104043Y-78566316D01*
X162103577Y-78625700D01*
X162099075Y-78791628D01*
X162081177Y-78879724D01*
X162041597Y-78913626D01*
X162001200Y-78917800D01*
X161953875Y-78910478D01*
X161924052Y-78875917D01*
X161907732Y-78795222D01*
X161900915Y-78649499D01*
X161899600Y-78437781D01*
X161899600Y-77957763D01*
X162217100Y-77978821D01*
X162404528Y-77990796D01*
X162531783Y-77996421D01*
X162640056Y-77996259D01*
X162770538Y-77990870D01*
X162839400Y-77987313D01*
X162955935Y-77973699D01*
X163005747Y-77928394D01*
X163017069Y-77819672D01*
X163017200Y-77787500D01*
X163025265Y-77661849D01*
X163062457Y-77608099D01*
X163144200Y-77597000D01*
X163271200Y-77597000D01*
X163271200Y-78917800D01*
X163271200Y-78917800D01*
G37*
X163271200Y-78917800D02*
X162974273Y-78917800D01*
X162752857Y-78901840D01*
X162612875Y-78842840D01*
X162537641Y-78724114D01*
X162510472Y-78528977D01*
X162509731Y-78484518D01*
X162733963Y-78484518D01*
X162763707Y-78611946D01*
X162816381Y-78697838D01*
X162853887Y-78713822D01*
X162924794Y-78688926D01*
X162957215Y-78670551D01*
X163002266Y-78586392D01*
X163008015Y-78430029D01*
X162984842Y-78294278D01*
X162933941Y-78231227D01*
X162882177Y-78216379D01*
X162797251Y-78228053D01*
X162749790Y-78310600D01*
X162739095Y-78353100D01*
X162733963Y-78484518D01*
X162509731Y-78484518D01*
X162509200Y-78452698D01*
X162509200Y-78173396D01*
X162344100Y-78197016D01*
X162222458Y-78224975D01*
X162150342Y-78280800D01*
X162115091Y-78387058D01*
X162104043Y-78566316D01*
X162103577Y-78625700D01*
X162099075Y-78791628D01*
X162081177Y-78879724D01*
X162041597Y-78913626D01*
X162001200Y-78917800D01*
X161953875Y-78910478D01*
X161924052Y-78875917D01*
X161907732Y-78795222D01*
X161900915Y-78649499D01*
X161899600Y-78437781D01*
X161899600Y-77957763D01*
X162217100Y-77978821D01*
X162404528Y-77990796D01*
X162531783Y-77996421D01*
X162640056Y-77996259D01*
X162770538Y-77990870D01*
X162839400Y-77987313D01*
X162955935Y-77973699D01*
X163005747Y-77928394D01*
X163017069Y-77819672D01*
X163017200Y-77787500D01*
X163025265Y-77661849D01*
X163062457Y-77608099D01*
X163144200Y-77597000D01*
X163271200Y-77597000D01*
X163271200Y-78917800D01*
G36*
X161555826Y-77989268D02*
G01*
X161622608Y-78024279D01*
X161674517Y-78081009D01*
X161707936Y-78174511D01*
X161728481Y-78328010D01*
X161739297Y-78506879D01*
X161757957Y-78917800D01*
X161430252Y-78917800D01*
X161229612Y-78910085D01*
X161102935Y-78882918D01*
X161023475Y-78830265D01*
X161018473Y-78824899D01*
X160937696Y-78679710D01*
X160941041Y-78630036D01*
X161189659Y-78630036D01*
X161224409Y-78682876D01*
X161308061Y-78708327D01*
X161412619Y-78686114D01*
X161479421Y-78629322D01*
X161480754Y-78625700D01*
X161454293Y-78577355D01*
X161345033Y-78562200D01*
X161221917Y-78579908D01*
X161189659Y-78630036D01*
X160941041Y-78630036D01*
X160946921Y-78542728D01*
X161035092Y-78432668D01*
X161191156Y-78368249D01*
X161293628Y-78359000D01*
X161438276Y-78343924D01*
X161492448Y-78297090D01*
X161493200Y-78288235D01*
X161451853Y-78209802D01*
X161353790Y-78178510D01*
X161242537Y-78204813D01*
X161131188Y-78220349D01*
X161055717Y-78179231D01*
X160989816Y-78119294D01*
X161004245Y-78073376D01*
X161058409Y-78028800D01*
X161201561Y-77969528D01*
X161384407Y-77956214D01*
X161555826Y-77989268D01*
X161555826Y-77989268D01*
G37*
X161555826Y-77989268D02*
X161622608Y-78024279D01*
X161674517Y-78081009D01*
X161707936Y-78174511D01*
X161728481Y-78328010D01*
X161739297Y-78506879D01*
X161757957Y-78917800D01*
X161430252Y-78917800D01*
X161229612Y-78910085D01*
X161102935Y-78882918D01*
X161023475Y-78830265D01*
X161018473Y-78824899D01*
X160937696Y-78679710D01*
X160941041Y-78630036D01*
X161189659Y-78630036D01*
X161224409Y-78682876D01*
X161308061Y-78708327D01*
X161412619Y-78686114D01*
X161479421Y-78629322D01*
X161480754Y-78625700D01*
X161454293Y-78577355D01*
X161345033Y-78562200D01*
X161221917Y-78579908D01*
X161189659Y-78630036D01*
X160941041Y-78630036D01*
X160946921Y-78542728D01*
X161035092Y-78432668D01*
X161191156Y-78368249D01*
X161293628Y-78359000D01*
X161438276Y-78343924D01*
X161492448Y-78297090D01*
X161493200Y-78288235D01*
X161451853Y-78209802D01*
X161353790Y-78178510D01*
X161242537Y-78204813D01*
X161131188Y-78220349D01*
X161055717Y-78179231D01*
X160989816Y-78119294D01*
X161004245Y-78073376D01*
X161058409Y-78028800D01*
X161201561Y-77969528D01*
X161384407Y-77956214D01*
X161555826Y-77989268D01*
G36*
X160609345Y-76544774D02*
G01*
X160743305Y-76584765D01*
X160819752Y-76673445D01*
X160860189Y-76827753D01*
X160870955Y-76910385D01*
X160867844Y-77156044D01*
X160802708Y-77342365D01*
X160683754Y-77458841D01*
X160519190Y-77494967D01*
X160425584Y-77480467D01*
X160367108Y-77475170D01*
X160336957Y-77513603D01*
X160325984Y-77617869D01*
X160324800Y-77724000D01*
X160328532Y-77879616D01*
X160345828Y-77955834D01*
X160385836Y-77974755D01*
X160425584Y-77967532D01*
X160604592Y-77962894D01*
X160753160Y-78036398D01*
X160824090Y-78131572D01*
X160855744Y-78251603D01*
X160877327Y-78430171D01*
X160883600Y-78589990D01*
X160881264Y-78766741D01*
X160868420Y-78864925D01*
X160836314Y-78907558D01*
X160776191Y-78917658D01*
X160758921Y-78917800D01*
X160692522Y-78911298D01*
X160653658Y-78876811D01*
X160633173Y-78791869D01*
X160621913Y-78633998D01*
X160619221Y-78574900D01*
X160608967Y-78393133D01*
X160592043Y-78290441D01*
X160559133Y-78244333D01*
X160500922Y-78232318D01*
X160477200Y-78232000D01*
X160409607Y-78238185D01*
X160370104Y-78271734D01*
X160349373Y-78355138D01*
X160338101Y-78510887D01*
X160335178Y-78574900D01*
X160324849Y-78756730D01*
X160307810Y-78859461D01*
X160274905Y-78905566D01*
X160216979Y-78917514D01*
X160195478Y-78917800D01*
X160070800Y-78917800D01*
X160070800Y-77008529D01*
X160326255Y-77008529D01*
X160330999Y-77139361D01*
X160360809Y-77209676D01*
X160435400Y-77232873D01*
X160500509Y-77230842D01*
X160576613Y-77192337D01*
X160613242Y-77088534D01*
X160619468Y-77033851D01*
X160607875Y-76877644D01*
X160552931Y-76777554D01*
X160469324Y-76750364D01*
X160401000Y-76784200D01*
X160351140Y-76873721D01*
X160326255Y-77008529D01*
X160070800Y-77008529D01*
X160070800Y-76539035D01*
X160396372Y-76536536D01*
X160609345Y-76544774D01*
X160609345Y-76544774D01*
G37*
X160609345Y-76544774D02*
X160743305Y-76584765D01*
X160819752Y-76673445D01*
X160860189Y-76827753D01*
X160870955Y-76910385D01*
X160867844Y-77156044D01*
X160802708Y-77342365D01*
X160683754Y-77458841D01*
X160519190Y-77494967D01*
X160425584Y-77480467D01*
X160367108Y-77475170D01*
X160336957Y-77513603D01*
X160325984Y-77617869D01*
X160324800Y-77724000D01*
X160328532Y-77879616D01*
X160345828Y-77955834D01*
X160385836Y-77974755D01*
X160425584Y-77967532D01*
X160604592Y-77962894D01*
X160753160Y-78036398D01*
X160824090Y-78131572D01*
X160855744Y-78251603D01*
X160877327Y-78430171D01*
X160883600Y-78589990D01*
X160881264Y-78766741D01*
X160868420Y-78864925D01*
X160836314Y-78907558D01*
X160776191Y-78917658D01*
X160758921Y-78917800D01*
X160692522Y-78911298D01*
X160653658Y-78876811D01*
X160633173Y-78791869D01*
X160621913Y-78633998D01*
X160619221Y-78574900D01*
X160608967Y-78393133D01*
X160592043Y-78290441D01*
X160559133Y-78244333D01*
X160500922Y-78232318D01*
X160477200Y-78232000D01*
X160409607Y-78238185D01*
X160370104Y-78271734D01*
X160349373Y-78355138D01*
X160338101Y-78510887D01*
X160335178Y-78574900D01*
X160324849Y-78756730D01*
X160307810Y-78859461D01*
X160274905Y-78905566D01*
X160216979Y-78917514D01*
X160195478Y-78917800D01*
X160070800Y-78917800D01*
X160070800Y-77008529D01*
X160326255Y-77008529D01*
X160330999Y-77139361D01*
X160360809Y-77209676D01*
X160435400Y-77232873D01*
X160500509Y-77230842D01*
X160576613Y-77192337D01*
X160613242Y-77088534D01*
X160619468Y-77033851D01*
X160607875Y-76877644D01*
X160552931Y-76777554D01*
X160469324Y-76750364D01*
X160401000Y-76784200D01*
X160351140Y-76873721D01*
X160326255Y-77008529D01*
X160070800Y-77008529D01*
X160070800Y-76539035D01*
X160396372Y-76536536D01*
X160609345Y-76544774D01*
D12*
X143888460Y-72588120D02*
G75*
G03X143888460Y-72588120I-1998980J0D01*
G01*
D13*
X177192000Y-83915000D02*
X177522000Y-83915000D01*
X177192000Y-77375000D02*
X177192000Y-83915000D01*
X177522000Y-77375000D02*
X177192000Y-77375000D01*
X179932000Y-83915000D02*
X179602000Y-83915000D01*
X179932000Y-77375000D02*
X179932000Y-83915000D01*
X179602000Y-77375000D02*
X179932000Y-77375000D01*
X178419000Y-60138000D02*
G75*
G02X176419000Y-60138000I-1000000J0D01*
G01*
X176419000Y-60138000D02*
X174769000Y-60138000D01*
X174769000Y-60138000D02*
X174769000Y-70418000D01*
X174769000Y-70418000D02*
X180069000Y-70418000D01*
X180069000Y-70418000D02*
X180069000Y-60138000D01*
X180069000Y-60138000D02*
X178419000Y-60138000D01*
X96820000Y-52657000D02*
G75*
G02X97520000Y-53357000I0J-700000D01*
G01*
X95520000Y-53357000D02*
G75*
G02X96220000Y-52657000I700000J0D01*
G01*
X96220000Y-56757000D02*
G75*
G02X95520000Y-56057000I0J700000D01*
G01*
X97520000Y-56057000D02*
G75*
G02X96820000Y-56757000I-700000J0D01*
G01*
X97520000Y-53307000D02*
X97520000Y-56107000D01*
X96820000Y-56757000D02*
X96220000Y-56757000D01*
X95520000Y-56107000D02*
X95520000Y-53307000D01*
X96220000Y-52657000D02*
X96820000Y-52657000D01*
X95320000Y-53507000D02*
X95020000Y-53207000D01*
X95020000Y-53207000D02*
X95020000Y-53807000D01*
X95320000Y-53507000D02*
X95020000Y-53807000D01*
X99901000Y-41229000D02*
G75*
G02X100601000Y-40529000I700000J0D01*
G01*
X100601000Y-42529000D02*
G75*
G02X99901000Y-41829000I0J700000D01*
G01*
X104001000Y-41829000D02*
G75*
G02X103301000Y-42529000I-700000J0D01*
G01*
X103301000Y-40529000D02*
G75*
G02X104001000Y-41229000I0J-700000D01*
G01*
X100551000Y-40529000D02*
X103351000Y-40529000D01*
X104001000Y-41229000D02*
X104001000Y-41829000D01*
X103351000Y-42529000D02*
X100551000Y-42529000D01*
X99901000Y-41829000D02*
X99901000Y-41229000D01*
X100751000Y-42729000D02*
X100451000Y-43029000D01*
X100451000Y-43029000D02*
X101051000Y-43029000D01*
X100751000Y-42729000D02*
X101051000Y-43029000D01*
X133967000Y-51262000D02*
G75*
G02X134667000Y-50562000I700000J0D01*
G01*
X134667000Y-52562000D02*
G75*
G02X133967000Y-51862000I0J700000D01*
G01*
X138067000Y-51862000D02*
G75*
G02X137367000Y-52562000I-700000J0D01*
G01*
X137367000Y-50562000D02*
G75*
G02X138067000Y-51262000I0J-700000D01*
G01*
X134617000Y-50562000D02*
X137417000Y-50562000D01*
X138067000Y-51262000D02*
X138067000Y-51862000D01*
X137417000Y-52562000D02*
X134617000Y-52562000D01*
X133967000Y-51862000D02*
X133967000Y-51262000D01*
X134817000Y-52762000D02*
X134517000Y-53062000D01*
X134517000Y-53062000D02*
X135117000Y-53062000D01*
X134817000Y-52762000D02*
X135117000Y-53062000D01*
X158986000Y-51643000D02*
G75*
G02X159686000Y-50943000I700000J0D01*
G01*
X159686000Y-52943000D02*
G75*
G02X158986000Y-52243000I0J700000D01*
G01*
X163086000Y-52243000D02*
G75*
G02X162386000Y-52943000I-700000J0D01*
G01*
X162386000Y-50943000D02*
G75*
G02X163086000Y-51643000I0J-700000D01*
G01*
X159636000Y-50943000D02*
X162436000Y-50943000D01*
X163086000Y-51643000D02*
X163086000Y-52243000D01*
X162436000Y-52943000D02*
X159636000Y-52943000D01*
X158986000Y-52243000D02*
X158986000Y-51643000D01*
X159836000Y-53143000D02*
X159536000Y-53443000D01*
X159536000Y-53443000D02*
X160136000Y-53443000D01*
X159836000Y-53143000D02*
X160136000Y-53443000D01*
X152987000Y-51643000D02*
G75*
G02X153687000Y-50943000I700000J0D01*
G01*
X153687000Y-52943000D02*
G75*
G02X152987000Y-52243000I0J700000D01*
G01*
X157087000Y-52243000D02*
G75*
G02X156387000Y-52943000I-700000J0D01*
G01*
X156387000Y-50943000D02*
G75*
G02X157087000Y-51643000I0J-700000D01*
G01*
X153637000Y-50943000D02*
X156437000Y-50943000D01*
X157087000Y-51643000D02*
X157087000Y-52243000D01*
X156437000Y-52943000D02*
X153637000Y-52943000D01*
X152987000Y-52243000D02*
X152987000Y-51643000D01*
X153837000Y-53143000D02*
X153537000Y-53443000D01*
X153537000Y-53443000D02*
X154137000Y-53443000D01*
X153837000Y-53143000D02*
X154137000Y-53443000D01*
X146921000Y-51643000D02*
G75*
G02X147621000Y-50943000I700000J0D01*
G01*
X147621000Y-52943000D02*
G75*
G02X146921000Y-52243000I0J700000D01*
G01*
X151021000Y-52243000D02*
G75*
G02X150321000Y-52943000I-700000J0D01*
G01*
X150321000Y-50943000D02*
G75*
G02X151021000Y-51643000I0J-700000D01*
G01*
X147571000Y-50943000D02*
X150371000Y-50943000D01*
X151021000Y-51643000D02*
X151021000Y-52243000D01*
X150371000Y-52943000D02*
X147571000Y-52943000D01*
X146921000Y-52243000D02*
X146921000Y-51643000D01*
X147771000Y-53143000D02*
X147471000Y-53443000D01*
X147471000Y-53443000D02*
X148071000Y-53443000D01*
X147771000Y-53143000D02*
X148071000Y-53443000D01*
X158230000Y-39162000D02*
G75*
G02X157530000Y-39862000I-700000J0D01*
G01*
X157530000Y-37862000D02*
G75*
G02X158230000Y-38562000I0J-700000D01*
G01*
X154130000Y-38562000D02*
G75*
G02X154830000Y-37862000I700000J0D01*
G01*
X154830000Y-39862000D02*
G75*
G02X154130000Y-39162000I0J700000D01*
G01*
X157580000Y-39862000D02*
X154780000Y-39862000D01*
X154130000Y-39162000D02*
X154130000Y-38562000D01*
X154780000Y-37862000D02*
X157580000Y-37862000D01*
X158230000Y-38562000D02*
X158230000Y-39162000D01*
X157380000Y-37662000D02*
X157680000Y-37362000D01*
X157680000Y-37362000D02*
X157080000Y-37362000D01*
X157380000Y-37662000D02*
X157080000Y-37362000D01*
X111125000Y-97088000D02*
X111125000Y-94428000D01*
X111125000Y-97088000D02*
X167065000Y-97088000D01*
X167065000Y-97088000D02*
X167065000Y-94428000D01*
X111125000Y-94428000D02*
X167065000Y-94428000D01*
X108525000Y-94428000D02*
X109855000Y-94428000D01*
X108525000Y-95758000D02*
X108525000Y-94428000D01*
X169605000Y-93218000D02*
X169605000Y-94548000D01*
X169605000Y-94548000D02*
X168275000Y-94548000D01*
X167005000Y-94548000D02*
X111065000Y-94548000D01*
X111065000Y-91888000D02*
X111065000Y-94548000D01*
X167005000Y-91888000D02*
X111065000Y-91888000D01*
X167005000Y-91888000D02*
X167005000Y-94548000D01*
X98881000Y-53898000D02*
X98881000Y-55713000D01*
X98636000Y-53898000D02*
X98881000Y-53898000D01*
X98636000Y-50038000D02*
X98636000Y-53898000D01*
X98636000Y-46178000D02*
X98881000Y-46178000D01*
X98636000Y-50038000D02*
X98636000Y-46178000D01*
X116756000Y-53898000D02*
X116511000Y-53898000D01*
X116756000Y-50038000D02*
X116756000Y-53898000D01*
X116756000Y-46178000D02*
X116511000Y-46178000D01*
X116756000Y-50038000D02*
X116756000Y-46178000D01*
X146705000Y-45339000D02*
X146705000Y-47289000D01*
X146705000Y-45339000D02*
X146705000Y-43389000D01*
X156825000Y-45339000D02*
X156825000Y-47289000D01*
X156825000Y-45339000D02*
X156825000Y-41889000D01*
X134122000Y-45339000D02*
X134122000Y-47289000D01*
X134122000Y-45339000D02*
X134122000Y-43389000D01*
X142992000Y-45339000D02*
X142992000Y-47289000D01*
X142992000Y-45339000D02*
X142992000Y-41889000D01*
X131054000Y-45339000D02*
X131054000Y-41889000D01*
X131054000Y-45339000D02*
X131054000Y-47289000D01*
X122184000Y-45339000D02*
X122184000Y-43389000D01*
X122184000Y-45339000D02*
X122184000Y-47289000D01*
X172593000Y-37677333D02*
X171323000Y-37677333D01*
X171393000Y-36324000D02*
X171393000Y-37677333D01*
X171513000Y-36324000D02*
X171513000Y-37677333D01*
X171633000Y-36324000D02*
X171633000Y-37677333D01*
X171753000Y-36324000D02*
X171753000Y-37677333D01*
X171873000Y-36324000D02*
X171873000Y-37677333D01*
X171993000Y-36324000D02*
X171993000Y-37677333D01*
X172113000Y-36324000D02*
X172113000Y-37677333D01*
X172233000Y-36324000D02*
X172233000Y-37677333D01*
X172353000Y-36324000D02*
X172353000Y-37677333D01*
X172473000Y-36324000D02*
X172473000Y-37677333D01*
X172593000Y-40384000D02*
X172593000Y-36324000D01*
X171323000Y-40384000D02*
X172593000Y-40384000D01*
X171323000Y-36324000D02*
X171323000Y-40384000D01*
X172593000Y-36324000D02*
X171323000Y-36324000D01*
X175133000Y-37677333D02*
X173863000Y-37677333D01*
X173933000Y-36324000D02*
X173933000Y-37677333D01*
X174053000Y-36324000D02*
X174053000Y-37677333D01*
X174173000Y-36324000D02*
X174173000Y-37677333D01*
X174293000Y-36324000D02*
X174293000Y-37677333D01*
X174413000Y-36324000D02*
X174413000Y-37677333D01*
X174533000Y-36324000D02*
X174533000Y-37677333D01*
X174653000Y-36324000D02*
X174653000Y-37677333D01*
X174773000Y-36324000D02*
X174773000Y-37677333D01*
X174893000Y-36324000D02*
X174893000Y-37677333D01*
X175013000Y-36324000D02*
X175013000Y-37677333D01*
X175133000Y-40384000D02*
X175133000Y-36324000D01*
X173863000Y-40384000D02*
X175133000Y-40384000D01*
X173863000Y-36324000D02*
X173863000Y-40384000D01*
X175133000Y-36324000D02*
X173863000Y-36324000D01*
X177673000Y-37677333D02*
X176403000Y-37677333D01*
X176473000Y-36324000D02*
X176473000Y-37677333D01*
X176593000Y-36324000D02*
X176593000Y-37677333D01*
X176713000Y-36324000D02*
X176713000Y-37677333D01*
X176833000Y-36324000D02*
X176833000Y-37677333D01*
X176953000Y-36324000D02*
X176953000Y-37677333D01*
X177073000Y-36324000D02*
X177073000Y-37677333D01*
X177193000Y-36324000D02*
X177193000Y-37677333D01*
X177313000Y-36324000D02*
X177313000Y-37677333D01*
X177433000Y-36324000D02*
X177433000Y-37677333D01*
X177553000Y-36324000D02*
X177553000Y-37677333D01*
X177673000Y-40384000D02*
X177673000Y-36324000D01*
X176403000Y-40384000D02*
X177673000Y-40384000D01*
X176403000Y-36324000D02*
X176403000Y-40384000D01*
X177673000Y-36324000D02*
X176403000Y-36324000D01*
X180213000Y-37677333D02*
X178943000Y-37677333D01*
X179013000Y-36324000D02*
X179013000Y-37677333D01*
X179133000Y-36324000D02*
X179133000Y-37677333D01*
X179253000Y-36324000D02*
X179253000Y-37677333D01*
X179373000Y-36324000D02*
X179373000Y-37677333D01*
X179493000Y-36324000D02*
X179493000Y-37677333D01*
X179613000Y-36324000D02*
X179613000Y-37677333D01*
X179733000Y-36324000D02*
X179733000Y-37677333D01*
X179853000Y-36324000D02*
X179853000Y-37677333D01*
X179973000Y-36324000D02*
X179973000Y-37677333D01*
X180093000Y-36324000D02*
X180093000Y-37677333D01*
X180213000Y-40384000D02*
X180213000Y-36324000D01*
X178943000Y-40384000D02*
X180213000Y-40384000D01*
X178943000Y-36324000D02*
X178943000Y-40384000D01*
X180213000Y-36324000D02*
X178943000Y-36324000D01*
X182238000Y-33164000D02*
X180855000Y-33164000D01*
X182238000Y-33164000D02*
X182238000Y-34548000D01*
X181998000Y-43304000D02*
X169538000Y-43304000D01*
X181998000Y-33404000D02*
X169538000Y-33404000D01*
X169538000Y-33404000D02*
X169538000Y-43304000D01*
X181998000Y-33404000D02*
X181998000Y-43304000D01*
X174685000Y-55018000D02*
X174685000Y-57758000D01*
X169445000Y-55018000D02*
X169445000Y-57758000D01*
X169445000Y-57758000D02*
X174685000Y-57758000D01*
X169445000Y-55018000D02*
X174685000Y-55018000D01*
X162968000Y-49717000D02*
X162968000Y-44477000D01*
X165708000Y-49717000D02*
X165708000Y-44477000D01*
X162968000Y-49717000D02*
X165708000Y-49717000D01*
X162968000Y-44477000D02*
X165708000Y-44477000D01*
X168212392Y-60684665D02*
G75*
G03X168055484Y-63917000I1078608J-1672335D01*
G01*
X170369608Y-60684665D02*
G75*
G02X170526516Y-63917000I-1078608J-1672335D01*
G01*
X168211163Y-61315870D02*
G75*
G03X168211000Y-63397961I1079837J-1041130D01*
G01*
X170370837Y-61315870D02*
G75*
G02X170371000Y-63397961I-1079837J-1041130D01*
G01*
X168055000Y-63917000D02*
X168211000Y-63917000D01*
X170371000Y-63917000D02*
X170527000Y-63917000D01*
X179427000Y-52673000D02*
X179097000Y-52673000D01*
X179097000Y-52673000D02*
X179097000Y-46133000D01*
X179097000Y-46133000D02*
X179427000Y-46133000D01*
X181507000Y-52673000D02*
X181837000Y-52673000D01*
X181837000Y-52673000D02*
X181837000Y-46133000D01*
X181837000Y-46133000D02*
X181507000Y-46133000D01*
X178789000Y-46133000D02*
X178459000Y-46133000D01*
X178789000Y-52673000D02*
X178789000Y-46133000D01*
X178459000Y-52673000D02*
X178789000Y-52673000D01*
X176049000Y-46133000D02*
X176379000Y-46133000D01*
X176049000Y-52673000D02*
X176049000Y-46133000D01*
X176379000Y-52673000D02*
X176049000Y-52673000D01*
X173331000Y-52673000D02*
X173001000Y-52673000D01*
X173001000Y-52673000D02*
X173001000Y-46133000D01*
X173001000Y-46133000D02*
X173331000Y-46133000D01*
X175411000Y-52673000D02*
X175741000Y-52673000D01*
X175741000Y-52673000D02*
X175741000Y-46133000D01*
X175741000Y-46133000D02*
X175411000Y-46133000D01*
X172693000Y-46133000D02*
X172363000Y-46133000D01*
X172693000Y-52673000D02*
X172693000Y-46133000D01*
X172363000Y-52673000D02*
X172693000Y-52673000D01*
X169953000Y-46133000D02*
X170283000Y-46133000D01*
X169953000Y-52673000D02*
X169953000Y-46133000D01*
X170283000Y-52673000D02*
X169953000Y-52673000D01*
D14*
X132415280Y-110294420D02*
X132372946Y-110336753D01*
X132245946Y-110379086D01*
X132161280Y-110379086D01*
X132034280Y-110336753D01*
X131949613Y-110252086D01*
X131907280Y-110167420D01*
X131864946Y-109998086D01*
X131864946Y-109871086D01*
X131907280Y-109701753D01*
X131949613Y-109617086D01*
X132034280Y-109532420D01*
X132161280Y-109490086D01*
X132245946Y-109490086D01*
X132372946Y-109532420D01*
X132415280Y-109574753D01*
X132965613Y-109490086D02*
X133134946Y-109490086D01*
X133219613Y-109532420D01*
X133304280Y-109617086D01*
X133346613Y-109786420D01*
X133346613Y-110082753D01*
X133304280Y-110252086D01*
X133219613Y-110336753D01*
X133134946Y-110379086D01*
X132965613Y-110379086D01*
X132880946Y-110336753D01*
X132796280Y-110252086D01*
X132753946Y-110082753D01*
X132753946Y-109786420D01*
X132796280Y-109617086D01*
X132880946Y-109532420D01*
X132965613Y-109490086D01*
X133727613Y-110379086D02*
X133727613Y-109490086D01*
X134235613Y-110379086D01*
X134235613Y-109490086D01*
X135124613Y-110379086D02*
X134616613Y-110379086D01*
X134870613Y-110379086D02*
X134870613Y-109490086D01*
X134785946Y-109617086D01*
X134701280Y-109701753D01*
X134616613Y-109744086D01*
D10*
X181384380Y-80811666D02*
X180908190Y-81145000D01*
X181384380Y-81383095D02*
X180384380Y-81383095D01*
X180384380Y-81002142D01*
X180432000Y-80906904D01*
X180479619Y-80859285D01*
X180574857Y-80811666D01*
X180717714Y-80811666D01*
X180812952Y-80859285D01*
X180860571Y-80906904D01*
X180908190Y-81002142D01*
X180908190Y-81383095D01*
X180384380Y-79906904D02*
X180384380Y-80383095D01*
X180860571Y-80430714D01*
X180812952Y-80383095D01*
X180765333Y-80287857D01*
X180765333Y-80049761D01*
X180812952Y-79954523D01*
X180860571Y-79906904D01*
X180955809Y-79859285D01*
X181193904Y-79859285D01*
X181289142Y-79906904D01*
X181336761Y-79954523D01*
X181384380Y-80049761D01*
X181384380Y-80287857D01*
X181336761Y-80383095D01*
X181289142Y-80430714D01*
X173919000Y-59542761D02*
X174061857Y-59590380D01*
X174299952Y-59590380D01*
X174395190Y-59542761D01*
X174442809Y-59495142D01*
X174490428Y-59399904D01*
X174490428Y-59304666D01*
X174442809Y-59209428D01*
X174395190Y-59161809D01*
X174299952Y-59114190D01*
X174109476Y-59066571D01*
X174014238Y-59018952D01*
X173966619Y-58971333D01*
X173919000Y-58876095D01*
X173919000Y-58780857D01*
X173966619Y-58685619D01*
X174014238Y-58638000D01*
X174109476Y-58590380D01*
X174347571Y-58590380D01*
X174490428Y-58638000D01*
X174919000Y-58590380D02*
X174919000Y-59399904D01*
X174966619Y-59495142D01*
X175014238Y-59542761D01*
X175109476Y-59590380D01*
X175299952Y-59590380D01*
X175395190Y-59542761D01*
X175442809Y-59495142D01*
X175490428Y-59399904D01*
X175490428Y-58590380D01*
X175966619Y-59590380D02*
X175966619Y-58590380D01*
X176347571Y-58590380D01*
X176442809Y-58638000D01*
X176490428Y-58685619D01*
X176538047Y-58780857D01*
X176538047Y-58923714D01*
X176490428Y-59018952D01*
X176442809Y-59066571D01*
X176347571Y-59114190D01*
X175966619Y-59114190D01*
X176966619Y-59066571D02*
X177299952Y-59066571D01*
X177442809Y-59590380D02*
X176966619Y-59590380D01*
X176966619Y-58590380D01*
X177442809Y-58590380D01*
X178442809Y-59590380D02*
X178109476Y-59114190D01*
X177871380Y-59590380D02*
X177871380Y-58590380D01*
X178252333Y-58590380D01*
X178347571Y-58638000D01*
X178395190Y-58685619D01*
X178442809Y-58780857D01*
X178442809Y-58923714D01*
X178395190Y-59018952D01*
X178347571Y-59066571D01*
X178252333Y-59114190D01*
X177871380Y-59114190D01*
X179442809Y-59495142D02*
X179395190Y-59542761D01*
X179252333Y-59590380D01*
X179157095Y-59590380D01*
X179014238Y-59542761D01*
X178919000Y-59447523D01*
X178871380Y-59352285D01*
X178823761Y-59161809D01*
X178823761Y-59018952D01*
X178871380Y-58828476D01*
X178919000Y-58733238D01*
X179014238Y-58638000D01*
X179157095Y-58590380D01*
X179252333Y-58590380D01*
X179395190Y-58638000D01*
X179442809Y-58685619D01*
X179871380Y-59590380D02*
X179871380Y-58590380D01*
X180919000Y-59495142D02*
X180871380Y-59542761D01*
X180728523Y-59590380D01*
X180633285Y-59590380D01*
X180490428Y-59542761D01*
X180395190Y-59447523D01*
X180347571Y-59352285D01*
X180299952Y-59161809D01*
X180299952Y-59018952D01*
X180347571Y-58828476D01*
X180395190Y-58733238D01*
X180490428Y-58638000D01*
X180633285Y-58590380D01*
X180728523Y-58590380D01*
X180871380Y-58638000D01*
X180919000Y-58685619D01*
D15*
X97897190Y-56804666D02*
X98254333Y-56804666D01*
X98325761Y-56828476D01*
X98373380Y-56876095D01*
X98397190Y-56947523D01*
X98397190Y-56995142D01*
X98397190Y-56566571D02*
X97897190Y-56566571D01*
X97897190Y-56376095D01*
X97921000Y-56328476D01*
X97944809Y-56304666D01*
X97992428Y-56280857D01*
X98063857Y-56280857D01*
X98111476Y-56304666D01*
X98135285Y-56328476D01*
X98159095Y-56376095D01*
X98159095Y-56566571D01*
X97897190Y-56114190D02*
X97897190Y-55780857D01*
X98397190Y-55995142D01*
X103215333Y-42906190D02*
X103215333Y-43263333D01*
X103191523Y-43334761D01*
X103143904Y-43382380D01*
X103072476Y-43406190D01*
X103024857Y-43406190D01*
X103453428Y-43406190D02*
X103453428Y-42906190D01*
X103643904Y-42906190D01*
X103691523Y-42930000D01*
X103715333Y-42953809D01*
X103739142Y-43001428D01*
X103739142Y-43072857D01*
X103715333Y-43120476D01*
X103691523Y-43144285D01*
X103643904Y-43168095D01*
X103453428Y-43168095D01*
X104167714Y-42906190D02*
X104072476Y-42906190D01*
X104024857Y-42930000D01*
X104001047Y-42953809D01*
X103953428Y-43025238D01*
X103929619Y-43120476D01*
X103929619Y-43310952D01*
X103953428Y-43358571D01*
X103977238Y-43382380D01*
X104024857Y-43406190D01*
X104120095Y-43406190D01*
X104167714Y-43382380D01*
X104191523Y-43358571D01*
X104215333Y-43310952D01*
X104215333Y-43191904D01*
X104191523Y-43144285D01*
X104167714Y-43120476D01*
X104120095Y-43096666D01*
X104024857Y-43096666D01*
X103977238Y-43120476D01*
X103953428Y-43144285D01*
X103929619Y-43191904D01*
X137251333Y-49637190D02*
X137251333Y-49994333D01*
X137227523Y-50065761D01*
X137179904Y-50113380D01*
X137108476Y-50137190D01*
X137060857Y-50137190D01*
X137489428Y-50137190D02*
X137489428Y-49637190D01*
X137679904Y-49637190D01*
X137727523Y-49661000D01*
X137751333Y-49684809D01*
X137775142Y-49732428D01*
X137775142Y-49803857D01*
X137751333Y-49851476D01*
X137727523Y-49875285D01*
X137679904Y-49899095D01*
X137489428Y-49899095D01*
X138227523Y-49637190D02*
X137989428Y-49637190D01*
X137965619Y-49875285D01*
X137989428Y-49851476D01*
X138037047Y-49827666D01*
X138156095Y-49827666D01*
X138203714Y-49851476D01*
X138227523Y-49875285D01*
X138251333Y-49922904D01*
X138251333Y-50041952D01*
X138227523Y-50089571D01*
X138203714Y-50113380D01*
X138156095Y-50137190D01*
X138037047Y-50137190D01*
X137989428Y-50113380D01*
X137965619Y-50089571D01*
X162270333Y-50018190D02*
X162270333Y-50375333D01*
X162246523Y-50446761D01*
X162198904Y-50494380D01*
X162127476Y-50518190D01*
X162079857Y-50518190D01*
X162508428Y-50518190D02*
X162508428Y-50018190D01*
X162698904Y-50018190D01*
X162746523Y-50042000D01*
X162770333Y-50065809D01*
X162794142Y-50113428D01*
X162794142Y-50184857D01*
X162770333Y-50232476D01*
X162746523Y-50256285D01*
X162698904Y-50280095D01*
X162508428Y-50280095D01*
X163222714Y-50184857D02*
X163222714Y-50518190D01*
X163103666Y-49994380D02*
X162984619Y-50351523D01*
X163294142Y-50351523D01*
X156301333Y-50018190D02*
X156301333Y-50375333D01*
X156277523Y-50446761D01*
X156229904Y-50494380D01*
X156158476Y-50518190D01*
X156110857Y-50518190D01*
X156539428Y-50518190D02*
X156539428Y-50018190D01*
X156729904Y-50018190D01*
X156777523Y-50042000D01*
X156801333Y-50065809D01*
X156825142Y-50113428D01*
X156825142Y-50184857D01*
X156801333Y-50232476D01*
X156777523Y-50256285D01*
X156729904Y-50280095D01*
X156539428Y-50280095D01*
X156991809Y-50018190D02*
X157301333Y-50018190D01*
X157134666Y-50208666D01*
X157206095Y-50208666D01*
X157253714Y-50232476D01*
X157277523Y-50256285D01*
X157301333Y-50303904D01*
X157301333Y-50422952D01*
X157277523Y-50470571D01*
X157253714Y-50494380D01*
X157206095Y-50518190D01*
X157063238Y-50518190D01*
X157015619Y-50494380D01*
X156991809Y-50470571D01*
X150205333Y-50018190D02*
X150205333Y-50375333D01*
X150181523Y-50446761D01*
X150133904Y-50494380D01*
X150062476Y-50518190D01*
X150014857Y-50518190D01*
X150443428Y-50518190D02*
X150443428Y-50018190D01*
X150633904Y-50018190D01*
X150681523Y-50042000D01*
X150705333Y-50065809D01*
X150729142Y-50113428D01*
X150729142Y-50184857D01*
X150705333Y-50232476D01*
X150681523Y-50256285D01*
X150633904Y-50280095D01*
X150443428Y-50280095D01*
X150919619Y-50065809D02*
X150943428Y-50042000D01*
X150991047Y-50018190D01*
X151110095Y-50018190D01*
X151157714Y-50042000D01*
X151181523Y-50065809D01*
X151205333Y-50113428D01*
X151205333Y-50161047D01*
X151181523Y-50232476D01*
X150895809Y-50518190D01*
X151205333Y-50518190D01*
X157444333Y-40239190D02*
X157444333Y-40596333D01*
X157420523Y-40667761D01*
X157372904Y-40715380D01*
X157301476Y-40739190D01*
X157253857Y-40739190D01*
X157682428Y-40739190D02*
X157682428Y-40239190D01*
X157872904Y-40239190D01*
X157920523Y-40263000D01*
X157944333Y-40286809D01*
X157968142Y-40334428D01*
X157968142Y-40405857D01*
X157944333Y-40453476D01*
X157920523Y-40477285D01*
X157872904Y-40501095D01*
X157682428Y-40501095D01*
X158444333Y-40739190D02*
X158158619Y-40739190D01*
X158301476Y-40739190D02*
X158301476Y-40239190D01*
X158253857Y-40310619D01*
X158206238Y-40358238D01*
X158158619Y-40382047D01*
D10*
X106537380Y-96091333D02*
X107251666Y-96091333D01*
X107394523Y-96138952D01*
X107489761Y-96234190D01*
X107537380Y-96377047D01*
X107537380Y-96472285D01*
X107537380Y-95091333D02*
X107537380Y-95662761D01*
X107537380Y-95377047D02*
X106537380Y-95377047D01*
X106680238Y-95472285D01*
X106775476Y-95567523D01*
X106823095Y-95662761D01*
X170497380Y-93551333D02*
X171211666Y-93551333D01*
X171354523Y-93598952D01*
X171449761Y-93694190D01*
X171497380Y-93837047D01*
X171497380Y-93932285D01*
X170592619Y-93122761D02*
X170545000Y-93075142D01*
X170497380Y-92979904D01*
X170497380Y-92741809D01*
X170545000Y-92646571D01*
X170592619Y-92598952D01*
X170687857Y-92551333D01*
X170783095Y-92551333D01*
X170925952Y-92598952D01*
X171497380Y-93170380D01*
X171497380Y-92551333D01*
X97242380Y-50799904D02*
X98051904Y-50799904D01*
X98147142Y-50752285D01*
X98194761Y-50704666D01*
X98242380Y-50609428D01*
X98242380Y-50418952D01*
X98194761Y-50323714D01*
X98147142Y-50276095D01*
X98051904Y-50228476D01*
X97242380Y-50228476D01*
X97670952Y-49609428D02*
X97623333Y-49704666D01*
X97575714Y-49752285D01*
X97480476Y-49799904D01*
X97432857Y-49799904D01*
X97337619Y-49752285D01*
X97290000Y-49704666D01*
X97242380Y-49609428D01*
X97242380Y-49418952D01*
X97290000Y-49323714D01*
X97337619Y-49276095D01*
X97432857Y-49228476D01*
X97480476Y-49228476D01*
X97575714Y-49276095D01*
X97623333Y-49323714D01*
X97670952Y-49418952D01*
X97670952Y-49609428D01*
X97718571Y-49704666D01*
X97766190Y-49752285D01*
X97861428Y-49799904D01*
X98051904Y-49799904D01*
X98147142Y-49752285D01*
X98194761Y-49704666D01*
X98242380Y-49609428D01*
X98242380Y-49418952D01*
X98194761Y-49323714D01*
X98147142Y-49276095D01*
X98051904Y-49228476D01*
X97861428Y-49228476D01*
X97766190Y-49276095D01*
X97718571Y-49323714D01*
X97670952Y-49418952D01*
X145248380Y-46100904D02*
X146057904Y-46100904D01*
X146153142Y-46053285D01*
X146200761Y-46005666D01*
X146248380Y-45910428D01*
X146248380Y-45719952D01*
X146200761Y-45624714D01*
X146153142Y-45577095D01*
X146057904Y-45529476D01*
X145248380Y-45529476D01*
X145248380Y-45148523D02*
X145248380Y-44481857D01*
X146248380Y-44910428D01*
X132675380Y-46100904D02*
X133484904Y-46100904D01*
X133580142Y-46053285D01*
X133627761Y-46005666D01*
X133675380Y-45910428D01*
X133675380Y-45719952D01*
X133627761Y-45624714D01*
X133580142Y-45577095D01*
X133484904Y-45529476D01*
X132675380Y-45529476D01*
X132770619Y-45100904D02*
X132723000Y-45053285D01*
X132675380Y-44958047D01*
X132675380Y-44719952D01*
X132723000Y-44624714D01*
X132770619Y-44577095D01*
X132865857Y-44529476D01*
X132961095Y-44529476D01*
X133103952Y-44577095D01*
X133675380Y-45148523D01*
X133675380Y-44529476D01*
X120737380Y-46100904D02*
X121546904Y-46100904D01*
X121642142Y-46053285D01*
X121689761Y-46005666D01*
X121737380Y-45910428D01*
X121737380Y-45719952D01*
X121689761Y-45624714D01*
X121642142Y-45577095D01*
X121546904Y-45529476D01*
X120737380Y-45529476D01*
X121737380Y-44529476D02*
X121737380Y-45100904D01*
X121737380Y-44815190D02*
X120737380Y-44815190D01*
X120880238Y-44910428D01*
X120975476Y-45005666D01*
X121023095Y-45100904D01*
X183402761Y-39687333D02*
X183450380Y-39544476D01*
X183450380Y-39306380D01*
X183402761Y-39211142D01*
X183355142Y-39163523D01*
X183259904Y-39115904D01*
X183164666Y-39115904D01*
X183069428Y-39163523D01*
X183021809Y-39211142D01*
X182974190Y-39306380D01*
X182926571Y-39496857D01*
X182878952Y-39592095D01*
X182831333Y-39639714D01*
X182736095Y-39687333D01*
X182640857Y-39687333D01*
X182545619Y-39639714D01*
X182498000Y-39592095D01*
X182450380Y-39496857D01*
X182450380Y-39258761D01*
X182498000Y-39115904D01*
X182450380Y-38782571D02*
X183450380Y-38544476D01*
X182736095Y-38354000D01*
X183450380Y-38163523D01*
X182450380Y-37925428D01*
X183450380Y-37020666D02*
X183450380Y-37592095D01*
X183450380Y-37306380D02*
X182450380Y-37306380D01*
X182593238Y-37401619D01*
X182688476Y-37496857D01*
X182736095Y-37592095D01*
X168235333Y-56745142D02*
X168187714Y-56792761D01*
X168044857Y-56840380D01*
X167949619Y-56840380D01*
X167806761Y-56792761D01*
X167711523Y-56697523D01*
X167663904Y-56602285D01*
X167616285Y-56411809D01*
X167616285Y-56268952D01*
X167663904Y-56078476D01*
X167711523Y-55983238D01*
X167806761Y-55888000D01*
X167949619Y-55840380D01*
X168044857Y-55840380D01*
X168187714Y-55888000D01*
X168235333Y-55935619D01*
X169187714Y-56840380D02*
X168616285Y-56840380D01*
X168902000Y-56840380D02*
X168902000Y-55840380D01*
X168806761Y-55983238D01*
X168711523Y-56078476D01*
X168616285Y-56126095D01*
X162195142Y-47263666D02*
X162242761Y-47311285D01*
X162290380Y-47454142D01*
X162290380Y-47549380D01*
X162242761Y-47692238D01*
X162147523Y-47787476D01*
X162052285Y-47835095D01*
X161861809Y-47882714D01*
X161718952Y-47882714D01*
X161528476Y-47835095D01*
X161433238Y-47787476D01*
X161338000Y-47692238D01*
X161290380Y-47549380D01*
X161290380Y-47454142D01*
X161338000Y-47311285D01*
X161385619Y-47263666D01*
X161385619Y-46882714D02*
X161338000Y-46835095D01*
X161290380Y-46739857D01*
X161290380Y-46501761D01*
X161338000Y-46406523D01*
X161385619Y-46358904D01*
X161480857Y-46311285D01*
X161576095Y-46311285D01*
X161718952Y-46358904D01*
X162290380Y-46930333D01*
X162290380Y-46311285D01*
X166783380Y-63095095D02*
X165783380Y-63095095D01*
X165783380Y-62857000D01*
X165831000Y-62714142D01*
X165926238Y-62618904D01*
X166021476Y-62571285D01*
X166211952Y-62523666D01*
X166354809Y-62523666D01*
X166545285Y-62571285D01*
X166640523Y-62618904D01*
X166735761Y-62714142D01*
X166783380Y-62857000D01*
X166783380Y-63095095D01*
X166783380Y-61571285D02*
X166783380Y-62142714D01*
X166783380Y-61857000D02*
X165783380Y-61857000D01*
X165926238Y-61952238D01*
X166021476Y-62047476D01*
X166069095Y-62142714D01*
X180919380Y-49569666D02*
X180443190Y-49903000D01*
X180919380Y-50141095D02*
X179919380Y-50141095D01*
X179919380Y-49760142D01*
X179967000Y-49664904D01*
X180014619Y-49617285D01*
X180109857Y-49569666D01*
X180252714Y-49569666D01*
X180347952Y-49617285D01*
X180395571Y-49664904D01*
X180443190Y-49760142D01*
X180443190Y-50141095D01*
X180919380Y-48617285D02*
X180919380Y-49188714D01*
X180919380Y-48903000D02*
X179919380Y-48903000D01*
X180062238Y-48998238D01*
X180157476Y-49093476D01*
X180205095Y-49188714D01*
X177871380Y-49569666D02*
X177395190Y-49903000D01*
X177871380Y-50141095D02*
X176871380Y-50141095D01*
X176871380Y-49760142D01*
X176919000Y-49664904D01*
X176966619Y-49617285D01*
X177061857Y-49569666D01*
X177204714Y-49569666D01*
X177299952Y-49617285D01*
X177347571Y-49664904D01*
X177395190Y-49760142D01*
X177395190Y-50141095D01*
X176966619Y-49188714D02*
X176919000Y-49141095D01*
X176871380Y-49045857D01*
X176871380Y-48807761D01*
X176919000Y-48712523D01*
X176966619Y-48664904D01*
X177061857Y-48617285D01*
X177157095Y-48617285D01*
X177299952Y-48664904D01*
X177871380Y-49236333D01*
X177871380Y-48617285D01*
X174823380Y-49569666D02*
X174347190Y-49903000D01*
X174823380Y-50141095D02*
X173823380Y-50141095D01*
X173823380Y-49760142D01*
X173871000Y-49664904D01*
X173918619Y-49617285D01*
X174013857Y-49569666D01*
X174156714Y-49569666D01*
X174251952Y-49617285D01*
X174299571Y-49664904D01*
X174347190Y-49760142D01*
X174347190Y-50141095D01*
X173823380Y-49236333D02*
X173823380Y-48617285D01*
X174204333Y-48950619D01*
X174204333Y-48807761D01*
X174251952Y-48712523D01*
X174299571Y-48664904D01*
X174394809Y-48617285D01*
X174632904Y-48617285D01*
X174728142Y-48664904D01*
X174775761Y-48712523D01*
X174823380Y-48807761D01*
X174823380Y-49093476D01*
X174775761Y-49188714D01*
X174728142Y-49236333D01*
X171775380Y-49569666D02*
X171299190Y-49903000D01*
X171775380Y-50141095D02*
X170775380Y-50141095D01*
X170775380Y-49760142D01*
X170823000Y-49664904D01*
X170870619Y-49617285D01*
X170965857Y-49569666D01*
X171108714Y-49569666D01*
X171203952Y-49617285D01*
X171251571Y-49664904D01*
X171299190Y-49760142D01*
X171299190Y-50141095D01*
X171108714Y-48712523D02*
X171775380Y-48712523D01*
X170727761Y-48950619D02*
X171442047Y-49188714D01*
X171442047Y-48569666D01*
M02*
