G04 #@! TF.GenerationSoftware,KiCad,Pcbnew,(5.1.4)-1*
G04 #@! TF.CreationDate,2021-02-24T15:32:15-03:00*
G04 #@! TF.ProjectId,snes_feram,736e6573-5f66-4657-9261-6d2e6b696361,rev?*
G04 #@! TF.SameCoordinates,Original*
G04 #@! TF.FileFunction,Profile,NP*
%FSLAX46Y46*%
G04 Gerber Fmt 4.6, Leading zero omitted, Abs format (unit mm)*
G04 Created by KiCad (PCBNEW (5.1.4)-1) date 2021-02-24 15:32:15*
%MOMM*%
%LPD*%
G04 APERTURE LIST*
%ADD10C,0.101600*%
%ADD11C,0.099060*%
G04 APERTURE END LIST*
D10*
X88389460Y-94990920D02*
X107889040Y-94990920D01*
X184388760Y-30091380D02*
X186888120Y-30091380D01*
X184388760Y-31790640D02*
X184388760Y-30091380D01*
X107889040Y-94990920D02*
X107889040Y-95092520D01*
X186887980Y-79623920D02*
X184387980Y-79623920D01*
X167888920Y-94990920D02*
X186887980Y-94990920D01*
X186888120Y-30091380D02*
X186888120Y-26090880D01*
X186884800Y-77623920D02*
X186888120Y-31790640D01*
X108590080Y-105592880D02*
X167187880Y-105592880D01*
X186887980Y-79623920D02*
X186887980Y-94990920D01*
X186888120Y-31790640D02*
X184388760Y-31790640D01*
X167888920Y-104891840D02*
X167888920Y-95092520D01*
X184387980Y-77623920D02*
X186884800Y-77623920D01*
X184387980Y-79623920D02*
X184387980Y-77623920D01*
X167888920Y-95092520D02*
X167888920Y-94990920D01*
X107889040Y-104891840D02*
X107889040Y-95092520D01*
X88389460Y-94990920D02*
X88389600Y-71490920D01*
X88389600Y-69490920D02*
X90888960Y-69490920D01*
D11*
X167187880Y-105592880D02*
G75*
G03X167888920Y-104891840I0J701040D01*
G01*
D10*
X88389460Y-26090880D02*
X116238020Y-26090880D01*
X116238020Y-26090880D02*
X159788860Y-26090880D01*
D11*
X107889040Y-104891840D02*
G75*
G03X108590080Y-105592880I701040J0D01*
G01*
D10*
X90888960Y-71490920D02*
X88389600Y-71490920D01*
X90888960Y-69490920D02*
X90888960Y-71490920D01*
X88389460Y-31790640D02*
X88389600Y-69490920D01*
X90888820Y-31790640D02*
X88389460Y-31790640D01*
X90888820Y-30091380D02*
X90888820Y-31790640D01*
X88389460Y-30091380D02*
X90888820Y-30091380D01*
X88389460Y-26090880D02*
X88389460Y-30091380D01*
X159788860Y-26090880D02*
X186888120Y-26090880D01*
M02*
