G04 #@! TF.GenerationSoftware,KiCad,Pcbnew,(5.1.4)-1*
G04 #@! TF.CreationDate,2020-11-02T16:34:53-03:00*
G04 #@! TF.ProjectId,snes_feram,736e6573-5f66-4657-9261-6d2e6b696361,rev?*
G04 #@! TF.SameCoordinates,Original*
G04 #@! TF.FileFunction,Legend,Bot*
G04 #@! TF.FilePolarity,Positive*
%FSLAX46Y46*%
G04 Gerber Fmt 4.6, Leading zero omitted, Abs format (unit mm)*
G04 Created by KiCad (PCBNEW (5.1.4)-1) date 2020-11-02 16:34:53*
%MOMM*%
%LPD*%
G04 APERTURE LIST*
%ADD10C,0.150000*%
%ADD11C,0.190500*%
%ADD12C,0.120000*%
%ADD13C,0.125000*%
G04 APERTURE END LIST*
D10*
X128039476Y-68254619D02*
X127991857Y-68207000D01*
X127896619Y-68159380D01*
X127658523Y-68159380D01*
X127563285Y-68207000D01*
X127515666Y-68254619D01*
X127468047Y-68349857D01*
X127468047Y-68445095D01*
X127515666Y-68587952D01*
X128087095Y-69159380D01*
X127468047Y-69159380D01*
X127134714Y-68159380D02*
X126468047Y-68159380D01*
X126896619Y-69159380D01*
X125515666Y-69064142D02*
X125563285Y-69111761D01*
X125706142Y-69159380D01*
X125801380Y-69159380D01*
X125944238Y-69111761D01*
X126039476Y-69016523D01*
X126087095Y-68921285D01*
X126134714Y-68730809D01*
X126134714Y-68587952D01*
X126087095Y-68397476D01*
X126039476Y-68302238D01*
X125944238Y-68207000D01*
X125801380Y-68159380D01*
X125706142Y-68159380D01*
X125563285Y-68207000D01*
X125515666Y-68254619D01*
X125182333Y-68159380D02*
X124563285Y-68159380D01*
X124896619Y-68540333D01*
X124753761Y-68540333D01*
X124658523Y-68587952D01*
X124610904Y-68635571D01*
X124563285Y-68730809D01*
X124563285Y-68968904D01*
X124610904Y-69064142D01*
X124658523Y-69111761D01*
X124753761Y-69159380D01*
X125039476Y-69159380D01*
X125134714Y-69111761D01*
X125182333Y-69064142D01*
X124182333Y-68254619D02*
X124134714Y-68207000D01*
X124039476Y-68159380D01*
X123801380Y-68159380D01*
X123706142Y-68207000D01*
X123658523Y-68254619D01*
X123610904Y-68349857D01*
X123610904Y-68445095D01*
X123658523Y-68587952D01*
X124229952Y-69159380D01*
X123610904Y-69159380D01*
X123229952Y-68254619D02*
X123182333Y-68207000D01*
X123087095Y-68159380D01*
X122849000Y-68159380D01*
X122753761Y-68207000D01*
X122706142Y-68254619D01*
X122658523Y-68349857D01*
X122658523Y-68445095D01*
X122706142Y-68587952D01*
X123277571Y-69159380D01*
X122658523Y-69159380D01*
X167091904Y-84288380D02*
X166425238Y-84288380D01*
X166853809Y-85288380D01*
X165615714Y-84621714D02*
X165615714Y-85288380D01*
X165853809Y-84240761D02*
X166091904Y-84955047D01*
X165472857Y-84955047D01*
X165091904Y-85288380D02*
X165091904Y-84288380D01*
X165091904Y-84764571D02*
X164520476Y-84764571D01*
X164520476Y-85288380D02*
X164520476Y-84288380D01*
X163472857Y-85193142D02*
X163520476Y-85240761D01*
X163663333Y-85288380D01*
X163758571Y-85288380D01*
X163901428Y-85240761D01*
X163996666Y-85145523D01*
X164044285Y-85050285D01*
X164091904Y-84859809D01*
X164091904Y-84716952D01*
X164044285Y-84526476D01*
X163996666Y-84431238D01*
X163901428Y-84336000D01*
X163758571Y-84288380D01*
X163663333Y-84288380D01*
X163520476Y-84336000D01*
X163472857Y-84383619D01*
X163091904Y-84383619D02*
X163044285Y-84336000D01*
X162949047Y-84288380D01*
X162710952Y-84288380D01*
X162615714Y-84336000D01*
X162568095Y-84383619D01*
X162520476Y-84478857D01*
X162520476Y-84574095D01*
X162568095Y-84716952D01*
X163139523Y-85288380D01*
X162520476Y-85288380D01*
X161663333Y-84621714D02*
X161663333Y-85288380D01*
X161901428Y-84240761D02*
X162139523Y-84955047D01*
X161520476Y-84955047D01*
X160663333Y-84288380D02*
X161139523Y-84288380D01*
X161187142Y-84764571D01*
X161139523Y-84716952D01*
X161044285Y-84669333D01*
X160806190Y-84669333D01*
X160710952Y-84716952D01*
X160663333Y-84764571D01*
X160615714Y-84859809D01*
X160615714Y-85097904D01*
X160663333Y-85193142D01*
X160710952Y-85240761D01*
X160806190Y-85288380D01*
X161044285Y-85288380D01*
X161139523Y-85240761D01*
X161187142Y-85193142D01*
X152359904Y-84288380D02*
X151693238Y-84288380D01*
X152121809Y-85288380D01*
X150883714Y-84621714D02*
X150883714Y-85288380D01*
X151121809Y-84240761D02*
X151359904Y-84955047D01*
X150740857Y-84955047D01*
X150359904Y-85288380D02*
X150359904Y-84288380D01*
X150359904Y-84764571D02*
X149788476Y-84764571D01*
X149788476Y-85288380D02*
X149788476Y-84288380D01*
X148740857Y-85193142D02*
X148788476Y-85240761D01*
X148931333Y-85288380D01*
X149026571Y-85288380D01*
X149169428Y-85240761D01*
X149264666Y-85145523D01*
X149312285Y-85050285D01*
X149359904Y-84859809D01*
X149359904Y-84716952D01*
X149312285Y-84526476D01*
X149264666Y-84431238D01*
X149169428Y-84336000D01*
X149026571Y-84288380D01*
X148931333Y-84288380D01*
X148788476Y-84336000D01*
X148740857Y-84383619D01*
X148359904Y-84383619D02*
X148312285Y-84336000D01*
X148217047Y-84288380D01*
X147978952Y-84288380D01*
X147883714Y-84336000D01*
X147836095Y-84383619D01*
X147788476Y-84478857D01*
X147788476Y-84574095D01*
X147836095Y-84716952D01*
X148407523Y-85288380D01*
X147788476Y-85288380D01*
X146931333Y-84621714D02*
X146931333Y-85288380D01*
X147169428Y-84240761D02*
X147407523Y-84955047D01*
X146788476Y-84955047D01*
X145931333Y-84288380D02*
X146407523Y-84288380D01*
X146455142Y-84764571D01*
X146407523Y-84716952D01*
X146312285Y-84669333D01*
X146074190Y-84669333D01*
X145978952Y-84716952D01*
X145931333Y-84764571D01*
X145883714Y-84859809D01*
X145883714Y-85097904D01*
X145931333Y-85193142D01*
X145978952Y-85240761D01*
X146074190Y-85288380D01*
X146312285Y-85288380D01*
X146407523Y-85240761D01*
X146455142Y-85193142D01*
X183431428Y-92348857D02*
X183217142Y-92420285D01*
X183145714Y-92491714D01*
X183074285Y-92634571D01*
X183074285Y-92848857D01*
X183145714Y-92991714D01*
X183217142Y-93063142D01*
X183360000Y-93134571D01*
X183931428Y-93134571D01*
X183931428Y-91634571D01*
X183431428Y-91634571D01*
X183288571Y-91706000D01*
X183217142Y-91777428D01*
X183145714Y-91920285D01*
X183145714Y-92063142D01*
X183217142Y-92206000D01*
X183288571Y-92277428D01*
X183431428Y-92348857D01*
X183931428Y-92348857D01*
X181788571Y-93134571D02*
X181788571Y-92348857D01*
X181860000Y-92206000D01*
X182002857Y-92134571D01*
X182288571Y-92134571D01*
X182431428Y-92206000D01*
X181788571Y-93063142D02*
X181931428Y-93134571D01*
X182288571Y-93134571D01*
X182431428Y-93063142D01*
X182502857Y-92920285D01*
X182502857Y-92777428D01*
X182431428Y-92634571D01*
X182288571Y-92563142D01*
X181931428Y-92563142D01*
X181788571Y-92491714D01*
X180431428Y-93063142D02*
X180574285Y-93134571D01*
X180860000Y-93134571D01*
X181002857Y-93063142D01*
X181074285Y-92991714D01*
X181145714Y-92848857D01*
X181145714Y-92420285D01*
X181074285Y-92277428D01*
X181002857Y-92206000D01*
X180860000Y-92134571D01*
X180574285Y-92134571D01*
X180431428Y-92206000D01*
X179788571Y-93134571D02*
X179788571Y-91634571D01*
X179645714Y-92563142D02*
X179217142Y-93134571D01*
X179217142Y-92134571D02*
X179788571Y-92706000D01*
X95674428Y-91713857D02*
X95460142Y-91785285D01*
X95388714Y-91856714D01*
X95317285Y-91999571D01*
X95317285Y-92213857D01*
X95388714Y-92356714D01*
X95460142Y-92428142D01*
X95603000Y-92499571D01*
X96174428Y-92499571D01*
X96174428Y-90999571D01*
X95674428Y-90999571D01*
X95531571Y-91071000D01*
X95460142Y-91142428D01*
X95388714Y-91285285D01*
X95388714Y-91428142D01*
X95460142Y-91571000D01*
X95531571Y-91642428D01*
X95674428Y-91713857D01*
X96174428Y-91713857D01*
X94031571Y-92499571D02*
X94031571Y-91713857D01*
X94103000Y-91571000D01*
X94245857Y-91499571D01*
X94531571Y-91499571D01*
X94674428Y-91571000D01*
X94031571Y-92428142D02*
X94174428Y-92499571D01*
X94531571Y-92499571D01*
X94674428Y-92428142D01*
X94745857Y-92285285D01*
X94745857Y-92142428D01*
X94674428Y-91999571D01*
X94531571Y-91928142D01*
X94174428Y-91928142D01*
X94031571Y-91856714D01*
X92674428Y-92428142D02*
X92817285Y-92499571D01*
X93103000Y-92499571D01*
X93245857Y-92428142D01*
X93317285Y-92356714D01*
X93388714Y-92213857D01*
X93388714Y-91785285D01*
X93317285Y-91642428D01*
X93245857Y-91571000D01*
X93103000Y-91499571D01*
X92817285Y-91499571D01*
X92674428Y-91571000D01*
X92031571Y-92499571D02*
X92031571Y-90999571D01*
X91888714Y-91928142D02*
X91460142Y-92499571D01*
X91460142Y-91499571D02*
X92031571Y-92071000D01*
X99484428Y-30753857D02*
X99270142Y-30825285D01*
X99198714Y-30896714D01*
X99127285Y-31039571D01*
X99127285Y-31253857D01*
X99198714Y-31396714D01*
X99270142Y-31468142D01*
X99413000Y-31539571D01*
X99984428Y-31539571D01*
X99984428Y-30039571D01*
X99484428Y-30039571D01*
X99341571Y-30111000D01*
X99270142Y-30182428D01*
X99198714Y-30325285D01*
X99198714Y-30468142D01*
X99270142Y-30611000D01*
X99341571Y-30682428D01*
X99484428Y-30753857D01*
X99984428Y-30753857D01*
X97841571Y-31539571D02*
X97841571Y-30753857D01*
X97913000Y-30611000D01*
X98055857Y-30539571D01*
X98341571Y-30539571D01*
X98484428Y-30611000D01*
X97841571Y-31468142D02*
X97984428Y-31539571D01*
X98341571Y-31539571D01*
X98484428Y-31468142D01*
X98555857Y-31325285D01*
X98555857Y-31182428D01*
X98484428Y-31039571D01*
X98341571Y-30968142D01*
X97984428Y-30968142D01*
X97841571Y-30896714D01*
X96484428Y-31468142D02*
X96627285Y-31539571D01*
X96913000Y-31539571D01*
X97055857Y-31468142D01*
X97127285Y-31396714D01*
X97198714Y-31253857D01*
X97198714Y-30825285D01*
X97127285Y-30682428D01*
X97055857Y-30611000D01*
X96913000Y-30539571D01*
X96627285Y-30539571D01*
X96484428Y-30611000D01*
X95841571Y-31539571D02*
X95841571Y-30039571D01*
X95698714Y-30968142D02*
X95270142Y-31539571D01*
X95270142Y-30539571D02*
X95841571Y-31111000D01*
X133169000Y-81088666D02*
X133169000Y-80388666D01*
X133169000Y-80722000D02*
X132769000Y-80722000D01*
X132769000Y-81088666D02*
X132769000Y-80388666D01*
X127962000Y-81088666D02*
X127962000Y-80388666D01*
X127962000Y-80722000D02*
X127562000Y-80722000D01*
X127562000Y-81088666D02*
X127562000Y-80388666D01*
X122755000Y-81088666D02*
X122755000Y-80388666D01*
X122755000Y-80722000D02*
X122355000Y-80722000D01*
X122355000Y-81088666D02*
X122355000Y-80388666D01*
X135292333Y-81088666D02*
X135625666Y-81088666D01*
X135625666Y-80388666D01*
X130085333Y-81215666D02*
X130418666Y-81215666D01*
X130418666Y-80515666D01*
X124878333Y-81088666D02*
X125211666Y-81088666D01*
X125211666Y-80388666D01*
X123608333Y-87692666D02*
X123941666Y-87692666D01*
X123941666Y-86992666D01*
X128688333Y-87692666D02*
X129021666Y-87692666D01*
X129021666Y-86992666D01*
X133768333Y-87692666D02*
X134101666Y-87692666D01*
X134101666Y-86992666D01*
X121485000Y-87692666D02*
X121485000Y-86992666D01*
X121485000Y-87326000D02*
X121085000Y-87326000D01*
X121085000Y-87692666D02*
X121085000Y-86992666D01*
X126565000Y-87692666D02*
X126565000Y-86992666D01*
X126565000Y-87326000D02*
X126165000Y-87326000D01*
X126165000Y-87692666D02*
X126165000Y-86992666D01*
X131645000Y-87692666D02*
X131645000Y-86992666D01*
X131645000Y-87326000D02*
X131245000Y-87326000D01*
X131245000Y-87692666D02*
X131245000Y-86992666D01*
X138848333Y-87692666D02*
X139181666Y-87692666D01*
X139181666Y-86992666D01*
X136725000Y-87692666D02*
X136725000Y-86992666D01*
X136725000Y-87326000D02*
X136325000Y-87326000D01*
X136325000Y-87692666D02*
X136325000Y-86992666D01*
D11*
X143888460Y-72588120D02*
G75*
G03X143888460Y-72588120I-1998980J0D01*
G01*
D12*
X142823000Y-80976000D02*
X142823000Y-79161000D01*
X142588000Y-80976000D02*
X142823000Y-80976000D01*
X142588000Y-84836000D02*
X142588000Y-80976000D01*
X142588000Y-88696000D02*
X142823000Y-88696000D01*
X142588000Y-84836000D02*
X142588000Y-88696000D01*
X155608000Y-80976000D02*
X155373000Y-80976000D01*
X155608000Y-84836000D02*
X155608000Y-80976000D01*
X155608000Y-88696000D02*
X155373000Y-88696000D01*
X155608000Y-84836000D02*
X155608000Y-88696000D01*
X170105000Y-88774000D02*
X170105000Y-90589000D01*
X170340000Y-88774000D02*
X170105000Y-88774000D01*
X170340000Y-84914000D02*
X170340000Y-88774000D01*
X170340000Y-81054000D02*
X170105000Y-81054000D01*
X170340000Y-84914000D02*
X170340000Y-81054000D01*
X157320000Y-88774000D02*
X157555000Y-88774000D01*
X157320000Y-84914000D02*
X157320000Y-88774000D01*
X157320000Y-81054000D02*
X157555000Y-81054000D01*
X157320000Y-84914000D02*
X157320000Y-81054000D01*
X98746000Y-75167000D02*
X98746000Y-69707000D01*
X152206000Y-75167000D02*
X98746000Y-75167000D01*
X152206000Y-62247000D02*
X152206000Y-75167000D01*
X98746000Y-62247000D02*
X152206000Y-62247000D01*
X98746000Y-67707000D02*
X98746000Y-62247000D01*
X98746000Y-69707000D02*
G75*
G03X98746000Y-67707000I0J1000000D01*
G01*
X135715000Y-89708000D02*
G75*
G03X136415000Y-90408000I700000J0D01*
G01*
X136415000Y-88408000D02*
G75*
G03X135715000Y-89108000I0J-700000D01*
G01*
X139815000Y-89108000D02*
G75*
G03X139115000Y-88408000I-700000J0D01*
G01*
X139115000Y-90408000D02*
G75*
G03X139815000Y-89708000I0J700000D01*
G01*
X136365000Y-90408000D02*
X139165000Y-90408000D01*
X139815000Y-89708000D02*
X139815000Y-89108000D01*
X139165000Y-88408000D02*
X136365000Y-88408000D01*
X135715000Y-89108000D02*
X135715000Y-89708000D01*
X136565000Y-88208000D02*
X136265000Y-87908000D01*
X136265000Y-87908000D02*
X136865000Y-87908000D01*
X136565000Y-88208000D02*
X136865000Y-87908000D01*
X132189000Y-83104000D02*
G75*
G03X132889000Y-83804000I700000J0D01*
G01*
X132889000Y-81804000D02*
G75*
G03X132189000Y-82504000I0J-700000D01*
G01*
X136289000Y-82504000D02*
G75*
G03X135589000Y-81804000I-700000J0D01*
G01*
X135589000Y-83804000D02*
G75*
G03X136289000Y-83104000I0J700000D01*
G01*
X132839000Y-83804000D02*
X135639000Y-83804000D01*
X136289000Y-83104000D02*
X136289000Y-82504000D01*
X135639000Y-81804000D02*
X132839000Y-81804000D01*
X132189000Y-82504000D02*
X132189000Y-83104000D01*
X133039000Y-81604000D02*
X132739000Y-81304000D01*
X132739000Y-81304000D02*
X133339000Y-81304000D01*
X133039000Y-81604000D02*
X133339000Y-81304000D01*
X130635000Y-89708000D02*
G75*
G03X131335000Y-90408000I700000J0D01*
G01*
X131335000Y-88408000D02*
G75*
G03X130635000Y-89108000I0J-700000D01*
G01*
X134735000Y-89108000D02*
G75*
G03X134035000Y-88408000I-700000J0D01*
G01*
X134035000Y-90408000D02*
G75*
G03X134735000Y-89708000I0J700000D01*
G01*
X131285000Y-90408000D02*
X134085000Y-90408000D01*
X134735000Y-89708000D02*
X134735000Y-89108000D01*
X134085000Y-88408000D02*
X131285000Y-88408000D01*
X130635000Y-89108000D02*
X130635000Y-89708000D01*
X131485000Y-88208000D02*
X131185000Y-87908000D01*
X131185000Y-87908000D02*
X131785000Y-87908000D01*
X131485000Y-88208000D02*
X131785000Y-87908000D01*
X126982000Y-83104000D02*
G75*
G03X127682000Y-83804000I700000J0D01*
G01*
X127682000Y-81804000D02*
G75*
G03X126982000Y-82504000I0J-700000D01*
G01*
X131082000Y-82504000D02*
G75*
G03X130382000Y-81804000I-700000J0D01*
G01*
X130382000Y-83804000D02*
G75*
G03X131082000Y-83104000I0J700000D01*
G01*
X127632000Y-83804000D02*
X130432000Y-83804000D01*
X131082000Y-83104000D02*
X131082000Y-82504000D01*
X130432000Y-81804000D02*
X127632000Y-81804000D01*
X126982000Y-82504000D02*
X126982000Y-83104000D01*
X127832000Y-81604000D02*
X127532000Y-81304000D01*
X127532000Y-81304000D02*
X128132000Y-81304000D01*
X127832000Y-81604000D02*
X128132000Y-81304000D01*
X125555000Y-89708000D02*
G75*
G03X126255000Y-90408000I700000J0D01*
G01*
X126255000Y-88408000D02*
G75*
G03X125555000Y-89108000I0J-700000D01*
G01*
X129655000Y-89108000D02*
G75*
G03X128955000Y-88408000I-700000J0D01*
G01*
X128955000Y-90408000D02*
G75*
G03X129655000Y-89708000I0J700000D01*
G01*
X126205000Y-90408000D02*
X129005000Y-90408000D01*
X129655000Y-89708000D02*
X129655000Y-89108000D01*
X129005000Y-88408000D02*
X126205000Y-88408000D01*
X125555000Y-89108000D02*
X125555000Y-89708000D01*
X126405000Y-88208000D02*
X126105000Y-87908000D01*
X126105000Y-87908000D02*
X126705000Y-87908000D01*
X126405000Y-88208000D02*
X126705000Y-87908000D01*
X121775000Y-83104000D02*
G75*
G03X122475000Y-83804000I700000J0D01*
G01*
X122475000Y-81804000D02*
G75*
G03X121775000Y-82504000I0J-700000D01*
G01*
X125875000Y-82504000D02*
G75*
G03X125175000Y-81804000I-700000J0D01*
G01*
X125175000Y-83804000D02*
G75*
G03X125875000Y-83104000I0J700000D01*
G01*
X122425000Y-83804000D02*
X125225000Y-83804000D01*
X125875000Y-83104000D02*
X125875000Y-82504000D01*
X125225000Y-81804000D02*
X122425000Y-81804000D01*
X121775000Y-82504000D02*
X121775000Y-83104000D01*
X122625000Y-81604000D02*
X122325000Y-81304000D01*
X122325000Y-81304000D02*
X122925000Y-81304000D01*
X122625000Y-81604000D02*
X122925000Y-81304000D01*
X120475000Y-89708000D02*
G75*
G03X121175000Y-90408000I700000J0D01*
G01*
X121175000Y-88408000D02*
G75*
G03X120475000Y-89108000I0J-700000D01*
G01*
X124575000Y-89108000D02*
G75*
G03X123875000Y-88408000I-700000J0D01*
G01*
X123875000Y-90408000D02*
G75*
G03X124575000Y-89708000I0J700000D01*
G01*
X121125000Y-90408000D02*
X123925000Y-90408000D01*
X124575000Y-89708000D02*
X124575000Y-89108000D01*
X123925000Y-88408000D02*
X121125000Y-88408000D01*
X120475000Y-89108000D02*
X120475000Y-89708000D01*
X121325000Y-88208000D02*
X121025000Y-87908000D01*
X121025000Y-87908000D02*
X121625000Y-87908000D01*
X121325000Y-88208000D02*
X121625000Y-87908000D01*
D10*
X141200380Y-84074095D02*
X142009904Y-84074095D01*
X142105142Y-84121714D01*
X142152761Y-84169333D01*
X142200380Y-84264571D01*
X142200380Y-84455047D01*
X142152761Y-84550285D01*
X142105142Y-84597904D01*
X142009904Y-84645523D01*
X141200380Y-84645523D01*
X141200380Y-85597904D02*
X141200380Y-85121714D01*
X141676571Y-85074095D01*
X141628952Y-85121714D01*
X141581333Y-85216952D01*
X141581333Y-85455047D01*
X141628952Y-85550285D01*
X141676571Y-85597904D01*
X141771809Y-85645523D01*
X142009904Y-85645523D01*
X142105142Y-85597904D01*
X142152761Y-85550285D01*
X142200380Y-85455047D01*
X142200380Y-85216952D01*
X142152761Y-85121714D01*
X142105142Y-85074095D01*
X170632380Y-84152095D02*
X171441904Y-84152095D01*
X171537142Y-84199714D01*
X171584761Y-84247333D01*
X171632380Y-84342571D01*
X171632380Y-84533047D01*
X171584761Y-84628285D01*
X171537142Y-84675904D01*
X171441904Y-84723523D01*
X170632380Y-84723523D01*
X170632380Y-85628285D02*
X170632380Y-85437809D01*
X170680000Y-85342571D01*
X170727619Y-85294952D01*
X170870476Y-85199714D01*
X171060952Y-85152095D01*
X171441904Y-85152095D01*
X171537142Y-85199714D01*
X171584761Y-85247333D01*
X171632380Y-85342571D01*
X171632380Y-85533047D01*
X171584761Y-85628285D01*
X171537142Y-85675904D01*
X171441904Y-85723523D01*
X171203809Y-85723523D01*
X171108571Y-85675904D01*
X171060952Y-85628285D01*
X171013333Y-85533047D01*
X171013333Y-85342571D01*
X171060952Y-85247333D01*
X171108571Y-85199714D01*
X171203809Y-85152095D01*
X97242380Y-67945095D02*
X98051904Y-67945095D01*
X98147142Y-67992714D01*
X98194761Y-68040333D01*
X98242380Y-68135571D01*
X98242380Y-68326047D01*
X98194761Y-68421285D01*
X98147142Y-68468904D01*
X98051904Y-68516523D01*
X97242380Y-68516523D01*
X97242380Y-68897476D02*
X97242380Y-69516523D01*
X97623333Y-69183190D01*
X97623333Y-69326047D01*
X97670952Y-69421285D01*
X97718571Y-69468904D01*
X97813809Y-69516523D01*
X98051904Y-69516523D01*
X98147142Y-69468904D01*
X98194761Y-69421285D01*
X98242380Y-69326047D01*
X98242380Y-69040333D01*
X98194761Y-68945095D01*
X98147142Y-68897476D01*
D13*
X139846761Y-90785190D02*
X139846761Y-91142333D01*
X139870571Y-91213761D01*
X139918190Y-91261380D01*
X139989619Y-91285190D01*
X140037238Y-91285190D01*
X139608666Y-91285190D02*
X139608666Y-90785190D01*
X139418190Y-90785190D01*
X139370571Y-90809000D01*
X139346761Y-90832809D01*
X139322952Y-90880428D01*
X139322952Y-90951857D01*
X139346761Y-90999476D01*
X139370571Y-91023285D01*
X139418190Y-91047095D01*
X139608666Y-91047095D01*
X138846761Y-91285190D02*
X139132476Y-91285190D01*
X138989619Y-91285190D02*
X138989619Y-90785190D01*
X139037238Y-90856619D01*
X139084857Y-90904238D01*
X139132476Y-90928047D01*
X138418190Y-90951857D02*
X138418190Y-91285190D01*
X138537238Y-90761380D02*
X138656285Y-91118523D01*
X138346761Y-91118523D01*
X136290761Y-84181190D02*
X136290761Y-84538333D01*
X136314571Y-84609761D01*
X136362190Y-84657380D01*
X136433619Y-84681190D01*
X136481238Y-84681190D01*
X136052666Y-84681190D02*
X136052666Y-84181190D01*
X135862190Y-84181190D01*
X135814571Y-84205000D01*
X135790761Y-84228809D01*
X135766952Y-84276428D01*
X135766952Y-84347857D01*
X135790761Y-84395476D01*
X135814571Y-84419285D01*
X135862190Y-84443095D01*
X136052666Y-84443095D01*
X135290761Y-84681190D02*
X135576476Y-84681190D01*
X135433619Y-84681190D02*
X135433619Y-84181190D01*
X135481238Y-84252619D01*
X135528857Y-84300238D01*
X135576476Y-84324047D01*
X135124095Y-84181190D02*
X134814571Y-84181190D01*
X134981238Y-84371666D01*
X134909809Y-84371666D01*
X134862190Y-84395476D01*
X134838380Y-84419285D01*
X134814571Y-84466904D01*
X134814571Y-84585952D01*
X134838380Y-84633571D01*
X134862190Y-84657380D01*
X134909809Y-84681190D01*
X135052666Y-84681190D01*
X135100285Y-84657380D01*
X135124095Y-84633571D01*
X134736761Y-90785190D02*
X134736761Y-91142333D01*
X134760571Y-91213761D01*
X134808190Y-91261380D01*
X134879619Y-91285190D01*
X134927238Y-91285190D01*
X134498666Y-91285190D02*
X134498666Y-90785190D01*
X134308190Y-90785190D01*
X134260571Y-90809000D01*
X134236761Y-90832809D01*
X134212952Y-90880428D01*
X134212952Y-90951857D01*
X134236761Y-90999476D01*
X134260571Y-91023285D01*
X134308190Y-91047095D01*
X134498666Y-91047095D01*
X133736761Y-91285190D02*
X134022476Y-91285190D01*
X133879619Y-91285190D02*
X133879619Y-90785190D01*
X133927238Y-90856619D01*
X133974857Y-90904238D01*
X134022476Y-90928047D01*
X133546285Y-90832809D02*
X133522476Y-90809000D01*
X133474857Y-90785190D01*
X133355809Y-90785190D01*
X133308190Y-90809000D01*
X133284380Y-90832809D01*
X133260571Y-90880428D01*
X133260571Y-90928047D01*
X133284380Y-90999476D01*
X133570095Y-91285190D01*
X133260571Y-91285190D01*
X131083761Y-84181190D02*
X131083761Y-84538333D01*
X131107571Y-84609761D01*
X131155190Y-84657380D01*
X131226619Y-84681190D01*
X131274238Y-84681190D01*
X130845666Y-84681190D02*
X130845666Y-84181190D01*
X130655190Y-84181190D01*
X130607571Y-84205000D01*
X130583761Y-84228809D01*
X130559952Y-84276428D01*
X130559952Y-84347857D01*
X130583761Y-84395476D01*
X130607571Y-84419285D01*
X130655190Y-84443095D01*
X130845666Y-84443095D01*
X130083761Y-84681190D02*
X130369476Y-84681190D01*
X130226619Y-84681190D02*
X130226619Y-84181190D01*
X130274238Y-84252619D01*
X130321857Y-84300238D01*
X130369476Y-84324047D01*
X129607571Y-84681190D02*
X129893285Y-84681190D01*
X129750428Y-84681190D02*
X129750428Y-84181190D01*
X129798047Y-84252619D01*
X129845666Y-84300238D01*
X129893285Y-84324047D01*
X129686761Y-90785190D02*
X129686761Y-91142333D01*
X129710571Y-91213761D01*
X129758190Y-91261380D01*
X129829619Y-91285190D01*
X129877238Y-91285190D01*
X129448666Y-91285190D02*
X129448666Y-90785190D01*
X129258190Y-90785190D01*
X129210571Y-90809000D01*
X129186761Y-90832809D01*
X129162952Y-90880428D01*
X129162952Y-90951857D01*
X129186761Y-90999476D01*
X129210571Y-91023285D01*
X129258190Y-91047095D01*
X129448666Y-91047095D01*
X128686761Y-91285190D02*
X128972476Y-91285190D01*
X128829619Y-91285190D02*
X128829619Y-90785190D01*
X128877238Y-90856619D01*
X128924857Y-90904238D01*
X128972476Y-90928047D01*
X128377238Y-90785190D02*
X128329619Y-90785190D01*
X128282000Y-90809000D01*
X128258190Y-90832809D01*
X128234380Y-90880428D01*
X128210571Y-90975666D01*
X128210571Y-91094714D01*
X128234380Y-91189952D01*
X128258190Y-91237571D01*
X128282000Y-91261380D01*
X128329619Y-91285190D01*
X128377238Y-91285190D01*
X128424857Y-91261380D01*
X128448666Y-91237571D01*
X128472476Y-91189952D01*
X128496285Y-91094714D01*
X128496285Y-90975666D01*
X128472476Y-90880428D01*
X128448666Y-90832809D01*
X128424857Y-90809000D01*
X128377238Y-90785190D01*
X125765666Y-84181190D02*
X125765666Y-84538333D01*
X125789476Y-84609761D01*
X125837095Y-84657380D01*
X125908523Y-84681190D01*
X125956142Y-84681190D01*
X125527571Y-84681190D02*
X125527571Y-84181190D01*
X125337095Y-84181190D01*
X125289476Y-84205000D01*
X125265666Y-84228809D01*
X125241857Y-84276428D01*
X125241857Y-84347857D01*
X125265666Y-84395476D01*
X125289476Y-84419285D01*
X125337095Y-84443095D01*
X125527571Y-84443095D01*
X125003761Y-84681190D02*
X124908523Y-84681190D01*
X124860904Y-84657380D01*
X124837095Y-84633571D01*
X124789476Y-84562142D01*
X124765666Y-84466904D01*
X124765666Y-84276428D01*
X124789476Y-84228809D01*
X124813285Y-84205000D01*
X124860904Y-84181190D01*
X124956142Y-84181190D01*
X125003761Y-84205000D01*
X125027571Y-84228809D01*
X125051380Y-84276428D01*
X125051380Y-84395476D01*
X125027571Y-84443095D01*
X125003761Y-84466904D01*
X124956142Y-84490714D01*
X124860904Y-84490714D01*
X124813285Y-84466904D01*
X124789476Y-84443095D01*
X124765666Y-84395476D01*
X124592666Y-90785190D02*
X124592666Y-91142333D01*
X124616476Y-91213761D01*
X124664095Y-91261380D01*
X124735523Y-91285190D01*
X124783142Y-91285190D01*
X124354571Y-91285190D02*
X124354571Y-90785190D01*
X124164095Y-90785190D01*
X124116476Y-90809000D01*
X124092666Y-90832809D01*
X124068857Y-90880428D01*
X124068857Y-90951857D01*
X124092666Y-90999476D01*
X124116476Y-91023285D01*
X124164095Y-91047095D01*
X124354571Y-91047095D01*
X123783142Y-90999476D02*
X123830761Y-90975666D01*
X123854571Y-90951857D01*
X123878380Y-90904238D01*
X123878380Y-90880428D01*
X123854571Y-90832809D01*
X123830761Y-90809000D01*
X123783142Y-90785190D01*
X123687904Y-90785190D01*
X123640285Y-90809000D01*
X123616476Y-90832809D01*
X123592666Y-90880428D01*
X123592666Y-90904238D01*
X123616476Y-90951857D01*
X123640285Y-90975666D01*
X123687904Y-90999476D01*
X123783142Y-90999476D01*
X123830761Y-91023285D01*
X123854571Y-91047095D01*
X123878380Y-91094714D01*
X123878380Y-91189952D01*
X123854571Y-91237571D01*
X123830761Y-91261380D01*
X123783142Y-91285190D01*
X123687904Y-91285190D01*
X123640285Y-91261380D01*
X123616476Y-91237571D01*
X123592666Y-91189952D01*
X123592666Y-91094714D01*
X123616476Y-91047095D01*
X123640285Y-91023285D01*
X123687904Y-90999476D01*
M02*
