G04 #@! TF.GenerationSoftware,KiCad,Pcbnew,(5.1.4)-1*
G04 #@! TF.CreationDate,2021-02-24T15:32:15-03:00*
G04 #@! TF.ProjectId,snes_feram,736e6573-5f66-4657-9261-6d2e6b696361,rev?*
G04 #@! TF.SameCoordinates,Original*
G04 #@! TF.FileFunction,Paste,Bot*
G04 #@! TF.FilePolarity,Positive*
%FSLAX46Y46*%
G04 Gerber Fmt 4.6, Leading zero omitted, Abs format (unit mm)*
G04 Created by KiCad (PCBNEW (5.1.4)-1) date 2021-02-24 15:32:15*
%MOMM*%
%LPD*%
G04 APERTURE LIST*
%ADD10C,0.100000*%
%ADD11C,0.600000*%
G04 APERTURE END LIST*
D10*
G36*
X143547703Y-88461722D02*
G01*
X143562264Y-88463882D01*
X143576543Y-88467459D01*
X143590403Y-88472418D01*
X143603710Y-88478712D01*
X143616336Y-88486280D01*
X143628159Y-88495048D01*
X143639066Y-88504934D01*
X143648952Y-88515841D01*
X143657720Y-88527664D01*
X143665288Y-88540290D01*
X143671582Y-88553597D01*
X143676541Y-88567457D01*
X143680118Y-88581736D01*
X143682278Y-88596297D01*
X143683000Y-88611000D01*
X143683000Y-90361000D01*
X143682278Y-90375703D01*
X143680118Y-90390264D01*
X143676541Y-90404543D01*
X143671582Y-90418403D01*
X143665288Y-90431710D01*
X143657720Y-90444336D01*
X143648952Y-90456159D01*
X143639066Y-90467066D01*
X143628159Y-90476952D01*
X143616336Y-90485720D01*
X143603710Y-90493288D01*
X143590403Y-90499582D01*
X143576543Y-90504541D01*
X143562264Y-90508118D01*
X143547703Y-90510278D01*
X143533000Y-90511000D01*
X143233000Y-90511000D01*
X143218297Y-90510278D01*
X143203736Y-90508118D01*
X143189457Y-90504541D01*
X143175597Y-90499582D01*
X143162290Y-90493288D01*
X143149664Y-90485720D01*
X143137841Y-90476952D01*
X143126934Y-90467066D01*
X143117048Y-90456159D01*
X143108280Y-90444336D01*
X143100712Y-90431710D01*
X143094418Y-90418403D01*
X143089459Y-90404543D01*
X143085882Y-90390264D01*
X143083722Y-90375703D01*
X143083000Y-90361000D01*
X143083000Y-88611000D01*
X143083722Y-88596297D01*
X143085882Y-88581736D01*
X143089459Y-88567457D01*
X143094418Y-88553597D01*
X143100712Y-88540290D01*
X143108280Y-88527664D01*
X143117048Y-88515841D01*
X143126934Y-88504934D01*
X143137841Y-88495048D01*
X143149664Y-88486280D01*
X143162290Y-88478712D01*
X143175597Y-88472418D01*
X143189457Y-88467459D01*
X143203736Y-88463882D01*
X143218297Y-88461722D01*
X143233000Y-88461000D01*
X143533000Y-88461000D01*
X143547703Y-88461722D01*
X143547703Y-88461722D01*
G37*
D11*
X143383000Y-89486000D03*
D10*
G36*
X144817703Y-88461722D02*
G01*
X144832264Y-88463882D01*
X144846543Y-88467459D01*
X144860403Y-88472418D01*
X144873710Y-88478712D01*
X144886336Y-88486280D01*
X144898159Y-88495048D01*
X144909066Y-88504934D01*
X144918952Y-88515841D01*
X144927720Y-88527664D01*
X144935288Y-88540290D01*
X144941582Y-88553597D01*
X144946541Y-88567457D01*
X144950118Y-88581736D01*
X144952278Y-88596297D01*
X144953000Y-88611000D01*
X144953000Y-90361000D01*
X144952278Y-90375703D01*
X144950118Y-90390264D01*
X144946541Y-90404543D01*
X144941582Y-90418403D01*
X144935288Y-90431710D01*
X144927720Y-90444336D01*
X144918952Y-90456159D01*
X144909066Y-90467066D01*
X144898159Y-90476952D01*
X144886336Y-90485720D01*
X144873710Y-90493288D01*
X144860403Y-90499582D01*
X144846543Y-90504541D01*
X144832264Y-90508118D01*
X144817703Y-90510278D01*
X144803000Y-90511000D01*
X144503000Y-90511000D01*
X144488297Y-90510278D01*
X144473736Y-90508118D01*
X144459457Y-90504541D01*
X144445597Y-90499582D01*
X144432290Y-90493288D01*
X144419664Y-90485720D01*
X144407841Y-90476952D01*
X144396934Y-90467066D01*
X144387048Y-90456159D01*
X144378280Y-90444336D01*
X144370712Y-90431710D01*
X144364418Y-90418403D01*
X144359459Y-90404543D01*
X144355882Y-90390264D01*
X144353722Y-90375703D01*
X144353000Y-90361000D01*
X144353000Y-88611000D01*
X144353722Y-88596297D01*
X144355882Y-88581736D01*
X144359459Y-88567457D01*
X144364418Y-88553597D01*
X144370712Y-88540290D01*
X144378280Y-88527664D01*
X144387048Y-88515841D01*
X144396934Y-88504934D01*
X144407841Y-88495048D01*
X144419664Y-88486280D01*
X144432290Y-88478712D01*
X144445597Y-88472418D01*
X144459457Y-88467459D01*
X144473736Y-88463882D01*
X144488297Y-88461722D01*
X144503000Y-88461000D01*
X144803000Y-88461000D01*
X144817703Y-88461722D01*
X144817703Y-88461722D01*
G37*
D11*
X144653000Y-89486000D03*
D10*
G36*
X146087703Y-88461722D02*
G01*
X146102264Y-88463882D01*
X146116543Y-88467459D01*
X146130403Y-88472418D01*
X146143710Y-88478712D01*
X146156336Y-88486280D01*
X146168159Y-88495048D01*
X146179066Y-88504934D01*
X146188952Y-88515841D01*
X146197720Y-88527664D01*
X146205288Y-88540290D01*
X146211582Y-88553597D01*
X146216541Y-88567457D01*
X146220118Y-88581736D01*
X146222278Y-88596297D01*
X146223000Y-88611000D01*
X146223000Y-90361000D01*
X146222278Y-90375703D01*
X146220118Y-90390264D01*
X146216541Y-90404543D01*
X146211582Y-90418403D01*
X146205288Y-90431710D01*
X146197720Y-90444336D01*
X146188952Y-90456159D01*
X146179066Y-90467066D01*
X146168159Y-90476952D01*
X146156336Y-90485720D01*
X146143710Y-90493288D01*
X146130403Y-90499582D01*
X146116543Y-90504541D01*
X146102264Y-90508118D01*
X146087703Y-90510278D01*
X146073000Y-90511000D01*
X145773000Y-90511000D01*
X145758297Y-90510278D01*
X145743736Y-90508118D01*
X145729457Y-90504541D01*
X145715597Y-90499582D01*
X145702290Y-90493288D01*
X145689664Y-90485720D01*
X145677841Y-90476952D01*
X145666934Y-90467066D01*
X145657048Y-90456159D01*
X145648280Y-90444336D01*
X145640712Y-90431710D01*
X145634418Y-90418403D01*
X145629459Y-90404543D01*
X145625882Y-90390264D01*
X145623722Y-90375703D01*
X145623000Y-90361000D01*
X145623000Y-88611000D01*
X145623722Y-88596297D01*
X145625882Y-88581736D01*
X145629459Y-88567457D01*
X145634418Y-88553597D01*
X145640712Y-88540290D01*
X145648280Y-88527664D01*
X145657048Y-88515841D01*
X145666934Y-88504934D01*
X145677841Y-88495048D01*
X145689664Y-88486280D01*
X145702290Y-88478712D01*
X145715597Y-88472418D01*
X145729457Y-88467459D01*
X145743736Y-88463882D01*
X145758297Y-88461722D01*
X145773000Y-88461000D01*
X146073000Y-88461000D01*
X146087703Y-88461722D01*
X146087703Y-88461722D01*
G37*
D11*
X145923000Y-89486000D03*
D10*
G36*
X147357703Y-88461722D02*
G01*
X147372264Y-88463882D01*
X147386543Y-88467459D01*
X147400403Y-88472418D01*
X147413710Y-88478712D01*
X147426336Y-88486280D01*
X147438159Y-88495048D01*
X147449066Y-88504934D01*
X147458952Y-88515841D01*
X147467720Y-88527664D01*
X147475288Y-88540290D01*
X147481582Y-88553597D01*
X147486541Y-88567457D01*
X147490118Y-88581736D01*
X147492278Y-88596297D01*
X147493000Y-88611000D01*
X147493000Y-90361000D01*
X147492278Y-90375703D01*
X147490118Y-90390264D01*
X147486541Y-90404543D01*
X147481582Y-90418403D01*
X147475288Y-90431710D01*
X147467720Y-90444336D01*
X147458952Y-90456159D01*
X147449066Y-90467066D01*
X147438159Y-90476952D01*
X147426336Y-90485720D01*
X147413710Y-90493288D01*
X147400403Y-90499582D01*
X147386543Y-90504541D01*
X147372264Y-90508118D01*
X147357703Y-90510278D01*
X147343000Y-90511000D01*
X147043000Y-90511000D01*
X147028297Y-90510278D01*
X147013736Y-90508118D01*
X146999457Y-90504541D01*
X146985597Y-90499582D01*
X146972290Y-90493288D01*
X146959664Y-90485720D01*
X146947841Y-90476952D01*
X146936934Y-90467066D01*
X146927048Y-90456159D01*
X146918280Y-90444336D01*
X146910712Y-90431710D01*
X146904418Y-90418403D01*
X146899459Y-90404543D01*
X146895882Y-90390264D01*
X146893722Y-90375703D01*
X146893000Y-90361000D01*
X146893000Y-88611000D01*
X146893722Y-88596297D01*
X146895882Y-88581736D01*
X146899459Y-88567457D01*
X146904418Y-88553597D01*
X146910712Y-88540290D01*
X146918280Y-88527664D01*
X146927048Y-88515841D01*
X146936934Y-88504934D01*
X146947841Y-88495048D01*
X146959664Y-88486280D01*
X146972290Y-88478712D01*
X146985597Y-88472418D01*
X146999457Y-88467459D01*
X147013736Y-88463882D01*
X147028297Y-88461722D01*
X147043000Y-88461000D01*
X147343000Y-88461000D01*
X147357703Y-88461722D01*
X147357703Y-88461722D01*
G37*
D11*
X147193000Y-89486000D03*
D10*
G36*
X148627703Y-88461722D02*
G01*
X148642264Y-88463882D01*
X148656543Y-88467459D01*
X148670403Y-88472418D01*
X148683710Y-88478712D01*
X148696336Y-88486280D01*
X148708159Y-88495048D01*
X148719066Y-88504934D01*
X148728952Y-88515841D01*
X148737720Y-88527664D01*
X148745288Y-88540290D01*
X148751582Y-88553597D01*
X148756541Y-88567457D01*
X148760118Y-88581736D01*
X148762278Y-88596297D01*
X148763000Y-88611000D01*
X148763000Y-90361000D01*
X148762278Y-90375703D01*
X148760118Y-90390264D01*
X148756541Y-90404543D01*
X148751582Y-90418403D01*
X148745288Y-90431710D01*
X148737720Y-90444336D01*
X148728952Y-90456159D01*
X148719066Y-90467066D01*
X148708159Y-90476952D01*
X148696336Y-90485720D01*
X148683710Y-90493288D01*
X148670403Y-90499582D01*
X148656543Y-90504541D01*
X148642264Y-90508118D01*
X148627703Y-90510278D01*
X148613000Y-90511000D01*
X148313000Y-90511000D01*
X148298297Y-90510278D01*
X148283736Y-90508118D01*
X148269457Y-90504541D01*
X148255597Y-90499582D01*
X148242290Y-90493288D01*
X148229664Y-90485720D01*
X148217841Y-90476952D01*
X148206934Y-90467066D01*
X148197048Y-90456159D01*
X148188280Y-90444336D01*
X148180712Y-90431710D01*
X148174418Y-90418403D01*
X148169459Y-90404543D01*
X148165882Y-90390264D01*
X148163722Y-90375703D01*
X148163000Y-90361000D01*
X148163000Y-88611000D01*
X148163722Y-88596297D01*
X148165882Y-88581736D01*
X148169459Y-88567457D01*
X148174418Y-88553597D01*
X148180712Y-88540290D01*
X148188280Y-88527664D01*
X148197048Y-88515841D01*
X148206934Y-88504934D01*
X148217841Y-88495048D01*
X148229664Y-88486280D01*
X148242290Y-88478712D01*
X148255597Y-88472418D01*
X148269457Y-88467459D01*
X148283736Y-88463882D01*
X148298297Y-88461722D01*
X148313000Y-88461000D01*
X148613000Y-88461000D01*
X148627703Y-88461722D01*
X148627703Y-88461722D01*
G37*
D11*
X148463000Y-89486000D03*
D10*
G36*
X149897703Y-88461722D02*
G01*
X149912264Y-88463882D01*
X149926543Y-88467459D01*
X149940403Y-88472418D01*
X149953710Y-88478712D01*
X149966336Y-88486280D01*
X149978159Y-88495048D01*
X149989066Y-88504934D01*
X149998952Y-88515841D01*
X150007720Y-88527664D01*
X150015288Y-88540290D01*
X150021582Y-88553597D01*
X150026541Y-88567457D01*
X150030118Y-88581736D01*
X150032278Y-88596297D01*
X150033000Y-88611000D01*
X150033000Y-90361000D01*
X150032278Y-90375703D01*
X150030118Y-90390264D01*
X150026541Y-90404543D01*
X150021582Y-90418403D01*
X150015288Y-90431710D01*
X150007720Y-90444336D01*
X149998952Y-90456159D01*
X149989066Y-90467066D01*
X149978159Y-90476952D01*
X149966336Y-90485720D01*
X149953710Y-90493288D01*
X149940403Y-90499582D01*
X149926543Y-90504541D01*
X149912264Y-90508118D01*
X149897703Y-90510278D01*
X149883000Y-90511000D01*
X149583000Y-90511000D01*
X149568297Y-90510278D01*
X149553736Y-90508118D01*
X149539457Y-90504541D01*
X149525597Y-90499582D01*
X149512290Y-90493288D01*
X149499664Y-90485720D01*
X149487841Y-90476952D01*
X149476934Y-90467066D01*
X149467048Y-90456159D01*
X149458280Y-90444336D01*
X149450712Y-90431710D01*
X149444418Y-90418403D01*
X149439459Y-90404543D01*
X149435882Y-90390264D01*
X149433722Y-90375703D01*
X149433000Y-90361000D01*
X149433000Y-88611000D01*
X149433722Y-88596297D01*
X149435882Y-88581736D01*
X149439459Y-88567457D01*
X149444418Y-88553597D01*
X149450712Y-88540290D01*
X149458280Y-88527664D01*
X149467048Y-88515841D01*
X149476934Y-88504934D01*
X149487841Y-88495048D01*
X149499664Y-88486280D01*
X149512290Y-88478712D01*
X149525597Y-88472418D01*
X149539457Y-88467459D01*
X149553736Y-88463882D01*
X149568297Y-88461722D01*
X149583000Y-88461000D01*
X149883000Y-88461000D01*
X149897703Y-88461722D01*
X149897703Y-88461722D01*
G37*
D11*
X149733000Y-89486000D03*
D10*
G36*
X151167703Y-88461722D02*
G01*
X151182264Y-88463882D01*
X151196543Y-88467459D01*
X151210403Y-88472418D01*
X151223710Y-88478712D01*
X151236336Y-88486280D01*
X151248159Y-88495048D01*
X151259066Y-88504934D01*
X151268952Y-88515841D01*
X151277720Y-88527664D01*
X151285288Y-88540290D01*
X151291582Y-88553597D01*
X151296541Y-88567457D01*
X151300118Y-88581736D01*
X151302278Y-88596297D01*
X151303000Y-88611000D01*
X151303000Y-90361000D01*
X151302278Y-90375703D01*
X151300118Y-90390264D01*
X151296541Y-90404543D01*
X151291582Y-90418403D01*
X151285288Y-90431710D01*
X151277720Y-90444336D01*
X151268952Y-90456159D01*
X151259066Y-90467066D01*
X151248159Y-90476952D01*
X151236336Y-90485720D01*
X151223710Y-90493288D01*
X151210403Y-90499582D01*
X151196543Y-90504541D01*
X151182264Y-90508118D01*
X151167703Y-90510278D01*
X151153000Y-90511000D01*
X150853000Y-90511000D01*
X150838297Y-90510278D01*
X150823736Y-90508118D01*
X150809457Y-90504541D01*
X150795597Y-90499582D01*
X150782290Y-90493288D01*
X150769664Y-90485720D01*
X150757841Y-90476952D01*
X150746934Y-90467066D01*
X150737048Y-90456159D01*
X150728280Y-90444336D01*
X150720712Y-90431710D01*
X150714418Y-90418403D01*
X150709459Y-90404543D01*
X150705882Y-90390264D01*
X150703722Y-90375703D01*
X150703000Y-90361000D01*
X150703000Y-88611000D01*
X150703722Y-88596297D01*
X150705882Y-88581736D01*
X150709459Y-88567457D01*
X150714418Y-88553597D01*
X150720712Y-88540290D01*
X150728280Y-88527664D01*
X150737048Y-88515841D01*
X150746934Y-88504934D01*
X150757841Y-88495048D01*
X150769664Y-88486280D01*
X150782290Y-88478712D01*
X150795597Y-88472418D01*
X150809457Y-88467459D01*
X150823736Y-88463882D01*
X150838297Y-88461722D01*
X150853000Y-88461000D01*
X151153000Y-88461000D01*
X151167703Y-88461722D01*
X151167703Y-88461722D01*
G37*
D11*
X151003000Y-89486000D03*
D10*
G36*
X152437703Y-88461722D02*
G01*
X152452264Y-88463882D01*
X152466543Y-88467459D01*
X152480403Y-88472418D01*
X152493710Y-88478712D01*
X152506336Y-88486280D01*
X152518159Y-88495048D01*
X152529066Y-88504934D01*
X152538952Y-88515841D01*
X152547720Y-88527664D01*
X152555288Y-88540290D01*
X152561582Y-88553597D01*
X152566541Y-88567457D01*
X152570118Y-88581736D01*
X152572278Y-88596297D01*
X152573000Y-88611000D01*
X152573000Y-90361000D01*
X152572278Y-90375703D01*
X152570118Y-90390264D01*
X152566541Y-90404543D01*
X152561582Y-90418403D01*
X152555288Y-90431710D01*
X152547720Y-90444336D01*
X152538952Y-90456159D01*
X152529066Y-90467066D01*
X152518159Y-90476952D01*
X152506336Y-90485720D01*
X152493710Y-90493288D01*
X152480403Y-90499582D01*
X152466543Y-90504541D01*
X152452264Y-90508118D01*
X152437703Y-90510278D01*
X152423000Y-90511000D01*
X152123000Y-90511000D01*
X152108297Y-90510278D01*
X152093736Y-90508118D01*
X152079457Y-90504541D01*
X152065597Y-90499582D01*
X152052290Y-90493288D01*
X152039664Y-90485720D01*
X152027841Y-90476952D01*
X152016934Y-90467066D01*
X152007048Y-90456159D01*
X151998280Y-90444336D01*
X151990712Y-90431710D01*
X151984418Y-90418403D01*
X151979459Y-90404543D01*
X151975882Y-90390264D01*
X151973722Y-90375703D01*
X151973000Y-90361000D01*
X151973000Y-88611000D01*
X151973722Y-88596297D01*
X151975882Y-88581736D01*
X151979459Y-88567457D01*
X151984418Y-88553597D01*
X151990712Y-88540290D01*
X151998280Y-88527664D01*
X152007048Y-88515841D01*
X152016934Y-88504934D01*
X152027841Y-88495048D01*
X152039664Y-88486280D01*
X152052290Y-88478712D01*
X152065597Y-88472418D01*
X152079457Y-88467459D01*
X152093736Y-88463882D01*
X152108297Y-88461722D01*
X152123000Y-88461000D01*
X152423000Y-88461000D01*
X152437703Y-88461722D01*
X152437703Y-88461722D01*
G37*
D11*
X152273000Y-89486000D03*
D10*
G36*
X153707703Y-88461722D02*
G01*
X153722264Y-88463882D01*
X153736543Y-88467459D01*
X153750403Y-88472418D01*
X153763710Y-88478712D01*
X153776336Y-88486280D01*
X153788159Y-88495048D01*
X153799066Y-88504934D01*
X153808952Y-88515841D01*
X153817720Y-88527664D01*
X153825288Y-88540290D01*
X153831582Y-88553597D01*
X153836541Y-88567457D01*
X153840118Y-88581736D01*
X153842278Y-88596297D01*
X153843000Y-88611000D01*
X153843000Y-90361000D01*
X153842278Y-90375703D01*
X153840118Y-90390264D01*
X153836541Y-90404543D01*
X153831582Y-90418403D01*
X153825288Y-90431710D01*
X153817720Y-90444336D01*
X153808952Y-90456159D01*
X153799066Y-90467066D01*
X153788159Y-90476952D01*
X153776336Y-90485720D01*
X153763710Y-90493288D01*
X153750403Y-90499582D01*
X153736543Y-90504541D01*
X153722264Y-90508118D01*
X153707703Y-90510278D01*
X153693000Y-90511000D01*
X153393000Y-90511000D01*
X153378297Y-90510278D01*
X153363736Y-90508118D01*
X153349457Y-90504541D01*
X153335597Y-90499582D01*
X153322290Y-90493288D01*
X153309664Y-90485720D01*
X153297841Y-90476952D01*
X153286934Y-90467066D01*
X153277048Y-90456159D01*
X153268280Y-90444336D01*
X153260712Y-90431710D01*
X153254418Y-90418403D01*
X153249459Y-90404543D01*
X153245882Y-90390264D01*
X153243722Y-90375703D01*
X153243000Y-90361000D01*
X153243000Y-88611000D01*
X153243722Y-88596297D01*
X153245882Y-88581736D01*
X153249459Y-88567457D01*
X153254418Y-88553597D01*
X153260712Y-88540290D01*
X153268280Y-88527664D01*
X153277048Y-88515841D01*
X153286934Y-88504934D01*
X153297841Y-88495048D01*
X153309664Y-88486280D01*
X153322290Y-88478712D01*
X153335597Y-88472418D01*
X153349457Y-88467459D01*
X153363736Y-88463882D01*
X153378297Y-88461722D01*
X153393000Y-88461000D01*
X153693000Y-88461000D01*
X153707703Y-88461722D01*
X153707703Y-88461722D01*
G37*
D11*
X153543000Y-89486000D03*
D10*
G36*
X154977703Y-88461722D02*
G01*
X154992264Y-88463882D01*
X155006543Y-88467459D01*
X155020403Y-88472418D01*
X155033710Y-88478712D01*
X155046336Y-88486280D01*
X155058159Y-88495048D01*
X155069066Y-88504934D01*
X155078952Y-88515841D01*
X155087720Y-88527664D01*
X155095288Y-88540290D01*
X155101582Y-88553597D01*
X155106541Y-88567457D01*
X155110118Y-88581736D01*
X155112278Y-88596297D01*
X155113000Y-88611000D01*
X155113000Y-90361000D01*
X155112278Y-90375703D01*
X155110118Y-90390264D01*
X155106541Y-90404543D01*
X155101582Y-90418403D01*
X155095288Y-90431710D01*
X155087720Y-90444336D01*
X155078952Y-90456159D01*
X155069066Y-90467066D01*
X155058159Y-90476952D01*
X155046336Y-90485720D01*
X155033710Y-90493288D01*
X155020403Y-90499582D01*
X155006543Y-90504541D01*
X154992264Y-90508118D01*
X154977703Y-90510278D01*
X154963000Y-90511000D01*
X154663000Y-90511000D01*
X154648297Y-90510278D01*
X154633736Y-90508118D01*
X154619457Y-90504541D01*
X154605597Y-90499582D01*
X154592290Y-90493288D01*
X154579664Y-90485720D01*
X154567841Y-90476952D01*
X154556934Y-90467066D01*
X154547048Y-90456159D01*
X154538280Y-90444336D01*
X154530712Y-90431710D01*
X154524418Y-90418403D01*
X154519459Y-90404543D01*
X154515882Y-90390264D01*
X154513722Y-90375703D01*
X154513000Y-90361000D01*
X154513000Y-88611000D01*
X154513722Y-88596297D01*
X154515882Y-88581736D01*
X154519459Y-88567457D01*
X154524418Y-88553597D01*
X154530712Y-88540290D01*
X154538280Y-88527664D01*
X154547048Y-88515841D01*
X154556934Y-88504934D01*
X154567841Y-88495048D01*
X154579664Y-88486280D01*
X154592290Y-88478712D01*
X154605597Y-88472418D01*
X154619457Y-88467459D01*
X154633736Y-88463882D01*
X154648297Y-88461722D01*
X154663000Y-88461000D01*
X154963000Y-88461000D01*
X154977703Y-88461722D01*
X154977703Y-88461722D01*
G37*
D11*
X154813000Y-89486000D03*
D10*
G36*
X154977703Y-79161722D02*
G01*
X154992264Y-79163882D01*
X155006543Y-79167459D01*
X155020403Y-79172418D01*
X155033710Y-79178712D01*
X155046336Y-79186280D01*
X155058159Y-79195048D01*
X155069066Y-79204934D01*
X155078952Y-79215841D01*
X155087720Y-79227664D01*
X155095288Y-79240290D01*
X155101582Y-79253597D01*
X155106541Y-79267457D01*
X155110118Y-79281736D01*
X155112278Y-79296297D01*
X155113000Y-79311000D01*
X155113000Y-81061000D01*
X155112278Y-81075703D01*
X155110118Y-81090264D01*
X155106541Y-81104543D01*
X155101582Y-81118403D01*
X155095288Y-81131710D01*
X155087720Y-81144336D01*
X155078952Y-81156159D01*
X155069066Y-81167066D01*
X155058159Y-81176952D01*
X155046336Y-81185720D01*
X155033710Y-81193288D01*
X155020403Y-81199582D01*
X155006543Y-81204541D01*
X154992264Y-81208118D01*
X154977703Y-81210278D01*
X154963000Y-81211000D01*
X154663000Y-81211000D01*
X154648297Y-81210278D01*
X154633736Y-81208118D01*
X154619457Y-81204541D01*
X154605597Y-81199582D01*
X154592290Y-81193288D01*
X154579664Y-81185720D01*
X154567841Y-81176952D01*
X154556934Y-81167066D01*
X154547048Y-81156159D01*
X154538280Y-81144336D01*
X154530712Y-81131710D01*
X154524418Y-81118403D01*
X154519459Y-81104543D01*
X154515882Y-81090264D01*
X154513722Y-81075703D01*
X154513000Y-81061000D01*
X154513000Y-79311000D01*
X154513722Y-79296297D01*
X154515882Y-79281736D01*
X154519459Y-79267457D01*
X154524418Y-79253597D01*
X154530712Y-79240290D01*
X154538280Y-79227664D01*
X154547048Y-79215841D01*
X154556934Y-79204934D01*
X154567841Y-79195048D01*
X154579664Y-79186280D01*
X154592290Y-79178712D01*
X154605597Y-79172418D01*
X154619457Y-79167459D01*
X154633736Y-79163882D01*
X154648297Y-79161722D01*
X154663000Y-79161000D01*
X154963000Y-79161000D01*
X154977703Y-79161722D01*
X154977703Y-79161722D01*
G37*
D11*
X154813000Y-80186000D03*
D10*
G36*
X153707703Y-79161722D02*
G01*
X153722264Y-79163882D01*
X153736543Y-79167459D01*
X153750403Y-79172418D01*
X153763710Y-79178712D01*
X153776336Y-79186280D01*
X153788159Y-79195048D01*
X153799066Y-79204934D01*
X153808952Y-79215841D01*
X153817720Y-79227664D01*
X153825288Y-79240290D01*
X153831582Y-79253597D01*
X153836541Y-79267457D01*
X153840118Y-79281736D01*
X153842278Y-79296297D01*
X153843000Y-79311000D01*
X153843000Y-81061000D01*
X153842278Y-81075703D01*
X153840118Y-81090264D01*
X153836541Y-81104543D01*
X153831582Y-81118403D01*
X153825288Y-81131710D01*
X153817720Y-81144336D01*
X153808952Y-81156159D01*
X153799066Y-81167066D01*
X153788159Y-81176952D01*
X153776336Y-81185720D01*
X153763710Y-81193288D01*
X153750403Y-81199582D01*
X153736543Y-81204541D01*
X153722264Y-81208118D01*
X153707703Y-81210278D01*
X153693000Y-81211000D01*
X153393000Y-81211000D01*
X153378297Y-81210278D01*
X153363736Y-81208118D01*
X153349457Y-81204541D01*
X153335597Y-81199582D01*
X153322290Y-81193288D01*
X153309664Y-81185720D01*
X153297841Y-81176952D01*
X153286934Y-81167066D01*
X153277048Y-81156159D01*
X153268280Y-81144336D01*
X153260712Y-81131710D01*
X153254418Y-81118403D01*
X153249459Y-81104543D01*
X153245882Y-81090264D01*
X153243722Y-81075703D01*
X153243000Y-81061000D01*
X153243000Y-79311000D01*
X153243722Y-79296297D01*
X153245882Y-79281736D01*
X153249459Y-79267457D01*
X153254418Y-79253597D01*
X153260712Y-79240290D01*
X153268280Y-79227664D01*
X153277048Y-79215841D01*
X153286934Y-79204934D01*
X153297841Y-79195048D01*
X153309664Y-79186280D01*
X153322290Y-79178712D01*
X153335597Y-79172418D01*
X153349457Y-79167459D01*
X153363736Y-79163882D01*
X153378297Y-79161722D01*
X153393000Y-79161000D01*
X153693000Y-79161000D01*
X153707703Y-79161722D01*
X153707703Y-79161722D01*
G37*
D11*
X153543000Y-80186000D03*
D10*
G36*
X152437703Y-79161722D02*
G01*
X152452264Y-79163882D01*
X152466543Y-79167459D01*
X152480403Y-79172418D01*
X152493710Y-79178712D01*
X152506336Y-79186280D01*
X152518159Y-79195048D01*
X152529066Y-79204934D01*
X152538952Y-79215841D01*
X152547720Y-79227664D01*
X152555288Y-79240290D01*
X152561582Y-79253597D01*
X152566541Y-79267457D01*
X152570118Y-79281736D01*
X152572278Y-79296297D01*
X152573000Y-79311000D01*
X152573000Y-81061000D01*
X152572278Y-81075703D01*
X152570118Y-81090264D01*
X152566541Y-81104543D01*
X152561582Y-81118403D01*
X152555288Y-81131710D01*
X152547720Y-81144336D01*
X152538952Y-81156159D01*
X152529066Y-81167066D01*
X152518159Y-81176952D01*
X152506336Y-81185720D01*
X152493710Y-81193288D01*
X152480403Y-81199582D01*
X152466543Y-81204541D01*
X152452264Y-81208118D01*
X152437703Y-81210278D01*
X152423000Y-81211000D01*
X152123000Y-81211000D01*
X152108297Y-81210278D01*
X152093736Y-81208118D01*
X152079457Y-81204541D01*
X152065597Y-81199582D01*
X152052290Y-81193288D01*
X152039664Y-81185720D01*
X152027841Y-81176952D01*
X152016934Y-81167066D01*
X152007048Y-81156159D01*
X151998280Y-81144336D01*
X151990712Y-81131710D01*
X151984418Y-81118403D01*
X151979459Y-81104543D01*
X151975882Y-81090264D01*
X151973722Y-81075703D01*
X151973000Y-81061000D01*
X151973000Y-79311000D01*
X151973722Y-79296297D01*
X151975882Y-79281736D01*
X151979459Y-79267457D01*
X151984418Y-79253597D01*
X151990712Y-79240290D01*
X151998280Y-79227664D01*
X152007048Y-79215841D01*
X152016934Y-79204934D01*
X152027841Y-79195048D01*
X152039664Y-79186280D01*
X152052290Y-79178712D01*
X152065597Y-79172418D01*
X152079457Y-79167459D01*
X152093736Y-79163882D01*
X152108297Y-79161722D01*
X152123000Y-79161000D01*
X152423000Y-79161000D01*
X152437703Y-79161722D01*
X152437703Y-79161722D01*
G37*
D11*
X152273000Y-80186000D03*
D10*
G36*
X151167703Y-79161722D02*
G01*
X151182264Y-79163882D01*
X151196543Y-79167459D01*
X151210403Y-79172418D01*
X151223710Y-79178712D01*
X151236336Y-79186280D01*
X151248159Y-79195048D01*
X151259066Y-79204934D01*
X151268952Y-79215841D01*
X151277720Y-79227664D01*
X151285288Y-79240290D01*
X151291582Y-79253597D01*
X151296541Y-79267457D01*
X151300118Y-79281736D01*
X151302278Y-79296297D01*
X151303000Y-79311000D01*
X151303000Y-81061000D01*
X151302278Y-81075703D01*
X151300118Y-81090264D01*
X151296541Y-81104543D01*
X151291582Y-81118403D01*
X151285288Y-81131710D01*
X151277720Y-81144336D01*
X151268952Y-81156159D01*
X151259066Y-81167066D01*
X151248159Y-81176952D01*
X151236336Y-81185720D01*
X151223710Y-81193288D01*
X151210403Y-81199582D01*
X151196543Y-81204541D01*
X151182264Y-81208118D01*
X151167703Y-81210278D01*
X151153000Y-81211000D01*
X150853000Y-81211000D01*
X150838297Y-81210278D01*
X150823736Y-81208118D01*
X150809457Y-81204541D01*
X150795597Y-81199582D01*
X150782290Y-81193288D01*
X150769664Y-81185720D01*
X150757841Y-81176952D01*
X150746934Y-81167066D01*
X150737048Y-81156159D01*
X150728280Y-81144336D01*
X150720712Y-81131710D01*
X150714418Y-81118403D01*
X150709459Y-81104543D01*
X150705882Y-81090264D01*
X150703722Y-81075703D01*
X150703000Y-81061000D01*
X150703000Y-79311000D01*
X150703722Y-79296297D01*
X150705882Y-79281736D01*
X150709459Y-79267457D01*
X150714418Y-79253597D01*
X150720712Y-79240290D01*
X150728280Y-79227664D01*
X150737048Y-79215841D01*
X150746934Y-79204934D01*
X150757841Y-79195048D01*
X150769664Y-79186280D01*
X150782290Y-79178712D01*
X150795597Y-79172418D01*
X150809457Y-79167459D01*
X150823736Y-79163882D01*
X150838297Y-79161722D01*
X150853000Y-79161000D01*
X151153000Y-79161000D01*
X151167703Y-79161722D01*
X151167703Y-79161722D01*
G37*
D11*
X151003000Y-80186000D03*
D10*
G36*
X149897703Y-79161722D02*
G01*
X149912264Y-79163882D01*
X149926543Y-79167459D01*
X149940403Y-79172418D01*
X149953710Y-79178712D01*
X149966336Y-79186280D01*
X149978159Y-79195048D01*
X149989066Y-79204934D01*
X149998952Y-79215841D01*
X150007720Y-79227664D01*
X150015288Y-79240290D01*
X150021582Y-79253597D01*
X150026541Y-79267457D01*
X150030118Y-79281736D01*
X150032278Y-79296297D01*
X150033000Y-79311000D01*
X150033000Y-81061000D01*
X150032278Y-81075703D01*
X150030118Y-81090264D01*
X150026541Y-81104543D01*
X150021582Y-81118403D01*
X150015288Y-81131710D01*
X150007720Y-81144336D01*
X149998952Y-81156159D01*
X149989066Y-81167066D01*
X149978159Y-81176952D01*
X149966336Y-81185720D01*
X149953710Y-81193288D01*
X149940403Y-81199582D01*
X149926543Y-81204541D01*
X149912264Y-81208118D01*
X149897703Y-81210278D01*
X149883000Y-81211000D01*
X149583000Y-81211000D01*
X149568297Y-81210278D01*
X149553736Y-81208118D01*
X149539457Y-81204541D01*
X149525597Y-81199582D01*
X149512290Y-81193288D01*
X149499664Y-81185720D01*
X149487841Y-81176952D01*
X149476934Y-81167066D01*
X149467048Y-81156159D01*
X149458280Y-81144336D01*
X149450712Y-81131710D01*
X149444418Y-81118403D01*
X149439459Y-81104543D01*
X149435882Y-81090264D01*
X149433722Y-81075703D01*
X149433000Y-81061000D01*
X149433000Y-79311000D01*
X149433722Y-79296297D01*
X149435882Y-79281736D01*
X149439459Y-79267457D01*
X149444418Y-79253597D01*
X149450712Y-79240290D01*
X149458280Y-79227664D01*
X149467048Y-79215841D01*
X149476934Y-79204934D01*
X149487841Y-79195048D01*
X149499664Y-79186280D01*
X149512290Y-79178712D01*
X149525597Y-79172418D01*
X149539457Y-79167459D01*
X149553736Y-79163882D01*
X149568297Y-79161722D01*
X149583000Y-79161000D01*
X149883000Y-79161000D01*
X149897703Y-79161722D01*
X149897703Y-79161722D01*
G37*
D11*
X149733000Y-80186000D03*
D10*
G36*
X148627703Y-79161722D02*
G01*
X148642264Y-79163882D01*
X148656543Y-79167459D01*
X148670403Y-79172418D01*
X148683710Y-79178712D01*
X148696336Y-79186280D01*
X148708159Y-79195048D01*
X148719066Y-79204934D01*
X148728952Y-79215841D01*
X148737720Y-79227664D01*
X148745288Y-79240290D01*
X148751582Y-79253597D01*
X148756541Y-79267457D01*
X148760118Y-79281736D01*
X148762278Y-79296297D01*
X148763000Y-79311000D01*
X148763000Y-81061000D01*
X148762278Y-81075703D01*
X148760118Y-81090264D01*
X148756541Y-81104543D01*
X148751582Y-81118403D01*
X148745288Y-81131710D01*
X148737720Y-81144336D01*
X148728952Y-81156159D01*
X148719066Y-81167066D01*
X148708159Y-81176952D01*
X148696336Y-81185720D01*
X148683710Y-81193288D01*
X148670403Y-81199582D01*
X148656543Y-81204541D01*
X148642264Y-81208118D01*
X148627703Y-81210278D01*
X148613000Y-81211000D01*
X148313000Y-81211000D01*
X148298297Y-81210278D01*
X148283736Y-81208118D01*
X148269457Y-81204541D01*
X148255597Y-81199582D01*
X148242290Y-81193288D01*
X148229664Y-81185720D01*
X148217841Y-81176952D01*
X148206934Y-81167066D01*
X148197048Y-81156159D01*
X148188280Y-81144336D01*
X148180712Y-81131710D01*
X148174418Y-81118403D01*
X148169459Y-81104543D01*
X148165882Y-81090264D01*
X148163722Y-81075703D01*
X148163000Y-81061000D01*
X148163000Y-79311000D01*
X148163722Y-79296297D01*
X148165882Y-79281736D01*
X148169459Y-79267457D01*
X148174418Y-79253597D01*
X148180712Y-79240290D01*
X148188280Y-79227664D01*
X148197048Y-79215841D01*
X148206934Y-79204934D01*
X148217841Y-79195048D01*
X148229664Y-79186280D01*
X148242290Y-79178712D01*
X148255597Y-79172418D01*
X148269457Y-79167459D01*
X148283736Y-79163882D01*
X148298297Y-79161722D01*
X148313000Y-79161000D01*
X148613000Y-79161000D01*
X148627703Y-79161722D01*
X148627703Y-79161722D01*
G37*
D11*
X148463000Y-80186000D03*
D10*
G36*
X147357703Y-79161722D02*
G01*
X147372264Y-79163882D01*
X147386543Y-79167459D01*
X147400403Y-79172418D01*
X147413710Y-79178712D01*
X147426336Y-79186280D01*
X147438159Y-79195048D01*
X147449066Y-79204934D01*
X147458952Y-79215841D01*
X147467720Y-79227664D01*
X147475288Y-79240290D01*
X147481582Y-79253597D01*
X147486541Y-79267457D01*
X147490118Y-79281736D01*
X147492278Y-79296297D01*
X147493000Y-79311000D01*
X147493000Y-81061000D01*
X147492278Y-81075703D01*
X147490118Y-81090264D01*
X147486541Y-81104543D01*
X147481582Y-81118403D01*
X147475288Y-81131710D01*
X147467720Y-81144336D01*
X147458952Y-81156159D01*
X147449066Y-81167066D01*
X147438159Y-81176952D01*
X147426336Y-81185720D01*
X147413710Y-81193288D01*
X147400403Y-81199582D01*
X147386543Y-81204541D01*
X147372264Y-81208118D01*
X147357703Y-81210278D01*
X147343000Y-81211000D01*
X147043000Y-81211000D01*
X147028297Y-81210278D01*
X147013736Y-81208118D01*
X146999457Y-81204541D01*
X146985597Y-81199582D01*
X146972290Y-81193288D01*
X146959664Y-81185720D01*
X146947841Y-81176952D01*
X146936934Y-81167066D01*
X146927048Y-81156159D01*
X146918280Y-81144336D01*
X146910712Y-81131710D01*
X146904418Y-81118403D01*
X146899459Y-81104543D01*
X146895882Y-81090264D01*
X146893722Y-81075703D01*
X146893000Y-81061000D01*
X146893000Y-79311000D01*
X146893722Y-79296297D01*
X146895882Y-79281736D01*
X146899459Y-79267457D01*
X146904418Y-79253597D01*
X146910712Y-79240290D01*
X146918280Y-79227664D01*
X146927048Y-79215841D01*
X146936934Y-79204934D01*
X146947841Y-79195048D01*
X146959664Y-79186280D01*
X146972290Y-79178712D01*
X146985597Y-79172418D01*
X146999457Y-79167459D01*
X147013736Y-79163882D01*
X147028297Y-79161722D01*
X147043000Y-79161000D01*
X147343000Y-79161000D01*
X147357703Y-79161722D01*
X147357703Y-79161722D01*
G37*
D11*
X147193000Y-80186000D03*
D10*
G36*
X146087703Y-79161722D02*
G01*
X146102264Y-79163882D01*
X146116543Y-79167459D01*
X146130403Y-79172418D01*
X146143710Y-79178712D01*
X146156336Y-79186280D01*
X146168159Y-79195048D01*
X146179066Y-79204934D01*
X146188952Y-79215841D01*
X146197720Y-79227664D01*
X146205288Y-79240290D01*
X146211582Y-79253597D01*
X146216541Y-79267457D01*
X146220118Y-79281736D01*
X146222278Y-79296297D01*
X146223000Y-79311000D01*
X146223000Y-81061000D01*
X146222278Y-81075703D01*
X146220118Y-81090264D01*
X146216541Y-81104543D01*
X146211582Y-81118403D01*
X146205288Y-81131710D01*
X146197720Y-81144336D01*
X146188952Y-81156159D01*
X146179066Y-81167066D01*
X146168159Y-81176952D01*
X146156336Y-81185720D01*
X146143710Y-81193288D01*
X146130403Y-81199582D01*
X146116543Y-81204541D01*
X146102264Y-81208118D01*
X146087703Y-81210278D01*
X146073000Y-81211000D01*
X145773000Y-81211000D01*
X145758297Y-81210278D01*
X145743736Y-81208118D01*
X145729457Y-81204541D01*
X145715597Y-81199582D01*
X145702290Y-81193288D01*
X145689664Y-81185720D01*
X145677841Y-81176952D01*
X145666934Y-81167066D01*
X145657048Y-81156159D01*
X145648280Y-81144336D01*
X145640712Y-81131710D01*
X145634418Y-81118403D01*
X145629459Y-81104543D01*
X145625882Y-81090264D01*
X145623722Y-81075703D01*
X145623000Y-81061000D01*
X145623000Y-79311000D01*
X145623722Y-79296297D01*
X145625882Y-79281736D01*
X145629459Y-79267457D01*
X145634418Y-79253597D01*
X145640712Y-79240290D01*
X145648280Y-79227664D01*
X145657048Y-79215841D01*
X145666934Y-79204934D01*
X145677841Y-79195048D01*
X145689664Y-79186280D01*
X145702290Y-79178712D01*
X145715597Y-79172418D01*
X145729457Y-79167459D01*
X145743736Y-79163882D01*
X145758297Y-79161722D01*
X145773000Y-79161000D01*
X146073000Y-79161000D01*
X146087703Y-79161722D01*
X146087703Y-79161722D01*
G37*
D11*
X145923000Y-80186000D03*
D10*
G36*
X144817703Y-79161722D02*
G01*
X144832264Y-79163882D01*
X144846543Y-79167459D01*
X144860403Y-79172418D01*
X144873710Y-79178712D01*
X144886336Y-79186280D01*
X144898159Y-79195048D01*
X144909066Y-79204934D01*
X144918952Y-79215841D01*
X144927720Y-79227664D01*
X144935288Y-79240290D01*
X144941582Y-79253597D01*
X144946541Y-79267457D01*
X144950118Y-79281736D01*
X144952278Y-79296297D01*
X144953000Y-79311000D01*
X144953000Y-81061000D01*
X144952278Y-81075703D01*
X144950118Y-81090264D01*
X144946541Y-81104543D01*
X144941582Y-81118403D01*
X144935288Y-81131710D01*
X144927720Y-81144336D01*
X144918952Y-81156159D01*
X144909066Y-81167066D01*
X144898159Y-81176952D01*
X144886336Y-81185720D01*
X144873710Y-81193288D01*
X144860403Y-81199582D01*
X144846543Y-81204541D01*
X144832264Y-81208118D01*
X144817703Y-81210278D01*
X144803000Y-81211000D01*
X144503000Y-81211000D01*
X144488297Y-81210278D01*
X144473736Y-81208118D01*
X144459457Y-81204541D01*
X144445597Y-81199582D01*
X144432290Y-81193288D01*
X144419664Y-81185720D01*
X144407841Y-81176952D01*
X144396934Y-81167066D01*
X144387048Y-81156159D01*
X144378280Y-81144336D01*
X144370712Y-81131710D01*
X144364418Y-81118403D01*
X144359459Y-81104543D01*
X144355882Y-81090264D01*
X144353722Y-81075703D01*
X144353000Y-81061000D01*
X144353000Y-79311000D01*
X144353722Y-79296297D01*
X144355882Y-79281736D01*
X144359459Y-79267457D01*
X144364418Y-79253597D01*
X144370712Y-79240290D01*
X144378280Y-79227664D01*
X144387048Y-79215841D01*
X144396934Y-79204934D01*
X144407841Y-79195048D01*
X144419664Y-79186280D01*
X144432290Y-79178712D01*
X144445597Y-79172418D01*
X144459457Y-79167459D01*
X144473736Y-79163882D01*
X144488297Y-79161722D01*
X144503000Y-79161000D01*
X144803000Y-79161000D01*
X144817703Y-79161722D01*
X144817703Y-79161722D01*
G37*
D11*
X144653000Y-80186000D03*
D10*
G36*
X143547703Y-79161722D02*
G01*
X143562264Y-79163882D01*
X143576543Y-79167459D01*
X143590403Y-79172418D01*
X143603710Y-79178712D01*
X143616336Y-79186280D01*
X143628159Y-79195048D01*
X143639066Y-79204934D01*
X143648952Y-79215841D01*
X143657720Y-79227664D01*
X143665288Y-79240290D01*
X143671582Y-79253597D01*
X143676541Y-79267457D01*
X143680118Y-79281736D01*
X143682278Y-79296297D01*
X143683000Y-79311000D01*
X143683000Y-81061000D01*
X143682278Y-81075703D01*
X143680118Y-81090264D01*
X143676541Y-81104543D01*
X143671582Y-81118403D01*
X143665288Y-81131710D01*
X143657720Y-81144336D01*
X143648952Y-81156159D01*
X143639066Y-81167066D01*
X143628159Y-81176952D01*
X143616336Y-81185720D01*
X143603710Y-81193288D01*
X143590403Y-81199582D01*
X143576543Y-81204541D01*
X143562264Y-81208118D01*
X143547703Y-81210278D01*
X143533000Y-81211000D01*
X143233000Y-81211000D01*
X143218297Y-81210278D01*
X143203736Y-81208118D01*
X143189457Y-81204541D01*
X143175597Y-81199582D01*
X143162290Y-81193288D01*
X143149664Y-81185720D01*
X143137841Y-81176952D01*
X143126934Y-81167066D01*
X143117048Y-81156159D01*
X143108280Y-81144336D01*
X143100712Y-81131710D01*
X143094418Y-81118403D01*
X143089459Y-81104543D01*
X143085882Y-81090264D01*
X143083722Y-81075703D01*
X143083000Y-81061000D01*
X143083000Y-79311000D01*
X143083722Y-79296297D01*
X143085882Y-79281736D01*
X143089459Y-79267457D01*
X143094418Y-79253597D01*
X143100712Y-79240290D01*
X143108280Y-79227664D01*
X143117048Y-79215841D01*
X143126934Y-79204934D01*
X143137841Y-79195048D01*
X143149664Y-79186280D01*
X143162290Y-79178712D01*
X143175597Y-79172418D01*
X143189457Y-79167459D01*
X143203736Y-79163882D01*
X143218297Y-79161722D01*
X143233000Y-79161000D01*
X143533000Y-79161000D01*
X143547703Y-79161722D01*
X143547703Y-79161722D01*
G37*
D11*
X143383000Y-80186000D03*
D10*
G36*
X169709703Y-79239722D02*
G01*
X169724264Y-79241882D01*
X169738543Y-79245459D01*
X169752403Y-79250418D01*
X169765710Y-79256712D01*
X169778336Y-79264280D01*
X169790159Y-79273048D01*
X169801066Y-79282934D01*
X169810952Y-79293841D01*
X169819720Y-79305664D01*
X169827288Y-79318290D01*
X169833582Y-79331597D01*
X169838541Y-79345457D01*
X169842118Y-79359736D01*
X169844278Y-79374297D01*
X169845000Y-79389000D01*
X169845000Y-81139000D01*
X169844278Y-81153703D01*
X169842118Y-81168264D01*
X169838541Y-81182543D01*
X169833582Y-81196403D01*
X169827288Y-81209710D01*
X169819720Y-81222336D01*
X169810952Y-81234159D01*
X169801066Y-81245066D01*
X169790159Y-81254952D01*
X169778336Y-81263720D01*
X169765710Y-81271288D01*
X169752403Y-81277582D01*
X169738543Y-81282541D01*
X169724264Y-81286118D01*
X169709703Y-81288278D01*
X169695000Y-81289000D01*
X169395000Y-81289000D01*
X169380297Y-81288278D01*
X169365736Y-81286118D01*
X169351457Y-81282541D01*
X169337597Y-81277582D01*
X169324290Y-81271288D01*
X169311664Y-81263720D01*
X169299841Y-81254952D01*
X169288934Y-81245066D01*
X169279048Y-81234159D01*
X169270280Y-81222336D01*
X169262712Y-81209710D01*
X169256418Y-81196403D01*
X169251459Y-81182543D01*
X169247882Y-81168264D01*
X169245722Y-81153703D01*
X169245000Y-81139000D01*
X169245000Y-79389000D01*
X169245722Y-79374297D01*
X169247882Y-79359736D01*
X169251459Y-79345457D01*
X169256418Y-79331597D01*
X169262712Y-79318290D01*
X169270280Y-79305664D01*
X169279048Y-79293841D01*
X169288934Y-79282934D01*
X169299841Y-79273048D01*
X169311664Y-79264280D01*
X169324290Y-79256712D01*
X169337597Y-79250418D01*
X169351457Y-79245459D01*
X169365736Y-79241882D01*
X169380297Y-79239722D01*
X169395000Y-79239000D01*
X169695000Y-79239000D01*
X169709703Y-79239722D01*
X169709703Y-79239722D01*
G37*
D11*
X169545000Y-80264000D03*
D10*
G36*
X168439703Y-79239722D02*
G01*
X168454264Y-79241882D01*
X168468543Y-79245459D01*
X168482403Y-79250418D01*
X168495710Y-79256712D01*
X168508336Y-79264280D01*
X168520159Y-79273048D01*
X168531066Y-79282934D01*
X168540952Y-79293841D01*
X168549720Y-79305664D01*
X168557288Y-79318290D01*
X168563582Y-79331597D01*
X168568541Y-79345457D01*
X168572118Y-79359736D01*
X168574278Y-79374297D01*
X168575000Y-79389000D01*
X168575000Y-81139000D01*
X168574278Y-81153703D01*
X168572118Y-81168264D01*
X168568541Y-81182543D01*
X168563582Y-81196403D01*
X168557288Y-81209710D01*
X168549720Y-81222336D01*
X168540952Y-81234159D01*
X168531066Y-81245066D01*
X168520159Y-81254952D01*
X168508336Y-81263720D01*
X168495710Y-81271288D01*
X168482403Y-81277582D01*
X168468543Y-81282541D01*
X168454264Y-81286118D01*
X168439703Y-81288278D01*
X168425000Y-81289000D01*
X168125000Y-81289000D01*
X168110297Y-81288278D01*
X168095736Y-81286118D01*
X168081457Y-81282541D01*
X168067597Y-81277582D01*
X168054290Y-81271288D01*
X168041664Y-81263720D01*
X168029841Y-81254952D01*
X168018934Y-81245066D01*
X168009048Y-81234159D01*
X168000280Y-81222336D01*
X167992712Y-81209710D01*
X167986418Y-81196403D01*
X167981459Y-81182543D01*
X167977882Y-81168264D01*
X167975722Y-81153703D01*
X167975000Y-81139000D01*
X167975000Y-79389000D01*
X167975722Y-79374297D01*
X167977882Y-79359736D01*
X167981459Y-79345457D01*
X167986418Y-79331597D01*
X167992712Y-79318290D01*
X168000280Y-79305664D01*
X168009048Y-79293841D01*
X168018934Y-79282934D01*
X168029841Y-79273048D01*
X168041664Y-79264280D01*
X168054290Y-79256712D01*
X168067597Y-79250418D01*
X168081457Y-79245459D01*
X168095736Y-79241882D01*
X168110297Y-79239722D01*
X168125000Y-79239000D01*
X168425000Y-79239000D01*
X168439703Y-79239722D01*
X168439703Y-79239722D01*
G37*
D11*
X168275000Y-80264000D03*
D10*
G36*
X167169703Y-79239722D02*
G01*
X167184264Y-79241882D01*
X167198543Y-79245459D01*
X167212403Y-79250418D01*
X167225710Y-79256712D01*
X167238336Y-79264280D01*
X167250159Y-79273048D01*
X167261066Y-79282934D01*
X167270952Y-79293841D01*
X167279720Y-79305664D01*
X167287288Y-79318290D01*
X167293582Y-79331597D01*
X167298541Y-79345457D01*
X167302118Y-79359736D01*
X167304278Y-79374297D01*
X167305000Y-79389000D01*
X167305000Y-81139000D01*
X167304278Y-81153703D01*
X167302118Y-81168264D01*
X167298541Y-81182543D01*
X167293582Y-81196403D01*
X167287288Y-81209710D01*
X167279720Y-81222336D01*
X167270952Y-81234159D01*
X167261066Y-81245066D01*
X167250159Y-81254952D01*
X167238336Y-81263720D01*
X167225710Y-81271288D01*
X167212403Y-81277582D01*
X167198543Y-81282541D01*
X167184264Y-81286118D01*
X167169703Y-81288278D01*
X167155000Y-81289000D01*
X166855000Y-81289000D01*
X166840297Y-81288278D01*
X166825736Y-81286118D01*
X166811457Y-81282541D01*
X166797597Y-81277582D01*
X166784290Y-81271288D01*
X166771664Y-81263720D01*
X166759841Y-81254952D01*
X166748934Y-81245066D01*
X166739048Y-81234159D01*
X166730280Y-81222336D01*
X166722712Y-81209710D01*
X166716418Y-81196403D01*
X166711459Y-81182543D01*
X166707882Y-81168264D01*
X166705722Y-81153703D01*
X166705000Y-81139000D01*
X166705000Y-79389000D01*
X166705722Y-79374297D01*
X166707882Y-79359736D01*
X166711459Y-79345457D01*
X166716418Y-79331597D01*
X166722712Y-79318290D01*
X166730280Y-79305664D01*
X166739048Y-79293841D01*
X166748934Y-79282934D01*
X166759841Y-79273048D01*
X166771664Y-79264280D01*
X166784290Y-79256712D01*
X166797597Y-79250418D01*
X166811457Y-79245459D01*
X166825736Y-79241882D01*
X166840297Y-79239722D01*
X166855000Y-79239000D01*
X167155000Y-79239000D01*
X167169703Y-79239722D01*
X167169703Y-79239722D01*
G37*
D11*
X167005000Y-80264000D03*
D10*
G36*
X165899703Y-79239722D02*
G01*
X165914264Y-79241882D01*
X165928543Y-79245459D01*
X165942403Y-79250418D01*
X165955710Y-79256712D01*
X165968336Y-79264280D01*
X165980159Y-79273048D01*
X165991066Y-79282934D01*
X166000952Y-79293841D01*
X166009720Y-79305664D01*
X166017288Y-79318290D01*
X166023582Y-79331597D01*
X166028541Y-79345457D01*
X166032118Y-79359736D01*
X166034278Y-79374297D01*
X166035000Y-79389000D01*
X166035000Y-81139000D01*
X166034278Y-81153703D01*
X166032118Y-81168264D01*
X166028541Y-81182543D01*
X166023582Y-81196403D01*
X166017288Y-81209710D01*
X166009720Y-81222336D01*
X166000952Y-81234159D01*
X165991066Y-81245066D01*
X165980159Y-81254952D01*
X165968336Y-81263720D01*
X165955710Y-81271288D01*
X165942403Y-81277582D01*
X165928543Y-81282541D01*
X165914264Y-81286118D01*
X165899703Y-81288278D01*
X165885000Y-81289000D01*
X165585000Y-81289000D01*
X165570297Y-81288278D01*
X165555736Y-81286118D01*
X165541457Y-81282541D01*
X165527597Y-81277582D01*
X165514290Y-81271288D01*
X165501664Y-81263720D01*
X165489841Y-81254952D01*
X165478934Y-81245066D01*
X165469048Y-81234159D01*
X165460280Y-81222336D01*
X165452712Y-81209710D01*
X165446418Y-81196403D01*
X165441459Y-81182543D01*
X165437882Y-81168264D01*
X165435722Y-81153703D01*
X165435000Y-81139000D01*
X165435000Y-79389000D01*
X165435722Y-79374297D01*
X165437882Y-79359736D01*
X165441459Y-79345457D01*
X165446418Y-79331597D01*
X165452712Y-79318290D01*
X165460280Y-79305664D01*
X165469048Y-79293841D01*
X165478934Y-79282934D01*
X165489841Y-79273048D01*
X165501664Y-79264280D01*
X165514290Y-79256712D01*
X165527597Y-79250418D01*
X165541457Y-79245459D01*
X165555736Y-79241882D01*
X165570297Y-79239722D01*
X165585000Y-79239000D01*
X165885000Y-79239000D01*
X165899703Y-79239722D01*
X165899703Y-79239722D01*
G37*
D11*
X165735000Y-80264000D03*
D10*
G36*
X164629703Y-79239722D02*
G01*
X164644264Y-79241882D01*
X164658543Y-79245459D01*
X164672403Y-79250418D01*
X164685710Y-79256712D01*
X164698336Y-79264280D01*
X164710159Y-79273048D01*
X164721066Y-79282934D01*
X164730952Y-79293841D01*
X164739720Y-79305664D01*
X164747288Y-79318290D01*
X164753582Y-79331597D01*
X164758541Y-79345457D01*
X164762118Y-79359736D01*
X164764278Y-79374297D01*
X164765000Y-79389000D01*
X164765000Y-81139000D01*
X164764278Y-81153703D01*
X164762118Y-81168264D01*
X164758541Y-81182543D01*
X164753582Y-81196403D01*
X164747288Y-81209710D01*
X164739720Y-81222336D01*
X164730952Y-81234159D01*
X164721066Y-81245066D01*
X164710159Y-81254952D01*
X164698336Y-81263720D01*
X164685710Y-81271288D01*
X164672403Y-81277582D01*
X164658543Y-81282541D01*
X164644264Y-81286118D01*
X164629703Y-81288278D01*
X164615000Y-81289000D01*
X164315000Y-81289000D01*
X164300297Y-81288278D01*
X164285736Y-81286118D01*
X164271457Y-81282541D01*
X164257597Y-81277582D01*
X164244290Y-81271288D01*
X164231664Y-81263720D01*
X164219841Y-81254952D01*
X164208934Y-81245066D01*
X164199048Y-81234159D01*
X164190280Y-81222336D01*
X164182712Y-81209710D01*
X164176418Y-81196403D01*
X164171459Y-81182543D01*
X164167882Y-81168264D01*
X164165722Y-81153703D01*
X164165000Y-81139000D01*
X164165000Y-79389000D01*
X164165722Y-79374297D01*
X164167882Y-79359736D01*
X164171459Y-79345457D01*
X164176418Y-79331597D01*
X164182712Y-79318290D01*
X164190280Y-79305664D01*
X164199048Y-79293841D01*
X164208934Y-79282934D01*
X164219841Y-79273048D01*
X164231664Y-79264280D01*
X164244290Y-79256712D01*
X164257597Y-79250418D01*
X164271457Y-79245459D01*
X164285736Y-79241882D01*
X164300297Y-79239722D01*
X164315000Y-79239000D01*
X164615000Y-79239000D01*
X164629703Y-79239722D01*
X164629703Y-79239722D01*
G37*
D11*
X164465000Y-80264000D03*
D10*
G36*
X163359703Y-79239722D02*
G01*
X163374264Y-79241882D01*
X163388543Y-79245459D01*
X163402403Y-79250418D01*
X163415710Y-79256712D01*
X163428336Y-79264280D01*
X163440159Y-79273048D01*
X163451066Y-79282934D01*
X163460952Y-79293841D01*
X163469720Y-79305664D01*
X163477288Y-79318290D01*
X163483582Y-79331597D01*
X163488541Y-79345457D01*
X163492118Y-79359736D01*
X163494278Y-79374297D01*
X163495000Y-79389000D01*
X163495000Y-81139000D01*
X163494278Y-81153703D01*
X163492118Y-81168264D01*
X163488541Y-81182543D01*
X163483582Y-81196403D01*
X163477288Y-81209710D01*
X163469720Y-81222336D01*
X163460952Y-81234159D01*
X163451066Y-81245066D01*
X163440159Y-81254952D01*
X163428336Y-81263720D01*
X163415710Y-81271288D01*
X163402403Y-81277582D01*
X163388543Y-81282541D01*
X163374264Y-81286118D01*
X163359703Y-81288278D01*
X163345000Y-81289000D01*
X163045000Y-81289000D01*
X163030297Y-81288278D01*
X163015736Y-81286118D01*
X163001457Y-81282541D01*
X162987597Y-81277582D01*
X162974290Y-81271288D01*
X162961664Y-81263720D01*
X162949841Y-81254952D01*
X162938934Y-81245066D01*
X162929048Y-81234159D01*
X162920280Y-81222336D01*
X162912712Y-81209710D01*
X162906418Y-81196403D01*
X162901459Y-81182543D01*
X162897882Y-81168264D01*
X162895722Y-81153703D01*
X162895000Y-81139000D01*
X162895000Y-79389000D01*
X162895722Y-79374297D01*
X162897882Y-79359736D01*
X162901459Y-79345457D01*
X162906418Y-79331597D01*
X162912712Y-79318290D01*
X162920280Y-79305664D01*
X162929048Y-79293841D01*
X162938934Y-79282934D01*
X162949841Y-79273048D01*
X162961664Y-79264280D01*
X162974290Y-79256712D01*
X162987597Y-79250418D01*
X163001457Y-79245459D01*
X163015736Y-79241882D01*
X163030297Y-79239722D01*
X163045000Y-79239000D01*
X163345000Y-79239000D01*
X163359703Y-79239722D01*
X163359703Y-79239722D01*
G37*
D11*
X163195000Y-80264000D03*
D10*
G36*
X162089703Y-79239722D02*
G01*
X162104264Y-79241882D01*
X162118543Y-79245459D01*
X162132403Y-79250418D01*
X162145710Y-79256712D01*
X162158336Y-79264280D01*
X162170159Y-79273048D01*
X162181066Y-79282934D01*
X162190952Y-79293841D01*
X162199720Y-79305664D01*
X162207288Y-79318290D01*
X162213582Y-79331597D01*
X162218541Y-79345457D01*
X162222118Y-79359736D01*
X162224278Y-79374297D01*
X162225000Y-79389000D01*
X162225000Y-81139000D01*
X162224278Y-81153703D01*
X162222118Y-81168264D01*
X162218541Y-81182543D01*
X162213582Y-81196403D01*
X162207288Y-81209710D01*
X162199720Y-81222336D01*
X162190952Y-81234159D01*
X162181066Y-81245066D01*
X162170159Y-81254952D01*
X162158336Y-81263720D01*
X162145710Y-81271288D01*
X162132403Y-81277582D01*
X162118543Y-81282541D01*
X162104264Y-81286118D01*
X162089703Y-81288278D01*
X162075000Y-81289000D01*
X161775000Y-81289000D01*
X161760297Y-81288278D01*
X161745736Y-81286118D01*
X161731457Y-81282541D01*
X161717597Y-81277582D01*
X161704290Y-81271288D01*
X161691664Y-81263720D01*
X161679841Y-81254952D01*
X161668934Y-81245066D01*
X161659048Y-81234159D01*
X161650280Y-81222336D01*
X161642712Y-81209710D01*
X161636418Y-81196403D01*
X161631459Y-81182543D01*
X161627882Y-81168264D01*
X161625722Y-81153703D01*
X161625000Y-81139000D01*
X161625000Y-79389000D01*
X161625722Y-79374297D01*
X161627882Y-79359736D01*
X161631459Y-79345457D01*
X161636418Y-79331597D01*
X161642712Y-79318290D01*
X161650280Y-79305664D01*
X161659048Y-79293841D01*
X161668934Y-79282934D01*
X161679841Y-79273048D01*
X161691664Y-79264280D01*
X161704290Y-79256712D01*
X161717597Y-79250418D01*
X161731457Y-79245459D01*
X161745736Y-79241882D01*
X161760297Y-79239722D01*
X161775000Y-79239000D01*
X162075000Y-79239000D01*
X162089703Y-79239722D01*
X162089703Y-79239722D01*
G37*
D11*
X161925000Y-80264000D03*
D10*
G36*
X160819703Y-79239722D02*
G01*
X160834264Y-79241882D01*
X160848543Y-79245459D01*
X160862403Y-79250418D01*
X160875710Y-79256712D01*
X160888336Y-79264280D01*
X160900159Y-79273048D01*
X160911066Y-79282934D01*
X160920952Y-79293841D01*
X160929720Y-79305664D01*
X160937288Y-79318290D01*
X160943582Y-79331597D01*
X160948541Y-79345457D01*
X160952118Y-79359736D01*
X160954278Y-79374297D01*
X160955000Y-79389000D01*
X160955000Y-81139000D01*
X160954278Y-81153703D01*
X160952118Y-81168264D01*
X160948541Y-81182543D01*
X160943582Y-81196403D01*
X160937288Y-81209710D01*
X160929720Y-81222336D01*
X160920952Y-81234159D01*
X160911066Y-81245066D01*
X160900159Y-81254952D01*
X160888336Y-81263720D01*
X160875710Y-81271288D01*
X160862403Y-81277582D01*
X160848543Y-81282541D01*
X160834264Y-81286118D01*
X160819703Y-81288278D01*
X160805000Y-81289000D01*
X160505000Y-81289000D01*
X160490297Y-81288278D01*
X160475736Y-81286118D01*
X160461457Y-81282541D01*
X160447597Y-81277582D01*
X160434290Y-81271288D01*
X160421664Y-81263720D01*
X160409841Y-81254952D01*
X160398934Y-81245066D01*
X160389048Y-81234159D01*
X160380280Y-81222336D01*
X160372712Y-81209710D01*
X160366418Y-81196403D01*
X160361459Y-81182543D01*
X160357882Y-81168264D01*
X160355722Y-81153703D01*
X160355000Y-81139000D01*
X160355000Y-79389000D01*
X160355722Y-79374297D01*
X160357882Y-79359736D01*
X160361459Y-79345457D01*
X160366418Y-79331597D01*
X160372712Y-79318290D01*
X160380280Y-79305664D01*
X160389048Y-79293841D01*
X160398934Y-79282934D01*
X160409841Y-79273048D01*
X160421664Y-79264280D01*
X160434290Y-79256712D01*
X160447597Y-79250418D01*
X160461457Y-79245459D01*
X160475736Y-79241882D01*
X160490297Y-79239722D01*
X160505000Y-79239000D01*
X160805000Y-79239000D01*
X160819703Y-79239722D01*
X160819703Y-79239722D01*
G37*
D11*
X160655000Y-80264000D03*
D10*
G36*
X159549703Y-79239722D02*
G01*
X159564264Y-79241882D01*
X159578543Y-79245459D01*
X159592403Y-79250418D01*
X159605710Y-79256712D01*
X159618336Y-79264280D01*
X159630159Y-79273048D01*
X159641066Y-79282934D01*
X159650952Y-79293841D01*
X159659720Y-79305664D01*
X159667288Y-79318290D01*
X159673582Y-79331597D01*
X159678541Y-79345457D01*
X159682118Y-79359736D01*
X159684278Y-79374297D01*
X159685000Y-79389000D01*
X159685000Y-81139000D01*
X159684278Y-81153703D01*
X159682118Y-81168264D01*
X159678541Y-81182543D01*
X159673582Y-81196403D01*
X159667288Y-81209710D01*
X159659720Y-81222336D01*
X159650952Y-81234159D01*
X159641066Y-81245066D01*
X159630159Y-81254952D01*
X159618336Y-81263720D01*
X159605710Y-81271288D01*
X159592403Y-81277582D01*
X159578543Y-81282541D01*
X159564264Y-81286118D01*
X159549703Y-81288278D01*
X159535000Y-81289000D01*
X159235000Y-81289000D01*
X159220297Y-81288278D01*
X159205736Y-81286118D01*
X159191457Y-81282541D01*
X159177597Y-81277582D01*
X159164290Y-81271288D01*
X159151664Y-81263720D01*
X159139841Y-81254952D01*
X159128934Y-81245066D01*
X159119048Y-81234159D01*
X159110280Y-81222336D01*
X159102712Y-81209710D01*
X159096418Y-81196403D01*
X159091459Y-81182543D01*
X159087882Y-81168264D01*
X159085722Y-81153703D01*
X159085000Y-81139000D01*
X159085000Y-79389000D01*
X159085722Y-79374297D01*
X159087882Y-79359736D01*
X159091459Y-79345457D01*
X159096418Y-79331597D01*
X159102712Y-79318290D01*
X159110280Y-79305664D01*
X159119048Y-79293841D01*
X159128934Y-79282934D01*
X159139841Y-79273048D01*
X159151664Y-79264280D01*
X159164290Y-79256712D01*
X159177597Y-79250418D01*
X159191457Y-79245459D01*
X159205736Y-79241882D01*
X159220297Y-79239722D01*
X159235000Y-79239000D01*
X159535000Y-79239000D01*
X159549703Y-79239722D01*
X159549703Y-79239722D01*
G37*
D11*
X159385000Y-80264000D03*
D10*
G36*
X158279703Y-79239722D02*
G01*
X158294264Y-79241882D01*
X158308543Y-79245459D01*
X158322403Y-79250418D01*
X158335710Y-79256712D01*
X158348336Y-79264280D01*
X158360159Y-79273048D01*
X158371066Y-79282934D01*
X158380952Y-79293841D01*
X158389720Y-79305664D01*
X158397288Y-79318290D01*
X158403582Y-79331597D01*
X158408541Y-79345457D01*
X158412118Y-79359736D01*
X158414278Y-79374297D01*
X158415000Y-79389000D01*
X158415000Y-81139000D01*
X158414278Y-81153703D01*
X158412118Y-81168264D01*
X158408541Y-81182543D01*
X158403582Y-81196403D01*
X158397288Y-81209710D01*
X158389720Y-81222336D01*
X158380952Y-81234159D01*
X158371066Y-81245066D01*
X158360159Y-81254952D01*
X158348336Y-81263720D01*
X158335710Y-81271288D01*
X158322403Y-81277582D01*
X158308543Y-81282541D01*
X158294264Y-81286118D01*
X158279703Y-81288278D01*
X158265000Y-81289000D01*
X157965000Y-81289000D01*
X157950297Y-81288278D01*
X157935736Y-81286118D01*
X157921457Y-81282541D01*
X157907597Y-81277582D01*
X157894290Y-81271288D01*
X157881664Y-81263720D01*
X157869841Y-81254952D01*
X157858934Y-81245066D01*
X157849048Y-81234159D01*
X157840280Y-81222336D01*
X157832712Y-81209710D01*
X157826418Y-81196403D01*
X157821459Y-81182543D01*
X157817882Y-81168264D01*
X157815722Y-81153703D01*
X157815000Y-81139000D01*
X157815000Y-79389000D01*
X157815722Y-79374297D01*
X157817882Y-79359736D01*
X157821459Y-79345457D01*
X157826418Y-79331597D01*
X157832712Y-79318290D01*
X157840280Y-79305664D01*
X157849048Y-79293841D01*
X157858934Y-79282934D01*
X157869841Y-79273048D01*
X157881664Y-79264280D01*
X157894290Y-79256712D01*
X157907597Y-79250418D01*
X157921457Y-79245459D01*
X157935736Y-79241882D01*
X157950297Y-79239722D01*
X157965000Y-79239000D01*
X158265000Y-79239000D01*
X158279703Y-79239722D01*
X158279703Y-79239722D01*
G37*
D11*
X158115000Y-80264000D03*
D10*
G36*
X158279703Y-88539722D02*
G01*
X158294264Y-88541882D01*
X158308543Y-88545459D01*
X158322403Y-88550418D01*
X158335710Y-88556712D01*
X158348336Y-88564280D01*
X158360159Y-88573048D01*
X158371066Y-88582934D01*
X158380952Y-88593841D01*
X158389720Y-88605664D01*
X158397288Y-88618290D01*
X158403582Y-88631597D01*
X158408541Y-88645457D01*
X158412118Y-88659736D01*
X158414278Y-88674297D01*
X158415000Y-88689000D01*
X158415000Y-90439000D01*
X158414278Y-90453703D01*
X158412118Y-90468264D01*
X158408541Y-90482543D01*
X158403582Y-90496403D01*
X158397288Y-90509710D01*
X158389720Y-90522336D01*
X158380952Y-90534159D01*
X158371066Y-90545066D01*
X158360159Y-90554952D01*
X158348336Y-90563720D01*
X158335710Y-90571288D01*
X158322403Y-90577582D01*
X158308543Y-90582541D01*
X158294264Y-90586118D01*
X158279703Y-90588278D01*
X158265000Y-90589000D01*
X157965000Y-90589000D01*
X157950297Y-90588278D01*
X157935736Y-90586118D01*
X157921457Y-90582541D01*
X157907597Y-90577582D01*
X157894290Y-90571288D01*
X157881664Y-90563720D01*
X157869841Y-90554952D01*
X157858934Y-90545066D01*
X157849048Y-90534159D01*
X157840280Y-90522336D01*
X157832712Y-90509710D01*
X157826418Y-90496403D01*
X157821459Y-90482543D01*
X157817882Y-90468264D01*
X157815722Y-90453703D01*
X157815000Y-90439000D01*
X157815000Y-88689000D01*
X157815722Y-88674297D01*
X157817882Y-88659736D01*
X157821459Y-88645457D01*
X157826418Y-88631597D01*
X157832712Y-88618290D01*
X157840280Y-88605664D01*
X157849048Y-88593841D01*
X157858934Y-88582934D01*
X157869841Y-88573048D01*
X157881664Y-88564280D01*
X157894290Y-88556712D01*
X157907597Y-88550418D01*
X157921457Y-88545459D01*
X157935736Y-88541882D01*
X157950297Y-88539722D01*
X157965000Y-88539000D01*
X158265000Y-88539000D01*
X158279703Y-88539722D01*
X158279703Y-88539722D01*
G37*
D11*
X158115000Y-89564000D03*
D10*
G36*
X159549703Y-88539722D02*
G01*
X159564264Y-88541882D01*
X159578543Y-88545459D01*
X159592403Y-88550418D01*
X159605710Y-88556712D01*
X159618336Y-88564280D01*
X159630159Y-88573048D01*
X159641066Y-88582934D01*
X159650952Y-88593841D01*
X159659720Y-88605664D01*
X159667288Y-88618290D01*
X159673582Y-88631597D01*
X159678541Y-88645457D01*
X159682118Y-88659736D01*
X159684278Y-88674297D01*
X159685000Y-88689000D01*
X159685000Y-90439000D01*
X159684278Y-90453703D01*
X159682118Y-90468264D01*
X159678541Y-90482543D01*
X159673582Y-90496403D01*
X159667288Y-90509710D01*
X159659720Y-90522336D01*
X159650952Y-90534159D01*
X159641066Y-90545066D01*
X159630159Y-90554952D01*
X159618336Y-90563720D01*
X159605710Y-90571288D01*
X159592403Y-90577582D01*
X159578543Y-90582541D01*
X159564264Y-90586118D01*
X159549703Y-90588278D01*
X159535000Y-90589000D01*
X159235000Y-90589000D01*
X159220297Y-90588278D01*
X159205736Y-90586118D01*
X159191457Y-90582541D01*
X159177597Y-90577582D01*
X159164290Y-90571288D01*
X159151664Y-90563720D01*
X159139841Y-90554952D01*
X159128934Y-90545066D01*
X159119048Y-90534159D01*
X159110280Y-90522336D01*
X159102712Y-90509710D01*
X159096418Y-90496403D01*
X159091459Y-90482543D01*
X159087882Y-90468264D01*
X159085722Y-90453703D01*
X159085000Y-90439000D01*
X159085000Y-88689000D01*
X159085722Y-88674297D01*
X159087882Y-88659736D01*
X159091459Y-88645457D01*
X159096418Y-88631597D01*
X159102712Y-88618290D01*
X159110280Y-88605664D01*
X159119048Y-88593841D01*
X159128934Y-88582934D01*
X159139841Y-88573048D01*
X159151664Y-88564280D01*
X159164290Y-88556712D01*
X159177597Y-88550418D01*
X159191457Y-88545459D01*
X159205736Y-88541882D01*
X159220297Y-88539722D01*
X159235000Y-88539000D01*
X159535000Y-88539000D01*
X159549703Y-88539722D01*
X159549703Y-88539722D01*
G37*
D11*
X159385000Y-89564000D03*
D10*
G36*
X160819703Y-88539722D02*
G01*
X160834264Y-88541882D01*
X160848543Y-88545459D01*
X160862403Y-88550418D01*
X160875710Y-88556712D01*
X160888336Y-88564280D01*
X160900159Y-88573048D01*
X160911066Y-88582934D01*
X160920952Y-88593841D01*
X160929720Y-88605664D01*
X160937288Y-88618290D01*
X160943582Y-88631597D01*
X160948541Y-88645457D01*
X160952118Y-88659736D01*
X160954278Y-88674297D01*
X160955000Y-88689000D01*
X160955000Y-90439000D01*
X160954278Y-90453703D01*
X160952118Y-90468264D01*
X160948541Y-90482543D01*
X160943582Y-90496403D01*
X160937288Y-90509710D01*
X160929720Y-90522336D01*
X160920952Y-90534159D01*
X160911066Y-90545066D01*
X160900159Y-90554952D01*
X160888336Y-90563720D01*
X160875710Y-90571288D01*
X160862403Y-90577582D01*
X160848543Y-90582541D01*
X160834264Y-90586118D01*
X160819703Y-90588278D01*
X160805000Y-90589000D01*
X160505000Y-90589000D01*
X160490297Y-90588278D01*
X160475736Y-90586118D01*
X160461457Y-90582541D01*
X160447597Y-90577582D01*
X160434290Y-90571288D01*
X160421664Y-90563720D01*
X160409841Y-90554952D01*
X160398934Y-90545066D01*
X160389048Y-90534159D01*
X160380280Y-90522336D01*
X160372712Y-90509710D01*
X160366418Y-90496403D01*
X160361459Y-90482543D01*
X160357882Y-90468264D01*
X160355722Y-90453703D01*
X160355000Y-90439000D01*
X160355000Y-88689000D01*
X160355722Y-88674297D01*
X160357882Y-88659736D01*
X160361459Y-88645457D01*
X160366418Y-88631597D01*
X160372712Y-88618290D01*
X160380280Y-88605664D01*
X160389048Y-88593841D01*
X160398934Y-88582934D01*
X160409841Y-88573048D01*
X160421664Y-88564280D01*
X160434290Y-88556712D01*
X160447597Y-88550418D01*
X160461457Y-88545459D01*
X160475736Y-88541882D01*
X160490297Y-88539722D01*
X160505000Y-88539000D01*
X160805000Y-88539000D01*
X160819703Y-88539722D01*
X160819703Y-88539722D01*
G37*
D11*
X160655000Y-89564000D03*
D10*
G36*
X162089703Y-88539722D02*
G01*
X162104264Y-88541882D01*
X162118543Y-88545459D01*
X162132403Y-88550418D01*
X162145710Y-88556712D01*
X162158336Y-88564280D01*
X162170159Y-88573048D01*
X162181066Y-88582934D01*
X162190952Y-88593841D01*
X162199720Y-88605664D01*
X162207288Y-88618290D01*
X162213582Y-88631597D01*
X162218541Y-88645457D01*
X162222118Y-88659736D01*
X162224278Y-88674297D01*
X162225000Y-88689000D01*
X162225000Y-90439000D01*
X162224278Y-90453703D01*
X162222118Y-90468264D01*
X162218541Y-90482543D01*
X162213582Y-90496403D01*
X162207288Y-90509710D01*
X162199720Y-90522336D01*
X162190952Y-90534159D01*
X162181066Y-90545066D01*
X162170159Y-90554952D01*
X162158336Y-90563720D01*
X162145710Y-90571288D01*
X162132403Y-90577582D01*
X162118543Y-90582541D01*
X162104264Y-90586118D01*
X162089703Y-90588278D01*
X162075000Y-90589000D01*
X161775000Y-90589000D01*
X161760297Y-90588278D01*
X161745736Y-90586118D01*
X161731457Y-90582541D01*
X161717597Y-90577582D01*
X161704290Y-90571288D01*
X161691664Y-90563720D01*
X161679841Y-90554952D01*
X161668934Y-90545066D01*
X161659048Y-90534159D01*
X161650280Y-90522336D01*
X161642712Y-90509710D01*
X161636418Y-90496403D01*
X161631459Y-90482543D01*
X161627882Y-90468264D01*
X161625722Y-90453703D01*
X161625000Y-90439000D01*
X161625000Y-88689000D01*
X161625722Y-88674297D01*
X161627882Y-88659736D01*
X161631459Y-88645457D01*
X161636418Y-88631597D01*
X161642712Y-88618290D01*
X161650280Y-88605664D01*
X161659048Y-88593841D01*
X161668934Y-88582934D01*
X161679841Y-88573048D01*
X161691664Y-88564280D01*
X161704290Y-88556712D01*
X161717597Y-88550418D01*
X161731457Y-88545459D01*
X161745736Y-88541882D01*
X161760297Y-88539722D01*
X161775000Y-88539000D01*
X162075000Y-88539000D01*
X162089703Y-88539722D01*
X162089703Y-88539722D01*
G37*
D11*
X161925000Y-89564000D03*
D10*
G36*
X163359703Y-88539722D02*
G01*
X163374264Y-88541882D01*
X163388543Y-88545459D01*
X163402403Y-88550418D01*
X163415710Y-88556712D01*
X163428336Y-88564280D01*
X163440159Y-88573048D01*
X163451066Y-88582934D01*
X163460952Y-88593841D01*
X163469720Y-88605664D01*
X163477288Y-88618290D01*
X163483582Y-88631597D01*
X163488541Y-88645457D01*
X163492118Y-88659736D01*
X163494278Y-88674297D01*
X163495000Y-88689000D01*
X163495000Y-90439000D01*
X163494278Y-90453703D01*
X163492118Y-90468264D01*
X163488541Y-90482543D01*
X163483582Y-90496403D01*
X163477288Y-90509710D01*
X163469720Y-90522336D01*
X163460952Y-90534159D01*
X163451066Y-90545066D01*
X163440159Y-90554952D01*
X163428336Y-90563720D01*
X163415710Y-90571288D01*
X163402403Y-90577582D01*
X163388543Y-90582541D01*
X163374264Y-90586118D01*
X163359703Y-90588278D01*
X163345000Y-90589000D01*
X163045000Y-90589000D01*
X163030297Y-90588278D01*
X163015736Y-90586118D01*
X163001457Y-90582541D01*
X162987597Y-90577582D01*
X162974290Y-90571288D01*
X162961664Y-90563720D01*
X162949841Y-90554952D01*
X162938934Y-90545066D01*
X162929048Y-90534159D01*
X162920280Y-90522336D01*
X162912712Y-90509710D01*
X162906418Y-90496403D01*
X162901459Y-90482543D01*
X162897882Y-90468264D01*
X162895722Y-90453703D01*
X162895000Y-90439000D01*
X162895000Y-88689000D01*
X162895722Y-88674297D01*
X162897882Y-88659736D01*
X162901459Y-88645457D01*
X162906418Y-88631597D01*
X162912712Y-88618290D01*
X162920280Y-88605664D01*
X162929048Y-88593841D01*
X162938934Y-88582934D01*
X162949841Y-88573048D01*
X162961664Y-88564280D01*
X162974290Y-88556712D01*
X162987597Y-88550418D01*
X163001457Y-88545459D01*
X163015736Y-88541882D01*
X163030297Y-88539722D01*
X163045000Y-88539000D01*
X163345000Y-88539000D01*
X163359703Y-88539722D01*
X163359703Y-88539722D01*
G37*
D11*
X163195000Y-89564000D03*
D10*
G36*
X164629703Y-88539722D02*
G01*
X164644264Y-88541882D01*
X164658543Y-88545459D01*
X164672403Y-88550418D01*
X164685710Y-88556712D01*
X164698336Y-88564280D01*
X164710159Y-88573048D01*
X164721066Y-88582934D01*
X164730952Y-88593841D01*
X164739720Y-88605664D01*
X164747288Y-88618290D01*
X164753582Y-88631597D01*
X164758541Y-88645457D01*
X164762118Y-88659736D01*
X164764278Y-88674297D01*
X164765000Y-88689000D01*
X164765000Y-90439000D01*
X164764278Y-90453703D01*
X164762118Y-90468264D01*
X164758541Y-90482543D01*
X164753582Y-90496403D01*
X164747288Y-90509710D01*
X164739720Y-90522336D01*
X164730952Y-90534159D01*
X164721066Y-90545066D01*
X164710159Y-90554952D01*
X164698336Y-90563720D01*
X164685710Y-90571288D01*
X164672403Y-90577582D01*
X164658543Y-90582541D01*
X164644264Y-90586118D01*
X164629703Y-90588278D01*
X164615000Y-90589000D01*
X164315000Y-90589000D01*
X164300297Y-90588278D01*
X164285736Y-90586118D01*
X164271457Y-90582541D01*
X164257597Y-90577582D01*
X164244290Y-90571288D01*
X164231664Y-90563720D01*
X164219841Y-90554952D01*
X164208934Y-90545066D01*
X164199048Y-90534159D01*
X164190280Y-90522336D01*
X164182712Y-90509710D01*
X164176418Y-90496403D01*
X164171459Y-90482543D01*
X164167882Y-90468264D01*
X164165722Y-90453703D01*
X164165000Y-90439000D01*
X164165000Y-88689000D01*
X164165722Y-88674297D01*
X164167882Y-88659736D01*
X164171459Y-88645457D01*
X164176418Y-88631597D01*
X164182712Y-88618290D01*
X164190280Y-88605664D01*
X164199048Y-88593841D01*
X164208934Y-88582934D01*
X164219841Y-88573048D01*
X164231664Y-88564280D01*
X164244290Y-88556712D01*
X164257597Y-88550418D01*
X164271457Y-88545459D01*
X164285736Y-88541882D01*
X164300297Y-88539722D01*
X164315000Y-88539000D01*
X164615000Y-88539000D01*
X164629703Y-88539722D01*
X164629703Y-88539722D01*
G37*
D11*
X164465000Y-89564000D03*
D10*
G36*
X165899703Y-88539722D02*
G01*
X165914264Y-88541882D01*
X165928543Y-88545459D01*
X165942403Y-88550418D01*
X165955710Y-88556712D01*
X165968336Y-88564280D01*
X165980159Y-88573048D01*
X165991066Y-88582934D01*
X166000952Y-88593841D01*
X166009720Y-88605664D01*
X166017288Y-88618290D01*
X166023582Y-88631597D01*
X166028541Y-88645457D01*
X166032118Y-88659736D01*
X166034278Y-88674297D01*
X166035000Y-88689000D01*
X166035000Y-90439000D01*
X166034278Y-90453703D01*
X166032118Y-90468264D01*
X166028541Y-90482543D01*
X166023582Y-90496403D01*
X166017288Y-90509710D01*
X166009720Y-90522336D01*
X166000952Y-90534159D01*
X165991066Y-90545066D01*
X165980159Y-90554952D01*
X165968336Y-90563720D01*
X165955710Y-90571288D01*
X165942403Y-90577582D01*
X165928543Y-90582541D01*
X165914264Y-90586118D01*
X165899703Y-90588278D01*
X165885000Y-90589000D01*
X165585000Y-90589000D01*
X165570297Y-90588278D01*
X165555736Y-90586118D01*
X165541457Y-90582541D01*
X165527597Y-90577582D01*
X165514290Y-90571288D01*
X165501664Y-90563720D01*
X165489841Y-90554952D01*
X165478934Y-90545066D01*
X165469048Y-90534159D01*
X165460280Y-90522336D01*
X165452712Y-90509710D01*
X165446418Y-90496403D01*
X165441459Y-90482543D01*
X165437882Y-90468264D01*
X165435722Y-90453703D01*
X165435000Y-90439000D01*
X165435000Y-88689000D01*
X165435722Y-88674297D01*
X165437882Y-88659736D01*
X165441459Y-88645457D01*
X165446418Y-88631597D01*
X165452712Y-88618290D01*
X165460280Y-88605664D01*
X165469048Y-88593841D01*
X165478934Y-88582934D01*
X165489841Y-88573048D01*
X165501664Y-88564280D01*
X165514290Y-88556712D01*
X165527597Y-88550418D01*
X165541457Y-88545459D01*
X165555736Y-88541882D01*
X165570297Y-88539722D01*
X165585000Y-88539000D01*
X165885000Y-88539000D01*
X165899703Y-88539722D01*
X165899703Y-88539722D01*
G37*
D11*
X165735000Y-89564000D03*
D10*
G36*
X167169703Y-88539722D02*
G01*
X167184264Y-88541882D01*
X167198543Y-88545459D01*
X167212403Y-88550418D01*
X167225710Y-88556712D01*
X167238336Y-88564280D01*
X167250159Y-88573048D01*
X167261066Y-88582934D01*
X167270952Y-88593841D01*
X167279720Y-88605664D01*
X167287288Y-88618290D01*
X167293582Y-88631597D01*
X167298541Y-88645457D01*
X167302118Y-88659736D01*
X167304278Y-88674297D01*
X167305000Y-88689000D01*
X167305000Y-90439000D01*
X167304278Y-90453703D01*
X167302118Y-90468264D01*
X167298541Y-90482543D01*
X167293582Y-90496403D01*
X167287288Y-90509710D01*
X167279720Y-90522336D01*
X167270952Y-90534159D01*
X167261066Y-90545066D01*
X167250159Y-90554952D01*
X167238336Y-90563720D01*
X167225710Y-90571288D01*
X167212403Y-90577582D01*
X167198543Y-90582541D01*
X167184264Y-90586118D01*
X167169703Y-90588278D01*
X167155000Y-90589000D01*
X166855000Y-90589000D01*
X166840297Y-90588278D01*
X166825736Y-90586118D01*
X166811457Y-90582541D01*
X166797597Y-90577582D01*
X166784290Y-90571288D01*
X166771664Y-90563720D01*
X166759841Y-90554952D01*
X166748934Y-90545066D01*
X166739048Y-90534159D01*
X166730280Y-90522336D01*
X166722712Y-90509710D01*
X166716418Y-90496403D01*
X166711459Y-90482543D01*
X166707882Y-90468264D01*
X166705722Y-90453703D01*
X166705000Y-90439000D01*
X166705000Y-88689000D01*
X166705722Y-88674297D01*
X166707882Y-88659736D01*
X166711459Y-88645457D01*
X166716418Y-88631597D01*
X166722712Y-88618290D01*
X166730280Y-88605664D01*
X166739048Y-88593841D01*
X166748934Y-88582934D01*
X166759841Y-88573048D01*
X166771664Y-88564280D01*
X166784290Y-88556712D01*
X166797597Y-88550418D01*
X166811457Y-88545459D01*
X166825736Y-88541882D01*
X166840297Y-88539722D01*
X166855000Y-88539000D01*
X167155000Y-88539000D01*
X167169703Y-88539722D01*
X167169703Y-88539722D01*
G37*
D11*
X167005000Y-89564000D03*
D10*
G36*
X168439703Y-88539722D02*
G01*
X168454264Y-88541882D01*
X168468543Y-88545459D01*
X168482403Y-88550418D01*
X168495710Y-88556712D01*
X168508336Y-88564280D01*
X168520159Y-88573048D01*
X168531066Y-88582934D01*
X168540952Y-88593841D01*
X168549720Y-88605664D01*
X168557288Y-88618290D01*
X168563582Y-88631597D01*
X168568541Y-88645457D01*
X168572118Y-88659736D01*
X168574278Y-88674297D01*
X168575000Y-88689000D01*
X168575000Y-90439000D01*
X168574278Y-90453703D01*
X168572118Y-90468264D01*
X168568541Y-90482543D01*
X168563582Y-90496403D01*
X168557288Y-90509710D01*
X168549720Y-90522336D01*
X168540952Y-90534159D01*
X168531066Y-90545066D01*
X168520159Y-90554952D01*
X168508336Y-90563720D01*
X168495710Y-90571288D01*
X168482403Y-90577582D01*
X168468543Y-90582541D01*
X168454264Y-90586118D01*
X168439703Y-90588278D01*
X168425000Y-90589000D01*
X168125000Y-90589000D01*
X168110297Y-90588278D01*
X168095736Y-90586118D01*
X168081457Y-90582541D01*
X168067597Y-90577582D01*
X168054290Y-90571288D01*
X168041664Y-90563720D01*
X168029841Y-90554952D01*
X168018934Y-90545066D01*
X168009048Y-90534159D01*
X168000280Y-90522336D01*
X167992712Y-90509710D01*
X167986418Y-90496403D01*
X167981459Y-90482543D01*
X167977882Y-90468264D01*
X167975722Y-90453703D01*
X167975000Y-90439000D01*
X167975000Y-88689000D01*
X167975722Y-88674297D01*
X167977882Y-88659736D01*
X167981459Y-88645457D01*
X167986418Y-88631597D01*
X167992712Y-88618290D01*
X168000280Y-88605664D01*
X168009048Y-88593841D01*
X168018934Y-88582934D01*
X168029841Y-88573048D01*
X168041664Y-88564280D01*
X168054290Y-88556712D01*
X168067597Y-88550418D01*
X168081457Y-88545459D01*
X168095736Y-88541882D01*
X168110297Y-88539722D01*
X168125000Y-88539000D01*
X168425000Y-88539000D01*
X168439703Y-88539722D01*
X168439703Y-88539722D01*
G37*
D11*
X168275000Y-89564000D03*
D10*
G36*
X169709703Y-88539722D02*
G01*
X169724264Y-88541882D01*
X169738543Y-88545459D01*
X169752403Y-88550418D01*
X169765710Y-88556712D01*
X169778336Y-88564280D01*
X169790159Y-88573048D01*
X169801066Y-88582934D01*
X169810952Y-88593841D01*
X169819720Y-88605664D01*
X169827288Y-88618290D01*
X169833582Y-88631597D01*
X169838541Y-88645457D01*
X169842118Y-88659736D01*
X169844278Y-88674297D01*
X169845000Y-88689000D01*
X169845000Y-90439000D01*
X169844278Y-90453703D01*
X169842118Y-90468264D01*
X169838541Y-90482543D01*
X169833582Y-90496403D01*
X169827288Y-90509710D01*
X169819720Y-90522336D01*
X169810952Y-90534159D01*
X169801066Y-90545066D01*
X169790159Y-90554952D01*
X169778336Y-90563720D01*
X169765710Y-90571288D01*
X169752403Y-90577582D01*
X169738543Y-90582541D01*
X169724264Y-90586118D01*
X169709703Y-90588278D01*
X169695000Y-90589000D01*
X169395000Y-90589000D01*
X169380297Y-90588278D01*
X169365736Y-90586118D01*
X169351457Y-90582541D01*
X169337597Y-90577582D01*
X169324290Y-90571288D01*
X169311664Y-90563720D01*
X169299841Y-90554952D01*
X169288934Y-90545066D01*
X169279048Y-90534159D01*
X169270280Y-90522336D01*
X169262712Y-90509710D01*
X169256418Y-90496403D01*
X169251459Y-90482543D01*
X169247882Y-90468264D01*
X169245722Y-90453703D01*
X169245000Y-90439000D01*
X169245000Y-88689000D01*
X169245722Y-88674297D01*
X169247882Y-88659736D01*
X169251459Y-88645457D01*
X169256418Y-88631597D01*
X169262712Y-88618290D01*
X169270280Y-88605664D01*
X169279048Y-88593841D01*
X169288934Y-88582934D01*
X169299841Y-88573048D01*
X169311664Y-88564280D01*
X169324290Y-88556712D01*
X169337597Y-88550418D01*
X169351457Y-88545459D01*
X169365736Y-88541882D01*
X169380297Y-88539722D01*
X169395000Y-88539000D01*
X169695000Y-88539000D01*
X169709703Y-88539722D01*
X169709703Y-88539722D01*
G37*
D11*
X169545000Y-89564000D03*
M02*
